<svg id="Layer_1" data-name="Layer 1" xmlns="http://www.w3.org/2000/svg" viewBox="0 0 160 200"><defs><style>.cls-1{fill:#8dc641;}.cls-2{fill:#0c6a38;}.cls-3{fill:#070909;}</style></defs><rect class="cls-1" x="-3.03" y="-66.07" width="166.07" height="332.13"/><path class="cls-2" d="M57,36.72h-.14L48,41l-1.8-8.21L58.62,27h9V73.8H57Z"/><path class="cls-2" d="M83.1,73.8V67.17l6-5.4c10.3-9.21,15.27-14.47,15.34-19.94,0-3.82-2.23-6.84-7.63-6.84-4,0-7.56,2-10,3.81L83.67,31A25.65,25.65,0,0,1,98.94,26.2c10.65,0,16.42,6.19,16.42,14.69,0,7.85-5.62,14.11-12.46,20.16l-4.32,3.6v.15h17.71v9Z"/><path class="cls-3" d="M55.34,182.37a5.84,5.84,0,0,1-.56,2.62,5.38,5.38,0,0,1-1.51,1.89A6.47,6.47,0,0,1,51.05,188a9.29,9.29,0,0,1-2.73.38,9.48,9.48,0,0,1-1.82-.16,9.71,9.71,0,0,1-1.49-.39,6.52,6.52,0,0,1-1.07-.47,3.28,3.28,0,0,1-.63-.44,1.23,1.23,0,0,1-.27-.55,5.27,5.27,0,0,1-.08-1c0-.31,0-.56,0-.77a1.82,1.82,0,0,1,.1-.49.5.5,0,0,1,.17-.27.39.39,0,0,1,.26-.09,1.3,1.3,0,0,1,.58.25,9.6,9.6,0,0,0,1,.53,9,9,0,0,0,1.39.54,6.73,6.73,0,0,0,1.89.24,4.41,4.41,0,0,0,1.26-.17,2.69,2.69,0,0,0,.94-.48,2,2,0,0,0,.6-.76,2.53,2.53,0,0,0,.2-1,1.76,1.76,0,0,0-.35-1.1,3.53,3.53,0,0,0-.92-.83,10.11,10.11,0,0,0-1.28-.67l-1.48-.67a14,14,0,0,1-1.48-.79,6.27,6.27,0,0,1-1.28-1.07,4.91,4.91,0,0,1-.91-1.48,5.15,5.15,0,0,1-.36-2,5.37,5.37,0,0,1,.51-2.4,4.89,4.89,0,0,1,1.36-1.71,6,6,0,0,1,2-1,9,9,0,0,1,2.47-.34,8.78,8.78,0,0,1,1.35.11,9,9,0,0,1,1.26.28,6,6,0,0,1,1,.39,2.55,2.55,0,0,1,.6.37.78.78,0,0,1,.28.52,2.11,2.11,0,0,1,.06.42c0,.17,0,.38,0,.64s0,.52,0,.72a4.2,4.2,0,0,1-.07.48A.66.66,0,0,1,54,173a.36.36,0,0,1-.26.09,1.17,1.17,0,0,1-.51-.21c-.23-.14-.52-.28-.86-.45a10,10,0,0,0-1.19-.44,5.31,5.31,0,0,0-1.48-.19,3.61,3.61,0,0,0-1.1.15,2.25,2.25,0,0,0-.78.43,1.6,1.6,0,0,0-.47.65,2.15,2.15,0,0,0-.16.8,1.76,1.76,0,0,0,.35,1.09,3.2,3.2,0,0,0,.92.82,10,10,0,0,0,1.31.68c.49.21,1,.43,1.5.67a16.44,16.44,0,0,1,1.49.79,6.45,6.45,0,0,1,1.31,1.07,4.9,4.9,0,0,1,1.27,3.45Z"/><path class="cls-3" d="M65.8,186.27a4.89,4.89,0,0,1-.08,1,1.21,1.21,0,0,1-.21.48,1.19,1.19,0,0,1-.39.25,3.54,3.54,0,0,1-.6.19,7.27,7.27,0,0,1-.75.13c-.27,0-.54,0-.81,0a5.74,5.74,0,0,1-1.91-.28,3.1,3.1,0,0,1-1.33-.86,3.61,3.61,0,0,1-.78-1.45,8,8,0,0,1-.25-2.08V177H57.13a.46.46,0,0,1-.43-.34,3.22,3.22,0,0,1-.14-1.15c0-.29,0-.52,0-.72a1.82,1.82,0,0,1,.11-.46.58.58,0,0,1,.18-.24.47.47,0,0,1,.26-.08h1.55v-2.91a.5.5,0,0,1,.08-.27.71.71,0,0,1,.3-.19,1.88,1.88,0,0,1,.57-.12c.24,0,.53,0,.88,0s.67,0,.91,0a1.88,1.88,0,0,1,.56.12.66.66,0,0,1,.29.19.44.44,0,0,1,.09.27V174h2.84a.45.45,0,0,1,.26.08.58.58,0,0,1,.18.24,1.47,1.47,0,0,1,.11.46,4.92,4.92,0,0,1,0,.72,3.17,3.17,0,0,1-.15,1.15c-.1.23-.24.34-.42.34H62.37v6.14a3,3,0,0,0,.34,1.6,1.29,1.29,0,0,0,1.2.54,2.89,2.89,0,0,0,.53,0l.41-.12a2,2,0,0,0,.31-.12.68.68,0,0,1,.23-.05.37.37,0,0,1,.17.05.42.42,0,0,1,.12.21,2.42,2.42,0,0,1,.08.42A4.14,4.14,0,0,1,65.8,186.27Z"/><path class="cls-3" d="M79.3,187.6a.39.39,0,0,1-.14.32.94.94,0,0,1-.46.17,5.57,5.57,0,0,1-.93,0,5.68,5.68,0,0,1-1,0,.79.79,0,0,1-.43-.17.41.41,0,0,1-.12-.32v-1a5.87,5.87,0,0,1-1.84,1.35,5.37,5.37,0,0,1-2.29.48,6.5,6.5,0,0,1-1.92-.27,4.32,4.32,0,0,1-1.5-.8,3.55,3.55,0,0,1-1-1.33,4.41,4.41,0,0,1-.35-1.84,4.15,4.15,0,0,1,.44-2,3.57,3.57,0,0,1,1.34-1.39,6.39,6.39,0,0,1,2.2-.81,15.4,15.4,0,0,1,3.06-.27h1.28v-.79a4.32,4.32,0,0,0-.13-1.08,1.75,1.75,0,0,0-.41-.76,1.66,1.66,0,0,0-.76-.46,4,4,0,0,0-1.18-.15,6,6,0,0,0-1.65.21,11.06,11.06,0,0,0-1.28.45c-.37.17-.68.32-.93.46a1.43,1.43,0,0,1-.61.2.4.4,0,0,1-.28-.1.81.81,0,0,1-.21-.29,2.47,2.47,0,0,1-.12-.47,3.89,3.89,0,0,1,0-.62,2.62,2.62,0,0,1,.08-.71,1.07,1.07,0,0,1,.28-.48,2.6,2.6,0,0,1,.71-.47,8.8,8.8,0,0,1,1.2-.48,11.6,11.6,0,0,1,1.51-.35,9.18,9.18,0,0,1,1.67-.14,10,10,0,0,1,2.63.3,4.51,4.51,0,0,1,1.8.92,3.56,3.56,0,0,1,1,1.6,7.37,7.37,0,0,1,.32,2.33ZM75.69,182H74.28a7.35,7.35,0,0,0-1.52.13,3.08,3.08,0,0,0-1,.39,1.68,1.68,0,0,0-.58.64A2,2,0,0,0,71,184a1.66,1.66,0,0,0,.52,1.29,2.1,2.1,0,0,0,1.44.47,2.73,2.73,0,0,0,1.43-.4,5.92,5.92,0,0,0,1.33-1.16Z"/><path class="cls-3" d="M90.44,186.27a4.89,4.89,0,0,1-.08,1,1.07,1.07,0,0,1-.22.48,1,1,0,0,1-.38.25,4,4,0,0,1-.61.19,6.63,6.63,0,0,1-.74.13c-.27,0-.54,0-.81,0a5.74,5.74,0,0,1-1.91-.28,3,3,0,0,1-1.33-.86,3.61,3.61,0,0,1-.78-1.45,8,8,0,0,1-.25-2.08V177H81.77a.46.46,0,0,1-.43-.34,3.17,3.17,0,0,1-.15-1.15,6.89,6.89,0,0,1,0-.72,1.47,1.47,0,0,1,.11-.46.58.58,0,0,1,.18-.24.47.47,0,0,1,.26-.08h1.55v-2.91a.5.5,0,0,1,.08-.27.65.65,0,0,1,.3-.19,1.88,1.88,0,0,1,.57-.12c.24,0,.53,0,.88,0s.66,0,.9,0a1.88,1.88,0,0,1,.57.12.66.66,0,0,1,.29.19.44.44,0,0,1,.09.27V174h2.84a.47.47,0,0,1,.26.08.58.58,0,0,1,.18.24,1.47,1.47,0,0,1,.11.46,6.89,6.89,0,0,1,0,.72,3.17,3.17,0,0,1-.15,1.15c-.1.23-.24.34-.42.34H87v6.14a3,3,0,0,0,.34,1.6,1.29,1.29,0,0,0,1.2.54,2.7,2.7,0,0,0,.52,0l.42-.12.31-.12a.68.68,0,0,1,.23-.05.3.3,0,0,1,.16.05.36.36,0,0,1,.13.21,2.42,2.42,0,0,1,.08.42A5.73,5.73,0,0,1,90.44,186.27Z"/><path class="cls-3" d="M104.81,180.64a1.42,1.42,0,0,1-.3,1,1.1,1.1,0,0,1-.83.32h-8a5.55,5.55,0,0,0,.19,1.52,2.9,2.9,0,0,0,.63,1.16,2.85,2.85,0,0,0,1.12.72,4.62,4.62,0,0,0,1.63.25,9.59,9.59,0,0,0,3-.45c.35-.11.65-.21.88-.31a1.71,1.71,0,0,1,.57-.13.38.38,0,0,1,.22.05.35.35,0,0,1,.15.18,1.38,1.38,0,0,1,.08.37c0,.17,0,.37,0,.61s0,.4,0,.55a3.42,3.42,0,0,1-.05.39,1.25,1.25,0,0,1-.08.27,1.46,1.46,0,0,1-.16.21,1.79,1.79,0,0,1-.52.28,8.63,8.63,0,0,1-1.08.35,15.09,15.09,0,0,1-1.51.29,13,13,0,0,1-1.82.12,9.39,9.39,0,0,1-3-.44,5.28,5.28,0,0,1-2.19-1.33,5.44,5.44,0,0,1-1.31-2.26,10.48,10.48,0,0,1-.43-3.19,10.22,10.22,0,0,1,.45-3.14,6.51,6.51,0,0,1,1.32-2.37,5.56,5.56,0,0,1,2.1-1.49,8.14,8.14,0,0,1,5.59,0,5.07,5.07,0,0,1,1.92,1.34,5.47,5.47,0,0,1,1.1,2,9,9,0,0,1,.35,2.55Zm-3.58-1a3.8,3.8,0,0,0-.62-2.44,2.41,2.41,0,0,0-2.06-.89,2.61,2.61,0,0,0-1.22.27,2.41,2.41,0,0,0-.87.71,3.23,3.23,0,0,0-.52,1,5,5,0,0,0-.21,1.3Z"/><path class="cls-3" d="M117,183.87a4.38,4.38,0,0,1-.42,2,3.86,3.86,0,0,1-1.18,1.42,5.37,5.37,0,0,1-1.8.86,8.53,8.53,0,0,1-2.26.28,8,8,0,0,1-1.4-.11,8.41,8.41,0,0,1-1.19-.27,7.31,7.31,0,0,1-.88-.35,2.5,2.5,0,0,1-.51-.33,1,1,0,0,1-.25-.48,4,4,0,0,1-.09-1,6.13,6.13,0,0,1,0-.68,1.68,1.68,0,0,1,.09-.41.36.36,0,0,1,.15-.2.38.38,0,0,1,.22-.05,1.12,1.12,0,0,1,.47.18,8.15,8.15,0,0,0,.79.4,6.76,6.76,0,0,0,1.09.41,4.67,4.67,0,0,0,1.41.19,3.46,3.46,0,0,0,.89-.1,2.42,2.42,0,0,0,.67-.29,1.19,1.19,0,0,0,.43-.49,1.44,1.44,0,0,0,.15-.67,1.11,1.11,0,0,0-.27-.75,2.29,2.29,0,0,0-.72-.55,6.8,6.8,0,0,0-1-.44c-.38-.14-.76-.29-1.16-.46a8.78,8.78,0,0,1-1.15-.57,4.36,4.36,0,0,1-1-.79,3.69,3.69,0,0,1-.71-1.13,4.14,4.14,0,0,1-.27-1.58,4.08,4.08,0,0,1,.36-1.72,3.82,3.82,0,0,1,1.06-1.34,5.08,5.08,0,0,1,1.67-.87,7.64,7.64,0,0,1,2.22-.3,9.42,9.42,0,0,1,1.2.08c.38.06.73.14,1,.22a5.52,5.52,0,0,1,.8.29,3.25,3.25,0,0,1,.46.26,1,1,0,0,1,.2.22,1.46,1.46,0,0,1,.08.27,3,3,0,0,1,0,.38,4.39,4.39,0,0,1,0,.56,5.67,5.67,0,0,1,0,.65,1.71,1.71,0,0,1-.07.39.31.31,0,0,1-.14.2.46.46,0,0,1-.2,0,1,1,0,0,1-.41-.15,5.18,5.18,0,0,0-.7-.33,7.29,7.29,0,0,0-1-.33,4.68,4.68,0,0,0-1.25-.16,3.1,3.1,0,0,0-.86.11,1.53,1.53,0,0,0-.6.29,1.15,1.15,0,0,0-.35.45,1.26,1.26,0,0,0-.12.55,1.08,1.08,0,0,0,.28.76,2.66,2.66,0,0,0,.73.54,8.39,8.39,0,0,0,1,.44q.59.21,1.17.45a9,9,0,0,1,1.17.56,4.27,4.27,0,0,1,1,.79,3.81,3.81,0,0,1,.73,1.12A3.87,3.87,0,0,1,117,183.87Z"/></svg>