<svg id="Layer_1" data-name="Layer 1" xmlns="http://www.w3.org/2000/svg" viewBox="0 0 160 320"><defs><style>.cls-1{fill:#0c6a38;}.cls-2{fill:none;stroke:#fff;stroke-miterlimit:10;stroke-width:1.5px;}.cls-3{fill:#fff;}.cls-4{fill:#8dc641;}</style></defs><rect class="cls-1" x="-3.03" y="-6.07" width="166.07" height="332.13"/><path class="cls-2" d="M15.1,108.07V103.5L21,97.82C35,84.45,41.44,77.33,41.44,69c0-5.59-2.63-10.76-10.84-10.76-5,0-9.15,2.54-11.69,4.66l-2.37-5.25A24.47,24.47,0,0,1,32.12,52.1c11.77,0,16.77,8.13,16.77,16,0,10.16-7.37,18.38-19,29.55l-4.32,4.07v.17H50.24v6.18Z"/><path class="cls-2" d="M91.39,59.3h-21L68.27,73.44a29.37,29.37,0,0,1,4.49-.34,23,23,0,0,1,11.85,3c4.32,2.37,7.88,7.2,7.88,14.14C92.49,101,83.94,109,72,109a27.14,27.14,0,0,1-13.72-3.39l1.86-5.67A24.83,24.83,0,0,0,72,103c6.94,0,13-4.57,13-12,0-7-4.82-12.11-15.75-12.11a45.83,45.83,0,0,0-7.7.59L65.06,53H91.39Z"/><path class="cls-2" d="M104.59,51H112V78.52h.25c1.53-2.2,3.05-4.24,4.49-6.1L134.14,51h9.15L122.63,75.22l22.27,32.85h-8.73L117.46,80,112,86.31v21.76h-7.37Z"/><path class="cls-3" d="M16.66,208H31.18v2.92h-11v9H30.34v2.88H20.18V235H16.66Z"/><path class="cls-3" d="M47.9,230.33a32.48,32.48,0,0,0,.28,4.64H45l-.32-2.44h-.12a7.15,7.15,0,0,1-5.92,2.88,5.52,5.52,0,0,1-5.92-5.56c0-4.68,4.16-7.24,11.64-7.2v-.4c0-1.6-.44-4.52-4.4-4.48a9.33,9.33,0,0,0-5.08,1.44l-.8-2.36a12.54,12.54,0,0,1,6.4-1.68c6,0,7.4,4,7.4,7.92Zm-3.44-5.24c-3.84-.08-8.2.6-8.2,4.36a3.08,3.08,0,0,0,3.28,3.36,4.89,4.89,0,0,0,4.76-3.24,3.61,3.61,0,0,0,.16-1.12Z"/><path class="cls-3" d="M53.54,221.65c0-2.28,0-4.24-.16-6h3.08l.16,3.8h.12a5.85,5.85,0,0,1,5.4-4.24,7.17,7.17,0,0,1,1,.08v3.32a10,10,0,0,0-1.2-.08c-2.48,0-4.24,1.88-4.72,4.48a10.91,10.91,0,0,0-.12,1.64V235H53.54Z"/><path class="cls-3" d="M66.78,220.85c0-2-.08-3.64-.16-5.24H69.7l.16,3.12H70a6.69,6.69,0,0,1,6.12-3.56,5.71,5.71,0,0,1,5.44,3.88h.08a7.64,7.64,0,0,1,2.2-2.52,6.49,6.49,0,0,1,4.24-1.36c2.6,0,6.4,1.68,6.4,8.4V235H91V224c0-3.76-1.4-6-4.2-6a4.62,4.62,0,0,0-4.2,3.16,6.24,6.24,0,0,0-.28,1.76v12H78.9V223.33c0-3.08-1.36-5.28-4-5.28a5.25,5.25,0,0,0-4.64,5.24V235H66.78Z"/><path class="cls-3" d="M102.14,225.93c.08,4.72,3.08,6.68,6.6,6.68a12.59,12.59,0,0,0,5.36-1l.64,2.52a15.77,15.77,0,0,1-6.48,1.24c-5.92,0-9.52-4-9.52-9.76s3.48-10.44,9.12-10.44c6.32,0,8,5.56,8,9.12a8.58,8.58,0,0,1-.12,1.64Zm10.28-2.52c0-2.24-.92-5.72-4.84-5.72-3.6,0-5.12,3.28-5.4,5.72Z"/><path class="cls-3" d="M120.18,221.65c0-2.28,0-4.24-.16-6h3.08l.16,3.8h.12a5.85,5.85,0,0,1,5.4-4.24,7.17,7.17,0,0,1,1,.08v3.32a10,10,0,0,0-1.2-.08c-2.48,0-4.24,1.88-4.72,4.48a10.91,10.91,0,0,0-.12,1.64V235h-3.52Z"/><path class="cls-3" d="M132.78,231.37a9.94,9.94,0,0,0,4.68,1.36c2.52,0,3.72-1.24,3.72-2.88s-1-2.56-3.56-3.52c-3.52-1.28-5.16-3.2-5.16-5.48,0-3.12,2.56-5.68,6.68-5.68a9,9,0,0,1,4.72,1.2l-.84,2.52a7.92,7.92,0,0,0-4-1.12c-2.08,0-3.2,1.2-3.2,2.64,0,1.6,1.12,2.32,3.64,3.32,3.32,1.24,5.08,2.92,5.08,5.8,0,3.44-2.68,5.84-7.2,5.84a11,11,0,0,1-5.44-1.36Z"/><path class="cls-4" d="M24.34,258.38H17.43v6.43h7.73v1.93H15.1V248.9h9.67v1.93H17.43v5.64h6.91Z"/><path class="cls-4" d="M28.08,257.4c0-1.35-.06-2.41-.11-3.47h2l.11,2.07h.08a4.41,4.41,0,0,1,4.05-2.36,3.78,3.78,0,0,1,3.6,2.57h0a5,5,0,0,1,1.46-1.67,4.27,4.27,0,0,1,2.8-.9c1.72,0,4.24,1.11,4.24,5.56v7.54H44.12v-7.25c0-2.49-.93-4-2.78-4a3.05,3.05,0,0,0-2.78,2.1,4.27,4.27,0,0,0-.18,1.16v7.94H36.1V259c0-2-.9-3.5-2.67-3.5a3.22,3.22,0,0,0-2.89,2.33,3.33,3.33,0,0,0-.19,1.14v7.73H28.08Z"/><path class="cls-4" d="M50.16,258.11c0-1.64,0-3-.11-4.18h2.1l.13,2.2h0a5,5,0,0,1,4.53-2.49c3.12,0,5.45,2.62,5.45,6.51,0,4.61-2.83,6.88-5.82,6.88a4.48,4.48,0,0,1-4-2h0v7H50.16Zm2.33,3.42a3.69,3.69,0,0,0,.11,1,3.55,3.55,0,0,0,3.46,2.73c2.47,0,3.9-2,3.9-4.95,0-2.57-1.33-4.77-3.79-4.77a3.72,3.72,0,0,0-3.55,2.89,5.82,5.82,0,0,0-.13.92Z"/><path class="cls-4" d="M70.44,267c-3.44,0-6.14-2.54-6.14-6.59,0-4.29,2.83-6.8,6.35-6.8,3.68,0,6.17,2.67,6.17,6.56,0,4.77-3.31,6.83-6.35,6.83Zm.11-1.74c2.22,0,3.89-2.09,3.89-5,0-2.17-1.09-4.89-3.84-4.89s-3.92,2.54-3.92,5c0,2.81,1.59,4.93,3.84,4.93Z"/><path class="cls-4" d="M80.5,253.93l1.72,6.49c.35,1.43.69,2.78.93,4.1h.08c.29-1.3.72-2.67,1.14-4.08l2.09-6.51h2l2,6.41c.47,1.51.84,2.88,1.13,4.18h.08a38.92,38.92,0,0,1,1-4.16l1.83-6.43h2.3L92.6,266.74H90.48l-2-6.11a43.39,43.39,0,0,1-1.14-4.24h-.06a36.17,36.17,0,0,1-1.16,4.26l-2.07,6.09H82l-3.87-12.81Z"/><path class="cls-4" d="M100.12,260.76c.06,3.12,2,4.42,4.37,4.42a8.36,8.36,0,0,0,3.55-.66l.42,1.67a10.45,10.45,0,0,1-4.29.82c-3.91,0-6.3-2.62-6.3-6.46s2.31-6.91,6-6.91c4.18,0,5.27,3.68,5.27,6a5.92,5.92,0,0,1-.08,1.09Zm6.81-1.67c0-1.48-.61-3.78-3.21-3.78-2.38,0-3.38,2.17-3.57,3.78Z"/><path class="cls-4" d="M112.07,257.93c0-1.51,0-2.81-.11-4h2l.1,2.51h.08a3.89,3.89,0,0,1,3.58-2.8,6,6,0,0,1,.63.05v2.2a5.94,5.94,0,0,0-.79,0,3.27,3.27,0,0,0-3.13,3,7.78,7.78,0,0,0-.07,1.09v6.85h-2.33Z"/><path class="cls-4" d="M121.78,260.76c.06,3.12,2,4.42,4.37,4.42a8.36,8.36,0,0,0,3.55-.66l.42,1.67a10.45,10.45,0,0,1-4.29.82c-3.91,0-6.3-2.62-6.3-6.46s2.31-6.91,6-6.91c4.18,0,5.27,3.68,5.27,6a5.92,5.92,0,0,1-.08,1.09Zm6.81-1.67c0-1.48-.61-3.78-3.21-3.78-2.38,0-3.39,2.17-3.57,3.78Z"/><path class="cls-4" d="M144.79,248v15.48c0,1.14,0,2.44.11,3.31h-2.1l-.1-2.22h0A4.7,4.7,0,0,1,138.3,267c-3.09,0-5.5-2.62-5.5-6.51,0-4.29,2.65-6.88,5.74-6.88a4.28,4.28,0,0,1,3.87,1.93h.05V248Zm-2.33,11.2a4.34,4.34,0,0,0-.11-1,3.42,3.42,0,0,0-3.36-2.68c-2.41,0-3.84,2.12-3.84,4.93,0,2.62,1.3,4.76,3.79,4.76a3.51,3.51,0,0,0,3.41-2.8,3.67,3.67,0,0,0,.11-1Z"/></svg>