<svg id="Layer_1" data-name="Layer 1" xmlns="http://www.w3.org/2000/svg" viewBox="0 0 160 200"><defs><style>.cls-1{fill:#8dc641;}.cls-2{fill:#0c6a38;}.cls-3{fill:#070909;}</style></defs><rect class="cls-1" x="-3.03" y="-66.07" width="166.07" height="332.13"/><path class="cls-2" d="M23.18,63.14A24.76,24.76,0,0,0,34.05,66c5.69,0,8.57-2.73,8.57-6.19,0-4.68-4.61-6.77-9.36-6.77H28.8V45.21h4.25c3.67,0,8.28-1.44,8.28-5.4,0-2.81-2.24-4.9-6.92-4.9a20.81,20.81,0,0,0-9.72,2.81L22.46,29.8c2.81-1.8,8.35-3.53,14.47-3.53,9.94,0,15.49,5.26,15.49,11.67,0,5-2.81,8.93-8.57,10.87V49C49.46,50,54,54.21,54,60.4c0,8.21-7.27,14.26-19.15,14.26-6.05,0-11.17-1.58-13.9-3.24Z"/><path class="cls-2" d="M78.05,74.66c-12.1,0-17.43-10.87-17.5-24.12,0-13.61,5.69-24.27,17.78-24.27,12.46,0,17.43,11.17,17.43,24,0,14.4-5.83,24.41-17.64,24.41Zm.21-8.28c4.25,0,6.55-5.33,6.55-16,0-10.37-2.23-15.85-6.62-15.85-4.11,0-6.7,5.26-6.7,15.85-.07,10.8,2.52,16,6.7,16Z"/><path class="cls-2" d="M102.88,25.34h10.88V46.8h.14c1.08-1.88,2.23-3.6,3.38-5.33l10.95-16.13h13.54L125.71,46l16.85,27.87H129.81l-12-21L113.76,58V73.87H102.88Z"/><path class="cls-3" d="M48.4,159.53a.42.42,0,0,1-.1.26A.66.66,0,0,1,48,160a3.19,3.19,0,0,1-.59.12,7.86,7.86,0,0,1-.92,0,8.42,8.42,0,0,1-.95,0A2.75,2.75,0,0,1,45,160a.61.61,0,0,1-.31-.19.37.37,0,0,1-.1-.26v-7.66H37.45v7.66a.47.47,0,0,1-.08.26.66.66,0,0,1-.31.19,3,3,0,0,1-.59.12,8,8,0,0,1-.94,0,8.15,8.15,0,0,1-.93,0A3.19,3.19,0,0,1,34,160a.61.61,0,0,1-.31-.19.37.37,0,0,1-.1-.26v-17.9a.39.39,0,0,1,.1-.27.69.69,0,0,1,.31-.19,4.51,4.51,0,0,1,.59-.11,7.88,7.88,0,0,1,.93-.05,7.69,7.69,0,0,1,.94.05,4.21,4.21,0,0,1,.59.11.75.75,0,0,1,.31.19.5.5,0,0,1,.08.27v7h7.09v-7a.39.39,0,0,1,.1-.27.69.69,0,0,1,.31-.19,3.77,3.77,0,0,1,.58-.11,8.12,8.12,0,0,1,.95-.05,7.57,7.57,0,0,1,.92.05,4.51,4.51,0,0,1,.59.11.75.75,0,0,1,.31.19.45.45,0,0,1,.1.27Z"/><path class="cls-3" d="M64.38,152.64a1.42,1.42,0,0,1-.3,1,1.1,1.1,0,0,1-.83.32h-8a5.55,5.55,0,0,0,.19,1.52,3,3,0,0,0,.63,1.16,2.85,2.85,0,0,0,1.12.72,4.62,4.62,0,0,0,1.63.25,9.59,9.59,0,0,0,3-.45c.35-.11.65-.21.88-.31a1.71,1.71,0,0,1,.57-.13.38.38,0,0,1,.22.05.35.35,0,0,1,.15.18,1.07,1.07,0,0,1,.08.37c0,.17,0,.37,0,.61s0,.4,0,.55a3.42,3.42,0,0,1,0,.39,1.25,1.25,0,0,1-.08.27,1,1,0,0,1-.16.21,1.65,1.65,0,0,1-.52.28,8.63,8.63,0,0,1-1.08.35,14.56,14.56,0,0,1-1.51.29,13,13,0,0,1-1.82.12,9.39,9.39,0,0,1-3.05-.44,5.28,5.28,0,0,1-2.19-1.33A5.55,5.55,0,0,1,52,156.36a10.48,10.48,0,0,1-.43-3.19A10.22,10.22,0,0,1,52,150a6.51,6.51,0,0,1,1.32-2.37,5.56,5.56,0,0,1,2.1-1.49,7.3,7.3,0,0,1,2.79-.51,7.41,7.41,0,0,1,2.81.48,5.11,5.11,0,0,1,1.91,1.34,5.47,5.47,0,0,1,1.1,2,9,9,0,0,1,.35,2.55Zm-3.58-1a3.74,3.74,0,0,0-.62-2.44,2.41,2.41,0,0,0-2.06-.89,2.61,2.61,0,0,0-1.22.27,2.3,2.3,0,0,0-.86.71,3.24,3.24,0,0,0-.53,1,5,5,0,0,0-.21,1.3Z"/><path class="cls-3" d="M77.3,157.48c0,.25,0,.46,0,.63s0,.32-.06.44a2.34,2.34,0,0,1-.09.28,1,1,0,0,1-.23.28,3.5,3.5,0,0,1-.6.41,5.14,5.14,0,0,1-1,.43,7.67,7.67,0,0,1-1.17.31,7.65,7.65,0,0,1-4-.35,4.81,4.81,0,0,1-2-1.39,6,6,0,0,1-1.2-2.23,10.28,10.28,0,0,1-.4-3,10.45,10.45,0,0,1,.49-3.39,6.42,6.42,0,0,1,1.37-2.36,5.33,5.33,0,0,1,2.08-1.39,7.25,7.25,0,0,1,2.64-.46,7.34,7.34,0,0,1,1.15.1,8,8,0,0,1,1.05.28,5.54,5.54,0,0,1,.88.4,2.41,2.41,0,0,1,.55.38,2.08,2.08,0,0,1,.23.27,1.21,1.21,0,0,1,.1.29c0,.11,0,.26.06.43s0,.38,0,.62a3.27,3.27,0,0,1-.15,1.19c-.1.23-.22.35-.38.35a.92.92,0,0,1-.53-.21c-.18-.13-.4-.29-.66-.45a4.71,4.71,0,0,0-.9-.46,3.62,3.62,0,0,0-1.26-.2,2.51,2.51,0,0,0-2.2,1.11A5.66,5.66,0,0,0,70.4,153a8,8,0,0,0,.19,1.86,4,4,0,0,0,.56,1.35,2.36,2.36,0,0,0,.94.81,3,3,0,0,0,1.31.27,3.42,3.42,0,0,0,1.31-.22,5.37,5.37,0,0,0,1-.51c.27-.19.5-.35.69-.51a.81.81,0,0,1,.47-.22.32.32,0,0,1,.22.07.56.56,0,0,1,.14.27,3.94,3.94,0,0,1,.08.51C77.29,156.89,77.3,157.16,77.3,157.48Z"/><path class="cls-3" d="M87.7,158.27a4.89,4.89,0,0,1-.08,1,1.07,1.07,0,0,1-.22.48A1,1,0,0,1,87,160a3.54,3.54,0,0,1-.6.19,7.27,7.27,0,0,1-.75.13c-.27,0-.54,0-.81,0a5.74,5.74,0,0,1-1.91-.28,3,3,0,0,1-1.33-.86,3.61,3.61,0,0,1-.78-1.45,8,8,0,0,1-.25-2.08V149H79a.46.46,0,0,1-.43-.34,3.17,3.17,0,0,1-.15-1.15,6.89,6.89,0,0,1,0-.72,1.82,1.82,0,0,1,.11-.46.58.58,0,0,1,.18-.24A.47.47,0,0,1,79,146h1.55v-2.91a.5.5,0,0,1,.08-.27.71.71,0,0,1,.3-.19,1.88,1.88,0,0,1,.57-.12c.24,0,.53,0,.88,0s.67,0,.91,0a1.88,1.88,0,0,1,.56.12.66.66,0,0,1,.29.19.44.44,0,0,1,.09.27V146h2.84a.47.47,0,0,1,.26.08.58.58,0,0,1,.18.24,1.47,1.47,0,0,1,.11.46,4.92,4.92,0,0,1,0,.72,3.17,3.17,0,0,1-.15,1.15c-.1.23-.24.34-.42.34H84.27v6.14a3,3,0,0,0,.34,1.6,1.29,1.29,0,0,0,1.2.54,2.89,2.89,0,0,0,.53,0l.41-.12a2,2,0,0,0,.31-.12.68.68,0,0,1,.23-.05.37.37,0,0,1,.17.05.42.42,0,0,1,.12.21,2.42,2.42,0,0,1,.08.42A4.14,4.14,0,0,1,87.7,158.27Z"/><path class="cls-3" d="M101.2,159.6a.39.39,0,0,1-.14.32.94.94,0,0,1-.46.17,5.57,5.57,0,0,1-.93,0,5.68,5.68,0,0,1-1,0,.79.79,0,0,1-.43-.17.41.41,0,0,1-.12-.32v-1a5.87,5.87,0,0,1-1.84,1.35,5.37,5.37,0,0,1-2.29.48,6.5,6.5,0,0,1-1.92-.27,4.32,4.32,0,0,1-1.5-.8,3.55,3.55,0,0,1-1-1.33,4.41,4.41,0,0,1-.35-1.84,4.15,4.15,0,0,1,.44-2A3.61,3.61,0,0,1,91,152.77a6.53,6.53,0,0,1,2.21-.81,15.4,15.4,0,0,1,3.06-.27h1.28v-.79a4.32,4.32,0,0,0-.13-1.08,1.75,1.75,0,0,0-.41-.76,1.66,1.66,0,0,0-.76-.46,4,4,0,0,0-1.18-.15,6,6,0,0,0-1.65.21,11.06,11.06,0,0,0-1.28.45c-.37.17-.68.32-.93.46a1.43,1.43,0,0,1-.61.2.4.4,0,0,1-.28-.1.7.7,0,0,1-.21-.29,2.47,2.47,0,0,1-.12-.47,3.89,3.89,0,0,1,0-.62,2.62,2.62,0,0,1,.08-.71,1,1,0,0,1,.27-.48,2.87,2.87,0,0,1,.72-.47,8.8,8.8,0,0,1,1.2-.48,11.83,11.83,0,0,1,1.5-.35,9.37,9.37,0,0,1,1.68-.14,10,10,0,0,1,2.63.3,4.51,4.51,0,0,1,1.8.92,3.65,3.65,0,0,1,1,1.6,7.37,7.37,0,0,1,.32,2.33ZM97.59,154H96.18a7.35,7.35,0,0,0-1.52.13,3.08,3.08,0,0,0-1,.39,1.68,1.68,0,0,0-.58.64,2,2,0,0,0-.18.86,1.66,1.66,0,0,0,.52,1.29,2.1,2.1,0,0,0,1.44.47,2.73,2.73,0,0,0,1.43-.4,5.92,5.92,0,0,0,1.33-1.16Z"/><path class="cls-3" d="M113.27,147.71c0,.35,0,.64,0,.86a2.72,2.72,0,0,1-.08.53.47.47,0,0,1-.16.26.36.36,0,0,1-.24.08.65.65,0,0,1-.26-.06l-.33-.11-.4-.1a1.88,1.88,0,0,0-.49-.06,1.67,1.67,0,0,0-.61.13,2.34,2.34,0,0,0-.64.39,4.59,4.59,0,0,0-.69.7,10.27,10.27,0,0,0-.77,1.08v8.15a.37.37,0,0,1-.09.25.58.58,0,0,1-.3.19,2.91,2.91,0,0,1-.56.11c-.23,0-.53,0-.89,0s-.66,0-.9,0a2.91,2.91,0,0,1-.56-.11.62.62,0,0,1-.3-.19.37.37,0,0,1-.09-.25V146.49a.41.41,0,0,1,.07-.25.52.52,0,0,1,.27-.19,2.25,2.25,0,0,1,.49-.11q.3,0,.75,0t.78,0a1.92,1.92,0,0,1,.47.11.5.5,0,0,1,.25.19.41.41,0,0,1,.07.25v1.63a9.63,9.63,0,0,1,1-1.21,5.65,5.65,0,0,1,.86-.76,2.74,2.74,0,0,1,.82-.38,3.41,3.41,0,0,1,1.23-.09,4,4,0,0,1,.46.07l.41.12a.72.72,0,0,1,.25.14.36.36,0,0,1,.12.16,1.84,1.84,0,0,1,.07.24c0,.1,0,.26,0,.46S113.27,147.36,113.27,147.71Z"/><path class="cls-3" d="M127.28,152.64a1.42,1.42,0,0,1-.3,1,1.1,1.1,0,0,1-.83.32h-8a5.55,5.55,0,0,0,.19,1.52,3.17,3.17,0,0,0,.63,1.16,2.85,2.85,0,0,0,1.12.72,4.66,4.66,0,0,0,1.63.25,9.59,9.59,0,0,0,3-.45c.35-.11.65-.21.88-.31a1.71,1.71,0,0,1,.57-.13.38.38,0,0,1,.22.05.35.35,0,0,1,.15.18,1.07,1.07,0,0,1,.08.37,5.54,5.54,0,0,1,0,.61c0,.22,0,.4,0,.55a3.42,3.42,0,0,1-.05.39,1.25,1.25,0,0,1-.08.27,1,1,0,0,1-.16.21,1.65,1.65,0,0,1-.52.28,8.63,8.63,0,0,1-1.08.35,14.56,14.56,0,0,1-1.51.29,13,13,0,0,1-1.82.12,9.39,9.39,0,0,1-3.05-.44,5.28,5.28,0,0,1-2.19-1.33,5.55,5.55,0,0,1-1.31-2.26,10.48,10.48,0,0,1-.43-3.19,10.22,10.22,0,0,1,.45-3.14,6.51,6.51,0,0,1,1.32-2.37,5.56,5.56,0,0,1,2.1-1.49,7.3,7.3,0,0,1,2.79-.51,7.41,7.41,0,0,1,2.81.48,5.11,5.11,0,0,1,1.91,1.34,5.47,5.47,0,0,1,1.1,2,9,9,0,0,1,.35,2.55Zm-3.58-1a3.74,3.74,0,0,0-.62-2.44,2.41,2.41,0,0,0-2.06-.89,2.61,2.61,0,0,0-1.22.27,2.3,2.3,0,0,0-.86.71,3.24,3.24,0,0,0-.53,1,5.44,5.44,0,0,0-.21,1.3Z"/><path class="cls-3" d="M32,185.19c0,.24,0,.45,0,.62a3.71,3.71,0,0,1-.07.44,1.85,1.85,0,0,1-.11.31,1.42,1.42,0,0,1-.24.3,2.52,2.52,0,0,1-.62.43,7.13,7.13,0,0,1-1.13.51,9,9,0,0,1-1.52.4,10.68,10.68,0,0,1-5.37-.44A6.84,6.84,0,0,1,20.21,186a8.08,8.08,0,0,1-1.68-3,13.38,13.38,0,0,1-.59-4.16,13.16,13.16,0,0,1,.65-4.29,9,9,0,0,1,1.8-3.15,7.52,7.52,0,0,1,2.77-1.94,9.38,9.38,0,0,1,3.57-.66,8.26,8.26,0,0,1,1.52.14,8.72,8.72,0,0,1,1.36.34,6.4,6.4,0,0,1,1.12.49,3.54,3.54,0,0,1,.7.48,1.63,1.63,0,0,1,.27.33,1.16,1.16,0,0,1,.11.33,3,3,0,0,1,.07.49c0,.18,0,.41,0,.68s0,.55,0,.75a1.91,1.91,0,0,1-.1.5.68.68,0,0,1-.18.28.32.32,0,0,1-.23.09,1,1,0,0,1-.56-.26,8.26,8.26,0,0,0-.87-.57,7.19,7.19,0,0,0-1.27-.57,5.46,5.46,0,0,0-1.77-.26,4.38,4.38,0,0,0-2,.46,4.33,4.33,0,0,0-1.51,1.32,6.18,6.18,0,0,0-.95,2.07,11,11,0,0,0-.32,2.74,10.76,10.76,0,0,0,.35,2.9,5.55,5.55,0,0,0,1,2A3.94,3.94,0,0,0,25,184.71a5,5,0,0,0,2,.39,5.54,5.54,0,0,0,1.78-.25,7.06,7.06,0,0,0,1.28-.53,8.44,8.44,0,0,0,.88-.53,1.15,1.15,0,0,1,.53-.23.43.43,0,0,1,.24.06.41.41,0,0,1,.14.23,2.27,2.27,0,0,1,.09.49C32,184.55,32,184.83,32,185.19Z"/><path class="cls-3" d="M46.9,187.56a.41.41,0,0,1-.07.25.54.54,0,0,1-.26.19,2.14,2.14,0,0,1-.48.11c-.2,0-.45,0-.76,0s-.58,0-.78,0a2.14,2.14,0,0,1-.48-.11.48.48,0,0,1-.24-.19.41.41,0,0,1-.08-.25v-1.51a8.37,8.37,0,0,1-2.2,1.76,5,5,0,0,1-2.32.58A5.13,5.13,0,0,1,37,188a3.89,3.89,0,0,1-1.48-1.2,4.89,4.89,0,0,1-.8-1.76,11,11,0,0,1-.24-2.5v-8a.36.36,0,0,1,.08-.25.54.54,0,0,1,.29-.19,2.88,2.88,0,0,1,.57-.11c.24,0,.54,0,.89,0s.66,0,.89,0a2.76,2.76,0,0,1,.56.11.54.54,0,0,1,.3.19.37.37,0,0,1,.09.25v7.38a7.57,7.57,0,0,0,.13,1.57,2.82,2.82,0,0,0,.41.93,1.81,1.81,0,0,0,.69.6,2.1,2.1,0,0,0,1,.22,2.41,2.41,0,0,0,1.41-.52,8.38,8.38,0,0,0,1.52-1.49v-8.69a.41.41,0,0,1,.08-.25.54.54,0,0,1,.29-.19,2.88,2.88,0,0,1,.57-.11c.23,0,.53,0,.89,0s.66,0,.89,0a2.76,2.76,0,0,1,.56.11.54.54,0,0,1,.29.19.37.37,0,0,1,.09.25Z"/><path class="cls-3" d="M54.3,187.56a.37.37,0,0,1-.09.25.62.62,0,0,1-.3.19,2.91,2.91,0,0,1-.56.11q-.36,0-.9,0c-.36,0-.66,0-.89,0A2.91,2.91,0,0,1,51,188a.54.54,0,0,1-.3-.19.37.37,0,0,1-.09-.25V168.3a.44.44,0,0,1,.09-.27.6.6,0,0,1,.3-.2,2.82,2.82,0,0,1,.56-.12,7.31,7.31,0,0,1,.89,0,7.6,7.6,0,0,1,.9,0,2.82,2.82,0,0,1,.56.12.71.71,0,0,1,.3.2.44.44,0,0,1,.09.27Z"/><path class="cls-3" d="M70.73,174a1.11,1.11,0,0,1,.86.27,1.08,1.08,0,0,1,.24.76v12.54a.41.41,0,0,1-.08.25.62.62,0,0,1-.3.19,2.62,2.62,0,0,1-.56.11c-.24,0-.54,0-.89,0s-.66,0-.9,0a2.62,2.62,0,0,1-.56-.11.62.62,0,0,1-.3-.19.41.41,0,0,1-.08-.25V177H62.28v6.14a3,3,0,0,0,.34,1.6,1.29,1.29,0,0,0,1.2.54,2.81,2.81,0,0,0,.53,0l.42-.12.3-.12a.74.74,0,0,1,.23-.05.34.34,0,0,1,.17.05.42.42,0,0,1,.12.21,2.42,2.42,0,0,1,.08.42,4.14,4.14,0,0,1,0,.67,4.74,4.74,0,0,1-.07,1,1.18,1.18,0,0,1-.21.49A1.06,1.06,0,0,1,65,188a4,4,0,0,1-.61.19,7.27,7.27,0,0,1-.75.13c-.27,0-.54,0-.81,0a5.78,5.78,0,0,1-1.91-.28,3.1,3.1,0,0,1-1.33-.86,3.61,3.61,0,0,1-.78-1.45,8,8,0,0,1-.24-2.08V177H57a.46.46,0,0,1-.43-.34,3.46,3.46,0,0,1-.14-1.15c0-.29,0-.52,0-.72a1.82,1.82,0,0,1,.11-.46.52.52,0,0,1,.19-.24.44.44,0,0,1,.25-.08h1.56v-2.91a.43.43,0,0,1,.08-.27.61.61,0,0,1,.29-.19,1.88,1.88,0,0,1,.57-.12c.24,0,.54,0,.89,0s.66,0,.9,0a1.81,1.81,0,0,1,.56.12.61.61,0,0,1,.29.19.44.44,0,0,1,.09.27V174Zm1.4-3.92a2.1,2.1,0,0,1-.46,1.54A2.5,2.5,0,0,1,70,172a2.53,2.53,0,0,1-1.68-.41,2,2,0,0,1-.43-1.48,2.08,2.08,0,0,1,.45-1.54,2.43,2.43,0,0,1,1.69-.44,2.47,2.47,0,0,1,1.67.42A2,2,0,0,1,72.13,170.07Z"/><path class="cls-3" d="M87.57,174.48c0,.05,0,.1,0,.17l0,.23c0,.08,0,.18-.06.29s-.06.23-.09.36l-3.93,11.82a1.31,1.31,0,0,1-.2.41.84.84,0,0,1-.41.24,2.94,2.94,0,0,1-.77.11q-.5,0-1.29,0c-.51,0-.94,0-1.26,0a3.67,3.67,0,0,1-.77-.13.89.89,0,0,1-.41-.24,1.18,1.18,0,0,1-.19-.39l-3.93-11.82c-.06-.19-.1-.37-.14-.53s0-.26-.06-.33v-.19a.38.38,0,0,1,.08-.26.62.62,0,0,1,.28-.18,2,2,0,0,1,.57-.1q.36,0,.9,0t1,0a4,4,0,0,1,.58.1.57.57,0,0,1,.3.2,1.05,1.05,0,0,1,.15.3l3,9.59.09.37.09-.37,2.93-9.59a.7.7,0,0,1,.14-.3.57.57,0,0,1,.3-.2,3.7,3.7,0,0,1,.55-.1q.34,0,.9,0c.36,0,.65,0,.88,0a1.73,1.73,0,0,1,.54.1.54.54,0,0,1,.26.18A.45.45,0,0,1,87.57,174.48Z"/><path class="cls-3" d="M100.43,187.6a.37.37,0,0,1-.15.32.94.94,0,0,1-.46.17,5.57,5.57,0,0,1-.93,0,5.68,5.68,0,0,1-1,0,.82.82,0,0,1-.43-.17.41.41,0,0,1-.12-.32v-1a5.87,5.87,0,0,1-1.84,1.35,5.37,5.37,0,0,1-2.29.48,6.44,6.44,0,0,1-1.91-.27,4.36,4.36,0,0,1-1.51-.8,3.55,3.55,0,0,1-1-1.33,4.57,4.57,0,0,1-.35-1.84,4.15,4.15,0,0,1,.45-2,3.54,3.54,0,0,1,1.33-1.39,6.39,6.39,0,0,1,2.2-.81,15.4,15.4,0,0,1,3.06-.27h1.28v-.79a3.9,3.9,0,0,0-.13-1.08,1.75,1.75,0,0,0-.41-.76,1.66,1.66,0,0,0-.76-.46,3.94,3.94,0,0,0-1.18-.15,5.88,5.88,0,0,0-1.64.21,10.63,10.63,0,0,0-1.29.45c-.37.17-.68.32-.93.46a1.43,1.43,0,0,1-.6.2.43.43,0,0,1-.29-.1.79.79,0,0,1-.2-.29,1.88,1.88,0,0,1-.13-.47,4,4,0,0,1,0-.62,2.68,2.68,0,0,1,.07-.71,1.07,1.07,0,0,1,.28-.48,2.53,2.53,0,0,1,.72-.47,8.8,8.8,0,0,1,1.2-.48,11.83,11.83,0,0,1,1.5-.35,9.22,9.22,0,0,1,1.68-.14,10.07,10.07,0,0,1,2.63.3,4.53,4.53,0,0,1,1.79.92,3.56,3.56,0,0,1,1,1.6,7.36,7.36,0,0,1,.33,2.33ZM96.81,182H95.4a7.42,7.42,0,0,0-1.52.13,3.17,3.17,0,0,0-1,.39,1.65,1.65,0,0,0-.57.64,1.84,1.84,0,0,0-.19.86,1.69,1.69,0,0,0,.52,1.29,2.11,2.11,0,0,0,1.45.47,2.72,2.72,0,0,0,1.42-.4,5.71,5.71,0,0,0,1.33-1.16Z"/><path class="cls-3" d="M111.56,186.27a4.89,4.89,0,0,1-.08,1,1.08,1.08,0,0,1-.21.48,1.19,1.19,0,0,1-.39.25,3.54,3.54,0,0,1-.6.19,7.27,7.27,0,0,1-.75.13c-.27,0-.54,0-.81,0a5.78,5.78,0,0,1-1.91-.28,3.1,3.1,0,0,1-1.33-.86,3.61,3.61,0,0,1-.78-1.45,8,8,0,0,1-.24-2.08V177h-1.57a.46.46,0,0,1-.43-.34,3.46,3.46,0,0,1-.14-1.15c0-.29,0-.52,0-.72a1.82,1.82,0,0,1,.11-.46.52.52,0,0,1,.19-.24.44.44,0,0,1,.25-.08h1.56v-2.91a.43.43,0,0,1,.08-.27.61.61,0,0,1,.29-.19,1.88,1.88,0,0,1,.57-.12c.24,0,.54,0,.89,0s.66,0,.9,0a1.81,1.81,0,0,1,.56.12.61.61,0,0,1,.29.19.44.44,0,0,1,.09.27V174H111a.45.45,0,0,1,.26.08.58.58,0,0,1,.18.24,1.47,1.47,0,0,1,.11.46,4.92,4.92,0,0,1,0,.72,3.17,3.17,0,0,1-.15,1.15.45.45,0,0,1-.42.34h-2.86v6.14a3,3,0,0,0,.34,1.6,1.29,1.29,0,0,0,1.2.54,2.81,2.81,0,0,0,.53,0l.42-.12.3-.12a.74.74,0,0,1,.23-.05.37.37,0,0,1,.17.05.42.42,0,0,1,.12.21,2.42,2.42,0,0,1,.08.42A4.14,4.14,0,0,1,111.56,186.27Z"/><path class="cls-3" d="M125.93,180.64a1.42,1.42,0,0,1-.3,1,1.1,1.1,0,0,1-.83.32h-8a5.18,5.18,0,0,0,.2,1.52,2.9,2.9,0,0,0,.63,1.16,2.74,2.74,0,0,0,1.11.72,4.66,4.66,0,0,0,1.63.25,9.59,9.59,0,0,0,3-.45,8.51,8.51,0,0,0,.88-.31,1.71,1.71,0,0,1,.58-.13.4.4,0,0,1,.22.05.39.39,0,0,1,.14.18,1.07,1.07,0,0,1,.08.37,5.54,5.54,0,0,1,0,.61c0,.22,0,.4,0,.55a3.63,3.63,0,0,1,0,.39.85.85,0,0,1-.09.27,1,1,0,0,1-.16.21,1.65,1.65,0,0,1-.52.28,8.63,8.63,0,0,1-1.08.35,14.56,14.56,0,0,1-1.51.29,12.89,12.89,0,0,1-1.81.12A9.45,9.45,0,0,1,117,188a5.41,5.41,0,0,1-2.19-1.33,5.67,5.67,0,0,1-1.31-2.26,10.48,10.48,0,0,1-.43-3.19,10.22,10.22,0,0,1,.45-3.14,6.51,6.51,0,0,1,1.32-2.37,5.72,5.72,0,0,1,2.1-1.49,8.17,8.17,0,0,1,5.6,0,5.11,5.11,0,0,1,1.91,1.34,5.47,5.47,0,0,1,1.1,2,9,9,0,0,1,.35,2.55Zm-3.57-1a3.74,3.74,0,0,0-.63-2.44,2.4,2.4,0,0,0-2-.89,2.65,2.65,0,0,0-1.23.27,2.47,2.47,0,0,0-.86.71,3.24,3.24,0,0,0-.53,1,5.44,5.44,0,0,0-.21,1.3Z"/><path class="cls-3" d="M141.35,187.56a.45.45,0,0,1-.07.27.56.56,0,0,1-.25.18,1.32,1.32,0,0,1-.47.1c-.2,0-.45,0-.74,0a7.56,7.56,0,0,1-.76,0,1.44,1.44,0,0,1-.48-.1.6.6,0,0,1-.26-.18.4.4,0,0,1-.09-.27v-1.45a8.29,8.29,0,0,1-2.11,1.68,5.55,5.55,0,0,1-5,0,4.77,4.77,0,0,1-1.69-1.56,6.65,6.65,0,0,1-.94-2.29,12.3,12.3,0,0,1-.29-2.76,12,12,0,0,1,.37-3.13,7.15,7.15,0,0,1,1.09-2.38,4.93,4.93,0,0,1,1.79-1.51,5.5,5.5,0,0,1,2.46-.52,4.5,4.5,0,0,1,2,.44,7.09,7.09,0,0,1,1.77,1.31v-7.07a.45.45,0,0,1,.08-.26.58.58,0,0,1,.3-.2,2.21,2.21,0,0,1,.56-.13,7.31,7.31,0,0,1,.89,0,7.49,7.49,0,0,1,.9,0,2,2,0,0,1,.55.13.63.63,0,0,1,.3.2.38.38,0,0,1,.08.26Zm-3.66-8.73a8.11,8.11,0,0,0-1.51-1.53,2.56,2.56,0,0,0-1.52-.52,2.13,2.13,0,0,0-1.24.36,2.6,2.6,0,0,0-.83,1,4.93,4.93,0,0,0-.47,1.34A7.51,7.51,0,0,0,132,181a9.34,9.34,0,0,0,.13,1.6,5,5,0,0,0,.43,1.38,2.68,2.68,0,0,0,.8,1,2.09,2.09,0,0,0,1.26.36,2.33,2.33,0,0,0,.74-.11,2.6,2.6,0,0,0,.73-.36,4.75,4.75,0,0,0,.77-.65c.26-.27.55-.6.86-1Z"/></svg>