<svg id="Layer_1" data-name="Layer 1" xmlns="http://www.w3.org/2000/svg" viewBox="0 0 160 320"><defs><style>.cls-1{fill:#0c6a38;}.cls-2{fill:none;stroke:#fff;stroke-miterlimit:10;stroke-width:2px;}.cls-3{fill:#fff;}.cls-4{fill:#8dc641;}</style></defs><rect class="cls-1" x="-3.03" y="-6.07" width="166.07" height="332.13"/><path class="cls-2" d="M54.28,125V100.33H12.5V92.45l40.12-57.4H65.76V90.93H78.34v9.4H65.76V125Zm0-34v-30q0-7,.41-14.11h-.41c-2.77,5.26-5,9.13-7.47,13.28l-22,30.57v.28Z"/><path class="cls-2" d="M116.24,126.48c-17.57,0-29.6-16.46-29.88-46.2,0-30.3,13.14-46.76,31.4-46.76,18.81,0,29.74,16.88,29.74,45.51,0,30.57-11.48,47.45-31.12,47.45Zm.69-9.41c12.31,0,18.26-14.52,18.26-37.48,0-22.14-5.54-36.66-18.26-36.66-11.07,0-18.26,14.11-18.26,36.66-.28,23.37,6.92,37.48,18.12,37.48Z"/><path class="cls-3" d="M43.78,238.89a23.65,23.65,0,0,1-9.86,1.78c-10.53,0-18.4-6.65-18.4-18.9,0-11.69,7.93-19.55,19.51-19.55a21.38,21.38,0,0,1,8.86,1.6l-1.22,4a17.2,17.2,0,0,0-7.48-1.55c-8.75,0-14.57,5.6-14.57,15.35,0,9.14,5.26,15,14.29,15A19.42,19.42,0,0,0,42.84,235Z"/><path class="cls-3" d="M49.71,221.66c0-3.16-.06-5.87-.22-8.36h4.26l.22,5.26h.17a8.11,8.11,0,0,1,7.48-5.87,9.17,9.17,0,0,1,1.33.11v4.6a13,13,0,0,0-1.66-.11c-3.44,0-5.88,2.6-6.54,6.2a15.25,15.25,0,0,0-.17,2.27v14.35H49.71Z"/><path class="cls-3" d="M78.19,240.72c-7.21,0-12.86-5.32-12.86-13.79,0-9,5.93-14.24,13.3-14.24,7.7,0,12.91,5.59,12.91,13.74,0,10-6.93,14.29-13.3,14.29Zm.22-3.65c4.65,0,8.14-4.38,8.14-10.48,0-4.54-2.27-10.25-8-10.25s-8.2,5.32-8.2,10.42c0,5.87,3.32,10.31,8,10.31Z"/><path class="cls-3" d="M97.69,222.05c0-3.43,0-6.2-.22-8.75h4.38l.27,4.6h.11a10.35,10.35,0,0,1,9.48-5.21c6.54,0,11.41,5.48,11.41,13.63,0,9.64-5.93,14.4-12.19,14.4a9.32,9.32,0,0,1-8.25-4.21h-.11v14.57H97.69Zm4.88,7.15a7.69,7.69,0,0,0,.22,2,7.46,7.46,0,0,0,7.26,5.71c5.15,0,8.14-4.21,8.14-10.36,0-5.38-2.77-10-7.92-10a7.77,7.77,0,0,0-7.43,6,11.76,11.76,0,0,0-.27,1.94Z"/><path class="cls-3" d="M128.55,235.13A13.88,13.88,0,0,0,135,237c3.49,0,5.16-1.72,5.16-4s-1.39-3.55-4.93-4.88c-4.88-1.77-7.15-4.43-7.15-7.58,0-4.33,3.54-7.87,9.25-7.87a12.46,12.46,0,0,1,6.54,1.66l-1.16,3.49a11,11,0,0,0-5.49-1.55c-2.88,0-4.43,1.66-4.43,3.66,0,2.21,1.55,3.21,5,4.59,4.6,1.72,7,4.05,7,8,0,4.76-3.72,8.09-10,8.09a15.25,15.25,0,0,1-7.53-1.89Z"/><path class="cls-4" d="M31,276.76a13.3,13.3,0,0,1-5.54,1c-5.91,0-10.33-3.73-10.33-10.61,0-6.56,4.45-11,11-11a12,12,0,0,1,5,.9l-.68,2.24a9.74,9.74,0,0,0-4.2-.87c-4.92,0-8.18,3.14-8.18,8.62,0,5.13,3,8.4,8,8.4a10.87,10.87,0,0,0,4.45-.87Z"/><path class="cls-4" d="M46.52,273.3c0,1.59,0,3,.13,4.14H44.22L44.07,275H44a5.6,5.6,0,0,1-5,2.8c-2.37,0-5.2-1.33-5.2-6.59v-8.81h2.74v8.31c0,2.86.9,4.82,3.36,4.82A3.94,3.94,0,0,0,43.54,273a3.85,3.85,0,0,0,.25-1.4v-9.21h2.73Z"/><path class="cls-4" d="M51.06,255.35H53.8v22.09H51.06Z"/><path class="cls-4" d="M61.7,258.77v3.61h3.92v2.09H61.7v8.09c0,1.86.53,2.92,2.06,2.92a5.25,5.25,0,0,0,1.58-.18l.13,2.08a7.41,7.41,0,0,1-2.43.37,3.88,3.88,0,0,1-2.95-1.15,5.87,5.87,0,0,1-1.06-4v-8.18H56.69v-2.09H59v-2.77Z"/><path class="cls-4" d="M70,259.83a1.62,1.62,0,0,1-1.65-1.68A1.7,1.7,0,1,1,70,259.83ZM68.7,277.44V262.38h2.74v15.06Z"/><path class="cls-4" d="M77,262.38,80,270.81c.5,1.41.91,2.65,1.22,3.89h.09c.34-1.24.78-2.48,1.28-3.89l2.92-8.43h2.86l-5.91,15.06H79.84l-5.73-15.06Z"/><path class="cls-4" d="M101.43,273.83a24.54,24.54,0,0,0,.22,3.61H99.19l-.25-1.9h-.09a5.55,5.55,0,0,1-4.61,2.24,4.28,4.28,0,0,1-4.6-4.32c0-3.64,3.23-5.63,9-5.6v-.31c0-1.25-.34-3.52-3.42-3.49a7.28,7.28,0,0,0-4,1.12l-.63-1.83a9.75,9.75,0,0,1,5-1.31c4.64,0,5.76,3.14,5.76,6.16Zm-2.68-4.07c-3-.07-6.38.46-6.38,3.39a2.4,2.4,0,0,0,2.56,2.61,3.8,3.8,0,0,0,3.7-2.52,2.9,2.9,0,0,0,.12-.87Z"/><path class="cls-4" d="M109,258.77v3.61h3.92v2.09H109v8.09c0,1.86.53,2.92,2.05,2.92a5.33,5.33,0,0,0,1.59-.18l.12,2.08a7.41,7.41,0,0,1-2.43.37,3.88,3.88,0,0,1-2.95-1.15,5.87,5.87,0,0,1-1.06-4v-8.18H104v-2.09h2.33v-2.77Z"/><path class="cls-4" d="M117.35,270.41c.07,3.67,2.4,5.2,5.14,5.2a9.9,9.9,0,0,0,4.17-.78l.49,2a12.34,12.34,0,0,1-5,1c-4.6,0-7.4-3.08-7.4-7.59s2.71-8.12,7.09-8.12c4.92,0,6.19,4.33,6.19,7.1a6.91,6.91,0,0,1-.09,1.27Zm8-2c0-1.74-.72-4.45-3.76-4.45-2.8,0-4,2.55-4.2,4.45Z"/><path class="cls-4" d="M144.39,255.35v18.2c0,1.34,0,2.87.12,3.89h-2.45l-.13-2.61h-.06a5.52,5.52,0,0,1-5.1,2.95c-3.64,0-6.48-3.08-6.48-7.65,0-5,3.12-8.09,6.76-8.09a5,5,0,0,1,4.54,2.27h.06v-9Zm-2.74,13.16a5.25,5.25,0,0,0-.12-1.18,4,4,0,0,0-4-3.14c-2.83,0-4.51,2.49-4.51,5.79,0,3.07,1.53,5.6,4.45,5.6a4.16,4.16,0,0,0,4-3.3,4.56,4.56,0,0,0,.12-1.15Z"/></svg>