<svg id="Layer_1" data-name="Layer 1" xmlns="http://www.w3.org/2000/svg" viewBox="0 0 160 320"><defs><style>.cls-1{fill:#0c6a38;}.cls-2{fill:none;stroke:#fff;stroke-miterlimit:10;stroke-width:2px;}.cls-3{fill:#fff;}.cls-4{fill:#8dc641;}</style></defs><rect class="cls-1" x="-3.03" y="-6.07" width="166.07" height="332.13"/><path class="cls-2" d="M68.45,45.75H34.15l-3.46,23.1A47.74,47.74,0,0,1,38,68.3c7.06,0,13.83,1.52,19.37,4.84,7,3.87,12.86,11.75,12.86,23.1,0,17.56-14,30.7-33.47,30.7-9.82,0-18-2.76-22.41-5.53l3-9.27a40.37,40.37,0,0,0,19.37,5c11.34,0,21.3-7.47,21.16-19.64C57.94,86,50.06,77.7,32.21,77.7a75.34,75.34,0,0,0-12.58,1l5.81-43.16h43Z"/><path class="cls-2" d="M114.37,126.94c-17.57,0-29.6-16.46-29.88-46.2C84.49,50.45,97.63,34,115.89,34c18.81,0,29.74,16.88,29.74,45.51,0,30.57-11.48,47.44-31.12,47.44Zm.69-9.4c12.31,0,18.26-14.53,18.26-37.49,0-22.13-5.53-36.65-18.26-36.65C104,43.4,96.8,57.51,96.8,80.05c-.27,23.38,6.92,37.49,18.12,37.49Z"/><path class="cls-3" d="M14.67,203.82l-1.81,5.49H10.53l5.93-17.44h2.71l5.95,17.44h-2.4l-1.87-5.49Zm5.72-1.76-1.73-5c-.37-1.14-.63-2.17-.88-3.18H17.7c-.24,1-.52,2.1-.86,3.16l-1.7,5Z"/><path class="cls-3" d="M38,207.47c0,2.9-.6,4.63-1.79,5.75a6.89,6.89,0,0,1-4.58,1.5,8.09,8.09,0,0,1-4.16-1l.57-1.76a6.73,6.73,0,0,0,3.67,1c2.33,0,4-1.21,4-4.4v-1.37h0a4.45,4.45,0,0,1-4,2.1c-3.1,0-5.33-2.64-5.33-6.14,0-4.24,2.77-6.62,5.67-6.62A4.16,4.16,0,0,1,36,198.67H36l.07-1.89h2c-.07.88-.1,1.92-.1,3.42Zm-2.28-5.77a3,3,0,0,0-.13-1,3.24,3.24,0,0,0-3.18-2.43c-2.17,0-3.73,1.84-3.73,4.76,0,2.43,1.27,4.5,3.7,4.5a3.27,3.27,0,0,0,3.16-2.35,3.71,3.71,0,0,0,.18-1.22Z"/><path class="cls-3" d="M41.6,200.69c0-1.47,0-2.74-.1-3.91h2l.11,2.46h.07a3.79,3.79,0,0,1,3.5-2.74,4.1,4.1,0,0,1,.62.05v2.15a5.78,5.78,0,0,0-.78,0,3.19,3.19,0,0,0-3,2.89,7.37,7.37,0,0,0-.08,1.07v6.7H41.6Z"/><path class="cls-3" d="M51.25,194.66a1.41,1.41,0,1,1,1.45-1.4,1.36,1.36,0,0,1-1.45,1.4Zm-1.08,14.65V196.78h2.28v12.53Z"/><path class="cls-3" d="M56.22,200.87c0-1.6,0-2.9-.1-4.09h2l.13,2.15h.05a4.85,4.85,0,0,1,4.43-2.43c3,0,5.33,2.56,5.33,6.36,0,4.51-2.77,6.73-5.69,6.73a4.36,4.36,0,0,1-3.86-2h0v6.8H56.22Zm2.28,3.34a4,4,0,0,0,.1.93A3.49,3.49,0,0,0,62,207.81c2.41,0,3.81-2,3.81-4.84,0-2.51-1.3-4.66-3.7-4.66a3.63,3.63,0,0,0-3.47,2.82,5.54,5.54,0,0,0-.13.91Z"/><path class="cls-3" d="M70.94,200.69c0-1.47,0-2.74-.1-3.91h2l.11,2.46H73a3.79,3.79,0,0,1,3.5-2.74,4.1,4.1,0,0,1,.62.05v2.15a5.78,5.78,0,0,0-.78,0,3.19,3.19,0,0,0-3,2.89,7.37,7.37,0,0,0-.08,1.07v6.7H70.94Z"/><path class="cls-3" d="M80.44,203.46c0,3,2,4.32,4.27,4.32a8,8,0,0,0,3.47-.65l.41,1.63a10,10,0,0,1-4.19.81c-3.83,0-6.16-2.57-6.16-6.32s2.25-6.75,5.9-6.75c4.09,0,5.15,3.6,5.15,5.9a5.7,5.7,0,0,1-.08,1.06Zm6.65-1.63c0-1.45-.59-3.7-3.13-3.7-2.33,0-3.31,2.12-3.49,3.7Z"/><path class="cls-3" d="M92.11,200.17c0-1.32,0-2.35-.11-3.39h2l.13,2.05h0a4.64,4.64,0,0,1,4.14-2.33c1.74,0,4.43,1,4.43,5.33v7.48h-2.28v-7.22c0-2-.75-3.73-2.9-3.73a3.28,3.28,0,0,0-3,2.33,3.53,3.53,0,0,0-.15,1.06v7.56H92.11Z"/><path class="cls-3" d="M107.76,203.46c0,3,2,4.32,4.27,4.32a8,8,0,0,0,3.47-.65l.41,1.63a10,10,0,0,1-4.19.81c-3.83,0-6.16-2.57-6.16-6.32s2.25-6.75,5.9-6.75c4.09,0,5.15,3.6,5.15,5.9a5,5,0,0,1-.08,1.06Zm6.65-1.63c0-1.45-.59-3.7-3.13-3.7-2.33,0-3.31,2.12-3.49,3.7Z"/><path class="cls-3" d="M129.91,205.87c0,1.32,0,2.46.1,3.44h-2l-.13-2.05h-.05a4.69,4.69,0,0,1-4.15,2.33c-2,0-4.32-1.11-4.32-5.48v-7.33h2.28v6.91c0,2.38.75,4,2.8,4a3.29,3.29,0,0,0,3-2.09,3.14,3.14,0,0,0,.2-1.17v-7.66h2.28Z"/><path class="cls-3" d="M133.69,200.69c0-1.47,0-2.74-.11-3.91h2l.1,2.46h.08a3.78,3.78,0,0,1,3.49-2.74,4.1,4.1,0,0,1,.62.05v2.15a5.63,5.63,0,0,0-.77,0,3.19,3.19,0,0,0-3.06,2.89,7.37,7.37,0,0,0-.08,1.07v6.7h-2.27Z"/><path class="cls-3" d="M141.84,207a6.48,6.48,0,0,0,3,.88c1.63,0,2.41-.8,2.41-1.86s-.65-1.66-2.3-2.28c-2.28-.83-3.34-2.07-3.34-3.55,0-2,1.66-3.67,4.32-3.67a5.85,5.85,0,0,1,3.06.77l-.55,1.64a5.07,5.07,0,0,0-2.56-.73c-1.35,0-2.07.78-2.07,1.71s.72,1.5,2.35,2.15c2.15.8,3.29,1.89,3.29,3.75,0,2.22-1.73,3.78-4.66,3.78a7.12,7.12,0,0,1-3.52-.88Z"/><path class="cls-4" d="M26.63,246.43h-11v10.21H27.93v3.07H12V231.4H27.3v3.06H15.66v8.95h11Z"/><path class="cls-4" d="M32.55,244.88c0-2.14,0-3.82-.17-5.5h3.27l.21,3.32H36a7.54,7.54,0,0,1,6.72-3.79c2.81,0,7.18,1.69,7.18,8.66v12.14H46.16V248c0-3.28-1.22-6.05-4.71-6.05a5.35,5.35,0,0,0-5,3.78,5.71,5.71,0,0,0-.25,1.72v12.27H32.55Z"/><path class="cls-4" d="M70.18,254.84a34.19,34.19,0,0,0,.29,4.87H67.16l-.34-2.56h-.13a7.52,7.52,0,0,1-6.21,3c-4.12,0-6.22-2.9-6.22-5.84,0-4.91,4.37-7.6,12.22-7.56v-.42c0-1.68-.46-4.75-4.62-4.7a9.76,9.76,0,0,0-5.33,1.51l-.84-2.48a13.17,13.17,0,0,1,6.72-1.77c6.26,0,7.77,4.25,7.77,8.32Zm-3.61-5.51c-4-.08-8.61.63-8.61,4.58a3.23,3.23,0,0,0,3.44,3.53,5.14,5.14,0,0,0,5-3.4,4,4,0,0,0,.17-1.18Z"/><path class="cls-4" d="M76.1,229.88h3.7v12.73h.08a7.53,7.53,0,0,1,6.93-3.7c5,0,8.57,4.21,8.57,10.34,0,7.31-4.62,10.92-9.16,10.92a7.27,7.27,0,0,1-6.8-3.82h-.09l-.21,3.36H75.93c.13-1.39.17-3.45.17-5.25Zm3.7,21.68a7.26,7.26,0,0,0,.12,1.34,5.74,5.74,0,0,0,5.55,4.33c3.9,0,6.17-3.15,6.17-7.81,0-4.12-2.1-7.61-6-7.61A5.85,5.85,0,0,0,80,246.35a5.66,5.66,0,0,0-.21,1.56Z"/><path class="cls-4" d="M100,229.88h3.69v29.83H100Z"/><path class="cls-4" d="M112,250.21c.08,5,3.23,7,6.93,7a13.21,13.21,0,0,0,5.63-1.05l.67,2.65a16.69,16.69,0,0,1-6.8,1.3c-6.22,0-10-4.16-10-10.25s3.65-11,9.58-11c6.63,0,8.35,5.84,8.35,9.58a9.4,9.4,0,0,1-.12,1.72Zm10.79-2.64c0-2.35-1-6-5.08-6-3.78,0-5.38,3.45-5.67,6Z"/><path class="cls-4" d="M148.51,229.88v24.58c0,1.8,0,3.86.17,5.25h-3.32l-.17-3.53h-.08a7.46,7.46,0,0,1-6.89,4c-4.92,0-8.74-4.16-8.74-10.33,0-6.81,4.2-10.93,9.11-10.93,3.16,0,5.26,1.48,6.14,3.07h.08v-12.1Zm-3.7,17.77a6.62,6.62,0,0,0-.17-1.59,5.44,5.44,0,0,0-5.33-4.25c-3.82,0-6.09,3.36-6.09,7.82,0,4.16,2.06,7.56,6,7.56a5.59,5.59,0,0,0,5.42-4.45,5.78,5.78,0,0,0,.17-1.56Z"/></svg>