<svg id="Layer_1" data-name="Layer 1" xmlns="http://www.w3.org/2000/svg" viewBox="0 0 160 320"><defs><style>.cls-1{fill:#0c6a38;}.cls-2{fill:none;stroke:#fff;stroke-miterlimit:10;stroke-width:2px;}.cls-3{fill:#fff;}.cls-4{fill:#8dc641;}</style></defs><rect class="cls-1" x="-3.03" y="-6.07" width="166.07" height="332.13"/><path class="cls-2" d="M72.12,35.05v8L33,125H20.52L59.39,45.42v-.28h-44V35.05Z"/><path class="cls-2" d="M113.33,126.48c-17.56,0-29.6-16.46-29.87-46.2,0-30.3,13.14-46.76,31.39-46.76,18.82,0,29.74,16.88,29.74,45.51,0,30.57-11.48,47.45-31.12,47.45Zm.69-9.41c12.31,0,18.26-14.52,18.26-37.48,0-22.14-5.53-36.66-18.26-36.66C103,42.93,95.77,57,95.77,79.59c-.28,23.37,6.91,37.48,18.12,37.48Z"/><path class="cls-3" d="M16.12,197.11H45.34V203H23.2v18H43.65v5.8H23.2v24.55H16.12Z"/><path class="cls-3" d="M55.4,197.84a71.64,71.64,0,0,1,13.45-1.13c6.92,0,12,1.61,15.21,4.51a14.57,14.57,0,0,1,4.83,11.27c0,4.91-1.45,8.77-4.27,11.59-3.7,3.94-9.74,6-16.58,6a23.66,23.66,0,0,1-5.63-.49v21.82h-7Zm7,26a23.55,23.55,0,0,0,5.79.56c8.45,0,13.61-4.1,13.61-11.51,0-7.16-5.08-10.63-12.8-10.63a29.34,29.34,0,0,0-6.6.57Z"/><path class="cls-3" d="M119.4,252.25C105,252.25,95,241.14,95,224.72c0-17.22,10.62-28.49,25.11-28.49,14.89,0,24.47,11.35,24.47,27.45,0,18.59-11.35,28.57-25.11,28.57Zm.4-5.71c11.11,0,17.39-10.23,17.39-22.54,0-10.79-5.64-22.06-17.31-22.06s-17.47,10.87-17.47,22.62c0,11.43,6.28,22,17.31,22Z"/><path class="cls-4" d="M24.13,276.3a18.07,18.07,0,0,0,.16,2.67H22.47l-.19-1.41h-.06a4.11,4.11,0,0,1-3.41,1.66,3.17,3.17,0,0,1-3.4-3.2c0-2.69,2.39-4.16,6.69-4.14v-.23a2.28,2.28,0,0,0-2.53-2.57,5.34,5.34,0,0,0-2.92.82l-.46-1.35a7.17,7.17,0,0,1,3.68-1c3.43,0,4.26,2.32,4.26,4.55Zm-2-3c-2.21,0-4.72.35-4.72,2.51a1.77,1.77,0,0,0,1.89,1.93,2.8,2.8,0,0,0,2.73-1.86,2.08,2.08,0,0,0,.1-.64Z"/><path class="cls-4" d="M27.37,270.85c0-1.18,0-2.1-.09-3h1.79l.11,1.82h.05a4.13,4.13,0,0,1,3.68-2.07c1.54,0,3.93.92,3.93,4.74V279h-2v-6.42c0-1.79-.67-3.31-2.58-3.31a2.91,2.91,0,0,0-2.71,2.07,3,3,0,0,0-.14.94V279h-2Z"/><path class="cls-4" d="M49.75,262.64v13.45c0,1,0,2.12.09,2.88H48L47.93,277h0a4.06,4.06,0,0,1-3.77,2.19c-2.69,0-4.78-2.28-4.78-5.66,0-3.73,2.3-6,5-6a3.73,3.73,0,0,1,3.36,1.68h0v-6.62Zm-2,9.72a3.73,3.73,0,0,0-.09-.87,3,3,0,0,0-2.92-2.32c-2.09,0-3.34,1.84-3.34,4.28,0,2.27,1.13,4.14,3.29,4.14a3.07,3.07,0,0,0,3-2.44,3.17,3.17,0,0,0,.09-.85Z"/><path class="cls-4" d="M65.91,278.55a7.67,7.67,0,0,1-3.19.65c-3.36,0-5.55-2.28-5.55-5.69a5.68,5.68,0,0,1,6-5.93,6.35,6.35,0,0,1,2.81.6l-.46,1.54a5,5,0,0,0-2.35-.53c-2.55,0-3.93,1.91-3.93,4.21a3.81,3.81,0,0,0,3.86,4.16,5.74,5.74,0,0,0,2.49-.53Z"/><path class="cls-4" d="M72.68,279.22c-3,0-5.34-2.21-5.34-5.73,0-3.72,2.46-5.91,5.52-5.91s5.36,2.32,5.36,5.7c0,4.14-2.88,5.94-5.52,5.94Zm.09-1.52c1.93,0,3.38-1.82,3.38-4.35,0-1.88-.94-4.25-3.34-4.25s-3.4,2.21-3.4,4.32c0,2.44,1.38,4.28,3.33,4.28Z"/><path class="cls-4" d="M90.09,275.91c0,1.17,0,2.18.09,3.06h-1.8l-.11-1.82h0a4.14,4.14,0,0,1-3.68,2.07c-1.75,0-3.84-1-3.84-4.88v-6.51h2V274c0,2.11.66,3.56,2.48,3.56a2.86,2.86,0,0,0,2.85-2.9v-6.81h2Z"/><path class="cls-4" d="M93.44,270.85c0-1.18,0-2.1-.09-3h1.8l.11,1.82h0A4.13,4.13,0,0,1,99,267.58c1.54,0,3.93.92,3.93,4.74V279h-2v-6.42c0-1.79-.67-3.31-2.58-3.31a2.9,2.9,0,0,0-2.71,2.07,2.77,2.77,0,0,0-.14.94V279h-2Z"/><path class="cls-4" d="M108.55,265.17v2.66h2.9v1.54h-2.9v6c0,1.39.4,2.17,1.52,2.17a3.78,3.78,0,0,0,1.17-.14l.1,1.54a5.44,5.44,0,0,1-1.8.28,2.88,2.88,0,0,1-2.18-.86,4.34,4.34,0,0,1-.78-2.92v-6.05h-1.73v-1.54h1.73v-2Z"/><path class="cls-4" d="M114.69,266a1.2,1.2,0,0,1-1.21-1.24,1.25,1.25,0,1,1,1.24,1.24Zm-1,13V267.83h2V279Z"/><path class="cls-4" d="M119.11,270.85c0-1.18,0-2.1-.09-3h1.79l.12,1.82h0a4.14,4.14,0,0,1,3.68-2.07c1.54,0,3.94.92,3.94,4.74V279h-2v-6.42c0-1.79-.66-3.31-2.57-3.31a2.93,2.93,0,0,0-2.72,2.07,3,3,0,0,0-.14.94V279h-2Z"/><path class="cls-4" d="M141.4,277.33c0,2.58-.53,4.12-1.59,5.11a6.1,6.1,0,0,1-4.07,1.33,7.12,7.12,0,0,1-3.7-.92l.5-1.56a6.11,6.11,0,0,0,3.27.9c2.07,0,3.59-1.08,3.59-3.91v-1.22h-.05a4,4,0,0,1-3.54,1.86c-2.76,0-4.74-2.35-4.74-5.45,0-3.77,2.46-5.89,5-5.89a3.7,3.7,0,0,1,3.47,1.93h0l.07-1.68h1.79c-.07.79-.09,1.71-.09,3Zm-2-5.13a2.82,2.82,0,0,0-.11-.89,2.9,2.9,0,0,0-2.83-2.17c-1.93,0-3.31,1.64-3.31,4.24,0,2.16,1.12,4,3.29,4a2.9,2.9,0,0,0,2.8-2.09,3.27,3.27,0,0,0,.16-1.09Z"/></svg>