<svg id="Layer_1" data-name="Layer 1" xmlns="http://www.w3.org/2000/svg" viewBox="0 0 160 200"><defs><style>.cls-1{fill:#8dc641;}.cls-2{fill:#0c6a38;}.cls-3{fill:#070909;}</style></defs><rect class="cls-1" x="-3.03" y="-66.07" width="166.07" height="332.13"/><path class="cls-2" d="M76.62,26.6v6.84l-19.3,40H45.73L65,35.74V35.6H43.57v-9Z"/><path class="cls-2" d="M99.87,74.19c-12.09,0-17.42-10.87-17.49-24.12,0-13.61,5.68-24.26,17.78-24.26,12.46,0,17.43,11.16,17.43,24,0,14.41-5.83,24.41-17.64,24.41Zm.22-8.28c4.25,0,6.55-5.32,6.55-16,0-10.37-2.23-15.84-6.62-15.84-4.11,0-6.7,5.25-6.7,15.84-.07,10.8,2.52,16,6.7,16Z"/><path class="cls-3" d="M47.18,178.3a13,13,0,0,1-.68,4.46,7.58,7.58,0,0,1-2,3,7.91,7.91,0,0,1-3.09,1.72,15.45,15.45,0,0,1-4.35.55H32.58a1.21,1.21,0,0,1-.82-.29,1.17,1.17,0,0,1-.33-.93V170.32a1.17,1.17,0,0,1,.33-.93,1.21,1.21,0,0,1,.82-.29h4.86a13.78,13.78,0,0,1,4.3.59,7.85,7.85,0,0,1,3,1.76,7.55,7.55,0,0,1,1.84,2.88A11.48,11.48,0,0,1,47.18,178.3Zm-4,.13a9.45,9.45,0,0,0-.32-2.5,5.44,5.44,0,0,0-1-2,4.53,4.53,0,0,0-1.79-1.32,7.15,7.15,0,0,0-2.86-.48H35.27V185h2a7.63,7.63,0,0,0,2.66-.41,4.38,4.38,0,0,0,1.81-1.24,5.27,5.27,0,0,0,1.09-2.06A10.23,10.23,0,0,0,43.2,178.43Z"/><path class="cls-3" d="M54.09,170.07a2.1,2.1,0,0,1-.45,1.54A2.5,2.5,0,0,1,52,172a2.53,2.53,0,0,1-1.68-.41,2,2,0,0,1-.43-1.48,2.08,2.08,0,0,1,.44-1.54,2.46,2.46,0,0,1,1.7-.44,2.42,2.42,0,0,1,1.66.42A2,2,0,0,1,54.09,170.07Zm-.27,17.49a.37.37,0,0,1-.09.25.62.62,0,0,1-.3.19,2.88,2.88,0,0,1-.57.11c-.23,0-.53,0-.89,0s-.66,0-.89,0a2.88,2.88,0,0,1-.57-.11.62.62,0,0,1-.3-.19.37.37,0,0,1-.09-.25v-13a.37.37,0,0,1,.09-.25.71.71,0,0,1,.3-.2,2.78,2.78,0,0,1,.57-.12,9.92,9.92,0,0,1,1.78,0,2.78,2.78,0,0,1,.57.12.71.71,0,0,1,.3.2.37.37,0,0,1,.09.25Z"/><path class="cls-3" d="M66.69,183.87a4.38,4.38,0,0,1-.42,2,3.84,3.84,0,0,1-1.17,1.42,5.33,5.33,0,0,1-1.81.86,8.46,8.46,0,0,1-2.25.28,7.87,7.87,0,0,1-1.4-.11,8.57,8.57,0,0,1-1.2-.27,6.5,6.5,0,0,1-.87-.35,2.35,2.35,0,0,1-.52-.33,1.08,1.08,0,0,1-.25-.48,4.71,4.71,0,0,1-.08-1,6.13,6.13,0,0,1,0-.68,1.74,1.74,0,0,1,.08-.41.36.36,0,0,1,.15-.2.38.38,0,0,1,.22-.05,1.1,1.1,0,0,1,.48.18c.21.12.47.26.78.4a7.13,7.13,0,0,0,1.09.41,4.76,4.76,0,0,0,1.41.19,3.41,3.41,0,0,0,.89-.1,2.42,2.42,0,0,0,.67-.29,1.29,1.29,0,0,0,.44-.49,1.57,1.57,0,0,0,.14-.67,1.11,1.11,0,0,0-.27-.75,2.29,2.29,0,0,0-.72-.55,6.37,6.37,0,0,0-1-.44c-.37-.14-.76-.29-1.15-.46a8.31,8.31,0,0,1-1.16-.57,4.3,4.3,0,0,1-1-.79,3.53,3.53,0,0,1-.72-1.13,4.14,4.14,0,0,1-.27-1.58,3.94,3.94,0,0,1,.37-1.72,3.69,3.69,0,0,1,1.05-1.34,5.13,5.13,0,0,1,1.68-.87,7.64,7.64,0,0,1,2.22-.3,9.26,9.26,0,0,1,1.19.08,10.64,10.64,0,0,1,1,.22,5.82,5.82,0,0,1,.79.29,2.75,2.75,0,0,1,.46.26,1,1,0,0,1,.2.22,1,1,0,0,1,.09.27c0,.1,0,.23,0,.38s0,.34,0,.56,0,.48,0,.65a1.66,1.66,0,0,1-.08.39.35.35,0,0,1-.13.2.46.46,0,0,1-.21,0,1,1,0,0,1-.41-.15,5.18,5.18,0,0,0-.7-.33,7.12,7.12,0,0,0-1-.33,4.82,4.82,0,0,0-1.26-.16,3.1,3.1,0,0,0-.86.11,1.68,1.68,0,0,0-.6.29,1.25,1.25,0,0,0-.35.45,1.26,1.26,0,0,0-.12.55,1.08,1.08,0,0,0,.28.76,2.66,2.66,0,0,0,.73.54,8.39,8.39,0,0,0,1,.44l1.18.45a10.37,10.37,0,0,1,1.17.56,4.41,4.41,0,0,1,1,.79,3.62,3.62,0,0,1,.73,1.12A3.87,3.87,0,0,1,66.69,183.87Z"/><path class="cls-3" d="M76.86,186.27a4.89,4.89,0,0,1-.08,1,1.21,1.21,0,0,1-.21.48,1.19,1.19,0,0,1-.39.25,3.54,3.54,0,0,1-.6.19,7.27,7.27,0,0,1-.75.13c-.27,0-.54,0-.81,0a5.74,5.74,0,0,1-1.91-.28,3,3,0,0,1-1.33-.86,3.61,3.61,0,0,1-.78-1.45,8,8,0,0,1-.25-2.08V177H68.19a.46.46,0,0,1-.43-.34,3.17,3.17,0,0,1-.15-1.15,6.89,6.89,0,0,1,0-.72,1.82,1.82,0,0,1,.11-.46.58.58,0,0,1,.18-.24.47.47,0,0,1,.26-.08h1.55v-2.91a.5.5,0,0,1,.08-.27.71.71,0,0,1,.3-.19,1.88,1.88,0,0,1,.57-.12c.24,0,.53,0,.88,0s.67,0,.91,0a1.88,1.88,0,0,1,.56.12.66.66,0,0,1,.29.19.44.44,0,0,1,.09.27V174h2.84a.45.45,0,0,1,.26.08.58.58,0,0,1,.18.24,1.47,1.47,0,0,1,.11.46,4.92,4.92,0,0,1,0,.72,3.17,3.17,0,0,1-.15,1.15c-.1.23-.24.34-.42.34H73.43v6.14a3,3,0,0,0,.34,1.6,1.29,1.29,0,0,0,1.2.54,2.89,2.89,0,0,0,.53,0l.41-.12a2,2,0,0,0,.31-.12.68.68,0,0,1,.23-.05.37.37,0,0,1,.17.05.42.42,0,0,1,.12.21,2.42,2.42,0,0,1,.08.42A4.14,4.14,0,0,1,76.86,186.27Z"/><path class="cls-3" d="M87.92,175.71c0,.35,0,.64,0,.86a2.6,2.6,0,0,1-.09.53.52.52,0,0,1-.15.26.41.41,0,0,1-.25.08.73.73,0,0,1-.26-.06l-.33-.11-.4-.1a1.86,1.86,0,0,0-.48-.06,1.72,1.72,0,0,0-.62.13,2.5,2.5,0,0,0-.64.39,4.59,4.59,0,0,0-.69.7,10.33,10.33,0,0,0-.76,1.08v8.15a.37.37,0,0,1-.09.25.62.62,0,0,1-.3.19,2.88,2.88,0,0,1-.57.11c-.23,0-.53,0-.89,0s-.66,0-.89,0a2.88,2.88,0,0,1-.57-.11.62.62,0,0,1-.3-.19.37.37,0,0,1-.09-.25V174.49a.41.41,0,0,1,.08-.25.49.49,0,0,1,.26-.19,2.4,2.4,0,0,1,.49-.11c.2,0,.45,0,.76,0s.57,0,.77,0a1.9,1.9,0,0,1,.48.11.52.52,0,0,1,.24.19.41.41,0,0,1,.07.25v1.63a11.85,11.85,0,0,1,1-1.21,5.65,5.65,0,0,1,.86-.76,2.86,2.86,0,0,1,.82-.38,3,3,0,0,1,.83-.11,3,3,0,0,1,.41,0,4.14,4.14,0,0,1,.45.07l.41.12a.78.78,0,0,1,.26.14.42.42,0,0,1,.11.16,1,1,0,0,1,.07.24,3.72,3.72,0,0,1,0,.46C87.91,175.08,87.92,175.36,87.92,175.71Z"/><path class="cls-3" d="M94.16,170.07a2.05,2.05,0,0,1-.46,1.54A2.5,2.5,0,0,1,92,172a2.53,2.53,0,0,1-1.68-.41,2,2,0,0,1-.43-1.48,2.08,2.08,0,0,1,.45-1.54,3.5,3.5,0,0,1,3.36,0A2,2,0,0,1,94.16,170.07Zm-.28,17.49a.37.37,0,0,1-.09.25.62.62,0,0,1-.3.19,2.91,2.91,0,0,1-.56.11q-.36,0-.9,0c-.36,0-.66,0-.89,0a2.91,2.91,0,0,1-.56-.11.54.54,0,0,1-.3-.19.37.37,0,0,1-.09-.25v-13a.37.37,0,0,1,.09-.25.6.6,0,0,1,.3-.2,2.82,2.82,0,0,1,.56-.12,7.31,7.31,0,0,1,.89,0,7.6,7.6,0,0,1,.9,0,2.82,2.82,0,0,1,.56.12.71.71,0,0,1,.3.2.37.37,0,0,1,.09.25Z"/><path class="cls-3" d="M107.44,185.48a5.83,5.83,0,0,1,0,.63,2.34,2.34,0,0,1-.06.44,1.36,1.36,0,0,1-.08.28,1,1,0,0,1-.23.28,3.5,3.5,0,0,1-.6.41,5.78,5.78,0,0,1-1,.43,7.51,7.51,0,0,1-1.18.31,7,7,0,0,1-1.31.12,7.15,7.15,0,0,1-2.67-.47,4.92,4.92,0,0,1-2-1.39,6,6,0,0,1-1.19-2.23,10.28,10.28,0,0,1-.4-3,10.45,10.45,0,0,1,.49-3.39,6.28,6.28,0,0,1,1.37-2.36,5.26,5.26,0,0,1,2.08-1.39,7.39,7.39,0,0,1,3.78-.36,7.79,7.79,0,0,1,1.06.28,6,6,0,0,1,.88.4,2.66,2.66,0,0,1,.55.38,1.87,1.87,0,0,1,.22.27.7.7,0,0,1,.1.29,2.22,2.22,0,0,1,.06.43,5.46,5.46,0,0,1,0,.62,3.27,3.27,0,0,1-.15,1.19c-.1.23-.23.35-.38.35a.9.9,0,0,1-.53-.21c-.18-.13-.4-.29-.66-.45a4.82,4.82,0,0,0-.91-.46,3.62,3.62,0,0,0-1.26-.2,2.49,2.49,0,0,0-2.19,1.11,5.65,5.65,0,0,0-.77,3.24,8,8,0,0,0,.2,1.86,3.79,3.79,0,0,0,.56,1.35,2.36,2.36,0,0,0,.94.81,3,3,0,0,0,1.31.27,3.49,3.49,0,0,0,1.31-.22,6.15,6.15,0,0,0,1-.51c.27-.19.5-.35.69-.51a.79.79,0,0,1,.47-.22.3.3,0,0,1,.21.07.49.49,0,0,1,.14.27,2.74,2.74,0,0,1,.08.51C107.43,184.89,107.44,185.16,107.44,185.48Z"/><path class="cls-3" d="M117.84,186.27a4.25,4.25,0,0,1-.08,1,1,1,0,0,1-.21.48,1.19,1.19,0,0,1-.39.25,3.54,3.54,0,0,1-.6.19c-.23,0-.48.1-.74.13s-.54,0-.82,0a5.68,5.68,0,0,1-1.9-.28,3,3,0,0,1-1.33-.86,3.38,3.38,0,0,1-.78-1.45,7.55,7.55,0,0,1-.25-2.08V177h-1.57a.45.45,0,0,1-.42-.34,3.17,3.17,0,0,1-.15-1.15,4.92,4.92,0,0,1,0-.72,1.47,1.47,0,0,1,.11-.46.58.58,0,0,1,.18-.24.45.45,0,0,1,.26-.08h1.55v-2.91a.5.5,0,0,1,.08-.27.61.61,0,0,1,.29-.19,1.88,1.88,0,0,1,.57-.12c.24,0,.54,0,.89,0s.66,0,.9,0a1.88,1.88,0,0,1,.57.12.73.73,0,0,1,.29.19.44.44,0,0,1,.09.27V174h2.84a.41.41,0,0,1,.25.08.52.52,0,0,1,.19.24,1.82,1.82,0,0,1,.11.46c0,.2,0,.43,0,.72a3.22,3.22,0,0,1-.14,1.15.46.46,0,0,1-.43.34h-2.85v6.14a3.08,3.08,0,0,0,.33,1.6,1.31,1.31,0,0,0,1.2.54,2.73,2.73,0,0,0,.53,0l.42-.12.31-.12a.68.68,0,0,1,.22-.05.34.34,0,0,1,.17.05.36.36,0,0,1,.13.21,4,4,0,0,1,.08.42A6.06,6.06,0,0,1,117.84,186.27Z"/><path class="cls-3" d="M129.71,183.87a4.38,4.38,0,0,1-.42,2,3.86,3.86,0,0,1-1.18,1.42,5.28,5.28,0,0,1-1.8.86,8.46,8.46,0,0,1-2.25.28,7.87,7.87,0,0,1-1.4-.11,8.26,8.26,0,0,1-1.2-.27,7.31,7.31,0,0,1-.88-.35,2.5,2.5,0,0,1-.51-.33,1,1,0,0,1-.25-.48,4,4,0,0,1-.09-1,6.13,6.13,0,0,1,0-.68,1.68,1.68,0,0,1,.09-.41.36.36,0,0,1,.15-.2.38.38,0,0,1,.22-.05,1.12,1.12,0,0,1,.47.18,8.15,8.15,0,0,0,.79.4,6.76,6.76,0,0,0,1.09.41,4.67,4.67,0,0,0,1.41.19,3.46,3.46,0,0,0,.89-.1,2.42,2.42,0,0,0,.67-.29,1.19,1.19,0,0,0,.43-.49,1.44,1.44,0,0,0,.15-.67,1.11,1.11,0,0,0-.27-.75,2.29,2.29,0,0,0-.72-.55,6.8,6.8,0,0,0-1-.44c-.37-.14-.76-.29-1.16-.46a8.78,8.78,0,0,1-1.15-.57,4.11,4.11,0,0,1-1-.79,3.53,3.53,0,0,1-.72-1.13,4.14,4.14,0,0,1-.27-1.58,4.08,4.08,0,0,1,.36-1.72,3.82,3.82,0,0,1,1.06-1.34,5.13,5.13,0,0,1,1.68-.87,7.53,7.53,0,0,1,2.21-.3,9.42,9.42,0,0,1,1.2.08c.38.06.73.14,1.05.22a5.82,5.82,0,0,1,.79.29,2.75,2.75,0,0,1,.46.26,1,1,0,0,1,.2.22,1.46,1.46,0,0,1,.08.27c0,.1,0,.23.06.38s0,.34,0,.56,0,.48,0,.65a1.66,1.66,0,0,1-.08.39.31.31,0,0,1-.14.2.42.42,0,0,1-.2,0,1,1,0,0,1-.41-.15,5.18,5.18,0,0,0-.7-.33,7.29,7.29,0,0,0-1-.33,4.68,4.68,0,0,0-1.25-.16,3.1,3.1,0,0,0-.86.11,1.53,1.53,0,0,0-.6.29,1.15,1.15,0,0,0-.35.45,1.26,1.26,0,0,0-.12.55,1.08,1.08,0,0,0,.28.76,2.66,2.66,0,0,0,.73.54,8.39,8.39,0,0,0,1,.44q.59.21,1.17.45a9.73,9.73,0,0,1,1.18.56,4.41,4.41,0,0,1,1,.79,3.62,3.62,0,0,1,.73,1.12A3.87,3.87,0,0,1,129.71,183.87Z"/></svg>