<svg id="Layer_1" data-name="Layer 1" xmlns="http://www.w3.org/2000/svg" viewBox="0 0 160 240"><defs><style>.cls-1{fill:#0c6a38;}.cls-2{fill:#fff;}.cls-3{fill:#8dc641;}.cls-4{fill:none;stroke:#fff;stroke-miterlimit:10;stroke-width:1.5px;}</style></defs><rect class="cls-1" x="-3.03" y="-46.07" width="166.07" height="332.13"/><path class="cls-2" d="M18.69,179.67,17,184.82H14.8l5.57-16.37h2.55l5.58,16.37H26.24l-1.75-5.15ZM24.06,178l-1.63-4.71c-.34-1.07-.58-2-.83-3h-.07c-.22,1-.48,2-.8,3L19.13,178Z"/><path class="cls-2" d="M40.59,183.09c0,2.72-.56,4.35-1.67,5.39a6.44,6.44,0,0,1-4.3,1.41,7.6,7.6,0,0,1-3.91-1l.53-1.65a6.4,6.4,0,0,0,3.45.95c2.19,0,3.79-1.14,3.79-4.13V182.8h0a4.17,4.17,0,0,1-3.74,2c-2.91,0-5-2.48-5-5.76,0-4,2.6-6.21,5.32-6.21a3.87,3.87,0,0,1,3.66,2h0l.08-1.78h1.89c-.07.83-.1,1.8-.1,3.21Zm-2.13-5.41a2.91,2.91,0,0,0-.13-1,3,3,0,0,0-3-2.28c-2,0-3.5,1.72-3.5,4.47,0,2.28,1.19,4.22,3.47,4.22a3.07,3.07,0,0,0,3-2.21,3.53,3.53,0,0,0,.17-1.14Z"/><path class="cls-2" d="M44,176.73c0-1.38,0-2.57-.1-3.67h1.87l.1,2.31h.07a3.55,3.55,0,0,1,3.28-2.57,5.11,5.11,0,0,1,.58,0v2a7.18,7.18,0,0,0-.73-.05,3,3,0,0,0-2.86,2.72,6.53,6.53,0,0,0-.08,1v6.29H44Z"/><path class="cls-2" d="M53,171.07a1.27,1.27,0,0,1-1.28-1.31,1.32,1.32,0,1,1,1.31,1.31Zm-1,13.75V173.06h2.14v11.76Z"/><path class="cls-2" d="M57.68,176.9c0-1.51,0-2.72-.09-3.84h1.92l.12,2h0a4.53,4.53,0,0,1,4.15-2.28c2.87,0,5,2.4,5,6,0,4.23-2.6,6.31-5.34,6.31a4.11,4.11,0,0,1-3.62-1.84h0v6.39H57.68ZM59.82,180a3.65,3.65,0,0,0,.1.88,3.27,3.27,0,0,0,3.18,2.5c2.26,0,3.57-1.85,3.57-4.54,0-2.36-1.21-4.37-3.47-4.37a3.42,3.42,0,0,0-3.26,2.64,6.43,6.43,0,0,0-.12.85Z"/><path class="cls-2" d="M71.5,176.73c0-1.38,0-2.57-.1-3.67h1.87l.1,2.31h.07a3.56,3.56,0,0,1,3.28-2.57,5.47,5.47,0,0,1,.59,0v2a7.18,7.18,0,0,0-.73-.05,3,3,0,0,0-2.87,2.72,6.54,6.54,0,0,0-.07,1v6.29H71.5Z"/><path class="cls-2" d="M80.41,179.33a3.75,3.75,0,0,0,4,4.06,7.59,7.59,0,0,0,3.25-.61l.39,1.53a9.55,9.55,0,0,1-3.93.75c-3.6,0-5.78-2.4-5.78-5.93s2.11-6.33,5.54-6.33c3.83,0,4.83,3.37,4.83,5.53a6.09,6.09,0,0,1-.07,1Zm6.24-1.53c0-1.36-.55-3.47-2.93-3.47-2.19,0-3.11,2-3.28,3.47Z"/><path class="cls-2" d="M91.36,176.24c0-1.23,0-2.21-.09-3.18h1.89l.12,1.92h0a4.35,4.35,0,0,1,3.89-2.18c1.62,0,4.15,1,4.15,5v7H99.23V178c0-1.89-.7-3.5-2.72-3.5a3.08,3.08,0,0,0-2.86,2.19,3.13,3.13,0,0,0-.15,1v7.09H91.36Z"/><path class="cls-2" d="M106.05,179.33a3.75,3.75,0,0,0,4,4.06,7.68,7.68,0,0,0,3.26-.61l.38,1.53a9.55,9.55,0,0,1-3.93.75c-3.59,0-5.78-2.4-5.78-5.93s2.11-6.33,5.54-6.33c3.83,0,4.83,3.37,4.83,5.53a5.15,5.15,0,0,1-.07,1Zm6.25-1.53c0-1.36-.56-3.47-2.94-3.47-2.19,0-3.11,2-3.28,3.47Z"/><path class="cls-2" d="M126.84,181.59c0,1.24,0,2.3.1,3.23H125l-.12-1.92h0a4.36,4.36,0,0,1-3.88,2.18c-1.85,0-4.06-1-4.06-5.14v-6.88h2.14v6.49c0,2.23.7,3.76,2.62,3.76a3.07,3.07,0,0,0,2.82-2,3,3,0,0,0,.19-1.09v-7.19h2.14Z"/><path class="cls-2" d="M130.38,176.73c0-1.38,0-2.57-.09-3.67h1.87l.09,2.31h.08a3.54,3.54,0,0,1,3.28-2.57,5.46,5.46,0,0,1,.58,0v2a7.18,7.18,0,0,0-.73-.05,3,3,0,0,0-2.87,2.72,6.54,6.54,0,0,0-.07,1v6.29h-2.14Z"/><path class="cls-2" d="M138,182.63a6,6,0,0,0,2.84.83c1.53,0,2.26-.76,2.26-1.75s-.61-1.56-2.16-2.14c-2.14-.78-3.13-1.94-3.13-3.33,0-1.89,1.55-3.44,4-3.44a5.5,5.5,0,0,1,2.87.72l-.51,1.53a4.88,4.88,0,0,0-2.41-.68c-1.26,0-1.94.73-1.94,1.61s.68,1.41,2.21,2c2,.76,3.09,1.78,3.09,3.52,0,2.09-1.63,3.55-4.38,3.55a6.68,6.68,0,0,1-3.3-.83Z"/><path class="cls-3" d="M28.79,208.82H18.33v9.73H30v2.93H14.8v-27H29.43v2.93H18.33v8.53H28.79Z"/><path class="cls-3" d="M34.43,207.33c0-2,0-3.64-.16-5.25H37.4l.2,3.17h.08a7.18,7.18,0,0,1,6.41-3.61c2.68,0,6.85,1.61,6.85,8.26v11.58H47.41V210.3c0-3.13-1.16-5.77-4.48-5.77a5.08,5.08,0,0,0-4.73,3.6,5.3,5.3,0,0,0-.24,1.65v11.7H34.43Z"/><path class="cls-3" d="M70.33,216.83a32.72,32.72,0,0,0,.28,4.65H67.44L67.12,219H67a7.16,7.16,0,0,1-5.93,2.89,5.53,5.53,0,0,1-5.93-5.57c0-4.69,4.17-7.25,11.66-7.21v-.41c0-1.6-.44-4.52-4.41-4.48a9.33,9.33,0,0,0-5.08,1.44l-.81-2.36a12.51,12.51,0,0,1,6.41-1.69c6,0,7.42,4.05,7.42,7.94Zm-3.45-5.25c-3.85-.08-8.21.6-8.21,4.37A3.08,3.08,0,0,0,62,219.31a4.89,4.89,0,0,0,4.77-3.24,3.63,3.63,0,0,0,.16-1.13Z"/><path class="cls-3" d="M76,193H79.5v12.14h.08a7.2,7.2,0,0,1,6.61-3.53c4.81,0,8.17,4,8.17,9.86,0,7-4.4,10.42-8.73,10.42a6.93,6.93,0,0,1-6.49-3.65h-.08l-.2,3.21h-3c.12-1.33.16-3.29.16-5ZM79.5,213.7a6.62,6.62,0,0,0,.12,1.28,5.47,5.47,0,0,0,5.29,4.13c3.72,0,5.89-3,5.89-7.45,0-3.93-2-7.25-5.77-7.25a5.58,5.58,0,0,0-5.33,4.32,5.65,5.65,0,0,0-.2,1.49Z"/><path class="cls-3" d="M98.77,193h3.52v28.45H98.77Z"/><path class="cls-3" d="M110.22,212.42c.08,4.73,3.09,6.69,6.61,6.69a12.61,12.61,0,0,0,5.37-1l.64,2.52a15.59,15.59,0,0,1-6.49,1.25c-5.93,0-9.53-4-9.53-9.78s3.48-10.46,9.13-10.46c6.33,0,8,5.57,8,9.14a8.58,8.58,0,0,1-.12,1.64Zm10.3-2.52c0-2.25-.92-5.73-4.85-5.73-3.6,0-5.13,3.28-5.41,5.73Z"/><path class="cls-3" d="M145,193v23.44c0,1.72,0,3.68.16,5H142l-.16-3.37h-.08a7.11,7.11,0,0,1-6.57,3.81c-4.69,0-8.33-4-8.33-9.86,0-6.49,4-10.42,8.69-10.42,3,0,5,1.41,5.85,2.93h.08V193ZM141.51,210a6.69,6.69,0,0,0-.16-1.53,5.19,5.19,0,0,0-5.09-4c-3.64,0-5.81,3.2-5.81,7.45,0,4,2,7.21,5.73,7.21a5.33,5.33,0,0,0,5.17-4.25,5.6,5.6,0,0,0,.16-1.48Z"/><path class="cls-4" d="M73.07,39.16H52.48L50.4,53a28.27,28.27,0,0,1,4.4-.34A22.66,22.66,0,0,1,66.43,55.6c4.23,2.32,7.72,7.06,7.72,13.87,0,10.54-8.39,18.43-20.1,18.43A26.69,26.69,0,0,1,40.6,84.58L42.43,79a24.22,24.22,0,0,0,11.62,3c6.81,0,12.79-4.48,12.71-11.79,0-6.89-4.73-11.87-15.45-11.87a45.24,45.24,0,0,0-7.55.58L47.25,33H73.07Z"/><path class="cls-4" d="M100.63,87.9C90.09,87.9,82.86,78,82.7,60.17,82.7,42,90.58,32.1,101.55,32.1c11.29,0,17.85,10.13,17.85,27.32,0,18.35-6.89,28.48-18.69,28.48Zm.42-5.65c7.39,0,11-8.72,11-22.5,0-13.28-3.32-22-11-22-6.65,0-11,8.47-11,22-.17,14,4.15,22.5,10.87,22.5Z"/></svg>