<svg id="Layer_1" data-name="Layer 1" xmlns="http://www.w3.org/2000/svg" viewBox="0 0 160 160"><path d="M129.88,94.19c0-4-2.42-6.64-6.46-7-.09-.44-.16-.91-.27-1.36a6.17,6.17,0,0,0-3.85-4.59,1.31,1.31,0,0,1-.93-1.5c0-4.52,0-9,0-13.56,0-5.06-3.49-8.48-8.55-8.56H107c-.47-4-2.67-6.14-6.65-6.64v-5.2c0-3,0-6,0-9,0-3.38-2-5.36-5.41-5.36-19.16,0-38.31,0-57.47,0-3,0-5.13,1-6.17,3.88v74.52a3,3,0,0,1,.22.39,5,5,0,0,0,4.94,3.43H94.68c3.66,0,5.65-2,5.65-5.64q0-19.48,0-39V67.62C104.26,67.14,106.5,65,107,61a31.71,31.71,0,0,1,4.14,0,4.71,4.71,0,0,1,4,4.57c0,4.88,0,9.76,0,14.63,0,.24-.16.62-.34.68a6.76,6.76,0,0,0-4.62,6.19,7.23,7.23,0,0,0-4.37,1.79A6.6,6.6,0,0,0,103.55,94c0,7.57,0,15.14,0,22.71a13.11,13.11,0,0,0,11,13.07,2.49,2.49,0,0,1,.45.18h3.46c.86-.25,1.72-.45,2.56-.74a13.06,13.06,0,0,0,8.8-12.31Q129.89,105.54,129.88,94.19ZM97,49.86v58c0,1.88-.42,2.3-2.33,2.3H37c-2,0-2.42-.44-2.42-2.45q0-29.55,0-59.09v-.78H97Zm0-5.42H34.57v-3c0-1.57,0-3.14,0-4.72s.6-2.1,2.11-2.1H94.61c1.9,0,2.37.48,2.37,2.39Zm6.51,17.07a2.9,2.9,0,0,1-3.09,2.55V54.51a2.92,2.92,0,0,1,3.08,2.58A31,31,0,0,1,103.49,61.51ZM116.43,84c1.78-.23,3.3,1.11,3.54,3.21h-6.35A3,3,0,0,1,116.43,84Zm1.91,19.81a1.64,1.64,0,0,1-1.48,1.52A1.51,1.51,0,0,1,115.2,104a24.41,24.41,0,0,1,0-4,1.48,1.48,0,0,1,1.69-1.23,1.59,1.59,0,0,1,1.43,1.55c0,.57,0,1.15,0,1.73S118.37,103.19,118.34,103.77Zm-11.41-9.9a3.06,3.06,0,0,1,2.85-3.28c1.71-.14,3.45,0,5.29,0,0,1.64,0,3.23,0,4.82a.87.87,0,0,1-.44.53,5.29,5.29,0,0,0-2.87,4.38h-4.82v-1.7C106.92,97,106.9,95.44,106.93,93.87Zm19.67,22.69a9.88,9.88,0,0,1-7.65,9.81,9.76,9.76,0,0,1-12-9.08c-.1-4.36,0-8.72,0-13.08,0-.13,0-.25,0-.47h4.73c.09.44.17.88.29,1.3a4.93,4.93,0,0,0,5.2,3.53,4.84,4.84,0,0,0,4.38-4.06c.09-.68.34-.84,1-.83,1.31,0,2.61,0,4,0a6.09,6.09,0,0,1,.08.74C126.6,108.48,126.63,112.52,126.6,116.56Zm0-16.28h-4.77A10.08,10.08,0,0,0,121,98a6.35,6.35,0,0,0-1.83-1.89,1.47,1.47,0,0,1-.81-1.52c0-1.33,0-2.67,0-4,1.95,0,3.81-.12,5.64,0a3,3,0,0,1,2.54,3C126.64,95.87,126.6,98,126.6,100.28Z"/><path d="M60.89,107c4.33.07,8.65.06,13,0a5,5,0,1,0-.13-9.92H67.49c-2.15,0-4.3,0-6.44,0a5,5,0,0,0-5.11,4.79A4.86,4.86,0,0,0,60.89,107Zm.24-6.54q6.3,0,12.61,0c1.21,0,1.85.59,1.85,1.6s-.63,1.58-1.86,1.59c-2.11,0-4.23,0-6.35,0h0c-2.09,0-4.17,0-6.26,0-1.15,0-1.89-.65-1.88-1.6S60,100.43,61.13,100.42Z"/><path d="M83.57,82.26H61.13a2.5,2.5,0,0,0-.85.15A1.54,1.54,0,0,0,59.21,84a1.49,1.49,0,0,0,1.1,1.52,4.23,4.23,0,0,0,1.23.15H72.32c3.69,0,7.38,0,11.08,0A2.26,2.26,0,0,0,85,85.09a2.33,2.33,0,0,0,.4-1.71C85.2,82.5,84.39,82.26,83.57,82.26Z"/><path d="M60.38,70.71a3.57,3.57,0,0,0,1,.11H83.08q2.43,0,2.46-1.65c0-1.09-.82-1.66-2.43-1.66H61.35a5,5,0,0,0-.67,0,1.51,1.51,0,0,0-1.45,1.41A1.55,1.55,0,0,0,60.38,70.71Z"/><path d="M61.13,56H83.55c1.2,0,2-.64,2-1.61a1.72,1.72,0,0,0-1.94-1.66H61.08c-1.16,0-1.85.62-1.87,1.61S59.93,56,61.13,56Z"/><path d="M49.19,92.17a34.18,34.18,0,0,0,3.65,0,3.28,3.28,0,0,0,3.09-3.29c0-.55,0-1.09,0-1.64h0V85.71a3.26,3.26,0,0,0-3.26-3.43,26.91,26.91,0,0,0-3.36,0,3.23,3.23,0,0,0-3.23,3.35c0,1.12,0,2.24,0,3.36A3.23,3.23,0,0,0,49.19,92.17Zm.22-6.47h3.2v3.09h-3.2Z"/><path d="M49.1,62.55q1.88.08,3.75,0a3.17,3.17,0,0,0,3.07-3.08c0-1.21,0-2.43,0-3.65a3.17,3.17,0,0,0-3.07-3.08c-.61,0-1.22,0-1.82,0H49.3a3.18,3.18,0,0,0-3.21,3.15c0,1.24-.05,2.49,0,3.74A3.08,3.08,0,0,0,49.1,62.55Zm.31-6.48h3.18V59.2H49.41Z"/><path d="M49.21,77.37c1.21,0,2.43,0,3.65,0a3.23,3.23,0,0,0,3.06-3.11c0-.57,0-1.15,0-1.72h0c0-.58,0-1.16,0-1.73a3.19,3.19,0,0,0-3.09-3.27,35.89,35.89,0,0,0-3.74,0,3.1,3.1,0,0,0-3,3c-.05,1.24-.05,2.49,0,3.74A3.18,3.18,0,0,0,49.21,77.37Zm.23-6.51h3.14V74H49.44Z"/><path d="M70.48,92.19a1.7,1.7,0,0,0,1.88-1.73c0-1-.71-1.59-1.88-1.6q-4.67,0-9.33,0c-1.24,0-1.94.64-1.93,1.65s.76,1.67,2,1.67h4.52C67.34,92.19,68.91,92.21,70.48,92.19Z"/><path d="M70.51,59.29H61.09c-1.14,0-1.86.63-1.87,1.61A1.61,1.61,0,0,0,61,62.57h9.52a1.65,1.65,0,1,0,0-3.28Z"/><path d="M61,77.37h9.61a1.65,1.65,0,1,0,0-3.29c-1.57,0-3.14,0-4.71,0h0c-1.63,0-3.27,0-4.9,0a1.6,1.6,0,0,0-1.74,1.64A1.64,1.64,0,0,0,61,77.37Z"/><path d="M91.83,37.92c-1.54,0-3.08,0-4.62,0s-3.14,0-4.71,0c-1.2,0-1.92.65-1.91,1.67s.67,1.61,1.84,1.62q4.71,0,9.42,0c1.18,0,1.85-.6,1.86-1.6S93,37.93,91.83,37.92Z"/><path d="M57.51,37.92c-.51,0-1,0-1.54,0a1.64,1.64,0,1,0-.08,3.28c.28,0,.57,0,.86,0h.77a1.58,1.58,0,0,0,1.68-1.69A1.63,1.63,0,0,0,57.51,37.92Z"/><path d="M41.06,37.92c-.26,0-.52,0-.77,0-1.65,0-2.43.52-2.45,1.64s.75,1.66,2.41,1.65c.29,0,.58,0,.87,0a1.67,1.67,0,0,0,1.69-1.62A1.72,1.72,0,0,0,41.06,37.92Z"/><path d="M49.08,37.92H48.6c-.26,0-.51,0-.77,0a1.61,1.61,0,0,0-1.74,1.64,1.59,1.59,0,0,0,1.72,1.65c.41,0,.83,0,1.25,0,1.2,0,1.95-.64,1.95-1.63S50.26,37.94,49.08,37.92Z"/></svg>