<svg id="Layer_1" data-name="Layer 1" xmlns="http://www.w3.org/2000/svg" viewBox="0 0 2733.79 1537.76"><defs><style>.cls-1{fill:#0c6a38;}.cls-2{fill:#070909;}.cls-18,.cls-3{fill:#f89521;}.cls-4{fill:#fff;}.cls-5{fill:#8dc641;}.cls-6{font-size:24px;}.cls-17,.cls-6{fill:#231f20;}.cls-17,.cls-18,.cls-19,.cls-6{font-family:Calibri-Bold, Calibri;font-weight:700;}.cls-7{letter-spacing:-0.01em;}.cls-8{letter-spacing:-0.02em;}.cls-9{letter-spacing:-0.02em;}.cls-10{letter-spacing:-0.05em;}.cls-11{letter-spacing:-0.01em;}.cls-12{letter-spacing:-0.01em;}.cls-13{letter-spacing:-0.01em;}.cls-14{letter-spacing:0em;}.cls-15{letter-spacing:-0.02em;}.cls-16{letter-spacing:-0.01em;}.cls-17{font-size:36px;}.cls-18,.cls-19{font-size:135.98px;}.cls-19,.cls-20{fill:none;stroke-miterlimit:10;}.cls-19{stroke:#f89521;}.cls-20{stroke:#231f20;stroke-width:4px;}.cls-21{letter-spacing:-0.01em;}.cls-22{letter-spacing:-0.02em;}.cls-23{letter-spacing:-0.04em;}.cls-24{letter-spacing:-0.01em;}.cls-25{letter-spacing:-0.01em;}.cls-26{letter-spacing:-0.03em;}.cls-27{letter-spacing:0em;}.cls-28{letter-spacing:0em;}</style></defs><path class="cls-1" d="M1321.23,165.53c-5.73.8-11.52,4.43-12.11,12.37,0,.2.08.48-.13.61s-.44-.15-.62-.28a64.47,64.47,0,0,0-8.79-5.75c-3.07-1.59-6.28-2.75-9.8-2.42a26.37,26.37,0,0,0-17,8.58,11.81,11.81,0,0,0-2.61,4.13,8.52,8.52,0,0,1,5.31-.92,18.44,18.44,0,0,1,7.61,3.49c3.79,2.78,7.48,5.68,11.22,8.53a26.27,26.27,0,0,0,5.85,3.7,8.19,8.19,0,0,0,4.74.83,5.3,5.3,0,0,0,3.84-7.34,22.65,22.65,0,0,0-7.47-9.92,70.74,70.74,0,0,0-6.6-4.27c-.09,0-.26,0-.21-.16s.21,0,.33,0a23.14,23.14,0,0,1,6.5,2.85c5.53,3.44,9.11,8.5,11.63,14.37a57.78,57.78,0,0,1,4.06,18.15,66.61,66.61,0,0,1-1.59,22.38c-1.95,7.62-5.15,14.53-10.92,20.1-6,5.78-13.75,7.31-21,3.94A29,29,0,0,1,1276,253c-.3-.27-.52-.73-1.09-.64a30,30,0,0,0,5.61,6.07,20.47,20.47,0,0,0,12.89,5.19c6,.11,10.92-2.47,15.11-6.51a40.38,40.38,0,0,0,9.42-14.89,65.77,65.77,0,0,0,4-25.05,69.4,69.4,0,0,0-2.5-17.14c-1.33-4.84-3.45-9.38-5.35-14-.92-2.25-2.05-4.45-2.27-6.92-.28-3,.37-5.78,2.8-7.88.09-.06.25-.2.27-.18s0,.3-.08.43l-.39.85a9.73,9.73,0,0,0-.1,8.69,2.72,2.72,0,0,0,4.22,1.23,8.93,8.93,0,0,0,3-3c1-1.63,2-3.26,3-4.91a32.56,32.56,0,0,1,5.49-7.35c.14-.13.41-.2.31-.54A23.23,23.23,0,0,0,1321.23,165.53Z"/><path class="cls-1" d="M1265.07,236.43a17.63,17.63,0,0,0-5.8-1.42c-3.53-.54-7.1-.76-10.6-1.52a11.35,11.35,0,0,1-3.64-1.34c6.41.46,12.57.79,18.8,1.83a14.25,14.25,0,0,0-14-7.74c-5.45.43-10.45,2.56-15.79,3.79,1.23,1.79,2.34,3.53,3.64,5.14a11.29,11.29,0,0,0,9.15,4.39c3.34,0,6.58-.79,9.89-1.08a28.62,28.62,0,0,1,5.15-.23,10.6,10.6,0,0,1,7.16,3.53A8,8,0,0,0,1265.07,236.43Z"/><path class="cls-1" d="M1359,261.46l-.48.06c-.88.37-1.75,0-2.61-.08-1.4-.09-2.89.41-4.19-.51-.18-.12-.28,0-.39.09s-.28.25-.12.38c1.64,1.32-.17.72-.51.91a2.11,2.11,0,0,1-1.09.09c-.17,0-.39-.09-.39.23s0,.43.32.44,1.05-.12,1.37.11c1.18.86,2.52.35,3.77.52a15.67,15.67,0,0,0,5.3-.56c.52-.11,1.23.12,1.23-.81,0-.18.31-.21.55-.16a3.28,3.28,0,0,0,.77,0l0-.26A26.12,26.12,0,0,0,1359,261.46Z"/><path class="cls-2" d="M1482.43,274.09c-.44-.16-.19-.59-.15-.9s.1-.68.13-1a31.23,31.23,0,0,0,.46-3.72c0-.47-.09-.9-.56-1.08a1.09,1.09,0,0,0-1.2.32,5,5,0,0,0-1,1.26l-.66,1.16c0-.65,0-1.17,0-1.69a1,1,0,0,0-.59-1.07,1.07,1.07,0,0,0-1.1.36,8.06,8.06,0,0,0-1.6,2.4l-.2.43a.51.51,0,0,1,0-.6c0-.62.1-1.24.1-1.87s-.31-.79-.84-.77a2.57,2.57,0,0,0-1.92,2.06c.28-.32.54-.63.82-.92s.41-.45.72-.27.15.43.11.68c-.28,1.79-.52,3.59-.84,5.36-.13.67.1.65.61.59s.52-.37.54-.71a9.84,9.84,0,0,1,1.89-4.82c.25-.37.49-1,1-.83s.18.86.12,1.29c-.19,1.42-.48,2.83-.68,4.25,0,.28-.31.77.2.85s.89-.07.91-.75a9.56,9.56,0,0,1,1.66-4.61c.28-.47.61-1.26,1.14-1.05s.18,1,.11,1.54c-.16,1.27-.39,2.53-.53,3.8-.06.53,0,1.11.76,1.15a2.44,2.44,0,0,0,2-2.05c-.22.27-.41.51-.62.74S1482.78,274.22,1482.43,274.09Z"/><path class="cls-2" d="M1447.32,267.36a3,3,0,0,0-2.65,1.1,6.73,6.73,0,0,0-1.72,3.77,11.3,11.3,0,0,0,.3,2.43c0,.64-1.12,1.13-1.44,2a1.77,1.77,0,0,0,1.64,2.62,2.85,2.85,0,0,0,2.22-.82,5.42,5.42,0,0,0,1.62-3c.43-2.3.61-4.64,1.11-6.93C1448.64,267.37,1448.61,267.37,1447.32,267.36Zm-1.35,9.72a2.16,2.16,0,0,1-1,1.42,1.49,1.49,0,0,1-1.6-.11,1.45,1.45,0,0,1-.69-1.53,2.55,2.55,0,0,1,1.3-2,5.14,5.14,0,0,0,2.44-2.72,3.24,3.24,0,0,1,.17-.32s.06,0,.16,0A28.81,28.81,0,0,1,1446,277.08Zm1.15-7.73a9,9,0,0,1-1.92,3.88c-.21.27-.5.67-.91.45s-.3-.65-.32-1a11.16,11.16,0,0,1,.88-3.64,1.58,1.58,0,0,1,.8-.88,1.5,1.5,0,0,1,1.43.15C1447.53,268.63,1447.18,269,1447.12,269.35Z"/><path class="cls-2" d="M1461.07,265c.06-.36-.27-.27-.46-.27-1,0-1.95-.06-2.91,0-2.64.23-4,1.63-3.93,3.92a1.26,1.26,0,0,0,1.06-1.31,2.07,2.07,0,0,1,1.62-1.93c.25,0,.53-.13.47.31-.18,1.18-.37,2.35-.52,3.53-.06.48-.63.17-.75.56-.18.61.64.09.59.53,0,.07,0,.12,0,.19a27.76,27.76,0,0,1-.89,4.78c-.57,1.75-1.57,2-2.86.58-.16.37-.73.59-.56,1a1.34,1.34,0,0,0,1.35.66,3.07,3.07,0,0,0,2.46-1.52,9.57,9.57,0,0,0,1.53-4.85c.08-.94.45-1.2,1.29-1,.49.11.91.13,1-.58h-2.06l.49-3.11c.19-1.26.19-1.23,1.44-1,.78.11,1,.58.92,1.52A3.51,3.51,0,0,0,1461.07,265Z"/><path class="cls-2" d="M1405.94,274.07c-.25-.14-.15-.43-.12-.68.21-1.48.44-3,.61-4.45.07-.58.15-1.28-.53-1.56s-1.2.2-1.6.69-.59.88-.89,1.31c-.18.25-.19.64-.61.83.08-.63.18-1.19.22-1.74.06-.89-.42-1.37-1.15-1.1a2.69,2.69,0,0,0-1.75,2,10,10,0,0,0,.86-.86c.21-.22.46-.51.79-.3s.13.51.09.78c-.29,1.76-.58,3.51-.84,5.27,0,.2-.29.61.22.65.33,0,.71,0,.84-.41a3.62,3.62,0,0,0,.06-.46,11,11,0,0,1,1.87-4.73c.27-.41.6-1.06,1.08-.85s.2.88.13,1.36c-.18,1.33-.39,2.66-.52,4-.09.88.36,1.35,1,1.1a2.53,2.53,0,0,0,1.71-2c-.26.3-.51.62-.8.9S1406.25,274.25,1405.94,274.07Z"/><path class="cls-2" d="M1441.67,273.7c-.21.21-.42.57-.77.37s-.16-.55-.11-.85c.2-1.45.43-2.91.61-4.36.07-.56.08-1.19-.53-1.48s-1.08.12-1.48.53a8.88,8.88,0,0,0-1.41,2.2l-.2.43a.51.51,0,0,1,0-.6c0-.59.12-1.18.13-1.78a.76.76,0,0,0-.87-.86,2.58,2.58,0,0,0-1.92,2.06c.28-.32.54-.63.82-.92s.42-.45.72-.27.15.44.11.68c-.27,1.82-.51,3.65-.84,5.47-.11.63.17.59.59.54s.53-.49.56-.84a10.57,10.57,0,0,1,1.8-4.66,4,4,0,0,1,.73-.85c.4-.35.63-.15.66.31a2.94,2.94,0,0,1-.07.65c-.2,1.39-.43,2.78-.61,4.17-.11.85.28,1.34,1,1.26a2.49,2.49,0,0,0,1.79-2C1442.11,273.2,1441.91,273.47,1441.67,273.7Z"/><path class="cls-2" d="M1413.39,274.05c-.41-.19-.1-.89,0-1.37.19-1.36.37-2.72.5-4.09,0-.45,0-1-.5-1.22a1.22,1.22,0,0,0-1.35.41,3.19,3.19,0,0,0-.6.72c-.38.59-.73,1.21-1.17,2,.07-.86.14-1.55.18-2.25a.75.75,0,0,0-.73-.91,2.4,2.4,0,0,0-2,2,6.27,6.27,0,0,1,.43-.52c.31-.29.56-.89,1-.65s.17.8.11,1.2c-.23,1.64-.51,3.27-.77,4.91,0,.2-.3.53.13.58s.72.13.87-.33a2.78,2.78,0,0,0,.16-.63,10.35,10.35,0,0,1,1.78-4.57,3.5,3.5,0,0,1,.66-.78c.12-.12.29-.28.5-.17a.48.48,0,0,1,.2.48c0,.5-.11,1-.18,1.49-.16,1.18-.37,2.35-.47,3.53-.06.8.42,1.22,1.07,1a2.42,2.42,0,0,0,1.64-1.95,2.2,2.2,0,0,1-.24.28C1414.22,273.56,1413.93,274.3,1413.39,274.05Z"/><path class="cls-2" d="M1465.74,274.08c-.51-.21-.2-.84-.15-1.25.23-1.64.52-3.26.79-4.89,0-.24.2-.54-.22-.56-1,0-2.08-.21-3,.51a6.68,6.68,0,0,0-2.46,5.69,1.24,1.24,0,0,0,.77,1.29,1.43,1.43,0,0,0,1.48-.58,13.19,13.19,0,0,0,1.55-2.34c0,.72-.2,1.42-.13,2.14s.32.86.91.81a2.51,2.51,0,0,0,1.86-2.06c-.16.2-.29.37-.44.53S1466.16,274.26,1465.74,274.08Zm-.72-4.82a8.78,8.78,0,0,1-1.9,3.91c-.23.32-.5.78-.94.62s-.36-.72-.39-1.17a12,12,0,0,1,.83-3.42,2,2,0,0,1,.66-.89,1.54,1.54,0,0,1,1.6,0C1465.43,268.54,1465.06,268.94,1465,269.26Z"/><path class="cls-2" d="M1394,264.83a4,4,0,0,0-4.43.86,7.6,7.6,0,0,0-2,6.93,2.62,2.62,0,0,0,1.83,2.28,4.76,4.76,0,0,0,3.58-.69c.11-.06.12-.33.24-.71-.55.24-.91.42-1.29.54-1.67.56-2.92-.07-3.18-1.69a8.58,8.58,0,0,1,1.39-6.24,2,2,0,0,1,1.51-1,2.19,2.19,0,0,1,1.53.3c.52.36.37,1,.56,1.58.5-.54.39-1.15.6-1.65C1394.51,265,1394.26,264.91,1394,264.83Z"/><path class="cls-2" d="M1398.58,267.41a1.86,1.86,0,0,0-2.07.5,5.63,5.63,0,0,0-2,5.28c.32,1.86,1.8,2.32,3.21,1a5.79,5.79,0,0,0,1.91-4.32c0-.19,0-.38,0-.56A2,2,0,0,0,1398.58,267.41Zm-.82,6c-.24.5-.6,1.06-1.28.88s-.73-.78-.76-1.36c0-.31,0-.62,0-.94a6.1,6.1,0,0,1,.82-3.39c.25-.41.55-.8,1.11-.69s.63.52.73,1A6.77,6.77,0,0,1,1397.76,273.42Z"/><path class="cls-2" d="M1419.33,267.43a1.56,1.56,0,0,0-1.88.46,6,6,0,0,0-2,5.12c.11,1.18.69,1.86,1.56,1.9a3.26,3.26,0,0,0,2.83-2,4.42,4.42,0,0,1-2,1.17c-.88.11-1.13-.45-1.23-1.18-.08-.56-.28-1,.65-1.13a3.09,3.09,0,0,0,2.64-2.46A1.61,1.61,0,0,0,1419.33,267.43Zm-2.1,3.86c-.46.12-.73.06-.62-.51a5.41,5.41,0,0,1,.93-2.21c.24-.31.52-.58.94-.45s.37.59.39.91A2.26,2.26,0,0,1,1417.23,271.29Z"/><path class="cls-2" d="M1488.26,267.4a1.48,1.48,0,0,0-1.65.34,6,6,0,0,0-2.19,5.4c.12,1.12.76,1.74,1.6,1.77a3.28,3.28,0,0,0,2.82-1.93,5.67,5.67,0,0,1-2,1.15c-.89.15-1.17-.44-1.29-1.13s-.26-1.07.71-1.19a3.13,3.13,0,0,0,2.65-2.86C1488.92,268.33,1488.87,267.71,1488.26,267.4Zm-.74,2.92c-.37.55-1.69,1.3-1.86,1-.34-.54.09-1.1.24-1.63a4.56,4.56,0,0,1,.56-1.07c.23-.36.54-.65,1-.51s.33.6.42.92A3.39,3.39,0,0,1,1487.52,270.32Z"/><path class="cls-2" d="M1429.45,266c0-.22.39-.62-.1-.66a.73.73,0,0,0-.89.49,2.88,2.88,0,0,0-.15.63c0,.59-.11,1-.88,1-.23,0-.37.25-.36.52.92.09.92.09.84,1,0,.28-.09.55-.12.83a31.36,31.36,0,0,0-.46,4.1c0,.54.14,1,.8,1.06a2.05,2.05,0,0,0,2-1.73c-.19.15-.35.29-.53.42s-.56.51-.91.35-.21-.62-.17-.92c.16-1.4.41-2.79.54-4.18.06-.72.34-1,1-.81s.93.1,1-.6l-.46,0C1429.25,267.37,1429.26,267.37,1429.45,266Z"/><path class="cls-2" d="M1473.35,267.4a1,1,0,0,0-1,0,3.22,3.22,0,0,0-1.08,1c-.41.61-.77,1.25-1.18,1.9a2.55,2.55,0,0,1,.08-1,5.35,5.35,0,0,0,0-1.13c0-.61-.33-1-1-.84a2.82,2.82,0,0,0-1.76,2.1c.22-.28.39-.53.6-.75s.48-.73.89-.55.22.68.18,1c-.24,1.7-.52,3.39-.78,5.09,0,.21-.3.55.09.6s.8.2.94-.34a5.89,5.89,0,0,0,.15-.82,9.16,9.16,0,0,1,2-4.57c.23-.32.56-.74,1-.54.67.32.61-.3.8-.55S1473.68,267.59,1473.35,267.4Z"/><path class="cls-2" d="M1495.61,267.42a1.15,1.15,0,0,0-1.23.13,4.89,4.89,0,0,0-1.28,1.48c-.26.43-.5.87-.83,1.44a20.8,20.8,0,0,0,.18-2.32c-.11-.71-.57-1.06-1.18-.76a2.55,2.55,0,0,0-1.58,2,8.17,8.17,0,0,1,.64-.79c.23-.24.45-.64.84-.44s.18.57.14.85c-.24,1.77-.53,3.52-.8,5.28,0,.21-.3.54.15.57.3,0,.73.17.88-.3a3,3,0,0,0,.16-.73,9.05,9.05,0,0,1,2-4.67c.24-.34.59-.77,1-.59.81.37.66-.4.93-.66S1495.8,267.52,1495.61,267.42Z"/><path class="cls-2" d="M1425.48,269.44c.17-.63.66-1.33.22-1.86s-1.22-.35-1.86-.11a2,2,0,0,0-.64.38,6,6,0,0,0-2,5.47,1.65,1.65,0,0,0,1.37,1.58,3.59,3.59,0,0,0,3.12-2,5.82,5.82,0,0,1-2.05,1.14.91.91,0,0,1-1.14-.57,6.43,6.43,0,0,1,1-5.15,1.23,1.23,0,0,1,1.28-.36c.53.14.56.6.55,1.06C1425.26,269.14,1425.18,269.31,1425.48,269.44Z"/><path class="cls-2" d="M1498.75,267.3a2.24,2.24,0,0,0-2,3.13c.3.64.77,1.2,1.14,1.82s.67,1.07.12,1.62a1.2,1.2,0,0,1-1.71,0c-.59-.49-.68.06-.87.33-.33.48.16.48.4.58a2.29,2.29,0,0,0,2.23-.29,2.21,2.21,0,0,0,.61-3.15,12.55,12.55,0,0,1-1.23-2.1,1,1,0,0,1,.25-1.12,1,1,0,0,1,1.06-.13c.49.17.36.72.57,1.13.41-.18.24-.49.33-.7C1500,267.47,1499.46,267.32,1498.75,267.3Z"/><path class="cls-2" d="M1433.53,274c-.48-.22-.13-1.05,0-1.62.26-1.67.51-3.35.78-5.19a12,12,0,0,0-2.59,1.4c1.18,0,1.23,0,1.11,1.19,0,.19-.08.37-.1.55a31.87,31.87,0,0,0-.46,3.63c0,.54.19.91.81.91a2.48,2.48,0,0,0,1.93-2,.53.53,0,0,0-.15.11C1434.43,273.45,1434.09,274.29,1433.53,274Z"/><path class="cls-3" d="M1499.26,245a.51.51,0,0,0-.72.25c-.1.22-.16.47-.25.7a15.67,15.67,0,0,1-3.21,5.69c-.32.32-.7.79-1.19.58s-.28-.83-.29-1.28a1.59,1.59,0,0,1,.06-.37,38,38,0,0,1,1.4-6.13c.31-1,0-1.77-1.09-1.95-.89-.15-1-.59-1-1.31-.12-2.4-1.74-3.53-4.07-2.9a5.59,5.59,0,0,0-2.33,1.35,12.39,12.39,0,0,0-3.15,5.58,16.57,16.57,0,0,1-3,5.58,5,5,0,0,1-1.61,1.42c-.51.25-.87.17-.85-.49a13.52,13.52,0,0,1,.1-1.68,55.13,55.13,0,0,1,2-8.1,1.48,1.48,0,0,0-.66-1.85,1.56,1.56,0,0,0-2.6.82c-1,2.55-1.43,5.25-2.39,7.8a19.37,19.37,0,0,1-2.34,4.9c-.3.4-.66.84-1.23.7s-.71-.67-.81-1.17a15.84,15.84,0,0,1-.09-4.86,103.06,103.06,0,0,1,3-16.52,1.53,1.53,0,0,0-1.15-2c-1.14-.3-1.84,0-2.11,1.09-.42,1.6-.79,3.22-1.14,4.84-.27,1.2-.47,2.42-.72,3.69-2.21-2-4.19-1.82-6,.47a10.42,10.42,0,0,0-1.94,3.93,31.67,31.67,0,0,1-2.44,6.39,10.58,10.58,0,0,1-2.53,3.69c-.9.74-1.71.4-1.83-.77a8.16,8.16,0,0,1,.06-1.78c.23-1.71.73-3.36,1.12-5a23.65,23.65,0,0,0,1-6.2c-.11-2.72-2.23-4.11-4.76-3.11a5.62,5.62,0,0,0-1.51.94,13.6,13.6,0,0,0-3,4,3.19,3.19,0,0,1-.72,1.16c-.2-.2-.1-.39-.07-.57a61.52,61.52,0,0,1,1.5-6.69c.37-1.34,0-2-1.2-2.36s-1.7.06-2.09,1.37a60.22,60.22,0,0,0-1.69,8.09,31.54,31.54,0,0,0-.44,8.51,3,3,0,0,0,.57,1.56,2.08,2.08,0,0,0,2.34.45c.7-.32.36-.89.33-1.39a11,11,0,0,1,.57-5.27c.5-1.18.92-2.4,1.47-3.55a11.5,11.5,0,0,1,3.65-4.81c.44-.31,1-.77,1.54-.41s.46,1,.42,1.63a1.45,1.45,0,0,1,0,.28c-.44,2.27-.89,4.54-1.32,6.82a12.73,12.73,0,0,0-.07,6,3.5,3.5,0,0,0,2.84,2.57c1.32.29,2.19-.47,3-1.4.22-.27.41-.56.61-.84a34.37,34.37,0,0,0,2.05-3.74,9.07,9.07,0,0,0,1,3,2.47,2.47,0,0,0,4,.32,10.47,10.47,0,0,0,1.72-2.46c.34-.65.65-1.31,1-2,.24.25.15.48.17.68a12,12,0,0,0,1.16,4.9c1.15,2.07,3.25,2.26,4.69.4a14.64,14.64,0,0,0,1.62-2.86,2,2,0,0,1,.58-1,3.21,3.21,0,0,1,.16.38c.88,3.15,2.91,3.73,5.31,1.52a4.76,4.76,0,0,0,.57-.62c.46-.57.9-1.16,1.46-1.89,0,.42,0,.65.07.88a7,7,0,0,0,1.12,3.64,2.64,2.64,0,0,0,4.37.23,10.86,10.86,0,0,0,1.07-1.54c.49-.85.93-1.74,1.46-2.75.1.52.16.89.25,1.25a2.62,2.62,0,0,0,4.27,1.51c2.34-1.86,3.3-4.58,4.28-7.26A.47.47,0,0,0,1499.26,245Zm-32.17-.69a23,23,0,0,1-3,6.74c-.37.55-.76,1.45-1.48,1.22s-.37-1.15-.48-1.7a26.21,26.21,0,0,1,2.45-9.93c.28-.58.55-1.38,1.28-1.35s1.05.88,1.32,1.54A5.14,5.14,0,0,1,1467.09,244.35ZM1490.4,248a21.9,21.9,0,0,1-2.42,5.16,5.32,5.32,0,0,1-.45.61c-.29.32-.62.71-1.1.58s-.54-.63-.6-1.07c-.39-3,.4-5.77,1.27-8.55a13.25,13.25,0,0,1,2-3.93c.51-.68,1.1-1.54,2-1.25s.84,1.29.88,2.1c0,.13,0,.26,0,.38A22.45,22.45,0,0,1,1490.4,248Z"/><path class="cls-3" d="M1439.06,229.17a1.45,1.45,0,0,0-1.89,1.3,103.78,103.78,0,0,0-1.53,16.57c0,.92,0,2.23,0,3.55a13.29,13.29,0,0,0,.41,3.82,2.18,2.18,0,0,0,2.34,1.33c.9-.19,1-.87.92-1.6a102.22,102.22,0,0,1,0-12.5,72,72,0,0,1,1-10.56A1.51,1.51,0,0,0,1439.06,229.17Z"/><path class="cls-3" d="M1479.8,238.32a1.69,1.69,0,0,0,1.68-1.77,1.64,1.64,0,0,0-1.71-1.63,1.6,1.6,0,0,0-1.61,1.7A1.64,1.64,0,0,0,1479.8,238.32Z"/><path class="cls-2" d="M1433.36,265.87c0-.94.88-1.18,1.46-1.8,0,1.12-.65,1.51-1.38,1.89A.24.24,0,0,0,1433.36,265.87Z"/><path class="cls-1" d="M1433.44,266h-.2l.12-.09A.24.24,0,0,1,1433.44,266Z"/><path class="cls-4" d="M1314.68,171.2c.09-.06.25-.2.27-.18s0,.3-.08.43Z"/><path class="cls-4" d="M1294.63,176.87c-.09,0-.26,0-.21-.16s.21,0,.33,0Z"/><path class="cls-4" d="M1308,227.73c-.11-.09-.15-.27,0-.31s.11.13.13.22Z"/><path class="cls-4" d="M1304.73,247.29l.21,0-.09.18Z"/><path class="cls-4" d="M1295,232c-.06-.05-.16-.14-.15-.15s.19-.07.28,0Z"/><path class="cls-5" d="M1352.46,246.65c-1.47-2.58-3.2-5-4.24-7.84a91.94,91.94,0,0,1-2.9-10.49c-.13-.53,0-.69.57-.71,6.36-.14,12.72-.33,19.08-.48,4-.1,8.08-.12,12.12-.25,8.46-.27,16.91-.6,25.36-.88q10-.34,20.1-.62c2.64-.07,2.87-1.36,2.86-3.25a2,2,0,0,0-2.09-2.19,52.86,52.86,0,0,0-6.29-.18c-10.69,0-21.38.15-32.07.33-4.86.09-9.72.12-14.57.2-6.71.11-13.42-.15-20.13-.18-.69,0-.71-.16-.42-.72A109.82,109.82,0,0,0,1359,196a55.76,55.76,0,0,0,2.07-11.9c0-.59.25-.73.79-.69s1.26,0,1.88,0c1,0,1.33-.4,1.34-1.4s-.36-1.4-1.3-1.42a10.59,10.59,0,0,0-1.69,0c-.74.1-.89-.26-1-.88a30.55,30.55,0,0,0-.82-4.43,3,3,0,0,0-1.13-1.89c-1-.72-1.73-.56-2.18.62q-1.12,2.94-2.14,5.91c-.16.5-.37.69-.91.67-1-.05-2.07,0-3.1,0s-1.33.42-1.33,1.41.38,1.39,1.34,1.41h2.82a32.53,32.53,0,0,1-2,7.63,73.4,73.4,0,0,1-18,28.1,1.59,1.59,0,0,1-1.19.61c-1.91,0-3.82.09-5.73.14-1.47,0-2,.46-2.25,2a16.21,16.21,0,0,0,0,4.4,1.76,1.76,0,0,0,1.82,1.76c.62,0,1.25,0,1.88,0a2.83,2.83,0,0,1,3.22,1.88c.46,1.19,1.13,2.3,1.7,3.45a26.25,26.25,0,0,0,3.13,5.66c5.69,6.6,11.5,13.09,17.73,19.2a12.43,12.43,0,0,0,4.5,3.31l.48-.06c.88-.67,1-1.16.43-2.27C1357.4,254.87,1354.84,250.81,1352.46,246.65Z"/><path class="cls-5" d="M1307.87,222.93a9.63,9.63,0,0,0-6.9-1.85c-.42,0-1,0-.51.75a16.6,16.6,0,0,1,2.23,6.33,23.42,23.42,0,0,1,.42,4.06c-3.42-3-7-5.11-11.55-5.17a15.21,15.21,0,0,0-11.65,4.81,17.2,17.2,0,0,1,8.08,4.59c1.55,1.45,3.06,3,4.59,4.45,1.71,1.65,3.38,3.35,5.23,4.85a7,7,0,0,0,6.92,1.54l.21,0-.09.18a.66.66,0,0,1-.08.26c-3.06,3.13-6.61,5.32-11.13,5.33a16.68,16.68,0,0,1-13-6,38.54,38.54,0,0,1-7.66-14c-2.93-9.1-2.83-18.31-.84-27.56a34.71,34.71,0,0,1,8.58-16.87c.86-.9.86-.9-.11-1.7l-.45-.35a1.88,1.88,0,0,0-2.84.19,13.85,13.85,0,0,0-1.27,1.38c-5.64,7-8,15.25-8.9,24a60.92,60.92,0,0,0,.74,16c1.36,8,4.26,15.24,9.77,21.31,5,5.51,11,7.68,18.38,5.83a14.76,14.76,0,0,0,10.19-8.19,2.76,2.76,0,0,0,0-3.11,92.7,92.7,0,0,0-6.14-7.6c-1.58-1.62-3.48-2.86-5.15-4.37-.06-.05-.16-.14-.15-.15s.19-.07.28,0a19.5,19.5,0,0,1,12.49,8.92,15.84,15.84,0,0,0,1.16-5,29.36,29.36,0,0,0-.82-8.09c-.11-.09-.15-.27,0-.31s.11.13.13.22a13.16,13.16,0,0,1,2.06,4.58,33.87,33.87,0,0,1,1,6.09c.24-.39.4-.61.53-.85A11.51,11.51,0,0,0,1307.87,222.93Z"/><path class="cls-5" d="M1428.5,245a.54.54,0,0,0-.73.41,6,6,0,0,1-.88,1.75,3.71,3.71,0,0,1-2.47,1.58c-.6.1-1,0-.66-.74a12.65,12.65,0,0,0,.83-4,7.85,7.85,0,0,0-.83-4.83,2.32,2.32,0,0,0-4.14,0c-.28.47-.41.76-1.07.46a2,2,0,0,0-2,.41,7.89,7.89,0,0,0-2.73,4.38,31.41,31.41,0,0,1-3.21,7.49,5.79,5.79,0,0,1-1.8,2.13.88.88,0,0,1-1.47-.51,3.14,3.14,0,0,1-.11-.92,29.31,29.31,0,0,1,1.21-6.35,24.72,24.72,0,0,0,.95-5.91c-.07-3.26-2.76-4.71-5.54-3a9.13,9.13,0,0,0-2.43,2.33c-.82,1.07-1.35,2.32-2.08,3.44l-.11-.1a54.29,54.29,0,0,1,1.57-7.24c.34-1.28,0-2-1.19-2.3s-1.77,0-2.14,1.28a73.74,73.74,0,0,0-1.94,9.66,13.44,13.44,0,0,1-3.64,7.37c-.26.28-.6.69-1,.44s-.25-.67-.23-1a32.25,32.25,0,0,1,1.38-6.51c.38-1.31,0-2-1.29-2.26-.48-.1-.69-.23-.66-.76a5,5,0,0,0-.16-1.21,2.52,2.52,0,0,0-2.49-2.25,5,5,0,0,0-4.25,1.82,12.42,12.42,0,0,0-2.68,4.91,17.43,17.43,0,0,1-3.59,6.53,3.44,3.44,0,0,1-1.35,1.14c.1-1.26.15-2.41.28-3.55a23.68,23.68,0,0,1,.86-5.55c.46-1.26-.18-2.16-1.53-2-.76.1-.8-.2-.86-.78a2.6,2.6,0,0,0-2.78-2.58,5,5,0,0,0-3.9,1.54,12.39,12.39,0,0,0-3.47,8.77,6.14,6.14,0,0,0,1.06,4,2.83,2.83,0,0,0,4.59.3,10.86,10.86,0,0,0,1.77-2.53c.25-.47.51-.93.88-1.61,0,2-.15,3.77-.29,5.51a1.32,1.32,0,0,1-.86,1.19,26.49,26.49,0,0,0-5.38,3.06,6,6,0,0,0-2.26,3.14,3.37,3.37,0,0,0,4.19,4.21,6.21,6.21,0,0,0,2.62-1.42,12.79,12.79,0,0,0,4.18-7.29,6.16,6.16,0,0,1,2.46-4.18,8.81,8.81,0,0,0,2-2.35c.13-.18.18-.47.51-.49.2.35.09.73.13,1.09a6,6,0,0,0,1.15,3.23,2.63,2.63,0,0,0,4.26.2,14.25,14.25,0,0,0,2-3.26c.16-.31.21-.71.6-1,0,.24,0,.42.06.6a2.79,2.79,0,0,0,1.76,2.47,2.82,2.82,0,0,0,3-.74,9.26,9.26,0,0,0,1.07-1.18c.48-.66.92-1.37,1.42-2.13.09.92.12,1.73.25,2.52a2,2,0,0,0,2.6,1.72c.53-.13.8-.4.71-1-.72-4.83,1.41-8.77,4-12.57a5.32,5.32,0,0,1,2.28-1.91c.76-.34,1.13-.13,1.25.67a6.48,6.48,0,0,1-.16,2.15c-.5,2.71-1.21,5.38-1.51,8.12a8.7,8.7,0,0,0,.41,4.08,3.16,3.16,0,0,0,5.37,1.13,12.42,12.42,0,0,0,2.11-3.2c.38-.74.72-1.5,1.14-2.37.12.5.19.83.29,1.16a7.86,7.86,0,0,0,.38,1.06,4.28,4.28,0,0,0,7.13,1.34,5.58,5.58,0,0,0,1.31-1.71,1.07,1.07,0,0,1,1.23-.69c2.29.16,4.35-1.64,5-4.14C1429,245.34,1428.87,245.06,1428.5,245ZM1370,262.71a4.31,4.31,0,0,1-2.17,1.85,2.32,2.32,0,0,1-2.46-.38,2.21,2.21,0,0,1-.65-2.31,3.37,3.37,0,0,1,.92-1.72c1.71-1.76,3.93-2.68,6.21-3.85C1371.47,258.63,1371.18,260.79,1370,262.71Zm2.87-18.53a28.78,28.78,0,0,1-3.12,6.9c-.48.71-1,1.78-1.93,1.51s-.6-1.44-.7-2.26a18.58,18.58,0,0,1,2.83-9.12,4.31,4.31,0,0,1,1.25-1.37c1-.62,1.62-.37,1.87.73A6.71,6.71,0,0,1,1372.88,244.18Zm16-1.32a35.26,35.26,0,0,1-3.73,10c-.42.69-.84,1.77-1.79,1.47-.78-.24-.57-1.33-.63-2.09,0-.16,0-.31,0-.47a23.11,23.11,0,0,1,3-10.35,4,4,0,0,1,1.68-1.72.79.79,0,0,1,1.21.44A4.21,4.21,0,0,1,1388.86,242.86Zm32.91,6.86a5.59,5.59,0,0,1-2.26,2.43,1.72,1.72,0,0,1-2.43-.66c-1.18-2-.22-7.12,1.68-8.64.1.73.16,1.44.31,2.12a6.5,6.5,0,0,0,2.44,4.09C1421.73,249.22,1422,249.35,1421.77,249.72Zm1.7-6.52a15.26,15.26,0,0,1-.8,4.49c-.19.58-.39.55-.75.21a4.13,4.13,0,0,1-.63-.69,7.76,7.76,0,0,1-.88-7.05c.18-.54.46-1,1.15-1.09a1.47,1.47,0,0,1,1.43,1A6.64,6.64,0,0,1,1423.47,243.2Z"/><path class="cls-4" d="M1476.19,270.11l-.2.43a.51.51,0,0,1,0-.6Z"/><path class="cls-4" d="M1438,270.11l-.2.43a.51.51,0,0,1,0-.6Z"/><path class="cls-3" d="M1366.89,61.18a157.3,157.3,0,1,1-60.28,11.92A157.67,157.67,0,0,1,1366.89,61.18Zm0,0a157.22,157.22,0,1,0,60.24,12A157.44,157.44,0,0,0,1366.89,61.18Z"/><path class="cls-3" d="M1366.89,383.44a157.19,157.19,0,1,1,60.29-11.91A157.8,157.8,0,0,1,1366.89,383.44Zm0,0a157.06,157.06,0,1,0-60.24-12A157.55,157.55,0,0,0,1366.89,383.44Z"/><path class="cls-3" d="M1528,222.31A157.3,157.3,0,1,1,1516.11,162,157.62,157.62,0,0,1,1528,222.31Zm0,0a157.17,157.17,0,1,0-12,60.24A157.78,157.78,0,0,0,1528,222.31Z"/><path class="cls-3" d="M1205.76,222.31a157.3,157.3,0,1,1,11.92,60.28A157.62,157.62,0,0,1,1205.76,222.31Zm0,0a157.22,157.22,0,1,0,12-60.24A157.59,157.59,0,0,0,1205.76,222.31Z"/><text class="cls-6" transform="translate(608.5 706.73)">O<tspan class="cls-7" x="16.23" y="0">r</tspan><tspan class="cls-8" x="24.48" y="0">g</tspan><tspan x="35.45" y="0">ano India </tspan><tspan class="cls-9" x="133.83" y="0">f</tspan><tspan x="141.06" y="0">ounded</tspan></text><text class="cls-6" transform="translate(1162.42 685.52)">Supply of O<tspan class="cls-7" x="114.82" y="0">r</tspan><tspan class="cls-8" x="123.07" y="0">g</tspan><tspan x="134.04" y="0">anic </tspan><tspan class="cls-10" x="180.13" y="0">V</tspan><tspan x="193.09" y="0">e</tspan><tspan class="cls-11" x="205.17" y="0">g</tspan><tspan class="cls-12" x="216.29" y="0">e</tspan><tspan class="cls-13" x="228.21" y="0">t</tspan><tspan x="236.3" y="0">ables </tspan><tspan x="14.3" y="26">in </tspan><tspan class="cls-14" x="38.5" y="26">c</tspan><tspan x="48.42" y="26">ollabo</tspan><tspan class="cls-15" x="110.74" y="26">r</tspan><tspan class="cls-16" x="118.75" y="26">a</tspan><tspan x="130.37" y="26">tion with </tspan><tspan class="cls-10" x="226.03" y="26">V</tspan><tspan x="238.99" y="26">e</tspan><tspan class="cls-11" x="251.07" y="26">g</tspan><tspan x="262.2" y="26">e </tspan><tspan class="cls-16" x="48.05" y="52">v</tspan><tspan x="59.18" y="52">endor in soci</tspan><tspan class="cls-12" x="186.49" y="52">e</tspan><tspan x="198.41" y="52">ties.</tspan></text><text class="cls-17" transform="translate(1168.86 534.22)">April</text><text class="cls-17" transform="translate(1764.03 534.22)">June</text><text class="cls-18" transform="translate(576.16 637.85)">2016</text><text class="cls-19" transform="translate(579.44 641.13)">2016</text><text class="cls-18" transform="translate(1165.58 637.85)">2017</text><text class="cls-19" transform="translate(1168.86 641.13)">2017</text><line class="cls-20" x1="876.54" y1="602.85" x2="1147.45" y2="602.85"/><text class="cls-6" transform="translate(1775.95 685.52)"><tspan class="cls-21">R</tspan><tspan x="13.16" y="0">eached 500 </tspan><tspan class="cls-22" x="132.32" y="0">f</tspan><tspan x="139.52" y="0">armer base</tspan></text><text class="cls-18" transform="translate(1760.75 637.85)">2017</text><text class="cls-19" transform="translate(1764.03 641.13)">2017</text><line class="cls-20" x1="1468.83" y1="602.85" x2="1739.75" y2="602.85"/><line class="cls-20" x1="1231.44" y1="900.95" x2="1502.35" y2="900.95"/><text class="cls-17" transform="translate(1535.31 832.33)">Oc<tspan class="cls-13" x="39.41" y="0">t</tspan><tspan x="51.54" y="0">ober</tspan></text><text class="cls-6" transform="translate(1534.85 983.62)"><tspan class="cls-23">W</tspan><tspan x="20.89" y="0">e </tspan><tspan class="cls-24" x="38.4" y="0">r</tspan><tspan x="46.66" y="0">eached 4 </tspan><tspan class="cls-24" x="141.49" y="0">s</tspan><tspan class="cls-13" x="150.8" y="0">t</tspan><tspan class="cls-16" x="158.88" y="0">a</tspan><tspan class="cls-25" x="170.51" y="0">t</tspan><tspan x="178.54" y="0">es &amp; 2000 </tspan><tspan class="cls-26" x="72.32" y="26">F</tspan><tspan x="82.68" y="26">arme</tspan><tspan class="cls-25" x="134.67" y="26">r</tspan><tspan x="142.9" y="26">s base</tspan></text><text class="cls-18" transform="translate(1532.03 935.95)">2017</text><text class="cls-19" transform="translate(1535.31 939.23)">2017</text><text class="cls-17" transform="translate(922.79 832.33)">Janua<tspan class="cls-27" x="86.1" y="0">r</tspan><tspan x="99.05" y="0">y</tspan></text><text class="cls-6" transform="translate(920.3 983.62)"><tspan class="cls-23">W</tspan><tspan x="20.89" y="0">e S</tspan><tspan class="cls-13" x="49.75" y="0">t</tspan><tspan x="57.83" y="0">ar</tspan><tspan class="cls-25" x="78.21" y="0">t</tspan><tspan x="86.24" y="0">ed </tspan><tspan class="cls-14" x="116.63" y="0">c</tspan><tspan x="126.55" y="0">onnecting FPOs </tspan><tspan x="-6.34" y="26">&amp; </tspan><tspan class="cls-21" x="16" y="26">R</tspan><tspan x="29.16" y="26">eached 15 Fpos with 5000 </tspan><tspan class="cls-26" x="78.99" y="52">F</tspan><tspan x="89.35" y="52">armer base</tspan></text><text class="cls-18" transform="translate(919.51 935.95)">2018</text><text class="cls-19" transform="translate(922.79 939.23)">2018</text><line class="cls-20" x1="1034.07" y1="1199.33" x2="1304.99" y2="1199.33"/><text class="cls-17" transform="translate(728.68 1130.71)">N<tspan class="cls-28" x="23.71" y="0">o</tspan><tspan class="cls-16" x="42.96" y="0">v</tspan><tspan x="59.66" y="0">ember</tspan></text><text class="cls-17" transform="translate(1940.69 1130.71)">N<tspan class="cls-28" x="23.71" y="0">o</tspan><tspan class="cls-16" x="42.96" y="0">v</tspan><tspan x="59.66" y="0">ember</tspan></text><text class="cls-6" transform="translate(731.06 1282)"><tspan class="cls-23">W</tspan><tspan x="20.89" y="0">e </tspan><tspan class="cls-24" x="38.4" y="0">r</tspan><tspan x="46.66" y="0">eached 35 FPOs with a </tspan><tspan x="14.95" y="26">10000 </tspan><tspan class="cls-26" x="81.2" y="26">F</tspan><tspan x="91.56" y="26">armer base &amp; 35 </tspan><tspan class="cls-22" x="59.09" y="52">P</tspan><tspan x="71.48" y="52">o</tspan><tspan class="cls-25" x="84.38" y="52">t</tspan><tspan x="92.41" y="52">e</tspan><tspan class="cls-16" x="104.49" y="52">n</tspan><tspan x="117.15" y="52">tial bu</tspan><tspan class="cls-24" x="180.12" y="52">y</tspan><tspan x="191.22" y="52">er</tspan></text><text class="cls-18" transform="translate(725.4 1234.33)">2019</text><text class="cls-19" transform="translate(728.68 1237.61)">2019</text><line class="cls-20" x1="1640.08" y1="1199.33" x2="1910.99" y2="1199.33"/><text class="cls-17" transform="translate(1334.69 1130.71)">April</text><text class="cls-6" transform="translate(1351.67 1282)">7 S<tspan class="cls-13" x="28.93" y="0">t</tspan><tspan class="cls-16" x="37.02" y="0">a</tspan><tspan class="cls-25" x="48.64" y="0">t</tspan><tspan x="56.67" y="0">es, 60 FPOs, 20000 </tspan><tspan class="cls-22" x="82.36" y="26">f</tspan><tspan x="89.57" y="26">arme</tspan><tspan class="cls-25" x="141.55" y="26">r</tspan><tspan x="149.79" y="26">s</tspan></text><text class="cls-18" transform="translate(1331.41 1234.33)">2020</text><text class="cls-19" transform="translate(1334.69 1237.61)">2020</text><text class="cls-6" transform="translate(1951.59 1282)">10 S<tspan class="cls-13" x="41.1" y="0">t</tspan><tspan class="cls-16" x="49.18" y="0">a</tspan><tspan class="cls-25" x="60.81" y="0">t</tspan><tspan x="68.84" y="0">es, 70 FPOs, 30000 </tspan><tspan class="cls-22" x="85.24" y="26">f</tspan><tspan x="92.44" y="26">arme</tspan><tspan class="cls-25" x="144.43" y="26">r</tspan><tspan x="152.67" y="26">s.</tspan></text><text class="cls-18" transform="translate(1937.41 1234.33)">2020</text><text class="cls-19" transform="translate(1940.69 1237.61)">2020</text><path class="cls-20" d="M679.51,1199.33H653.66a149.18,149.18,0,0,1-149.19-149.19h0A149.19,149.19,0,0,1,653.66,901H890.38"/><path class="cls-20" d="M2054.28,602.85h25.85A149.18,149.18,0,0,1,2229.32,752h0a149.19,149.19,0,0,1-149.19,149.19H1843.4"/></svg>