<svg id="Layer_1" data-name="Layer 1" xmlns="http://www.w3.org/2000/svg" viewBox="0 0 160 160"><defs><style>.cls-1{fill:#fff;stroke:#f89521;stroke-miterlimit:10;}.cls-2{fill:#0c6a38;}</style></defs><circle class="cls-1" cx="80" cy="80" r="66.49"/><path class="cls-2" d="M67.82,55.8a1.66,1.66,0,0,0,1,.29,1.7,1.7,0,0,0,1.42-.75c.63-.94,2.89-3.87,5.66-2.43A21.09,21.09,0,0,0,81.74,55l.25,0a23.61,23.61,0,0,0,6.17.19,3.32,3.32,0,0,1,2.07.47,1.72,1.72,0,0,0,2.35-.56A1.7,1.7,0,0,0,92,52.82a6.65,6.65,0,0,0-4.13-1,24.81,24.81,0,0,1-3.53.07,11.73,11.73,0,0,1,6.36-6.63,1.71,1.71,0,1,0-1.34-3.14,14.75,14.75,0,0,0-2.26,1.2,9.91,9.91,0,0,0-1.71-4.76,9.66,9.66,0,0,0-9.26-4.07,1.71,1.71,0,0,0-1.28.89,9.64,9.64,0,0,0,.58,10.09,9.93,9.93,0,0,0,6.21,4,13.8,13.8,0,0,0-.72,1.78,19,19,0,0,1-3.51-1.45C74,48.08,70,49.47,67.35,53.43A1.71,1.71,0,0,0,67.82,55.8ZM78.26,43.55a6.21,6.21,0,0,1-.75-5.7,6.24,6.24,0,0,1,5.09,2.69,6.43,6.43,0,0,1,.8,5.77A6.41,6.41,0,0,1,78.26,43.55ZM88.47,60.37a1.72,1.72,0,0,1-2.38.44,1,1,0,0,0-.69-.18,1.71,1.71,0,1,1-.2-3.41A4.48,4.48,0,0,1,88,58,1.72,1.72,0,0,1,88.47,60.37ZM120.35,38a9.63,9.63,0,0,0-10.08-.79,9.9,9.9,0,0,0-3.77,3.37,15.51,15.51,0,0,0-1.41-2.11,1.71,1.71,0,0,0-2.67,2.14,11.7,11.7,0,0,1,2.43,9.15,9.53,9.53,0,0,0-5.4,1,9.42,9.42,0,0,0-4.65,5.54l-1.1,3.51c-3.63.13-7.24,3.2-9,7.88a1.7,1.7,0,0,0,1,2.2,1.87,1.87,0,0,0,.61.11,1.69,1.69,0,0,0,1.59-1.11c1.38-3.64,4.32-6.1,6.68-5.6a1.72,1.72,0,0,0,2-1.16l1.51-4.81a6.05,6.05,0,0,1,7.57-3.94h0A6,6,0,0,1,109.57,61L108,65.82A1.72,1.72,0,0,0,109,67.9a3.6,3.6,0,0,1,1.56,1.36,1.7,1.7,0,1,0,2.84-1.88,7.17,7.17,0,0,0-1.68-1.82L112.83,62a9.46,9.46,0,0,0-4.69-11.23,14.58,14.58,0,0,0,.25-2.08,10.07,10.07,0,0,0,7.38-.67,9.64,9.64,0,0,0,5.28-8.63A1.69,1.69,0,0,0,120.35,38Zm-6.13,7a6.49,6.49,0,0,1-5.87,0,6.63,6.63,0,0,1,3.47-4.75,6.24,6.24,0,0,1,5.75,0A6.22,6.22,0,0,1,114.22,45Zm-9,21.16a4.83,4.83,0,0,0-.25,2A1.71,1.71,0,0,1,103.4,70h-.18a1.72,1.72,0,0,1-1.7-1.53,8.32,8.32,0,0,1,.39-3.41L103.83,59a1.71,1.71,0,0,1,3.26,1Zm-60-6.48a10,10,0,0,0,7.41-.14A16.64,16.64,0,0,0,53,61.34a19,19,0,0,1-3.71.8c-3,.37-5.2,2.48-6,5.79a1.7,1.7,0,0,0,1.27,2,1.74,1.74,0,0,0,.39,0,1.7,1.7,0,0,0,1.66-1.31,3.74,3.74,0,0,1,3.08-3.19,21.3,21.3,0,0,0,6-1.58l.11,0,.18-.09a23.52,23.52,0,0,0,5.17-3.33,3.46,3.46,0,0,1,3.41-.58c2.5.78,4.89,3.58,5.81,6.79a12.23,12.23,0,0,1,.37,1.84,1.71,1.71,0,1,0,3.39-.43,15.29,15.29,0,0,0-.48-2.35c-1.23-4.32-4.48-8-8.07-9.11A6.87,6.87,0,0,0,59,57.84a24.65,24.65,0,0,1-2.86,2.06,11.71,11.71,0,0,1,1.48-9.07A1.71,1.71,0,1,0,54.73,49a14.49,14.49,0,0,0-1.17,2.24,10,10,0,0,0-4.12-2.93,9.64,9.64,0,0,0-9.93,1.89A1.7,1.7,0,0,0,39,51.65,9.64,9.64,0,0,0,45.15,59.65Zm3.08-8.14a6.61,6.61,0,0,1,4,4.33,6.46,6.46,0,0,1-5.84.61,6.23,6.23,0,0,1-3.85-4.28A6.24,6.24,0,0,1,48.23,51.51ZM68.37,67.83a1.7,1.7,0,0,1-1.2,2.09,1.41,1.41,0,0,1-.45.07,1.72,1.72,0,0,1-1.65-1.26,3.52,3.52,0,0,0-2-2.41,1.08,1.08,0,0,0-1.11.16,1.71,1.71,0,0,1-2.11-2.69,4.49,4.49,0,0,1,4.3-.71A6.92,6.92,0,0,1,68.37,67.83ZM48,105.54a1.7,1.7,0,0,1,1.7,1.71v.44a1.71,1.71,0,0,1-3.41,0v-.44A1.7,1.7,0,0,1,48,105.54Zm60.64,3.85a1.7,1.7,0,0,1-1.71-1.7v-.44a1.71,1.71,0,1,1,3.41,0v.44A1.7,1.7,0,0,1,108.65,109.39ZM48,92.17a1.71,1.71,0,0,1,1.7,1.71v.44a1.71,1.71,0,1,1-3.41,0v-.44A1.71,1.71,0,0,1,48,92.17ZM108.65,96a1.71,1.71,0,0,1-1.71-1.71v-.44a1.71,1.71,0,1,1,3.41,0v.44A1.71,1.71,0,0,1,108.65,96ZM112,72.34H44.62a4.86,4.86,0,0,0-4.85,4.86v7.07a4.81,4.81,0,0,0,1.16,3.15,4.76,4.76,0,0,0-1.16,3.14v7.07a4.79,4.79,0,0,0,1.16,3.15,4.81,4.81,0,0,0-1.16,3.15V111a4.86,4.86,0,0,0,4.85,4.86H73.85a1.71,1.71,0,1,0,0-3.42H44.62A1.44,1.44,0,0,1,43.18,111v-7.07a1.45,1.45,0,0,1,1.44-1.44H85.43a1.71,1.71,0,0,0,0-3.42H44.62a1.44,1.44,0,0,1-1.44-1.44V90.56a1.45,1.45,0,0,1,1.44-1.44H112a1.45,1.45,0,0,1,1.44,1.44v7.07A1.44,1.44,0,0,1,112,99.07H100.15a1.71,1.71,0,0,0,0,3.42H112a1.45,1.45,0,0,1,1.44,1.44V111a1.44,1.44,0,0,1-1.44,1.44h-5.78a1.71,1.71,0,0,0,0,3.42H112a4.87,4.87,0,0,0,4.86-4.86v-7.07a4.82,4.82,0,0,0-1.17-3.15,4.8,4.8,0,0,0,1.17-3.15V90.56a4.77,4.77,0,0,0-1.17-3.14,4.82,4.82,0,0,0,1.17-3.15V77.2A4.87,4.87,0,0,0,112,72.34ZM43.18,77.2a1.44,1.44,0,0,1,1.44-1.44H112a1.44,1.44,0,0,1,1.44,1.44v7.07A1.45,1.45,0,0,1,112,85.71H44.62a1.45,1.45,0,0,1-1.44-1.44ZM46.3,81v-.44a1.71,1.71,0,1,1,3.41,0V81a1.71,1.71,0,1,1-3.41,0Zm60.64,0v-.44a1.71,1.71,0,1,1,3.41,0V81a1.71,1.71,0,1,1-3.41,0Zm-7.77,25.7a5.51,5.51,0,0,0-5.25-1.26h0c-.66.18-1.29.33-1.91.44A8.26,8.26,0,0,1,95.44,101a1.72,1.72,0,0,0,.47-2.37,1.7,1.7,0,0,0-2.37-.47,11.7,11.7,0,0,0-5,7.78,15,15,0,0,1-2.29-.51A5.4,5.4,0,0,0,81,106.55c-2.27,1.94-3.48,5.61-3,9.13.76,5.55,5.16,9.89,10,9.89a7.52,7.52,0,0,0,2-.27,7.5,7.5,0,0,0,2,.27c4.86,0,9.27-4.34,10-9.89C102.56,112.22,101.39,108.59,99.17,106.65Zm-.47,8.57c-.51,3.76-3.55,6.93-6.64,6.93a3.93,3.93,0,0,1-1.42-.25,1.7,1.7,0,0,0-.59-.1,1.51,1.51,0,0,0-.59.11,4.25,4.25,0,0,1-1.43.24c-3.08,0-6.12-3.17-6.64-6.93-.32-2.34.45-4.9,1.83-6.07a2,2,0,0,1,2-.48,16.18,16.18,0,0,0,4.73.75h.19a18,18,0,0,0,4.67-.74h0a2.14,2.14,0,0,1,2.1.54A7,7,0,0,1,98.7,115.22Z"/></svg>