<svg id="Layer_1" data-name="Layer 1" xmlns="http://www.w3.org/2000/svg" viewBox="0 0 160 160"><defs><style>.cls-1{fill:#fff;stroke:#f89521;stroke-miterlimit:10;}.cls-2{fill:#0c6a38;}</style></defs><circle class="cls-1" cx="80" cy="80" r="66.49"/><path class="cls-2" d="M107.09,55.4c0,3.1-2.26,5-3.9,6.36-.62.53-1.78,1.48-1.78,1.84a2.49,2.49,0,0,1-2.51,2.51h0a2.5,2.5,0,0,1-2.53-2.47c0-2.74,2-4.39,3.59-5.74,1.26-1.06,2.09-1.8,2.09-2.49a2.51,2.51,0,0,0-5,0,2.54,2.54,0,1,1-5.07,0,7.58,7.58,0,0,1,15.15,0ZM98.94,68.45A2.49,2.49,0,0,0,96.47,71v0a2.47,2.47,0,0,0,2.47,2.52,2.54,2.54,0,1,0,0-5.08ZM47.88,86.1a2.54,2.54,0,0,0,0,5.07h.21a2.54,2.54,0,0,0,0-5.07Zm8.8,0a2.54,2.54,0,0,0,0,5.07h.21a2.54,2.54,0,1,0,0-5.07Zm74.41-40.46V74.15a12.18,12.18,0,0,1-12.16,12.23H84.46c-.47,0-1,0-1.19,0S82.54,87,82,87.46l-.67.6-9.3,8.47a2.55,2.55,0,0,1-2.75.45,2.58,2.58,0,0,1-1.57-2.32V67.8H41.22A7.26,7.26,0,0,0,34,75v28.51a7.15,7.15,0,0,0,7.24,7.07h36.7a2.54,2.54,0,0,1,1.69.72l7.57,7V94.21a2.54,2.54,0,0,1,5.07,0V124a2.48,2.48,0,0,1-2.5,2.51,2.6,2.6,0,0,1-1.71-.69L76.93,115.66H41.22a12.22,12.22,0,0,1-12.31-12.14V75A12.33,12.33,0,0,1,41.22,62.74H67.75V45.64A12.29,12.29,0,0,1,80.1,33.46h38.83A12.13,12.13,0,0,1,131.09,45.64Zm-5.07,0a7.06,7.06,0,0,0-7.09-7.11H80.1a7.22,7.22,0,0,0-7.28,7.11V88.92l5.1-4.6c.23-.22.5-.41.69-.59,2.32-2.15,2.92-2.49,6-2.43l1.51,0h32.86A7.11,7.11,0,0,0,126,74.15V45.64Z"/></svg>