<svg id="Layer_1" data-name="Layer 1" xmlns="http://www.w3.org/2000/svg" viewBox="0 0 1803.89 2304"><defs><style>.cls-1{fill:#0c6a38;}.cls-2{fill:#070909;}.cls-18,.cls-3{fill:#f89521;}.cls-4{fill:#fff;}.cls-5{fill:#8dc641;}.cls-6{font-size:24px;}.cls-17,.cls-6{fill:#231f20;}.cls-17,.cls-18,.cls-19,.cls-6{font-family:Calibri-Bold, Calibri;font-weight:700;}.cls-7{letter-spacing:-0.01em;}.cls-8{letter-spacing:-0.02em;}.cls-9{letter-spacing:-0.02em;}.cls-10{letter-spacing:-0.05em;}.cls-11{letter-spacing:-0.01em;}.cls-12{letter-spacing:-0.01em;}.cls-13{letter-spacing:-0.01em;}.cls-14{letter-spacing:0em;}.cls-15{letter-spacing:-0.02em;}.cls-16{letter-spacing:-0.01em;}.cls-17{font-size:36px;}.cls-18,.cls-19{font-size:135.98px;}.cls-19,.cls-20{fill:none;stroke-miterlimit:10;}.cls-19{stroke:#f89521;}.cls-20{stroke:#231f20;stroke-width:4px;}.cls-21{letter-spacing:-0.01em;}.cls-22{letter-spacing:-0.02em;}.cls-23{letter-spacing:-0.04em;}.cls-24{letter-spacing:-0.01em;}.cls-25{letter-spacing:-0.01em;}.cls-26{letter-spacing:-0.03em;}.cls-27{letter-spacing:0em;}.cls-28{letter-spacing:0em;}</style></defs><path class="cls-1" d="M811.59,552.31c-11.34,1.57-22.79,8.77-24,24.47,0,.41.16,1-.26,1.21s-.87-.29-1.23-.56a126.13,126.13,0,0,0-17.39-11.37c-6.08-3.15-12.43-5.44-19.39-4.79-13.42,1.26-24.52,7.29-33.72,17a23.55,23.55,0,0,0-5.17,8.16c3.55-1.65,6.92-2.49,10.52-1.82a36.72,36.72,0,0,1,15,6.91c7.49,5.5,14.8,11.25,22.2,16.89,3.64,2.78,7.31,5.54,11.59,7.32,3,1.25,6,2.28,9.36,1.63,5.24-1,10.52-6.56,7.61-14.51s-8.17-14.35-14.78-19.64c-4.08-3.25-8.69-5.67-13.07-8.44-.18-.07-.51,0-.42-.32,0-.06.43,0,.66,0a45.63,45.63,0,0,1,12.86,5.65c11,6.81,18,16.81,23,28.44,4.92,11.46,7,23.56,8,35.91,1.25,14.94.6,29.72-3.14,44.29-3.87,15.06-10.19,28.75-21.6,39.77-11.85,11.44-27.22,14.45-41.55,7.78-5.64-2.63-10.22-6.72-14.71-10.93-.58-.54-1-1.45-2.15-1.26a60.41,60.41,0,0,0,11.1,12c7.41,6.12,15.74,10.09,25.51,10.26,11.87.21,21.6-4.89,29.91-12.89,8.58-8.27,14.37-18.43,18.63-29.46,6.17-15.93,8.28-32.55,8-49.56a136,136,0,0,0-4.94-33.92c-2.62-9.58-6.82-18.55-10.57-27.7-1.83-4.45-4.06-8.81-4.51-13.69-.54-6,.73-11.45,5.55-15.59.18-.13.49-.4.52-.37.35.34.06.6-.15.86-.26.57-.51,1.13-.77,1.69-2.58,5.7-3,11.45-.2,17.19,1.78,3.6,4.92,4.49,8.35,2.44a17.55,17.55,0,0,0,6-6q3-4.83,5.85-9.7c3.1-5.24,6.39-10.33,10.86-14.55.28-.26.82-.39.62-1.07C823.78,552.47,817.78,551.46,811.59,552.31Z"/><path class="cls-1" d="M700.47,692.6c-3.59-1.91-7.58-2.2-11.48-2.8-7-1.08-14-1.51-21-3a22.41,22.41,0,0,1-7.2-2.65c12.67.91,24.87,1.56,37.18,3.62a28.18,28.18,0,0,0-27.72-15.32c-10.8.86-20.69,5.08-31.25,7.5,2.43,3.55,4.63,7,7.2,10.17a22.35,22.35,0,0,0,18.1,8.7c6.61.05,13-1.56,19.57-2.15a56.13,56.13,0,0,1,10.2-.44,20.91,20.91,0,0,1,14.15,7C707,698.6,704.74,694.88,700.47,692.6Z"/><path class="cls-1" d="M886.41,742.13l-.95.11c-1.74.74-3.47,0-5.17-.15-2.77-.18-5.72.81-8.29-1-.36-.25-.56,0-.78.18s-.55.5-.23.75c3.25,2.6-.34,1.43-1,1.8a4.23,4.23,0,0,1-2.15.18c-.34,0-.77-.18-.77.45,0,.46,0,.85.63.87.91,0,2.07-.23,2.7.22,2.34,1.71,5,.7,7.46,1,3.51.48,7-.4,10.5-1.12,1-.21,2.42.24,2.43-1.61,0-.36.6-.42,1.09-.3a6.91,6.91,0,0,0,1.51,0l0-.51A49.94,49.94,0,0,0,886.41,742.13Z"/><path class="cls-2" d="M1130.55,767.12c-.86-.32-.36-1.16-.3-1.79s.21-1.34.27-2c.24-2.46,1-4.86.92-7.35,0-.93-.18-1.78-1.12-2.14a2.18,2.18,0,0,0-2.37.63,9.87,9.87,0,0,0-1.92,2.49c-.41.71-.81,1.43-1.31,2.29,0-1.27,0-2.3,0-3.33a2,2,0,0,0-1.17-2.12,2.12,2.12,0,0,0-2.18.7,16,16,0,0,0-3.16,4.76l-.39.85a1,1,0,0,1,0-1.18c.07-1.24.2-2.47.21-3.7a1.41,1.41,0,0,0-1.67-1.53c-1.58.07-3.72,2.36-3.81,4.08.56-.63,1.07-1.25,1.63-1.82.38-.4.82-.9,1.42-.54s.3.86.22,1.35c-.55,3.54-1,7.09-1.66,10.61-.25,1.32.19,1.27,1.21,1.17s1-.74,1.07-1.42a19.46,19.46,0,0,1,3.74-9.53c.49-.73,1-2,1.91-1.64s.37,1.69.25,2.55c-.39,2.82-1,5.61-1.34,8.42-.08.53-.63,1.52.38,1.67s1.76-.13,1.81-1.49c.11-3.37,1.58-6.3,3.29-9.12.55-.92,1.2-2.48,2.25-2.07s.34,2,.21,3c-.32,2.51-.77,5-1,7.52-.11,1,0,2.19,1.51,2.27s4-2.22,4-4c-.45.53-.83,1-1.24,1.46S1131.26,767.38,1130.55,767.12Z"/><path class="cls-2" d="M1061.08,753.79a5.9,5.9,0,0,0-5.23,2.2,13.3,13.3,0,0,0-3.42,7.45c-.19,1.68.46,3.26.59,4.8.11,1.26-2.2,2.25-2.84,3.87-1.09,2.77.31,5,3.25,5.2a5.67,5.67,0,0,0,4.38-1.62,10.59,10.59,0,0,0,3.22-5.92c.84-4.55,1.2-9.18,2.19-13.71C1063.7,753.83,1063.64,753.81,1061.08,753.79ZM1058.42,773a4.34,4.34,0,0,1-2,2.8,3.16,3.16,0,0,1-4.53-3.25,5,5,0,0,1,2.58-3.89,10.15,10.15,0,0,0,4.83-5.38c.1-.22.21-.43.33-.64,0,0,.12,0,.33,0C1059.56,766.14,1059.46,769.66,1058.42,773Zm2.27-15.31a18.06,18.06,0,0,1-3.79,7.68c-.42.55-1,1.34-1.82.9s-.58-1.28-.62-1.94a21.43,21.43,0,0,1,1.75-7.2,3.17,3.17,0,0,1,1.56-1.75,3.06,3.06,0,0,1,2.84.3C1061.5,756.31,1060.81,757.08,1060.69,757.73Z"/><path class="cls-2" d="M1088.29,749.21c.13-.72-.52-.54-.9-.54-1.93,0-3.86-.12-5.77,0-5.22.45-8,3.23-7.78,7.75a2.46,2.46,0,0,0,2.1-2.57,4.11,4.11,0,0,1,3.22-3.83c.49-.07,1-.26.91.62-.35,2.32-.71,4.64-1,7-.12,1-1.26.34-1.49,1.11-.35,1.21,1.26.19,1.16,1.06,0,.12-.06.24-.08.36a54,54,0,0,1-1.76,9.46c-1.12,3.47-3.1,3.89-5.65,1.16-.33.73-1.45,1.17-1.11,2a2.63,2.63,0,0,0,2.68,1.31,6.08,6.08,0,0,0,4.85-3,19.09,19.09,0,0,0,3-9.61c.16-1.86.89-2.37,2.54-2,1,.22,1.82.26,2.06-1.16h-4.07c.33-2.13.65-4.14,1-6.14.39-2.5.38-2.43,2.85-2.09,1.54.22,2,1.15,1.83,3A6.87,6.87,0,0,0,1088.29,749.21Z"/><path class="cls-2" d="M979.21,767.08c-.49-.28-.31-.86-.24-1.35.42-2.94.87-5.87,1.21-8.81.13-1.14.28-2.52-1.06-3.08s-2.36.39-3.16,1.36c-.67.8-1.16,1.74-1.77,2.6-.35.5-.36,1.26-1.21,1.64.17-1.25.37-2.35.45-3.45.12-1.75-.83-2.7-2.27-2.17a5.31,5.31,0,0,0-3.46,3.88,19.36,19.36,0,0,0,1.69-1.7c.42-.44.91-1,1.57-.59s.25,1,.17,1.54c-.56,3.48-1.15,6.95-1.66,10.43-.06.39-.57,1.21.43,1.27.66.05,1.42.08,1.66-.8a6.8,6.8,0,0,0,.12-.92,21.8,21.8,0,0,1,3.71-9.36c.52-.81,1.18-2.09,2.14-1.68s.39,1.75.26,2.7c-.36,2.63-.79,5.25-1,7.89-.17,1.75.72,2.67,2.07,2.18a5,5,0,0,0,3.39-4c-.53.6-1,1.22-1.59,1.78C980.24,766.86,979.83,767.44,979.21,767.08Z"/><path class="cls-2" d="M1049.9,766.35c-.42.41-.83,1.13-1.53.74s-.3-1.11-.21-1.7c.41-2.87.86-5.74,1.22-8.63.14-1.1.15-2.35-1.05-2.92s-2.14.23-2.94,1a17.65,17.65,0,0,0-2.78,4.36c-.12.27-.25.53-.39.85a1,1,0,0,1,0-1.18c.09-1.18.23-2.35.25-3.52s-.52-1.77-1.71-1.71c-1.57.08-3.72,2.36-3.8,4.08.55-.63,1.07-1.25,1.62-1.82.38-.4.82-.9,1.43-.54s.29.87.22,1.35c-.55,3.61-1,7.23-1.67,10.81-.22,1.26.33,1.17,1.16,1.08,1-.12,1.06-1,1.11-1.67.28-3.43,1.83-6.36,3.56-9.22a8,8,0,0,1,1.45-1.67c.79-.69,1.24-.3,1.31.61a5.58,5.58,0,0,1-.14,1.28c-.41,2.76-.85,5.5-1.21,8.26-.22,1.67.56,2.64,1.88,2.49a4.92,4.92,0,0,0,3.54-3.94C1050.78,765.35,1050.38,765.89,1049.9,766.35Z"/><path class="cls-2" d="M994,767c-.81-.38-.21-1.76-.08-2.71.37-2.7.73-5.39,1-8.1.08-.89.08-2-1-2.4a2.41,2.41,0,0,0-2.68.8,7.35,7.35,0,0,0-1.19,1.42c-.75,1.18-1.44,2.41-2.31,3.88.14-1.69.27-3.07.36-4.45a1.49,1.49,0,0,0-1.43-1.8c-1.62-.14-4,2.23-4,4a11.7,11.7,0,0,1,.86-1c.6-.56,1.09-1.75,2-1.28s.33,1.59.22,2.38c-.45,3.24-1,6.47-1.52,9.71-.06.4-.61,1,.25,1.15.6.06,1.42.25,1.73-.65a5.42,5.42,0,0,0,.3-1.25c.25-3.38,1.86-6.23,3.53-9a7.38,7.38,0,0,1,1.31-1.54c.23-.23.57-.56,1-.34a.93.93,0,0,1,.4,1c-.08,1-.23,2-.36,3-.31,2.32-.73,4.64-.92,7-.12,1.58.83,2.41,2.12,2a4.77,4.77,0,0,0,3.23-3.85,4.88,4.88,0,0,1-.47.55C995.58,766.06,995,767.54,994,767Z"/><path class="cls-2" d="M1097.53,767.1c-1-.42-.4-1.66-.28-2.48.44-3.23,1-6.45,1.55-9.67.08-.48.39-1.07-.43-1.1-2-.07-4.13-.43-5.88,1a13.22,13.22,0,0,0-4.87,11.26,2.43,2.43,0,0,0,1.53,2.54c1.24.39,2.12-.32,2.93-1.15a26.39,26.39,0,0,0,3.07-4.63c.08,1.44-.4,2.82-.26,4.25.11,1.13.63,1.7,1.79,1.6,1.56-.12,3.59-2.3,3.69-4.07-.32.39-.58.73-.87,1C1098.93,766.32,1098.36,767.45,1097.53,767.1Zm-1.42-9.54c-.37,3-2.08,5.36-3.75,7.73-.46.65-1,1.54-1.87,1.24s-.71-1.44-.78-2.31a23.46,23.46,0,0,1,1.66-6.78,3.94,3.94,0,0,1,1.3-1.77,3.08,3.08,0,0,1,3.17,0C1096.93,756.13,1096.19,756.92,1096.11,757.56Z"/><path class="cls-2" d="M955.59,748.78c-3.23-1-6.28-.85-8.76,1.73-3.72,3.85-4.81,8.52-3.92,13.71a5.19,5.19,0,0,0,3.63,4.5c2.58.78,4.85-.27,7.08-1.37.22-.11.23-.65.47-1.39-1.08.46-1.79.82-2.54,1.07-3.31,1.1-5.77-.15-6.3-3.36A17,17,0,0,1,948,751.32a4,4,0,0,1,3-2,4.37,4.37,0,0,1,3,.6c1,.72.74,1.94,1.11,3.13,1-1.07.78-2.28,1.2-3.26C956.59,749.14,956.1,748.94,955.59,748.78Z"/><path class="cls-2" d="M964.65,753.91a3.67,3.67,0,0,0-4.1,1c-3,2.83-4.59,6.29-3.87,10.46.65,3.68,3.58,4.59,6.36,2.06a11.47,11.47,0,0,0,3.78-8.55c0-.38,0-.75,0-1.12C966.74,756.09,966.18,754.59,964.65,753.91ZM963,765.79c-.48,1-1.18,2.09-2.52,1.74S959,766,959,764.84c0-.61,0-1.23,0-1.85a12,12,0,0,1,1.63-6.72c.48-.81,1.08-1.58,2.2-1.36s1.25,1,1.44,1.91A13.39,13.39,0,0,1,963,765.79Z"/><path class="cls-2" d="M1005.69,754c-1.31-.78-2.67-.08-3.7.89A11.82,11.82,0,0,0,998,765c.22,2.33,1.37,3.67,3.09,3.75,2.07.1,5.14-1.91,5.6-3.86-1.33,1-2.47,2.12-4,2.33-1.73.22-2.24-.9-2.43-2.34-.15-1.1-.55-2,1.28-2.24a6.07,6.07,0,0,0,5.23-4.87C1007.13,756.25,1007.06,754.76,1005.69,754Zm-4.15,7.62c-.91.25-1.44.13-1.22-1a10.4,10.4,0,0,1,1.84-4.37c.47-.61,1-1.15,1.86-.89s.73,1.15.77,1.79A4.46,4.46,0,0,1,1001.54,761.57Z"/><path class="cls-2" d="M1142.1,753.89a2.94,2.94,0,0,0-3.27.66,11.84,11.84,0,0,0-4.33,10.68c.23,2.23,1.5,3.44,3.16,3.5,2.1.07,5.12-1.92,5.59-3.82-1.35.88-2.44,2-4,2.29-1.75.3-2.32-.88-2.55-2.24-.19-1.08-.51-2.12,1.41-2.35a6.18,6.18,0,0,0,5.23-5.67C1143.41,755.71,1143.31,754.48,1142.1,753.89Zm-1.48,5.76c-.72,1.09-3.33,2.57-3.66,2-.68-1.08.17-2.18.47-3.24a8.65,8.65,0,0,1,1.11-2.1c.44-.71,1.06-1.3,2-1s.65,1.19.83,1.83A6.41,6.41,0,0,1,1140.62,759.65Z"/><path class="cls-2" d="M1025.73,751.09c.06-.43.76-1.22-.2-1.31a1.47,1.47,0,0,0-1.77,1,6.37,6.37,0,0,0-.29,1.26c0,1.18-.22,2.06-1.74,2-.46,0-.73.5-.72,1,1.83.18,1.84.18,1.66,1.89,0,.55-.17,1.09-.22,1.65-.26,2.7-1,5.36-.92,8.1,0,1.07.27,2,1.59,2.11a4.07,4.07,0,0,0,3.86-3.44c-.36.3-.69.58-1,.84-.54.42-1.11,1-1.81.68s-.41-1.21-.34-1.82c.32-2.76.82-5.5,1.07-8.27.13-1.43.69-1.89,2-1.59,1,.24,1.83.2,2.07-1.18-.33,0-.62-.07-.91-.07C1025.32,753.82,1025.34,753.82,1025.73,751.09Z"/><path class="cls-2" d="M1112.6,753.88a2,2,0,0,0-2,.07,6,6,0,0,0-2.14,2c-.81,1.21-1.54,2.48-2.33,3.77a5.24,5.24,0,0,1,.15-2.07,9.72,9.72,0,0,0,.1-2.22c-.1-1.22-.65-2-2.06-1.68a5.67,5.67,0,0,0-3.49,4.16c.43-.54.78-1,1.2-1.48s.94-1.44,1.76-1.09.44,1.34.35,2c-.47,3.37-1,6.72-1.55,10.08-.06.41-.59,1.07.19,1.18s1.57.4,1.86-.67a9.94,9.94,0,0,0,.29-1.63c.32-3.45,2-6.33,3.94-9,.46-.64,1.1-1.45,1.95-1.06,1.35.62,1.21-.59,1.6-1.1C1112.72,754.78,1113.25,754.26,1112.6,753.88Z"/><path class="cls-2" d="M1156.64,753.92a2.26,2.26,0,0,0-2.44.27,9.31,9.31,0,0,0-2.53,2.92c-.52.84-1,1.71-1.63,2.85,0-1.78.56-3.16.34-4.59s-1.12-2.1-2.33-1.52a5.09,5.09,0,0,0-3.13,4,19.19,19.19,0,0,1,1.27-1.56c.45-.46.89-1.27,1.66-.87s.37,1.13.29,1.69c-.49,3.49-1.06,7-1.58,10.45-.07.4-.6,1.07.28,1.12.6,0,1.45.33,1.75-.59a5.53,5.53,0,0,0,.31-1.44c.23-3.54,1.91-6.46,3.88-9.26.47-.65,1.17-1.51,1.93-1.16,1.59.73,1.3-.79,1.84-1.3C1156.82,754.64,1157,754.11,1156.64,753.92Z"/><path class="cls-2" d="M1017.87,757.92c.35-1.25,1.3-2.64.43-3.68s-2.41-.71-3.68-.23a4.39,4.39,0,0,0-1.27.75,11.79,11.79,0,0,0-4,10.83,3.24,3.24,0,0,0,2.71,3.12c1.93.3,5.12-1.62,6.17-4-1.54,1.07-2.62,2-4.06,2.26a1.81,1.81,0,0,1-2.25-1.11c-1.06-2.43.05-8.34,1.89-10.21a2.49,2.49,0,0,1,2.54-.7c1,.28,1.11,1.19,1.09,2.1C1017.43,757.32,1017.28,757.67,1017.87,757.92Z"/><path class="cls-2" d="M1162.86,753.68a4.44,4.44,0,0,0-4,6.19c.59,1.27,1.53,2.39,2.25,3.61.6,1,1.33,2.11.24,3.2a2.35,2.35,0,0,1-3.37,0c-1.17-1-1.35.13-1.72.67-.66,1,.3,1,.79,1.14a4.47,4.47,0,0,0,4.4-.58c2.17-1.58,2.59-3.76,1.21-6.21a25.78,25.78,0,0,1-2.42-4.16,2.05,2.05,0,0,1,.47-2.23,2,2,0,0,1,2.11-.26c1,.34.72,1.44,1.12,2.23.82-.35.48-1,.65-1.37C1165.39,754,1164.26,753.72,1162.86,753.68Z"/><path class="cls-2" d="M1033.8,767c-1-.44-.26-2.09-.09-3.21.5-3.31,1-6.62,1.54-10.26-1.88,1.06-3.75,1.42-5.14,2.77,2.35-.08,2.44,0,2.21,2.35,0,.37-.16.73-.19,1.1-.25,2.39-1,4.73-.92,7.16,0,1.07.37,1.82,1.6,1.8,1.61,0,3.75-2.24,3.81-4a1.58,1.58,0,0,0-.29.22C1035.57,765.85,1034.9,767.52,1033.8,767Z"/><path class="cls-3" d="M1163.86,709.63a1,1,0,0,0-1.42.49c-.21.45-.32.94-.5,1.4-1.55,4.07-3.22,8.07-6.34,11.24-.65.66-1.4,1.58-2.36,1.16s-.55-1.64-.58-2.53a4.6,4.6,0,0,1,.11-.73,75.07,75.07,0,0,1,2.78-12.13c.62-2.08,0-3.5-2.17-3.86-1.74-.3-1.87-1.18-1.94-2.6-.24-4.74-3.45-7-8-5.72a10.94,10.94,0,0,0-4.63,2.66c-3.24,3-4.93,6.92-6.23,11a32.57,32.57,0,0,1-6,11,9.89,9.89,0,0,1-3.19,2.81c-1,.5-1.72.33-1.69-1a24.71,24.71,0,0,1,.21-3.33,107.62,107.62,0,0,1,4-16,2.94,2.94,0,0,0-1.3-3.67c-2.16-1.51-4.24-.86-5.16,1.62-1.86,5.06-2.82,10.4-4.72,15.45-1.26,3.37-2.44,6.77-4.63,9.69-.59.78-1.31,1.66-2.43,1.39s-1.4-1.33-1.62-2.31a32.05,32.05,0,0,1-.17-9.63,203.68,203.68,0,0,1,6-32.68,3,3,0,0,0-2.3-4c-2.24-.6-3.62,0-4.17,2.15-.82,3.18-1.55,6.38-2.25,9.59-.52,2.37-.93,4.78-1.42,7.3-4.38-4-8.3-3.61-11.85.92a20.78,20.78,0,0,0-3.84,7.78,63.15,63.15,0,0,1-4.83,12.64c-1.32,2.67-2.65,5.36-5,7.3-1.79,1.47-3.38.79-3.62-1.52a16,16,0,0,1,.13-3.52c.45-3.38,1.43-6.66,2.2-10,.94-4.05,2.07-8.06,1.9-12.27-.22-5.39-4.41-8.14-9.41-6.16a11.44,11.44,0,0,0-3,1.86,27,27,0,0,0-6,8,6.52,6.52,0,0,1-1.42,2.3c-.39-.41-.19-.78-.14-1.13a117.57,117.57,0,0,1,3-13.23c.74-2.66,0-4-2.38-4.67s-3.36.1-4.13,2.71a119.49,119.49,0,0,0-3.34,16c-.84,5.59-1.57,11.18-.88,16.85a6,6,0,0,0,1.14,3.09,4.14,4.14,0,0,0,4.62.89c1.39-.64.72-1.76.65-2.76-.27-3.54-.3-7,1.13-10.42,1-2.34,1.83-4.75,2.92-7,1.75-3.65,3.77-7.15,7.21-9.52.88-.61,1.9-1.52,3-.81s.93,2,.85,3.22a5.39,5.39,0,0,1-.08.56c-.88,4.5-1.77,9-2.62,13.5-.74,3.91-1.27,7.84-.14,11.78a6.91,6.91,0,0,0,5.61,5.08c2.63.57,4.35-.93,5.87-2.77.43-.53.8-1.11,1.2-1.66,1.56-2.15,2.55-4.62,4.06-7.41.65,2.44.93,4.36,2.07,6,2.07,2.9,5.46,3.19,7.93.63a20.82,20.82,0,0,0,3.4-4.86c.68-1.28,1.29-2.6,2-4,.48.5.3.95.34,1.35.29,3.34.64,6.67,2.31,9.69,2.26,4.1,6.42,4.47,9.27.79A28.15,28.15,0,0,0,1115,722a4.08,4.08,0,0,1,1.15-1.94,7.63,7.63,0,0,1,.33.75c1.73,6.23,5.75,7.39,10.49,3a10.11,10.11,0,0,0,1.14-1.22c.9-1.14,1.78-2.3,2.89-3.75.06.83.09,1.29.14,1.76a13.89,13.89,0,0,0,2.2,7.19c2.31,3.19,6.15,3.41,8.65.46a20.53,20.53,0,0,0,2.12-3c1-1.69,1.84-3.44,2.89-5.44.2,1,.31,1.75.49,2.46,1,4,5.23,5.55,8.45,3,4.63-3.68,6.54-9.05,8.47-14.37A.93.93,0,0,0,1163.86,709.63Zm-63.66-1.35a44.76,44.76,0,0,1-5.92,13.32c-.73,1.09-1.5,2.87-2.93,2.41-1.23-.39-.73-2.27-.94-3.35a51.88,51.88,0,0,1,4.85-19.66c.55-1.13,1.1-2.72,2.54-2.67,1.62.06,2.08,1.74,2.61,3C1101.36,703.69,1100.84,706,1100.2,708.28Zm46.13,7.26a43.62,43.62,0,0,1-4.8,10.23,9.38,9.38,0,0,1-.88,1.19c-.58.65-1.23,1.41-2.18,1.16s-1.07-1.25-1.18-2.11c-.79-5.88.78-11.42,2.52-16.92a25.65,25.65,0,0,1,3.85-7.79c1-1.34,2.18-3,4-2.47s1.67,2.54,1.75,4.17c0,.24,0,.49,0,.74C1149.18,707.88,1147.63,711.68,1146.33,715.54Z"/><path class="cls-3" d="M1044.74,678.24c-2-.43-3.3.42-3.74,2.57-2.14,10.55-2.57,21.27-3,32.78,0,1.81,0,4.42,0,7a26.7,26.7,0,0,0,.82,7.56,4.3,4.3,0,0,0,4.63,2.63c1.78-.37,1.93-1.71,1.81-3.16a203.89,203.89,0,0,1-.06-24.72,146.59,146.59,0,0,1,1.94-20.91A3,3,0,0,0,1044.74,678.24Z"/><path class="cls-3" d="M1125.35,696.33a3.33,3.33,0,0,0,3.33-3.5,3.25,3.25,0,0,0-3.38-3.21,3.18,3.18,0,0,0-3.2,3.36A3.25,3.25,0,0,0,1125.35,696.33Z"/><path class="cls-2" d="M1033.46,750.84c0-1.86,1.74-2.33,2.89-3.55.11,2.21-1.29,3-2.74,3.73A.43.43,0,0,0,1033.46,750.84Z"/><path class="cls-1" d="M1033.61,751h-.38a2.11,2.11,0,0,0,.23-.19A.43.43,0,0,1,1033.61,751Z"/><path class="cls-4" d="M798.63,563.53c.18-.13.49-.4.52-.37.35.34.06.6-.15.86Z"/><path class="cls-4" d="M759,574.75c-.18-.07-.51,0-.42-.32,0-.06.43,0,.66,0Z"/><path class="cls-4" d="M785.3,675.38c-.21-.18-.28-.53-.09-.6s.22.24.27.43Z"/><path class="cls-4" d="M778.93,714.08l.42,0-.16.34Z"/><path class="cls-4" d="M759.66,683.9a3.29,3.29,0,0,1-.29-.3c.16-.21.37-.13.56,0Z"/><path class="cls-5" d="M873.39,712.82c-2.91-5.1-6.35-9.94-8.39-15.5a183.82,183.82,0,0,1-5.74-20.76c-.25-1,0-1.38,1.13-1.4,12.58-.3,25.16-.67,37.74-1,8-.2,16-.23,24-.49,16.72-.53,33.44-1.19,50.17-1.75q19.89-.66,39.78-1.22c5.22-.14,5.67-2.7,5.65-6.42,0-2.69-1.44-4-4.14-4.35a103.49,103.49,0,0,0-12.45-.34c-21.15,0-42.3.29-63.45.65-9.61.17-19.22.23-28.83.39-13.28.21-26.55-.3-39.82-.36-1.37,0-1.42-.31-.83-1.42a218.55,218.55,0,0,0,18.06-46.26,109.81,109.81,0,0,0,4.08-23.54c.06-1.18.5-1.45,1.58-1.38,1.23.09,2.48,0,3.72,0,1.91,0,2.63-.79,2.64-2.76s-.7-2.78-2.57-2.82a20.67,20.67,0,0,0-3.34,0c-1.47.2-1.76-.51-1.89-1.74a59.56,59.56,0,0,0-1.6-8.77,6,6,0,0,0-2.25-3.73c-2-1.44-3.42-1.13-4.31,1.22-1.48,3.87-2.88,7.77-4.23,11.7-.33,1-.73,1.36-1.8,1.31-2-.09-4.09,0-6.14,0-1.89,0-2.63.83-2.62,2.79s.74,2.76,2.64,2.79,3.76,0,5.58,0a64.77,64.77,0,0,1-3.92,15.11,145.47,145.47,0,0,1-35.53,55.59,3.15,3.15,0,0,1-2.35,1.21c-3.78,0-7.56.18-11.34.28-2.93.07-3.9.92-4.45,3.86a31.76,31.76,0,0,0,0,8.71,3.51,3.51,0,0,0,3.6,3.49,35.7,35.7,0,0,0,3.73,0c3-.18,5.18.68,6.37,3.72.91,2.36,2.23,4.56,3.36,6.83,1.91,3.82,3.38,7.92,6.19,11.2,11.26,13.07,22.76,25.91,35.09,38,2.63,2.58,5.25,5.3,8.91,6.55l.95-.11c1.73-1.33,1.9-2.3.85-4.49C883.16,729.08,878.1,721.05,873.39,712.82Z"/><path class="cls-5" d="M785.15,665.89a19.13,19.13,0,0,0-13.66-3.67c-.83.1-1.9.06-1,1.48a32.78,32.78,0,0,1,4.4,12.53,45,45,0,0,1,.83,8c-6.77-5.9-13.89-10.11-22.86-10.22a30,30,0,0,0-23,9.51c6.45,1.43,11.47,4.84,16,9.07,3.08,2.88,6.05,5.87,9.08,8.8,3.39,3.28,6.7,6.64,10.37,9.61,4.06,3.29,8.52,4.71,13.67,3l.42,0c-.06.11-.11.23-.16.34s-.06.4-.18.52c-6,6.2-13.08,10.52-22,10.55-10.35,0-18.84-4.27-25.63-11.93-7.15-8.06-11.88-17.51-15.16-27.68-5.81-18-5.61-36.25-1.67-54.55,2.72-12.6,8.07-23.9,17-33.37,1.7-1.79,1.71-1.78-.22-3.37-.29-.24-.58-.47-.88-.69-2.18-1.56-3.7-1.49-5.62.37a29.75,29.75,0,0,0-2.52,2.74c-11.16,13.89-15.93,30.18-17.61,47.57a119.73,119.73,0,0,0,1.47,31.68c2.69,15.78,8.43,30.14,19.32,42.15,9.89,10.91,21.87,15.2,36.37,11.56,9.2-2.32,16-7.64,20.16-16.21,1-2,1.56-4.2,0-6.15-4-5.09-7.65-10.39-12.15-15-3.12-3.23-6.89-5.67-10.2-8.65a3.29,3.29,0,0,1-.29-.3c.16-.21.37-.13.56,0,10.62,2.35,18.68,8.37,24.71,17.65a31.34,31.34,0,0,0,2.29-9.83c.44-5.44-.57-10.73-1.63-16-.21-.18-.28-.53-.09-.6s.22.24.27.43c2.1,2.68,3.13,5.85,4.07,9a66.56,66.56,0,0,1,1.87,12.06c.48-.77.8-1.21,1.05-1.69C797.55,684.9,794.33,672.23,785.15,665.89Z"/><path class="cls-5" d="M1023.84,709.49a1.09,1.09,0,0,0-1.44.82,12.15,12.15,0,0,1-1.74,3.47,7.35,7.35,0,0,1-4.88,3.11c-1.19.2-1.95.11-1.31-1.46a24.76,24.76,0,0,0,1.65-8c.19-3.3.19-6.61-1.66-9.54-2.09-3.33-6.18-3.29-8.18.08-.55.93-.83,1.49-2.13.89a3.87,3.87,0,0,0-4,.82,15.6,15.6,0,0,0-5.4,8.67,62,62,0,0,1-6.35,14.81,11.5,11.5,0,0,1-3.57,4.23c-1.33.84-2.42.47-2.9-1a5.83,5.83,0,0,1-.23-1.82c0-4.34,1.46-8.4,2.4-12.56.86-3.87,2-7.71,1.89-11.71-.14-6.45-5.47-9.31-11-5.91a18.14,18.14,0,0,0-4.8,4.61c-1.62,2.12-2.66,4.58-4.12,6.8l-.22-.19A108.1,108.1,0,0,1,969,691.28c.68-2.53,0-3.86-2.36-4.55s-3.5,0-4.23,2.55a142.4,142.4,0,0,0-3.84,19.11A26.64,26.64,0,0,1,951.36,723c-.52.55-1.19,1.35-2.06.86-.72-.42-.49-1.32-.44-2.05a62.27,62.27,0,0,1,2.72-12.89c.75-2.6.07-3.91-2.54-4.47-1-.2-1.37-.46-1.32-1.5a10.31,10.31,0,0,0-.31-2.39,5,5,0,0,0-4.93-4.45c-3.47-.34-6.13,1.22-8.4,3.6a24.08,24.08,0,0,0-5.3,9.7,34.7,34.7,0,0,1-7.12,12.93,6.63,6.63,0,0,1-2.67,2.25c.2-2.49.3-4.76.56-7,.42-3.69.39-7.45,1.69-11,.92-2.49-.35-4.26-3-3.9-1.5.2-1.59-.39-1.71-1.53-.33-3.32-2.19-5-5.48-5.11a10,10,0,0,0-7.73,3.05c-4.77,4.78-6.66,10.75-6.87,17.35a12.21,12.21,0,0,0,2.1,7.94c2.42,3.29,6.28,3.53,9.08.59a22.28,22.28,0,0,0,3.52-5c.49-.93,1-1.85,1.72-3.18,0,4-.3,7.45-.57,10.91a2.55,2.55,0,0,1-1.7,2.34c-3.68,1.78-7.43,3.45-10.63,6.06-2.06,1.67-3.82,3.54-4.48,6.22-1.3,5.33,3,9.59,8.3,8.32a12.26,12.26,0,0,0,5.16-2.82,25.3,25.3,0,0,0,8.29-14.41c.71-3.42,1.9-6.2,4.87-8.26a18.08,18.08,0,0,0,4-4.65c.26-.37.36-.93,1-1a5,5,0,0,1,.25,2.16,12,12,0,0,0,2.27,6.39c2.29,3,5.92,3.16,8.43.4a27.57,27.57,0,0,0,4-6.45c.32-.63.42-1.41,1.2-1.91,0,.48.06.84.12,1.19.36,2.19,1.21,4.09,3.47,4.89a5.62,5.62,0,0,0,6-1.46,18,18,0,0,0,2.11-2.34c1-1.31,1.82-2.71,2.82-4.21.17,1.8.23,3.41.49,5,.47,2.79,2.46,4,5.14,3.4,1.05-.26,1.59-.78,1.42-2-1.43-9.55,2.78-17.36,7.83-24.86a10.56,10.56,0,0,1,4.51-3.79c1.5-.66,2.24-.26,2.47,1.34a12.89,12.89,0,0,1-.32,4.24c-1,5.36-2.39,10.64-3,16.07a17,17,0,0,0,.81,8.06,6.26,6.26,0,0,0,10.63,2.26,25.08,25.08,0,0,0,4.18-6.34c.74-1.47,1.42-3,2.24-4.69.24,1,.37,1.65.57,2.29a19.42,19.42,0,0,0,.75,2.1c2.69,5.9,9.49,7.17,14.13,2.66a12.09,12.09,0,0,0,2.59-3.38,2.08,2.08,0,0,1,2.42-1.37c4.53.3,8.61-3.26,9.94-8.21C1024.78,710.22,1024.58,709.68,1023.84,709.49ZM908.12,744.6a8.56,8.56,0,0,1-4.3,3.66,4.59,4.59,0,0,1-4.87-.75,4.4,4.4,0,0,1-1.29-4.58,6.79,6.79,0,0,1,1.82-3.39c3.38-3.5,7.78-5.32,12.29-7.63C911,736.53,910.42,740.81,908.12,744.6Zm5.66-36.67a55.6,55.6,0,0,1-6.17,13.65c-1,1.41-2,3.54-3.82,3s-1.17-2.85-1.39-4.46a37,37,0,0,1,5.6-18.05,8.75,8.75,0,0,1,2.49-2.72c1.88-1.22,3.2-.73,3.7,1.45A13.13,13.13,0,0,1,913.78,707.93Zm31.64-2.61c-1.68,6.85-3.73,13.59-7.39,19.71-.83,1.37-1.66,3.51-3.55,2.92-1.54-.49-1.12-2.64-1.24-4.15,0-.31,0-.62,0-.93.55-7.23,2.08-14.17,5.85-20.47a8,8,0,0,1,3.32-3.4,1.57,1.57,0,0,1,2.41.86A8.49,8.49,0,0,1,945.42,705.32Zm65.11,13.57c-1.14,1.94-2.36,3.79-4.48,4.81a3.4,3.4,0,0,1-4.8-1.3c-2.34-4-.43-14.09,3.32-17.09.21,1.44.31,2.84.62,4.19.74,3.2,2,6.09,4.82,8.09C1010.46,717.91,1011,718.15,1010.53,718.89Zm3.36-12.9a30.67,30.67,0,0,1-1.58,8.89c-.37,1.15-.78,1.08-1.48.41a8.86,8.86,0,0,1-1.25-1.35,15.36,15.36,0,0,1-1.74-14c.35-1.05.91-2.08,2.27-2.15a3,3,0,0,1,2.84,2A13.14,13.14,0,0,1,1013.89,706Z"/><path class="cls-4" d="M1118.21,759.24l-.39.85a1,1,0,0,1,0-1.18Z"/><path class="cls-4" d="M1042.61,759.24c-.12.27-.25.53-.39.85a1,1,0,0,1,0-1.18Z"/><path class="cls-3" d="M901.94,345.82A311.23,311.23,0,1,1,782.67,369.4,312.06,312.06,0,0,1,901.94,345.82Zm0,0a311,311,0,1,0,119.2,23.78A311.85,311.85,0,0,0,901.94,345.82Z"/><path class="cls-3" d="M901.94,983.5a311.23,311.23,0,1,1,119.28-23.58A311.87,311.87,0,0,1,901.94,983.5Zm0,0a311,311,0,1,0-119.19-23.78A311.86,311.86,0,0,0,901.94,983.5Z"/><path class="cls-3" d="M1220.78,664.66a311.23,311.23,0,1,1-23.58-119.28A311.91,311.91,0,0,1,1220.78,664.66Zm0,0A311,311,0,1,0,1197,783.86,311.9,311.9,0,0,0,1220.78,664.66Z"/><path class="cls-3" d="M583.11,664.66a311.18,311.18,0,1,1,23.58,119.28A311.91,311.91,0,0,1,583.11,664.66Zm0,0a311,311,0,1,0,23.78-119.2A311.9,311.9,0,0,0,583.11,664.66Z"/><text class="cls-6" transform="translate(143.55 1266.81)">O<tspan class="cls-7" x="16.23" y="0">r</tspan><tspan class="cls-8" x="24.48" y="0">g</tspan><tspan x="35.45" y="0">ano India </tspan><tspan class="cls-9" x="133.83" y="0">f</tspan><tspan x="141.06" y="0">ounded</tspan></text><text class="cls-6" transform="translate(697.47 1245.6)">Supply of O<tspan class="cls-7" x="114.82" y="0">r</tspan><tspan class="cls-8" x="123.07" y="0">g</tspan><tspan x="134.04" y="0">anic </tspan><tspan class="cls-10" x="180.13" y="0">V</tspan><tspan x="193.09" y="0">e</tspan><tspan class="cls-11" x="205.17" y="0">g</tspan><tspan class="cls-12" x="216.29" y="0">e</tspan><tspan class="cls-13" x="228.21" y="0">t</tspan><tspan x="236.3" y="0">ables </tspan><tspan x="14.3" y="26">in </tspan><tspan class="cls-14" x="38.5" y="26">c</tspan><tspan x="48.42" y="26">ollabo</tspan><tspan class="cls-15" x="110.74" y="26">r</tspan><tspan class="cls-16" x="118.75" y="26">a</tspan><tspan x="130.37" y="26">tion with </tspan><tspan class="cls-10" x="226.03" y="26">V</tspan><tspan x="238.99" y="26">e</tspan><tspan class="cls-11" x="251.07" y="26">g</tspan><tspan x="262.2" y="26">e </tspan><tspan class="cls-16" x="48.05" y="52">v</tspan><tspan x="59.18" y="52">endor in soci</tspan><tspan class="cls-12" x="186.49" y="52">e</tspan><tspan x="198.41" y="52">ties.</tspan></text><text class="cls-17" transform="translate(703.91 1094.3)">April</text><text class="cls-17" transform="translate(1299.08 1094.3)">June</text><text class="cls-18" transform="translate(111.21 1197.93)">2016</text><text class="cls-19" transform="translate(114.49 1201.21)">2016</text><text class="cls-18" transform="translate(700.63 1197.93)">2017</text><text class="cls-19" transform="translate(703.91 1201.21)">2017</text><line class="cls-20" x1="411.59" y1="1162.93" x2="682.5" y2="1162.93"/><text class="cls-6" transform="translate(1311 1245.6)"><tspan class="cls-21">R</tspan><tspan x="13.16" y="0">eached 500 </tspan><tspan class="cls-22" x="132.32" y="0">f</tspan><tspan x="139.52" y="0">armer base</tspan></text><text class="cls-18" transform="translate(1295.8 1197.93)">2017</text><text class="cls-19" transform="translate(1299.08 1201.21)">2017</text><line class="cls-20" x1="1003.88" y1="1162.93" x2="1274.8" y2="1162.93"/><line class="cls-20" x1="766.49" y1="1461.03" x2="1037.4" y2="1461.03"/><text class="cls-17" transform="translate(1070.36 1392.41)">Oc<tspan class="cls-13" x="39.41" y="0">t</tspan><tspan x="51.54" y="0">ober</tspan></text><text class="cls-6" transform="translate(1069.9 1543.7)"><tspan class="cls-23">W</tspan><tspan x="20.89" y="0">e </tspan><tspan class="cls-24" x="38.4" y="0">r</tspan><tspan x="46.66" y="0">eached 4 </tspan><tspan class="cls-24" x="141.49" y="0">s</tspan><tspan class="cls-13" x="150.8" y="0">t</tspan><tspan class="cls-16" x="158.88" y="0">a</tspan><tspan class="cls-25" x="170.51" y="0">t</tspan><tspan x="178.54" y="0">es &amp; 2000 </tspan><tspan class="cls-26" x="72.32" y="26">F</tspan><tspan x="82.68" y="26">arme</tspan><tspan class="cls-25" x="134.67" y="26">r</tspan><tspan x="142.9" y="26">s base</tspan></text><text class="cls-18" transform="translate(1067.08 1496.03)">2017</text><text class="cls-19" transform="translate(1070.36 1499.31)">2017</text><text class="cls-17" transform="translate(457.84 1392.41)">Janua<tspan class="cls-27" x="86.1" y="0">r</tspan><tspan x="99.05" y="0">y</tspan></text><text class="cls-6" transform="translate(455.35 1543.7)"><tspan class="cls-23">W</tspan><tspan x="20.89" y="0">e S</tspan><tspan class="cls-13" x="49.75" y="0">t</tspan><tspan x="57.83" y="0">ar</tspan><tspan class="cls-25" x="78.21" y="0">t</tspan><tspan x="86.24" y="0">ed </tspan><tspan class="cls-14" x="116.63" y="0">c</tspan><tspan x="126.55" y="0">onnecting FPOs </tspan><tspan x="-6.34" y="26">&amp; </tspan><tspan class="cls-21" x="16" y="26">R</tspan><tspan x="29.16" y="26">eached 15 Fpos with 5000 </tspan><tspan class="cls-26" x="78.99" y="52">F</tspan><tspan x="89.35" y="52">armer base</tspan></text><text class="cls-18" transform="translate(454.56 1496.03)">2018</text><text class="cls-19" transform="translate(457.84 1499.31)">2018</text><line class="cls-20" x1="569.12" y1="1759.41" x2="840.04" y2="1759.41"/><text class="cls-17" transform="translate(263.74 1690.79)">N<tspan class="cls-28" x="23.71" y="0">o</tspan><tspan class="cls-16" x="42.96" y="0">v</tspan><tspan x="59.66" y="0">ember</tspan></text><text class="cls-17" transform="translate(1475.74 1690.79)">N<tspan class="cls-28" x="23.71" y="0">o</tspan><tspan class="cls-16" x="42.96" y="0">v</tspan><tspan x="59.66" y="0">ember</tspan></text><text class="cls-6" transform="translate(266.12 1842.08)"><tspan class="cls-23">W</tspan><tspan x="20.89" y="0">e </tspan><tspan class="cls-24" x="38.4" y="0">r</tspan><tspan x="46.66" y="0">eached 35 FPOs with a </tspan><tspan x="14.95" y="26">10000 </tspan><tspan class="cls-26" x="81.2" y="26">F</tspan><tspan x="91.56" y="26">armer base &amp; 35 </tspan><tspan class="cls-22" x="59.09" y="52">P</tspan><tspan x="71.48" y="52">o</tspan><tspan class="cls-25" x="84.38" y="52">t</tspan><tspan x="92.41" y="52">e</tspan><tspan class="cls-16" x="104.49" y="52">n</tspan><tspan x="117.15" y="52">tial bu</tspan><tspan class="cls-24" x="180.12" y="52">y</tspan><tspan x="191.22" y="52">er</tspan></text><text class="cls-18" transform="translate(260.45 1794.41)">2019</text><text class="cls-19" transform="translate(263.74 1797.69)">2019</text><line class="cls-20" x1="1175.13" y1="1759.41" x2="1446.04" y2="1759.41"/><text class="cls-17" transform="translate(869.74 1690.79)">April</text><text class="cls-6" transform="translate(886.72 1842.08)">7 S<tspan class="cls-13" x="28.93" y="0">t</tspan><tspan class="cls-16" x="37.02" y="0">a</tspan><tspan class="cls-25" x="48.64" y="0">t</tspan><tspan x="56.67" y="0">es, 60 FPOs, 20000 </tspan><tspan class="cls-22" x="82.36" y="26">f</tspan><tspan x="89.57" y="26">arme</tspan><tspan class="cls-25" x="141.55" y="26">r</tspan><tspan x="149.79" y="26">s</tspan></text><text class="cls-18" transform="translate(866.46 1794.41)">2020</text><text class="cls-19" transform="translate(869.74 1797.69)">2020</text><text class="cls-6" transform="translate(1486.64 1842.08)">10 S<tspan class="cls-13" x="41.1" y="0">t</tspan><tspan class="cls-16" x="49.18" y="0">a</tspan><tspan class="cls-25" x="60.81" y="0">t</tspan><tspan x="68.84" y="0">es, 70 FPOs, 30000 </tspan><tspan class="cls-22" x="85.24" y="26">f</tspan><tspan x="92.44" y="26">arme</tspan><tspan class="cls-25" x="144.43" y="26">r</tspan><tspan x="152.67" y="26">s.</tspan></text><text class="cls-18" transform="translate(1472.46 1794.41)">2020</text><text class="cls-19" transform="translate(1475.74 1797.69)">2020</text><path class="cls-20" d="M214.56,1759.41H188.71A149.18,149.18,0,0,1,39.52,1610.22h0A149.18,149.18,0,0,1,188.71,1461H425.43"/><path class="cls-20" d="M1589.33,1162.93h25.85a149.18,149.18,0,0,1,149.19,149.19h0a149.19,149.19,0,0,1-149.19,149.19H1378.46"/></svg>