<svg id="Layer_1" data-name="Layer 1" xmlns="http://www.w3.org/2000/svg" viewBox="0 0 1803.89 2485.46"><defs><style>.cls-1{fill:#0c6a38;}.cls-2{fill:#070909;}.cls-18,.cls-3{fill:#f89521;}.cls-4{fill:#fff;}.cls-5{fill:#8dc641;}.cls-6{font-size:24px;}.cls-17,.cls-6{fill:#231f20;}.cls-17,.cls-18,.cls-19,.cls-6{font-family:Calibri-Bold, Calibri;font-weight:700;}.cls-7{letter-spacing:-0.01em;}.cls-8{letter-spacing:-0.02em;}.cls-9{letter-spacing:-0.02em;}.cls-10{letter-spacing:-0.05em;}.cls-11{letter-spacing:-0.01em;}.cls-12{letter-spacing:-0.01em;}.cls-13{letter-spacing:-0.01em;}.cls-14{letter-spacing:0em;}.cls-15{letter-spacing:-0.02em;}.cls-16{letter-spacing:-0.01em;}.cls-17{font-size:36px;}.cls-18,.cls-19{font-size:135.98px;}.cls-19,.cls-20{fill:none;stroke-miterlimit:10;}.cls-19{stroke:#f89521;}.cls-20{stroke:#231f20;stroke-width:4px;}.cls-21{letter-spacing:-0.01em;}.cls-22{letter-spacing:-0.02em;}.cls-23{letter-spacing:-0.04em;}.cls-24{letter-spacing:-0.01em;}.cls-25{letter-spacing:-0.01em;}.cls-26{letter-spacing:-0.03em;}.cls-27{letter-spacing:0em;}.cls-28{letter-spacing:0em;}</style></defs><path class="cls-1" d="M856.28,246c-5.73.79-11.52,4.43-12.11,12.36,0,.21.08.49-.13.61s-.44-.14-.62-.28a63.47,63.47,0,0,0-8.79-5.74c-3.07-1.59-6.28-2.75-9.8-2.42a26.32,26.32,0,0,0-17,8.58,11.77,11.77,0,0,0-2.61,4.12,8.6,8.6,0,0,1,5.32-.92,18.66,18.66,0,0,1,7.6,3.49c3.79,2.78,7.48,5.69,11.22,8.54a27,27,0,0,0,5.85,3.7,8.11,8.11,0,0,0,4.74.82,5.29,5.29,0,0,0,3.84-7.33,22.57,22.57,0,0,0-7.47-9.92,70.74,70.74,0,0,0-6.6-4.27c-.09,0-.26,0-.21-.16s.21,0,.33,0a23,23,0,0,1,6.5,2.86c5.54,3.44,9.11,8.49,11.63,14.37A57.44,57.44,0,0,1,852,292.56a66.87,66.87,0,0,1-1.58,22.38c-2,7.61-5.16,14.53-10.92,20.1-6,5.78-13.76,7.3-21,3.93a28.92,28.92,0,0,1-7.43-5.52c-.3-.27-.52-.73-1.09-.64a30.57,30.57,0,0,0,5.61,6.07,20.57,20.57,0,0,0,12.89,5.19c6,.1,10.92-2.47,15.11-6.52A40.34,40.34,0,0,0,853,322.67a65.8,65.8,0,0,0,4-25.05,68.93,68.93,0,0,0-2.5-17.14c-1.32-4.85-3.45-9.38-5.34-14-.93-2.25-2.05-4.46-2.28-6.92-.28-3,.37-5.79,2.8-7.88a1.37,1.37,0,0,1,.27-.19c.17.17,0,.3-.08.44l-.39.85a9.73,9.73,0,0,0-.1,8.69,2.72,2.72,0,0,0,4.22,1.23,8.87,8.87,0,0,0,3-3c1-1.62,2-3.26,3-4.9a32.34,32.34,0,0,1,5.49-7.35c.14-.13.41-.2.31-.54A23.23,23.23,0,0,0,856.28,246Z"/><path class="cls-1" d="M800.12,316.91a17.63,17.63,0,0,0-5.8-1.42c-3.52-.55-7.1-.76-10.59-1.53a11.38,11.38,0,0,1-3.64-1.33c6.4.45,12.56.79,18.79,1.82a14.26,14.26,0,0,0-14-7.74c-5.46.44-10.46,2.57-15.8,3.79,1.23,1.8,2.34,3.54,3.64,5.15a11.32,11.32,0,0,0,9.15,4.39c3.34,0,6.59-.79,9.89-1.09a29.68,29.68,0,0,1,5.16-.22,10.63,10.63,0,0,1,7.15,3.52A8,8,0,0,0,800.12,316.91Z"/><path class="cls-1" d="M894.09,341.94l-.48.05c-.87.38-1.75,0-2.61-.07-1.4-.09-2.89.41-4.19-.51-.18-.13-.28,0-.39.09s-.28.25-.12.38c1.64,1.31-.17.72-.51.91a2.23,2.23,0,0,1-1.09.09c-.17,0-.39-.09-.39.22s0,.44.32.44,1-.11,1.37.12c1.18.86,2.52.35,3.77.52a15.92,15.92,0,0,0,5.3-.56c.52-.11,1.23.12,1.23-.82,0-.18.31-.21.55-.15a3.29,3.29,0,0,0,.77,0l0-.26A26.1,26.1,0,0,0,894.09,341.94Z"/><path class="cls-2" d="M1017.48,354.57c-.44-.16-.19-.59-.15-.91s.1-.68.13-1a30.81,30.81,0,0,0,.46-3.71c0-.47-.09-.9-.56-1.09a1.12,1.12,0,0,0-1.2.32,5.65,5.65,0,0,0-1,1.26l-.66,1.16c0-.64,0-1.16,0-1.68a1,1,0,0,0-.59-1.07,1,1,0,0,0-1.1.35,8,8,0,0,0-1.6,2.41l-.2.42a.49.49,0,0,1,0-.59c0-.63.1-1.25.1-1.87a.7.7,0,0,0-.84-.77,2.55,2.55,0,0,0-1.92,2.06c.28-.32.54-.63.82-.92s.41-.46.72-.28.15.44.11.69c-.28,1.79-.51,3.58-.84,5.36-.13.67.1.64.61.59s.52-.37.54-.72a9.9,9.9,0,0,1,1.89-4.81c.25-.37.49-1,1-.83s.18.85.12,1.29c-.19,1.42-.48,2.83-.68,4.25,0,.27-.31.77.2.84s.89-.06.91-.74a9.64,9.64,0,0,1,1.66-4.62c.28-.46.61-1.25,1.14-1s.18,1,.11,1.53c-.16,1.27-.39,2.53-.53,3.8-.06.54,0,1.11.76,1.15a2.44,2.44,0,0,0,2-2c-.23.27-.42.51-.63.74S1017.84,354.7,1017.48,354.57Z"/><path class="cls-2" d="M982.37,347.83a3,3,0,0,0-2.65,1.11,6.69,6.69,0,0,0-1.72,3.77,11.13,11.13,0,0,0,.3,2.42c.05.64-1.12,1.14-1.44,2a1.78,1.78,0,0,0,1.64,2.63,2.85,2.85,0,0,0,2.22-.82,5.42,5.42,0,0,0,1.62-3c.43-2.3.61-4.64,1.11-6.93C983.69,347.85,983.66,347.84,982.37,347.83ZM981,357.56a2.14,2.14,0,0,1-1,1.41,1.59,1.59,0,0,1-2.29-1.64,2.55,2.55,0,0,1,1.3-2,5.1,5.1,0,0,0,2.44-2.72c0-.11.11-.22.17-.33l.17,0A29.83,29.83,0,0,1,981,357.56Zm1.15-7.74a9,9,0,0,1-1.92,3.88c-.21.28-.5.68-.91.46s-.3-.65-.32-1a10.93,10.93,0,0,1,.89-3.64,1.58,1.58,0,0,1,.79-.89,1.53,1.53,0,0,1,1.43.16C982.58,349.11,982.23,349.5,982.17,349.82Z"/><path class="cls-2" d="M996.12,345.52c.06-.37-.26-.27-.46-.28-1,0-1.95-.06-2.91,0-2.64.23-4,1.64-3.93,3.92a1.25,1.25,0,0,0,1.06-1.3A2.07,2.07,0,0,1,991.5,346c.25,0,.53-.14.47.31-.18,1.17-.37,2.35-.51,3.52-.07.49-.64.17-.76.57-.17.61.64.09.59.53,0,.06,0,.12,0,.18a27.58,27.58,0,0,1-.89,4.78c-.57,1.76-1.57,2-2.86.59-.16.37-.73.59-.56,1a1.34,1.34,0,0,0,1.35.67,3.09,3.09,0,0,0,2.46-1.52,9.57,9.57,0,0,0,1.53-4.86c.08-.94.45-1.2,1.29-1,.49.11.92.13,1-.59h-2.06L993,347c.19-1.27.19-1.23,1.44-1.06.78.11,1,.58.92,1.52A3.39,3.39,0,0,0,996.12,345.52Z"/><path class="cls-2" d="M941,354.55c-.24-.14-.15-.44-.12-.68.21-1.49.44-3,.61-4.46.07-.57.15-1.27-.53-1.55s-1.2.19-1.6.68-.58.88-.89,1.32c-.18.25-.19.63-.61.83.08-.64.18-1.19.22-1.75.06-.88-.42-1.36-1.15-1.09a2.68,2.68,0,0,0-1.75,2A10,10,0,0,0,936,349c.21-.23.46-.51.79-.3s.13.51.09.78c-.28,1.76-.58,3.51-.84,5.27,0,.2-.29.61.22.64.33,0,.71,0,.84-.4a3.55,3.55,0,0,0,.06-.47,11,11,0,0,1,1.87-4.73c.27-.41.6-1.05,1.08-.85s.2.89.14,1.37c-.19,1.33-.4,2.65-.53,4-.09.88.36,1.34,1,1.1a2.53,2.53,0,0,0,1.71-2c-.26.31-.51.62-.8.91S941.3,354.73,941,354.55Z"/><path class="cls-2" d="M976.72,354.18c-.21.2-.42.57-.77.37s-.16-.56-.11-.85c.2-1.46.44-2.91.62-4.37.06-.55.07-1.19-.54-1.47s-1.08.11-1.48.52a8.8,8.8,0,0,0-1.4,2.21l-.2.42a.48.48,0,0,1,0-.59c0-.59.12-1.19.13-1.78s-.27-.89-.87-.86a2.57,2.57,0,0,0-1.92,2.06c.28-.32.54-.63.82-.92s.42-.46.72-.28.15.44.11.69c-.27,1.82-.51,3.65-.84,5.46-.11.64.17.59.59.54s.53-.48.56-.84a10.66,10.66,0,0,1,1.8-4.66,4.16,4.16,0,0,1,.73-.84c.4-.35.63-.15.66.31a2.94,2.94,0,0,1-.07.65c-.2,1.39-.43,2.77-.61,4.17-.11.84.28,1.33,1,1.26a2.5,2.5,0,0,0,1.79-2C977.16,353.67,977,354,976.72,354.18Z"/><path class="cls-2" d="M948.44,354.53c-.41-.19-.1-.89,0-1.37.19-1.36.37-2.73.5-4.1,0-.45,0-1-.5-1.21a1.23,1.23,0,0,0-1.35.4,3.7,3.7,0,0,0-.6.72c-.38.6-.73,1.22-1.17,2,.07-.86.14-1.56.18-2.26a.75.75,0,0,0-.72-.9c-.82-.08-2,1.12-2,2,.16-.19.28-.37.43-.52.31-.28.56-.88,1-.64s.17.8.11,1.2c-.23,1.64-.51,3.27-.77,4.9,0,.21-.3.54.13.58s.72.13.87-.32a2.86,2.86,0,0,0,.16-.64,10.57,10.57,0,0,1,1.78-4.57,3.74,3.74,0,0,1,.66-.78c.12-.11.29-.28.5-.17a.48.48,0,0,1,.2.49c0,.5-.11,1-.18,1.49-.16,1.17-.37,2.34-.46,3.52-.07.8.41,1.23,1.07,1a2.42,2.42,0,0,0,1.63-2,3.22,3.22,0,0,1-.24.28C949.27,354,949,354.78,948.44,354.53Z"/><path class="cls-2" d="M1000.79,354.56c-.51-.21-.2-.84-.14-1.25.22-1.64.51-3.27.78-4.89,0-.24.2-.55-.22-.56-1,0-2.08-.21-3,.51a6.68,6.68,0,0,0-2.46,5.69,1.23,1.23,0,0,0,.77,1.28,1.4,1.4,0,0,0,1.48-.58,13.06,13.06,0,0,0,1.56-2.34c0,.73-.2,1.42-.14,2.15.06.57.32.86.91.81a2.55,2.55,0,0,0,1.87-2.06c-.17.2-.3.37-.45.53S1001.21,354.74,1000.79,354.56Zm-.72-4.82a8.78,8.78,0,0,1-1.9,3.91c-.23.32-.5.77-.94.62s-.36-.73-.39-1.17a11.58,11.58,0,0,1,.84-3.42,1.89,1.89,0,0,1,.65-.9,1.56,1.56,0,0,1,1.6,0C1000.48,349,1000.11,349.41,1000.07,349.74Z"/><path class="cls-2" d="M929.06,345.3a4,4,0,0,0-4.43.87,7.6,7.6,0,0,0-2,6.93,2.62,2.62,0,0,0,1.83,2.28,4.77,4.77,0,0,0,3.58-.7c.11-.05.12-.33.24-.7-.55.23-.91.41-1.28.54-1.68.56-2.92-.07-3.19-1.69a8.6,8.6,0,0,1,1.39-6.25,2.05,2.05,0,0,1,1.51-1,2.25,2.25,0,0,1,1.53.31c.52.36.37,1,.56,1.58.5-.54.39-1.15.6-1.65C929.56,345.48,929.31,345.38,929.06,345.3Z"/><path class="cls-2" d="M933.63,347.89a1.87,1.87,0,0,0-2.07.49,5.65,5.65,0,0,0-1.95,5.29c.32,1.86,1.8,2.32,3.21,1a5.81,5.81,0,0,0,1.91-4.32c0-.19,0-.38,0-.57A2,2,0,0,0,933.63,347.89Zm-.82,6c-.24.5-.6,1.05-1.28.87s-.73-.77-.76-1.35c0-.31,0-.63,0-.94a6.13,6.13,0,0,1,.82-3.4c.25-.4.55-.79,1.11-.68s.64.52.73,1A6.8,6.8,0,0,1,932.81,353.9Z"/><path class="cls-2" d="M954.38,347.91a1.57,1.57,0,0,0-1.88.45,6,6,0,0,0-2,5.13c.11,1.17.69,1.85,1.56,1.89a3.24,3.24,0,0,0,2.83-1.95,4.36,4.36,0,0,1-2,1.18c-.87.11-1.13-.46-1.23-1.19-.08-.55-.28-1,.65-1.13a3.06,3.06,0,0,0,2.64-2.46A1.58,1.58,0,0,0,954.38,347.91Zm-2.1,3.85c-.46.13-.73.07-.62-.5a5.36,5.36,0,0,1,.93-2.21c.24-.31.52-.58.94-.45s.37.58.39.9A2.24,2.24,0,0,1,952.28,351.76Z"/><path class="cls-2" d="M1023.31,347.88a1.48,1.48,0,0,0-1.65.34,6,6,0,0,0-2.19,5.39c.12,1.13.76,1.74,1.6,1.77a3.25,3.25,0,0,0,2.82-1.93,5.55,5.55,0,0,1-2,1.16c-.89.15-1.17-.45-1.29-1.13s-.26-1.08.71-1.19a3.13,3.13,0,0,0,2.65-2.86C1024,348.8,1023.93,348.18,1023.31,347.88Zm-.74,2.91c-.37.55-1.69,1.3-1.86,1-.34-.54.09-1.1.24-1.64a4.7,4.7,0,0,1,.56-1.06c.23-.36.54-.66,1-.52s.33.61.42.93A3.34,3.34,0,0,1,1022.57,350.79Z"/><path class="cls-2" d="M964.5,346.47c0-.22.39-.62-.1-.66a.74.74,0,0,0-.89.48,3,3,0,0,0-.15.64c0,.59-.11,1-.88,1-.23,0-.37.25-.36.52.92.09.93.09.84,1,0,.28-.09.55-.12.83a31.36,31.36,0,0,0-.46,4.1c0,.54.14,1,.8,1.06a2.05,2.05,0,0,0,2-1.74c-.19.15-.35.3-.53.43s-.56.5-.91.34-.21-.61-.17-.92c.16-1.39.41-2.78.54-4.18.06-.72.35-1,1-.8s.93.1,1-.6l-.46,0C964.3,347.84,964.31,347.85,964.5,346.47Z"/><path class="cls-2" d="M1008.41,347.88a1,1,0,0,0-1,0,3.14,3.14,0,0,0-1.09,1c-.41.62-.77,1.25-1.18,1.91a2.6,2.6,0,0,1,.08-1,5.26,5.26,0,0,0,0-1.12c0-.62-.33-1-1-.85a2.87,2.87,0,0,0-1.76,2.1c.22-.27.39-.53.6-.74s.48-.73.89-.55.22.67.18,1c-.24,1.7-.52,3.39-.78,5.09,0,.21-.3.54.09.6s.8.2.94-.34a5.77,5.77,0,0,0,.15-.83,9.23,9.23,0,0,1,2-4.57c.23-.32.56-.73,1-.53.68.31.61-.3.8-.56S1008.73,348.07,1008.41,347.88Z"/><path class="cls-2" d="M1030.66,347.9a1.13,1.13,0,0,0-1.23.13,4.78,4.78,0,0,0-1.28,1.48c-.26.43-.5.87-.82,1.44,0-.9.28-1.6.17-2.32s-.57-1.06-1.18-.77a2.55,2.55,0,0,0-1.58,2,9.6,9.6,0,0,1,.64-.79c.23-.23.45-.64.84-.44s.19.58.15.86c-.25,1.76-.54,3.52-.8,5.28,0,.2-.31.54.14.57.3,0,.73.17.88-.3a3.08,3.08,0,0,0,.16-.73,9.13,9.13,0,0,1,2-4.68c.24-.33.59-.76,1-.58.81.37.66-.41.94-.66S1030.85,348,1030.66,347.9Z"/><path class="cls-2" d="M960.53,349.92c.18-.63.66-1.34.22-1.86s-1.22-.36-1.86-.12a2.17,2.17,0,0,0-.64.38,6,6,0,0,0-2,5.47,1.64,1.64,0,0,0,1.37,1.58,3.55,3.55,0,0,0,3.12-2,5.52,5.52,0,0,1-2.05,1.14.89.89,0,0,1-1.13-.56,6.41,6.41,0,0,1,1-5.16,1.25,1.25,0,0,1,1.28-.35c.54.14.56.6.55,1.06C960.31,349.61,960.23,349.79,960.53,349.92Z"/><path class="cls-2" d="M1033.8,347.77a2.25,2.25,0,0,0-2,3.13,20.6,20.6,0,0,0,1.14,1.83c.3.51.67,1.07.12,1.61a1.2,1.2,0,0,1-1.71,0c-.59-.48-.68.07-.87.34-.33.48.16.48.4.57a2.24,2.24,0,0,0,2.23-.29,2.2,2.2,0,0,0,.61-3.14,13,13,0,0,1-1.23-2.1,1,1,0,0,1,.25-1.13,1,1,0,0,1,1.06-.12c.49.17.36.72.57,1.12.41-.18.24-.48.33-.69C1035.09,348,1034.51,347.8,1033.8,347.77Z"/><path class="cls-2" d="M968.58,354.52c-.48-.22-.13-1.06-.05-1.62.26-1.68.51-3.35.78-5.19a12,12,0,0,0-2.59,1.4c1.18,0,1.23,0,1.11,1.19,0,.18-.08.37-.1.55a31.42,31.42,0,0,0-.46,3.62c0,.54.19.92.81.91a2.45,2.45,0,0,0,1.93-2,.88.88,0,0,0-.15.12C969.48,353.93,969.14,354.77,968.58,354.52Z"/><path class="cls-3" d="M1034.31,325.51a.52.52,0,0,0-.72.25c-.1.23-.16.48-.25.71a15.55,15.55,0,0,1-3.21,5.68c-.32.33-.7.8-1.18.59s-.29-.83-.3-1.28a1.51,1.51,0,0,1,.06-.37,37.8,37.8,0,0,1,1.4-6.13c.32-1,0-1.77-1.09-1.95-.89-.15-1-.6-1-1.32-.12-2.39-1.74-3.53-4.07-2.89a5.65,5.65,0,0,0-2.33,1.35,12.36,12.36,0,0,0-3.15,5.57,16.35,16.35,0,0,1-3,5.59,5.08,5.08,0,0,1-1.6,1.42c-.52.25-.88.16-.86-.49a13.41,13.41,0,0,1,.1-1.68,54.81,54.81,0,0,1,2-8.1,1.49,1.49,0,0,0-.66-1.86,1.57,1.57,0,0,0-2.6.82c-1,2.56-1.43,5.26-2.39,7.81a18.82,18.82,0,0,1-2.34,4.89c-.29.4-.66.84-1.23.71s-.71-.67-.81-1.17a16.22,16.22,0,0,1-.09-4.87,104.06,104.06,0,0,1,3-16.51,1.53,1.53,0,0,0-1.15-2c-1.14-.31-1.84,0-2.11,1.08-.42,1.61-.79,3.23-1.14,4.85-.27,1.2-.47,2.41-.72,3.69-2.21-2-4.19-1.82-6,.46a10.68,10.68,0,0,0-1.94,3.94,31.89,31.89,0,0,1-2.44,6.39,10.63,10.63,0,0,1-2.53,3.68c-.9.74-1.71.4-1.83-.76a7.57,7.57,0,0,1,.07-1.78,50.87,50.87,0,0,1,1.11-5,23.78,23.78,0,0,0,1-6.2c-.11-2.73-2.23-4.12-4.76-3.12a5.42,5.42,0,0,0-1.51.95,13.47,13.47,0,0,0-3,4,3.27,3.27,0,0,1-.72,1.16c-.19-.21-.1-.39-.07-.57a61.52,61.52,0,0,1,1.5-6.69c.37-1.34,0-2-1.2-2.36s-1.7.05-2.09,1.37a60.4,60.4,0,0,0-1.69,8.08,31.59,31.59,0,0,0-.44,8.52,3,3,0,0,0,.58,1.56,2.08,2.08,0,0,0,2.33.45c.7-.33.36-.89.33-1.39a11,11,0,0,1,.57-5.27c.5-1.18.92-2.4,1.47-3.55a11.59,11.59,0,0,1,3.65-4.82c.44-.3,1-.76,1.54-.4s.46,1,.42,1.62a1.26,1.26,0,0,1,0,.28c-.44,2.28-.89,4.55-1.32,6.83a12.73,12.73,0,0,0-.07,5.95,3.5,3.5,0,0,0,2.84,2.57c1.32.29,2.19-.47,3-1.4.22-.27.41-.56.61-.84a34.37,34.37,0,0,0,2.05-3.74,9.16,9.16,0,0,0,1,3,2.47,2.47,0,0,0,4,.33,10.47,10.47,0,0,0,1.72-2.46c.34-.65.65-1.31,1-2,.24.25.15.48.17.68a12.07,12.07,0,0,0,1.16,4.9c1.15,2.07,3.25,2.26,4.69.39a14.56,14.56,0,0,0,1.62-2.85,2,2,0,0,1,.58-1c.07.16.13.26.17.37.87,3.15,2.9,3.74,5.3,1.53a5.67,5.67,0,0,0,.58-.62l1.45-1.9c0,.42,0,.66.07.89a7,7,0,0,0,1.12,3.64,2.64,2.64,0,0,0,4.37.23,10.86,10.86,0,0,0,1.07-1.54c.49-.86.93-1.74,1.46-2.75.1.51.16.88.25,1.24a2.61,2.61,0,0,0,4.27,1.52c2.34-1.87,3.31-4.58,4.28-7.27A.47.47,0,0,0,1034.31,325.51Zm-32.17-.68a23,23,0,0,1-3,6.73c-.37.55-.76,1.45-1.48,1.22s-.37-1.15-.48-1.69a26.3,26.3,0,0,1,2.45-9.94c.28-.57.56-1.37,1.28-1.35s1.05.88,1.33,1.54A5.23,5.23,0,0,1,1002.14,324.83Zm23.31,3.67a22.15,22.15,0,0,1-2.42,5.17,4.47,4.47,0,0,1-.45.6c-.29.33-.62.71-1.1.59s-.54-.63-.6-1.07c-.39-3,.4-5.77,1.27-8.55a13.19,13.19,0,0,1,1.95-3.94c.51-.67,1.1-1.54,2-1.25s.84,1.29.88,2.11c0,.13,0,.25,0,.38A22.38,22.38,0,0,1,1025.45,328.5Z"/><path class="cls-3" d="M974.11,309.65a1.44,1.44,0,0,0-1.89,1.3,103.65,103.65,0,0,0-1.53,16.56c0,.92,0,2.24,0,3.56a13.22,13.22,0,0,0,.41,3.81,2.17,2.17,0,0,0,2.35,1.33c.9-.18,1-.86.91-1.59a102.23,102.23,0,0,1,0-12.5,72,72,0,0,1,1-10.56A1.51,1.51,0,0,0,974.11,309.65Z"/><path class="cls-3" d="M1014.85,318.79a1.68,1.68,0,0,0,1.68-1.77,1.63,1.63,0,0,0-1.71-1.62,1.6,1.6,0,0,0-1.61,1.7A1.63,1.63,0,0,0,1014.85,318.79Z"/><path class="cls-2" d="M968.41,346.34c0-.94.88-1.18,1.46-1.8,0,1.12-.65,1.52-1.38,1.89A.32.32,0,0,0,968.41,346.34Z"/><path class="cls-1" d="M968.49,346.43h-.2l.12-.1A.32.32,0,0,1,968.49,346.43Z"/><path class="cls-4" d="M849.73,251.68a1.37,1.37,0,0,1,.27-.19c.17.17,0,.3-.08.44Z"/><path class="cls-4" d="M829.68,257.35c-.09,0-.26,0-.21-.16s.21,0,.33,0Z"/><path class="cls-4" d="M843,308.2c-.11-.09-.15-.26,0-.3s.11.13.13.22Z"/><path class="cls-4" d="M839.78,327.76H840l-.08.18Z"/><path class="cls-4" d="M830,312.51l-.15-.15c.08-.11.19-.07.29,0A2.09,2.09,0,0,0,830,312.51Z"/><path class="cls-5" d="M887.52,327.13c-1.48-2.58-3.21-5-4.24-7.84a90.52,90.52,0,0,1-2.91-10.49c-.12-.53,0-.7.57-.71,6.36-.15,12.72-.33,19.08-.49,4-.1,8.08-.11,12.12-.24,8.46-.27,16.91-.6,25.36-.89q10.05-.33,20.1-.61c2.64-.08,2.87-1.37,2.86-3.25a2,2,0,0,0-2.09-2.2,52.86,52.86,0,0,0-6.29-.17c-10.69,0-21.38.14-32.07.33-4.86.08-9.72.12-14.57.2-6.71.1-13.42-.15-20.13-.18-.69,0-.71-.16-.42-.72A110,110,0,0,0,894,276.49a55.87,55.87,0,0,0,2.07-11.9c0-.6.25-.73.79-.69s1.26,0,1.88,0c1,0,1.33-.4,1.34-1.39s-.36-1.41-1.3-1.43a10.58,10.58,0,0,0-1.69,0c-.74.1-.89-.26-1-.88a31.66,31.66,0,0,0-.81-4.43,3.1,3.1,0,0,0-1.14-1.89c-1-.73-1.73-.57-2.18.62-.74,2-1.46,3.93-2.13,5.91-.17.49-.37.69-.92.67-1-.05-2.06,0-3.1,0s-1.33.42-1.32,1.42.37,1.39,1.33,1.4,1.9,0,2.82,0a32.53,32.53,0,0,1-2,7.63,73.4,73.4,0,0,1-18,28.1,1.62,1.62,0,0,1-1.19.61c-1.91,0-3.82.08-5.73.13-1.47,0-2,.47-2.25,2a16.21,16.21,0,0,0,0,4.4,1.76,1.76,0,0,0,1.82,1.76,16.86,16.86,0,0,0,1.88,0,2.85,2.85,0,0,1,3.22,1.88c.46,1.2,1.13,2.31,1.7,3.46,1,1.93,1.71,4,3.13,5.65,5.69,6.61,11.5,13.1,17.73,19.2a12.4,12.4,0,0,0,4.5,3.31l.48-.05c.88-.67,1-1.16.44-2.27C892.45,335.34,889.89,331.29,887.52,327.13Z"/><path class="cls-5" d="M842.92,303.41a9.69,9.69,0,0,0-6.9-1.86c-.42.06-1,0-.51.75a16.71,16.71,0,0,1,2.23,6.33,23.54,23.54,0,0,1,.42,4.07c-3.42-3-7-5.11-11.55-5.17A15.18,15.18,0,0,0,815,312.34a17.13,17.13,0,0,1,8.08,4.58c1.56,1.46,3.06,3,4.59,4.45,1.71,1.66,3.38,3.36,5.24,4.86a7,7,0,0,0,6.91,1.53H840l-.08.18c0,.09,0,.2-.09.26-3.06,3.13-6.61,5.31-11.13,5.33a16.71,16.71,0,0,1-13-6,38.54,38.54,0,0,1-7.66-14c-2.93-9.1-2.83-18.32-.84-27.57a34.68,34.68,0,0,1,8.58-16.86c.86-.91.87-.9-.11-1.71-.15-.12-.29-.23-.45-.34a1.89,1.89,0,0,0-2.84.18,15.16,15.16,0,0,0-1.27,1.39c-5.64,7-8,15.25-8.9,24a61,61,0,0,0,.74,16c1.36,8,4.27,15.23,9.77,21.3,5,5.52,11,7.68,18.38,5.84a14.81,14.81,0,0,0,10.19-8.19,2.76,2.76,0,0,0,0-3.11,89.43,89.43,0,0,0-6.14-7.6c-1.58-1.63-3.48-2.86-5.15-4.37l-.15-.15c.08-.11.19-.07.29,0a19.48,19.48,0,0,1,12.48,8.92,15.72,15.72,0,0,0,1.16-5,29.47,29.47,0,0,0-.82-8.1c-.11-.09-.15-.26,0-.3s.11.13.13.22a12.93,12.93,0,0,1,2.06,4.57,34.12,34.12,0,0,1,1,6.1c.24-.39.4-.62.53-.86A11.5,11.5,0,0,0,842.92,303.41Z"/><path class="cls-5" d="M963.55,325.44a.56.56,0,0,0-.73.42,6,6,0,0,1-.88,1.75,3.75,3.75,0,0,1-2.47,1.58c-.6.09-1,.05-.66-.74a12.39,12.39,0,0,0,.83-4,7.81,7.81,0,0,0-.83-4.82,2.32,2.32,0,0,0-4.14,0c-.28.47-.41.75-1.07.45a2,2,0,0,0-2,.42,7.85,7.85,0,0,0-2.73,4.38,31.34,31.34,0,0,1-3.21,7.48,5.82,5.82,0,0,1-1.8,2.14.88.88,0,0,1-1.47-.51,3.14,3.14,0,0,1-.11-.92,29.8,29.8,0,0,1,1.21-6.35,24.8,24.8,0,0,0,.95-5.92c-.07-3.26-2.76-4.7-5.54-3a9,9,0,0,0-2.43,2.33c-.82,1.07-1.35,2.31-2.08,3.44l-.11-.1a54.44,54.44,0,0,1,1.57-7.25c.34-1.28,0-1.95-1.19-2.3s-1.77,0-2.14,1.29a73.74,73.74,0,0,0-1.94,9.66,13.47,13.47,0,0,1-3.64,7.37c-.26.28-.6.68-1,.43s-.25-.66-.23-1a32.11,32.11,0,0,1,1.38-6.51c.38-1.32,0-2-1.29-2.26-.48-.11-.69-.24-.66-.76a5,5,0,0,0-.16-1.21,2.52,2.52,0,0,0-2.49-2.25,5,5,0,0,0-4.25,1.82,12.3,12.3,0,0,0-2.67,4.9,17.64,17.64,0,0,1-3.6,6.54,3.34,3.34,0,0,1-1.35,1.13c.1-1.25.15-2.4.28-3.54a23.85,23.85,0,0,1,.86-5.56c.46-1.25-.18-2.15-1.53-2-.76.11-.8-.19-.86-.77a2.59,2.59,0,0,0-2.78-2.58,5,5,0,0,0-3.9,1.54,12.37,12.37,0,0,0-3.47,8.77,6.14,6.14,0,0,0,1.06,4,2.83,2.83,0,0,0,4.59.3,11.44,11.44,0,0,0,1.78-2.53c.24-.47.5-.94.87-1.61,0,2-.15,3.76-.29,5.51a1.29,1.29,0,0,1-.86,1.18,26.8,26.8,0,0,0-5.38,3.07,5.89,5.89,0,0,0-2.26,3.14,3.37,3.37,0,0,0,4.2,4.2,6.24,6.24,0,0,0,2.61-1.42,12.73,12.73,0,0,0,4.18-7.28,6.13,6.13,0,0,1,2.46-4.18,9,9,0,0,0,2-2.35c.13-.18.19-.47.51-.49.2.34.09.73.13,1.09a6,6,0,0,0,1.15,3.23,2.63,2.63,0,0,0,4.26.2,14.25,14.25,0,0,0,2-3.26c.16-.32.21-.71.6-1,0,.25,0,.43.06.61a2.79,2.79,0,0,0,1.76,2.47,2.84,2.84,0,0,0,3-.74,9.19,9.19,0,0,0,1.07-1.18c.49-.67.92-1.37,1.42-2.13.09.91.12,1.72.25,2.52a2,2,0,0,0,2.6,1.71c.53-.13.8-.39.71-1-.72-4.82,1.41-8.77,4-12.56a5.41,5.41,0,0,1,2.28-1.92c.76-.33,1.13-.13,1.25.68a6.42,6.42,0,0,1-.16,2.14c-.49,2.71-1.21,5.38-1.51,8.13a8.64,8.64,0,0,0,.41,4.07,3.16,3.16,0,0,0,5.37,1.14,12.72,12.72,0,0,0,2.12-3.2c.37-.74.71-1.5,1.13-2.37.12.49.19.83.29,1.16a8.25,8.25,0,0,0,.38,1.05,4.28,4.28,0,0,0,7.13,1.35,5.83,5.83,0,0,0,1.31-1.71,1.06,1.06,0,0,1,1.23-.69c2.29.15,4.35-1.65,5-4.15C964,325.81,963.92,325.54,963.55,325.44Zm-58.49,17.75a4.32,4.32,0,0,1-2.17,1.85,2.33,2.33,0,0,1-2.46-.38,2.25,2.25,0,0,1-.65-2.32,3.38,3.38,0,0,1,.92-1.71c1.71-1.77,3.93-2.69,6.21-3.85C906.52,339.11,906.23,341.27,905.06,343.19Zm2.87-18.53a28.16,28.16,0,0,1-3.12,6.89c-.48.72-1,1.79-1.93,1.51s-.59-1.44-.7-2.25a18.55,18.55,0,0,1,2.83-9.12,4.35,4.35,0,0,1,1.25-1.38c1-.61,1.62-.36,1.87.74A6.62,6.62,0,0,1,907.93,324.66Zm16-1.33a35.53,35.53,0,0,1-3.74,10c-.42.69-.84,1.77-1.79,1.47-.78-.24-.57-1.33-.63-2.1,0-.15,0-.31,0-.46a23,23,0,0,1,3-10.35,4,4,0,0,1,1.68-1.72.8.8,0,0,1,1.22.44A4.31,4.31,0,0,1,923.92,323.33Zm32.9,6.86a5.43,5.43,0,0,1-2.26,2.43,1.72,1.72,0,0,1-2.43-.65c-1.18-2-.22-7.12,1.68-8.64.1.73.16,1.44.31,2.12a6.54,6.54,0,0,0,2.44,4.09C956.79,329.7,957,329.82,956.82,330.19Zm1.7-6.52a15.38,15.38,0,0,1-.8,4.5c-.19.58-.39.54-.75.21a4.57,4.57,0,0,1-.63-.69,7.77,7.77,0,0,1-.88-7.06c.18-.53.46-1.05,1.15-1.08a1.47,1.47,0,0,1,1.43,1A6.61,6.61,0,0,1,958.52,323.67Z"/><path class="cls-4" d="M1011.24,350.59l-.2.42a.49.49,0,0,1,0-.59Z"/><path class="cls-4" d="M973,350.59l-.2.42a.48.48,0,0,1,0-.59Z"/><path class="cls-3" d="M901.94,141.65a157.3,157.3,0,1,1-60.28,11.92A157.86,157.86,0,0,1,901.94,141.65Zm0,0a157.17,157.17,0,1,0,60.24,12A157.73,157.73,0,0,0,901.94,141.65Z"/><path class="cls-3" d="M901.94,463.92A157.3,157.3,0,1,1,962.23,452,157.62,157.62,0,0,1,901.94,463.92Zm0,0a157.22,157.22,0,1,0-60.23-12A157.56,157.56,0,0,0,901.94,463.92Z"/><path class="cls-3" d="M1063.08,302.79a157.35,157.35,0,1,1-11.92-60.28A157.62,157.62,0,0,1,1063.08,302.79Zm0,0a157.22,157.22,0,1,0-12,60.24A157.74,157.74,0,0,0,1063.08,302.79Z"/><path class="cls-3" d="M740.81,302.79a157.3,157.3,0,1,1,11.92,60.28A157.58,157.58,0,0,1,740.81,302.79Zm0,0a157.22,157.22,0,1,0,12-60.24A157.82,157.82,0,0,0,740.81,302.79Z"/><text class="cls-6" transform="translate(143.55 787.21)">O<tspan class="cls-7" x="16.23" y="0">r</tspan><tspan class="cls-8" x="24.48" y="0">g</tspan><tspan x="35.45" y="0">ano India </tspan><tspan class="cls-9" x="133.83" y="0">f</tspan><tspan x="141.06" y="0">ounded</tspan></text><text class="cls-6" transform="translate(697.47 765.99)">Supply of O<tspan class="cls-7" x="114.82" y="0">r</tspan><tspan class="cls-8" x="123.07" y="0">g</tspan><tspan x="134.04" y="0">anic </tspan><tspan class="cls-10" x="180.13" y="0">V</tspan><tspan x="193.09" y="0">e</tspan><tspan class="cls-11" x="205.17" y="0">g</tspan><tspan class="cls-12" x="216.29" y="0">e</tspan><tspan class="cls-13" x="228.21" y="0">t</tspan><tspan x="236.3" y="0">ables </tspan><tspan x="14.3" y="26">in </tspan><tspan class="cls-14" x="38.5" y="26">c</tspan><tspan x="48.42" y="26">ollabo</tspan><tspan class="cls-15" x="110.74" y="26">r</tspan><tspan class="cls-16" x="118.75" y="26">a</tspan><tspan x="130.37" y="26">tion with </tspan><tspan class="cls-10" x="226.03" y="26">V</tspan><tspan x="238.99" y="26">e</tspan><tspan class="cls-11" x="251.07" y="26">g</tspan><tspan x="262.2" y="26">e </tspan><tspan class="cls-16" x="48.05" y="52">v</tspan><tspan x="59.18" y="52">endor in soci</tspan><tspan class="cls-12" x="186.49" y="52">e</tspan><tspan x="198.41" y="52">ties.</tspan></text><text class="cls-17" transform="translate(703.91 614.7)">April</text><text class="cls-17" transform="translate(1299.08 614.7)">June</text><text class="cls-18" transform="translate(111.21 718.32)">2016</text><text class="cls-19" transform="translate(114.49 721.61)">2016</text><text class="cls-18" transform="translate(700.63 718.32)">2017</text><text class="cls-19" transform="translate(703.91 721.61)">2017</text><line class="cls-20" x1="411.59" y1="683.32" x2="682.5" y2="683.32"/><text class="cls-6" transform="translate(1311 765.99)"><tspan class="cls-21">R</tspan><tspan x="13.16" y="0">eached 500 </tspan><tspan class="cls-22" x="132.32" y="0">f</tspan><tspan x="139.52" y="0">armer base</tspan></text><text class="cls-18" transform="translate(1295.8 718.32)">2017</text><text class="cls-19" transform="translate(1299.08 721.61)">2017</text><line class="cls-20" x1="1003.88" y1="683.32" x2="1274.8" y2="683.32"/><line class="cls-20" x1="766.49" y1="981.43" x2="1037.4" y2="981.43"/><text class="cls-17" transform="translate(1070.36 912.81)">Oc<tspan class="cls-13" x="39.41" y="0">t</tspan><tspan x="51.54" y="0">ober</tspan></text><text class="cls-6" transform="translate(1069.9 1064.1)"><tspan class="cls-23">W</tspan><tspan x="20.89" y="0">e </tspan><tspan class="cls-24" x="38.4" y="0">r</tspan><tspan x="46.66" y="0">eached 4 </tspan><tspan class="cls-24" x="141.49" y="0">s</tspan><tspan class="cls-13" x="150.8" y="0">t</tspan><tspan class="cls-16" x="158.88" y="0">a</tspan><tspan class="cls-25" x="170.51" y="0">t</tspan><tspan x="178.54" y="0">es &amp; 2000 </tspan><tspan class="cls-26" x="72.32" y="26">F</tspan><tspan x="82.68" y="26">arme</tspan><tspan class="cls-25" x="134.67" y="26">r</tspan><tspan x="142.9" y="26">s base</tspan></text><text class="cls-18" transform="translate(1067.08 1016.43)">2017</text><text class="cls-19" transform="translate(1070.36 1019.71)">2017</text><text class="cls-17" transform="translate(457.84 912.81)">Janua<tspan class="cls-27" x="86.1" y="0">r</tspan><tspan x="99.05" y="0">y</tspan></text><text class="cls-6" transform="translate(455.35 1064.1)"><tspan class="cls-23">W</tspan><tspan x="20.89" y="0">e S</tspan><tspan class="cls-13" x="49.75" y="0">t</tspan><tspan x="57.83" y="0">ar</tspan><tspan class="cls-25" x="78.21" y="0">t</tspan><tspan x="86.24" y="0">ed </tspan><tspan class="cls-14" x="116.63" y="0">c</tspan><tspan x="126.55" y="0">onnecting FPOs </tspan><tspan x="-6.34" y="26">&amp; </tspan><tspan class="cls-21" x="16" y="26">R</tspan><tspan x="29.16" y="26">eached 15 Fpos with 5000 </tspan><tspan class="cls-26" x="78.99" y="52">F</tspan><tspan x="89.35" y="52">armer base</tspan></text><text class="cls-18" transform="translate(454.56 1016.43)">2018</text><text class="cls-19" transform="translate(457.84 1019.71)">2018</text><line class="cls-20" x1="569.12" y1="1279.81" x2="840.04" y2="1279.81"/><text class="cls-17" transform="translate(263.74 1211.19)">N<tspan class="cls-28" x="23.71" y="0">o</tspan><tspan class="cls-16" x="42.96" y="0">v</tspan><tspan x="59.66" y="0">ember</tspan></text><text class="cls-17" transform="translate(1475.74 1211.19)">N<tspan class="cls-28" x="23.71" y="0">o</tspan><tspan class="cls-16" x="42.96" y="0">v</tspan><tspan x="59.66" y="0">ember</tspan></text><text class="cls-6" transform="translate(266.12 1362.48)"><tspan class="cls-23">W</tspan><tspan x="20.89" y="0">e </tspan><tspan class="cls-24" x="38.4" y="0">r</tspan><tspan x="46.66" y="0">eached 35 FPOs with a </tspan><tspan x="14.95" y="26">10000 </tspan><tspan class="cls-26" x="81.2" y="26">F</tspan><tspan x="91.56" y="26">armer base &amp; 35 </tspan><tspan class="cls-22" x="59.09" y="52">P</tspan><tspan x="71.48" y="52">o</tspan><tspan class="cls-25" x="84.38" y="52">t</tspan><tspan x="92.41" y="52">e</tspan><tspan class="cls-16" x="104.49" y="52">n</tspan><tspan x="117.15" y="52">tial bu</tspan><tspan class="cls-24" x="180.12" y="52">y</tspan><tspan x="191.22" y="52">er</tspan></text><text class="cls-18" transform="translate(260.45 1314.81)">2019</text><text class="cls-19" transform="translate(263.74 1318.09)">2019</text><line class="cls-20" x1="1175.13" y1="1279.81" x2="1446.04" y2="1279.81"/><text class="cls-17" transform="translate(869.74 1211.19)">April</text><text class="cls-6" transform="translate(886.72 1362.48)">7 S<tspan class="cls-13" x="28.93" y="0">t</tspan><tspan class="cls-16" x="37.02" y="0">a</tspan><tspan class="cls-25" x="48.64" y="0">t</tspan><tspan x="56.67" y="0">es, 60 FPOs, 20000 </tspan><tspan class="cls-22" x="82.36" y="26">f</tspan><tspan x="89.57" y="26">arme</tspan><tspan class="cls-25" x="141.55" y="26">r</tspan><tspan x="149.79" y="26">s</tspan></text><text class="cls-18" transform="translate(866.46 1314.81)">2020</text><text class="cls-19" transform="translate(869.74 1318.09)">2020</text><text class="cls-6" transform="translate(1486.64 1362.48)">10 S<tspan class="cls-13" x="41.1" y="0">t</tspan><tspan class="cls-16" x="49.18" y="0">a</tspan><tspan class="cls-25" x="60.81" y="0">t</tspan><tspan x="68.84" y="0">es, 70 FPOs, 30000 </tspan><tspan class="cls-22" x="85.24" y="26">f</tspan><tspan x="92.44" y="26">arme</tspan><tspan class="cls-25" x="144.43" y="26">r</tspan><tspan x="152.67" y="26">s.</tspan></text><text class="cls-18" transform="translate(1472.46 1314.81)">2020</text><text class="cls-19" transform="translate(1475.74 1318.09)">2020</text><path class="cls-20" d="M214.56,1279.81H188.71A149.19,149.19,0,0,1,39.52,1130.62h0A149.18,149.18,0,0,1,188.71,981.43H425.43"/><path class="cls-20" d="M1589.33,683.32h25.85a149.19,149.19,0,0,1,149.19,149.19h0A149.18,149.18,0,0,1,1615.18,981.7H1378.46"/></svg>