<svg id="Layer_1" data-name="Layer 1" xmlns="http://www.w3.org/2000/svg" viewBox="0 0 160 160"><defs><style>.cls-1{fill:#fff;}.cls-2{fill:#1d7d15;}.cls-3{fill:#04ab5b;}</style></defs><circle class="cls-1" cx="80" cy="80" r="66.49"/><path class="cls-2" d="M110.61,121.83V103.3c2.69-.33,5.24-1,7-3.24s2-4.85,2-7.61c-6-.13-10.15,2-10.91,8.5-.62-6.53-5.34-8.84-10.92-8.4.08.92.13,1.84.22,2.76.5,4.6,3.33,7.41,8,7.85.73.07,1,.31,1,1.07,0,5.48,0,11,0,16.43,0,.31,0,.61,0,.94L82.32,121v-22c3.17-.39,6.21-1.12,8.25-3.83s2.4-5.73,2.27-9a14.46,14.46,0,0,0-8.12,1.68C81.6,89.6,80.51,92.65,80,96c-.5-3.08-1.38-6-4.07-7.83S70.32,86,67.16,86.1a13.86,13.86,0,0,0,2,8.57c2.05,3.1,5.31,3.87,8.69,4.29v22l-24.49.67v-18c7.28-.57,9.23-5.72,8.78-10.8a11.24,11.24,0,0,0-7.34,1.77c-2.26,1.59-3,4-3.4,6.6-.43-2.62-1.17-5-3.47-6.64a11.29,11.29,0,0,0-7.49-1.7c.07,1,.09,1.9.22,2.79.69,4.9,3.28,7.28,8.06,7.87.74.09.9.32.9,1,0,4.13,0,8.26,0,12.39v5l-13.52.79v4.41H124v-4.43Z"/><path class="cls-3" d="M74.4,83.66a21.58,21.58,0,0,0,11,.06,8.79,8.79,0,0,0,6.27-5.12,14.72,14.72,0,0,0,1.13-7.26c-1,.07-1.93.11-2.86.21-5.22.54-8.58,3-9.61,8.34-.1.54-.19,1.08-.29,1.62-.93-7.87-6.08-10.21-13-10.08.09,1.33.08,2.62.28,3.87C68,79.47,70.13,82.52,74.4,83.66Z"/><path class="cls-3" d="M75,69.23a23.65,23.65,0,0,0,9.91,0A8.94,8.94,0,0,0,91.3,64.7a14.41,14.41,0,0,0,1.51-7.91c-7.06-.12-12,2.4-12.82,10.12-.8-8.2-6.85-10.48-12.91-10,.09,1.24.11,2.5.27,3.73A9.6,9.6,0,0,0,75,69.23Z"/><path class="cls-3" d="M46.72,78.41a19.14,19.14,0,0,0,7.83.32c5.87-.82,8-5.4,7.58-10.7a12,12,0,0,0-7.25,1.77c-2.27,1.55-3.09,3.93-3.51,6.53-.48-2.57-1.23-5-3.5-6.53S43.19,68,40.36,68.05c.16,1.41.2,2.73.47,4A7.8,7.8,0,0,0,46.72,78.41Z"/><path class="cls-3" d="M113.11,81.27c-3,1.46-4,4.19-4.47,7.25-.79-7.31-6.6-8.79-10.94-8.26.08,1,.12,2,.25,3a7.88,7.88,0,0,0,6.45,7.25,18.53,18.53,0,0,0,8.25.08,7.67,7.67,0,0,0,5.19-3.27,12.84,12.84,0,0,0,1.7-7.19A11.93,11.93,0,0,0,113.11,81.27Z"/><path class="cls-3" d="M104,78.1a20.33,20.33,0,0,0,7.57.34,8.35,8.35,0,0,0,5.21-2.24c2.27-2.22,2.72-5.06,2.73-8,0-.15-.37-.44-.57-.44a15.86,15.86,0,0,0-2.18.14c-4.09.56-6.81,2.47-7.76,6.67-.12.52-.23,1.06-.34,1.58-.84-6.39-5-8.54-11-8.33.09,1.11.1,2.16.26,3.19C98.54,74.54,100.33,77.1,104,78.1Z"/><path class="cls-3" d="M51.38,88.88c-.41-2.62-1.18-5.08-3.47-6.69s-4.76-1.87-7.5-1.79c.07,1,.1,1.92.21,2.81.47,3.57,2.09,6.28,5.68,7.44a18.71,18.71,0,0,0,7.91.45A12.46,12.46,0,0,0,57.94,90c3.35-1.55,4.54-5.93,4.22-9.47C56.61,80.07,52,82.34,51.38,88.88Z"/><path class="cls-3" d="M81.37,32.94H78.66V55h2.71Z"/><path class="cls-3" d="M87.88,36.43h-2.7V55h2.7Z"/><path class="cls-3" d="M74.87,36.45H72.23V55h2.64Z"/><path class="cls-3" d="M52.51,47.87H50.28V66.56h2.23Z"/><path class="cls-3" d="M109.84,47.63h-2.27V66.21h2.27Z"/><path class="cls-3" d="M104.35,50.56H102V66.23h2.33Z"/><path class="cls-3" d="M115.3,50.53H113V66.21h2.29Z"/><path class="cls-3" d="M47.06,50.85H44.81V66.54h2.25Z"/><path class="cls-3" d="M58,50.88H55.76V66.57H58Z"/></svg>