<svg id="Layer_1" data-name="Layer 1" xmlns="http://www.w3.org/2000/svg" viewBox="0 0 160 160"><defs><style>.cls-1{fill:#fff;}.cls-2{fill:#6ea403;}</style></defs><circle class="cls-1" cx="80" cy="80" r="66.49"/><path class="cls-2" d="M55.75,94.3a24,24,0,0,1,0-3.6v-.63a21.32,21.32,0,0,1,0-3.39v-.85a21.32,21.32,0,0,1,0-3.39V81.6q-.12-5.94,0-11.86v-.85a20.2,20.2,0,0,1,0-3.39v-.84a5.89,5.89,0,0,0-.64-2.54c-.2-.12-.22-.32-.26-.52a9.73,9.73,0,0,1-1-2.16,2,2,0,0,1-.44-.9,9.55,9.55,0,0,1-1-2.14.69.69,0,0,1-.26-.52,9.73,9.73,0,0,1-1-2.16l-.63-.7c-1.39-.42-1.92-.19-2.58,1.13L46,57.87A8.82,8.82,0,0,1,45,60a21.81,21.81,0,0,1-1.24,2.63,3,3,0,0,0-.44,2,1.6,1.6,0,0,1,0,1.08c0,3.73.75,3-3,3a1.7,1.7,0,0,1-1.07,0l-3,0-.18.16,0,3.18v1.06c0,1.06,0,2.12,0,3.18l0,1.06c.74.43,1.56,0,2.32.23h4.23c.78-.17.87.21.68.83a16.68,16.68,0,0,1,0,3.16,1.6,1.6,0,0,1,0,1.08,16.68,16.68,0,0,1,0,3.16,1.57,1.57,0,0,1,0,1.07,16.68,16.68,0,0,1,0,3.16,1.6,1.6,0,0,1,0,1.08c.1.41-.1.51-.46.43a1.78,1.78,0,0,1-1.07,0,18.64,18.64,0,0,1-3.17,0,1.74,1.74,0,0,1-1.06,0c-1.38-.22-1.58.6-1.49,1.69V94.3c0,1.06,0,2.11,0,3.17v1.06c0,.44.06.89,0,1.32s.22.59.6.6H42c1.37-.09,1.37-.09,1.36,1.27,0,.41,0,.83-.07,1.25a1.34,1.34,0,0,1,0,.84l.06,3.15.12.22a12,12,0,0,1,3.59-.16h5.3l3.17,0,.19-.21c0-1.06,0-2.12,0-3.18v-.85a20.2,20.2,0,0,1,0-3.39v-.85a22.43,22.43,0,0,1,0-3.38ZM49.82,71.43a1.22,1.22,0,0,1,1.1,1.5,1.4,1.4,0,0,1-2.75.2C48.06,71.8,48.55,71.29,49.82,71.43ZM49.5,97.74A1.44,1.44,0,1,1,51,96.38,1.4,1.4,0,0,1,49.5,97.74Z"/><path class="cls-2" d="M76.55,104V64.86a5.28,5.28,0,0,0-.49-2.53c-.2-.11-.21-.31-.25-.49a12.81,12.81,0,0,1-1.18-2.48l-.31-.6a10.55,10.55,0,0,1-1-2.15c-.2-.11-.21-.31-.25-.5A9.77,9.77,0,0,1,72,54l-.41-.67c-1.46-.82-2.18-.59-2.92.91l-2.16,4.32a8.46,8.46,0,0,1-1,2.12c-1.43,2.21-1.41,4.69-1.28,7.17,0,.71-.12,1-.9,1-2-.07-4.06-.05-6.09-.07L57,69.1c0,2.5,0,5,0,7.48,0,.79.2,1.08,1,1a10.32,10.32,0,0,1,1.57,0H64c.43.37.15.83.18,1.25,0,1.06,0,2.12,0,3.17v8.47c.18.85,0,1.36-1,1.07a21.32,21.32,0,0,1-3.39,0h-.84l-.1,0c-1.74.13-1.74.13-1.85,1.88v5.3a4.61,4.61,0,0,1,0,.83c-.1.69.21.93.86.87H64c.16,0,.2.05.17.19,0,.85,0,1.69,0,2.54v1.06c0,.91,0,1.82,0,2.73l.84.06h8.47c.94,0,2.18.28,2.75-.19S76.38,105,76.55,104ZM69.33,71.77a1.26,1.26,0,0,1,1.86-.12c.77.79.83,1.52.17,2.16s-1.35.51-2.1-.18A1.23,1.23,0,0,1,69.33,71.77Zm1.13,26a1.44,1.44,0,1,1-.15-2.88,1.47,1.47,0,0,1,1.51,1.43A1.44,1.44,0,0,1,70.46,97.74Z"/><path class="cls-2" d="M34.15,61.9a1.62,1.62,0,0,1-.41-.85,7.28,7.28,0,0,1-.89-1.84,1.71,1.71,0,0,1-.42-.89,9,9,0,0,1-1-2.14,1.58,1.58,0,0,1-.41-.85l-.9-1.82-.41-.43c-1.43-.51-2-.27-2.7,1.1-.54,1.11-1.09,2.2-1.64,3.3a7.78,7.78,0,0,1-.91,1.88c-.21.47-.43.94-.62,1.42-.47,1.21-1.4,2.25-1.34,3.66V65.5c.17,3.43.17,3.43-3.26,3.22l-.1,0h-.85a.67.67,0,0,0-.42.42V70a20.08,20.08,0,0,1,0,3.38v.85l.08,3.36.35.06h3.17c.42.07,1.2-.44,1,.62v8.47c0,1,0,2.11,0,3.17a.36.36,0,0,1,0,.1c0,1.74.53,1.77-1.68,1.6-.73,0-1.46.07-2.18,0-.54,0-.75.17-.73.72,0,.73,0,1.46,0,2.19v.85a20.08,20.08,0,0,1,0,3.38v.85c0,.56.16,1,.86.84a5.28,5.28,0,0,1,1.05,0h1.06c1.72-.12,1.72-.12,1.69,1.58a4.38,4.38,0,0,1,0,.51v4.24l.24.25H34.36a.44.44,0,0,0,.49-.45v-4.24c0-1,0-2.11,0-3.17V89.64c0-1.06,0-2.12,0-3.17v-18c0-1.06,0-2.11,0-3.17V64.23C35,63.35,34.35,62.69,34.15,61.9Zm-5.51,9.42a1.43,1.43,0,0,1,1.48,1.44,1.36,1.36,0,0,1-1.36,1.44,1.45,1.45,0,0,1-1.55-1.37A1.49,1.49,0,0,1,28.64,71.32Zm.14,26.42a1.44,1.44,0,1,1,1.35-1.46A1.43,1.43,0,0,1,28.78,97.74Z"/><path class="cls-2" d="M115.68,94.3a25.44,25.44,0,0,1,0-3.6v-.63a21.32,21.32,0,0,1,0-3.39v-.85a21.32,21.32,0,0,1,0-3.39V81.6q-.12-5.94,0-11.86v-.85a20.2,20.2,0,0,1,0-3.39v-.84a5.76,5.76,0,0,0-.64-2.54c-.19-.12-.21-.32-.25-.52a10.23,10.23,0,0,1-1-2.16,2,2,0,0,1-.44-.9,9.1,9.1,0,0,1-1-2.14.64.64,0,0,1-.26-.52,10.23,10.23,0,0,1-1-2.16l-.63-.7c-1.39-.42-1.92-.19-2.58,1.13s-1.24,2.48-1.86,3.72a8.82,8.82,0,0,1-1,2.12,20.39,20.39,0,0,1-1.24,2.63,3,3,0,0,0-.44,2,1.54,1.54,0,0,1,0,1.08c0,3.73.75,3-3,3a1.7,1.7,0,0,1-1.07,0l-3,0-.18.16,0,3.18v1.06c0,1.06,0,2.12,0,3.18l0,1.06c.74.43,1.56,0,2.32.23h4.24c.77-.17.87.21.67.83a16.68,16.68,0,0,1,0,3.16,1.54,1.54,0,0,1,0,1.08,16.68,16.68,0,0,1,0,3.16,1.52,1.52,0,0,1,0,1.07,16.68,16.68,0,0,1,0,3.16,1.6,1.6,0,0,1,0,1.08c.1.41-.1.51-.46.43a1.74,1.74,0,0,1-1.06,0,18.76,18.76,0,0,1-3.18,0,1.74,1.74,0,0,1-1.06,0c-1.38-.22-1.58.6-1.49,1.69V94.3c0,1.06,0,2.11,0,3.17v1.06c0,.44.06.89,0,1.32s.21.59.6.6h5.29c1.37-.09,1.37-.09,1.36,1.27,0,.41,0,.83-.06,1.25a1.42,1.42,0,0,1,0,.84c0,1.05,0,2.1.07,3.15l.11.22A12,12,0,0,1,107,107h5.3l3.17,0,.19-.21c0-1.06,0-2.12,0-3.18v-.85a21.32,21.32,0,0,1,0-3.39v-.85a21.19,21.19,0,0,1,0-3.38Zm-5.92-22.87a1.22,1.22,0,0,1,1.09,1.5,1.4,1.4,0,0,1-2.75.2C108,71.8,108.48,71.29,109.76,71.43Zm-.33,26.31a1.44,1.44,0,1,1,1.45-1.36A1.4,1.4,0,0,1,109.43,97.74Z"/><path class="cls-2" d="M136.48,104V103l0-3.17V73.33c0-1,0-2.11,0-3.17v-5.3a5.28,5.28,0,0,0-.49-2.53c-.2-.11-.2-.31-.25-.49a13.42,13.42,0,0,1-1.18-2.48l-.31-.6a10.55,10.55,0,0,1-1-2.15c-.19-.11-.21-.31-.25-.5a9.77,9.77,0,0,1-1-2.16l-.4-.67c-1.46-.82-2.19-.59-2.93.91s-1.44,2.88-2.15,4.32a8.82,8.82,0,0,1-1,2.12c-1.44,2.21-1.42,4.69-1.28,7.17,0,.71-.13,1-.9,1-2-.07-4.07-.05-6.1-.07l-.24.41c0,2.5,0,5,0,7.48,0,.79.19,1.08,1,1a10.29,10.29,0,0,1,1.57,0h4.45c.42.37.14.83.17,1.25V90.48c.17.85,0,1.36-1,1.07a21.32,21.32,0,0,1-3.39,0h-.84l-.1,0c-1.74.13-1.74.13-1.85,1.88v5.3a4.61,4.61,0,0,1,0,.83c-.11.69.21.93.85.87h6.14c.16,0,.2.05.18.19,0,.85,0,1.69,0,2.54v1.06l.06,2.73.83.06h8.47c.95,0,2.18.28,2.75-.19S136.31,105,136.48,104Zm-7.22-32.27a1.26,1.26,0,0,1,1.86-.12c.77.79.83,1.52.17,2.16s-1.35.51-2.1-.18A1.24,1.24,0,0,1,129.26,71.77Zm1.13,26a1.44,1.44,0,1,1,1.36-1.45A1.43,1.43,0,0,1,130.39,97.74Z"/><path class="cls-2" d="M94.08,61.9a1.62,1.62,0,0,1-.41-.85,6.93,6.93,0,0,1-.88-1.84,1.73,1.73,0,0,1-.43-.89,9,9,0,0,1-1-2.14,1.59,1.59,0,0,1-.42-.85L90,53.51l-.4-.43c-1.44-.51-2-.27-2.7,1.1-.55,1.11-1.1,2.2-1.65,3.3a7.78,7.78,0,0,1-.91,1.88c-.21.47-.43.94-.62,1.42-.47,1.21-1.4,2.25-1.33,3.66V65.5c.18,3.43.18,3.43-3.26,3.22l-.1,0h-.84a.69.69,0,0,0-.43.42V70a21.19,21.19,0,0,1,0,3.38v.85l.07,3.36.35.06h3.17c.43.07,1.2-.44,1,.62V89.85s0,.07,0,.1c0,1.74.53,1.77-1.67,1.6-.73,0-1.46.07-2.19,0-.54,0-.75.17-.73.72,0,.73,0,1.46,0,2.19v.85a21.19,21.19,0,0,1,0,3.38v.85c0,.56.15,1,.85.84a5.28,5.28,0,0,1,1,0h1.06c1.72-.12,1.72-.12,1.7,1.58,0,.17,0,.34,0,.51v4.24l.25.25H94.3a.44.44,0,0,0,.48-.45v-4.24c0-1,0-2.11,0-3.17V89.64c0-1.06,0-2.12,0-3.17v-18c0-1.06,0-2.11,0-3.17V64.23C94.89,63.35,94.28,62.69,94.08,61.9Zm-5.5,9.42a1.42,1.42,0,0,1,1.47,1.44,1.36,1.36,0,0,1-1.36,1.44,1.45,1.45,0,0,1-1.55-1.37A1.49,1.49,0,0,1,88.58,71.32Zm.13,26.42a1.44,1.44,0,1,1-.16-2.88,1.45,1.45,0,0,1,1.51,1.42A1.43,1.43,0,0,1,88.71,97.74Z"/><path class="cls-2" d="M142.15,94.09v-.85c-.07-.82.22-1.92-1.26-1.68H140c-.7.19-1.61-.27-2.09.22s0,1.4-.23,2.1v.85a19.19,19.19,0,0,1,0,3.39V99c0,.82-.08,1.77,1.25,1.5H140c2-.14,2-.14,2.09-2a.43.43,0,0,1,0-.11v-.84A21.32,21.32,0,0,1,142.15,94.09Z"/><path class="cls-2" d="M137.75,77.48l2.92.11h1.06a.51.51,0,0,0,.42-.45V76.3a21.32,21.32,0,0,1,0-3.39v-.84L142,68.74l-.29-.06a19.19,19.19,0,0,1-3.39,0,.6.6,0,0,0-.62.62,19.19,19.19,0,0,1,0,3.39v.84a19.19,19.19,0,0,1,0,3.39Z"/></svg>