<svg xmlns="http://www.w3.org/2000/svg" viewBox="0 0 705.48 302.29"><defs><style>.cls-1{fill:#0c6a38;}.cls-2{fill:#070909;}.cls-3{fill:#f89521;}.cls-4{fill:#fff;}.cls-5{fill:#8dc641;}</style></defs><g id="Layer_2" data-name="Layer 2"><g id="Layer_1-2" data-name="Layer 1"><path class="cls-1" d="M231.52.42c-15.22,2.11-30.58,11.76-32.15,32.82,0,.55.22,1.3-.34,1.62-.76.45-1.17-.38-1.66-.74-7.46-5.58-15-11-23.33-15.26s-16.68-7.29-26-6.42c-18,1.68-32.9,9.78-45.24,22.78a31.4,31.4,0,0,0-6.94,11c4.77-2.21,9.29-3.35,14.12-2.45A49.42,49.42,0,0,1,130.16,53c10.05,7.38,19.86,15.1,29.78,22.66,4.89,3.73,9.8,7.44,15.55,9.83,4,1.67,8.12,3,12.56,2.19,7-1.37,14.11-8.81,10.2-19.48S187.3,48.94,178.42,41.85c-5.47-4.37-11.65-7.61-17.53-11.33-.24-.09-.68,0-.56-.43,0-.07.57,0,.88,0a61.51,61.51,0,0,1,17.27,7.57c14.69,9.15,24.17,22.56,30.87,38.17,6.6,15.37,9.38,31.61,10.77,48.17,1.69,20,.82,39.88-4.2,59.42-5.19,20.21-13.68,38.57-29,53.36-15.9,15.34-36.52,19.39-55.74,10.44-7.57-3.53-13.71-9-19.73-14.66-.78-.73-1.37-2-2.89-1.7A81,81,0,0,0,123.46,247c10,8.21,21.13,13.53,34.23,13.76,15.92.28,29-6.55,40.12-17.29,11.51-11.1,19.28-24.73,25-39.52,8.28-21.38,11.11-43.68,10.74-66.5a182.79,182.79,0,0,0-6.63-45.5C223.4,79.06,217.77,67,212.73,54.75c-2.45-6-5.44-11.82-6-18.36-.74-8.06,1-15.37,7.44-20.92a4.25,4.25,0,0,1,.7-.5c.47.46.08.81-.21,1.16l-1,2.26c-3.47,7.65-4.07,15.36-.27,23.07,2.38,4.82,6.6,6,11.2,3.27a23.64,23.64,0,0,0,8.05-8q4-6.46,7.85-13c4.15-7,8.57-13.86,14.57-19.52.37-.35,1.09-.53.83-1.44C247.87.63,239.83-.73,231.52.42Z"/><path class="cls-1" d="M82.43,188.64c-4.81-2.58-10.16-3-15.4-3.77-9.36-1.45-18.85-2-28.13-4.05a29.94,29.94,0,0,1-9.66-3.55c17,1.21,33.36,2.09,49.88,4.85-7.07-14.07-21.79-21.78-37.19-20.55C27.45,162.72,14.17,168.39,0,171.63c3.27,4.77,6.22,9.38,9.66,13.65A30,30,0,0,0,33.94,197c8.88.07,17.49-2.1,26.26-2.89,4.56-.41,9.1-1,13.69-.58a28.05,28.05,0,0,1,19,9.35C91.24,196.69,88.16,191.69,82.43,188.64Z"/><path class="cls-1" d="M331.9,255.09l-1.28.14c-2.33,1-4.65,0-6.94-.19-3.71-.26-7.67,1.07-11.11-1.36-.48-.34-.76-.06-1.05.23s-.74.67-.31,1c4.36,3.48-.45,1.91-1.35,2.41s-1.92.23-2.89.24c-.45,0-1-.24-1,.6,0,.62,0,1.14.84,1.17,1.23,0,2.78-.31,3.62.3,3.15,2.29,6.71.93,10,1.39,4.7.64,9.43-.54,14.08-1.5,1.37-.28,3.25.33,3.26-2.16,0-.48.81-.56,1.46-.41a8.67,8.67,0,0,0,2,0l.06-.69C338.26,255.49,335,255.47,331.9,255.09Z"/><path class="cls-2" d="M659.45,288.61c-1.15-.43-.49-1.56-.4-2.4s.28-1.8.36-2.71c.32-3.3,1.29-6.51,1.23-9.86,0-1.24-.24-2.38-1.5-2.88a2.91,2.91,0,0,0-3.18.85,14,14,0,0,0-2.58,3.34L651.63,278c0-1.71,0-3.09,0-4.47s-.32-2.38-1.58-2.84a2.82,2.82,0,0,0-2.92.94,21.54,21.54,0,0,0-4.24,6.38c-.16.36-.33.72-.53,1.13a1.34,1.34,0,0,1,.07-1.58c.1-1.65.27-3.3.28-5a1.88,1.88,0,0,0-2.24-2.05c-2.11.1-5,3.16-5.1,5.48.75-.85,1.44-1.68,2.18-2.45.51-.53,1.1-1.21,1.91-.73s.4,1.17.3,1.82c-.74,4.75-1.37,9.52-2.24,14.24-.33,1.77.27,1.7,1.63,1.56s1.38-1,1.44-1.9c.33-4.79,2.4-8.9,5-12.78.66-1,1.31-2.73,2.57-2.21s.49,2.28.33,3.43c-.52,3.77-1.27,7.52-1.8,11.29-.1.72-.84,2,.51,2.24,1.2.17,2.37-.18,2.43-2,.15-4.53,2.12-8.47,4.41-12.25.74-1.23,1.62-3.32,3-2.77s.46,2.66.28,4.07c-.43,3.37-1,6.72-1.41,10.1-.16,1.41,0,2.94,2,3s5.3-3,5.35-5.41c-.59.7-1.1,1.35-1.66,1.95S660.4,289,659.45,288.61Z"/><path class="cls-2" d="M566.24,270.73a8,8,0,0,0-7,2.94,17.94,17.94,0,0,0-4.58,10c-.26,2.25.62,4.37.79,6.44.15,1.69-2.95,3-3.81,5.19-1.46,3.71.42,6.75,4.36,7a7.56,7.56,0,0,0,5.88-2.17,14.18,14.18,0,0,0,4.31-7.95c1.14-6.1,1.62-12.31,2.94-18.38C569.76,270.78,569.67,270.76,566.24,270.73Zm-3.57,25.83a5.74,5.74,0,0,1-2.64,3.75A4.23,4.23,0,0,1,554,296a6.74,6.74,0,0,1,3.45-5.23c3.28-1.54,5.06-4.16,6.49-7.22a8.53,8.53,0,0,1,.44-.85c0-.05.16,0,.44-.06C564.2,287.3,564.07,292,562.67,296.56ZM565.72,276a24.17,24.17,0,0,1-5.09,10.3c-.56.73-1.34,1.79-2.43,1.21s-.78-1.72-.83-2.61a28.64,28.64,0,0,1,2.34-9.65,4.23,4.23,0,0,1,2.1-2.36,4.08,4.08,0,0,1,3.81.41C566.81,274.12,565.88,275.15,565.72,276Z"/><path class="cls-2" d="M602.75,264.58c.17-1-.7-.72-1.21-.72-2.58,0-5.18-.17-7.74.05-7,.61-10.68,4.34-10.43,10.41,1.73-.54,2.77-1.37,2.81-3.46a5.54,5.54,0,0,1,4.32-5.14c.65-.09,1.4-.35,1.23.83-.47,3.12-1,6.23-1.36,9.36-.16,1.29-1.69.45-2,1.49-.47,1.62,1.69.25,1.55,1.42,0,.17-.07.32-.1.49-.59,4.27-1,8.57-2.37,12.69-1.49,4.65-4.15,5.21-7.57,1.54-.45,1-2,1.58-1.5,2.62.58,1.34,2.09,1.82,3.6,1.77,2.93-.1,4.92-1.78,6.51-4,2.71-3.86,3.69-8.34,4.08-12.89.21-2.5,1.19-3.19,3.4-2.7,1.31.29,2.44.35,2.77-1.56h-5.46c.45-2.86.86-5.55,1.29-8.23.52-3.36.51-3.26,3.82-2.8,2.07.29,2.68,1.54,2.45,4C602.46,267.8,602.47,266.13,602.75,264.58Z"/><path class="cls-2" d="M456.41,288.56c-.66-.38-.42-1.15-.32-1.81.56-3.94,1.15-7.87,1.61-11.82.18-1.54.39-3.38-1.41-4.14s-3.17.53-4.25,1.83c-.89,1.07-1.55,2.34-2.37,3.48-.47.68-.48,1.7-1.62,2.21.23-1.68.5-3.15.6-4.63.17-2.35-1.11-3.63-3-2.91A7.13,7.13,0,0,0,441,276a23.15,23.15,0,0,0,2.26-2.28c.57-.59,1.23-1.36,2.12-.79s.34,1.36.22,2.07c-.75,4.67-1.54,9.32-2.23,14-.07.52-.76,1.62.58,1.71.88.06,1.91.11,2.23-1.08a8.27,8.27,0,0,0,.16-1.23c.53-4.64,2.5-8.7,5-12.56.7-1.08,1.58-2.8,2.87-2.25s.52,2.34.35,3.62c-.49,3.53-1.06,7.05-1.4,10.59-.23,2.34,1,3.57,2.77,2.92a6.77,6.77,0,0,0,4.55-5.32c-.71.8-1.38,1.64-2.13,2.4C457.79,288.26,457.23,289,456.41,288.56Z"/><path class="cls-2" d="M551.25,287.58c-.57.54-1.12,1.51-2,1s-.41-1.49-.29-2.27c.55-3.86,1.16-7.71,1.64-11.58.18-1.48.2-3.17-1.41-3.92s-2.88.31-3.95,1.4a23.46,23.46,0,0,0-3.72,5.84l-.53,1.13a1.31,1.31,0,0,1,.07-1.58c.12-1.57.31-3.14.33-4.71s-.7-2.38-2.29-2.3c-2.11.1-5,3.16-5.1,5.47.74-.84,1.43-1.67,2.18-2.44.51-.53,1.1-1.21,1.91-.73s.39,1.17.29,1.82c-.73,4.84-1.37,9.69-2.23,14.51-.3,1.68.44,1.56,1.55,1.44,1.39-.16,1.42-1.3,1.5-2.23.37-4.61,2.45-8.54,4.78-12.38a9.79,9.79,0,0,1,1.94-2.23c1.06-.94,1.65-.41,1.75.81a7.8,7.8,0,0,1-.18,1.72c-.55,3.69-1.15,7.38-1.63,11.08-.3,2.25.75,3.54,2.52,3.34,2-.22,4.59-3,4.76-5.29C552.43,286.24,551.89,287,551.25,287.58Z"/><path class="cls-2" d="M476.19,288.5c-1.09-.51-.29-2.36-.12-3.63.49-3.62,1-7.24,1.32-10.87.12-1.19.12-2.62-1.32-3.22s-2.59.13-3.59,1.07a10,10,0,0,0-1.59,1.91c-1,1.59-1.94,3.23-3.11,5.21.19-2.27.37-4.12.48-6a2,2,0,0,0-1.92-2.41c-2.17-.19-5.36,3-5.35,5.41a17.13,17.13,0,0,1,1.15-1.38c.81-.75,1.47-2.35,2.7-1.72s.44,2.13.29,3.19c-.6,4.35-1.36,8.68-2,13-.09.54-.82,1.42.34,1.55.8.08,1.91.34,2.31-.86a7.19,7.19,0,0,0,.41-1.69c.33-4.54,2.49-8.36,4.73-12.14a9.91,9.91,0,0,1,1.76-2.07c.31-.3.76-.74,1.31-.45a1.24,1.24,0,0,1,.54,1.29c-.1,1.32-.3,2.64-.48,3.95-.42,3.12-1,6.23-1.23,9.37-.17,2.12,1.11,3.24,2.84,2.63a6.4,6.4,0,0,0,4.33-5.17,7.36,7.36,0,0,1-.62.74C478.37,287.19,477.62,289.17,476.19,288.5Z"/><path class="cls-2" d="M615.15,288.59c-1.35-.57-.53-2.23-.38-3.33.59-4.34,1.36-8.66,2.09-13,.1-.63.52-1.44-.59-1.47-2.71-.1-5.53-.58-7.88,1.34-4.77,3.9-6.74,9.08-6.54,15.11,0,1.37.42,2.9,2,3.41s2.85-.44,3.93-1.54c1.75-1.8,2.77-4.07,4.12-6.21.11,1.92-.53,3.77-.35,5.69.15,1.52.85,2.28,2.41,2.15,2.09-.16,4.81-3.09,5-5.46-.44.53-.79,1-1.17,1.4C617,287.53,616.27,289.06,615.15,288.59Zm-1.91-12.81c-.5,4-2.79,7.2-5,10.38-.61.87-1.35,2.07-2.5,1.66-1.3-.45-1-1.93-1.06-3.1a31.93,31.93,0,0,1,2.23-9.09,5.29,5.29,0,0,1,1.75-2.37,4.11,4.11,0,0,1,4.25-.05C614.34,273.86,613.34,274.92,613.24,275.78Z"/><path class="cls-2" d="M424.72,264c-4.34-1.36-8.43-1.14-11.76,2.31-5,5.17-6.45,11.43-5.25,18.4.5,2.88,1.91,5.14,4.87,6,3.46,1.05,6.5-.36,9.49-1.84.3-.15.31-.88.64-1.87-1.46.62-2.41,1.1-3.41,1.44-4.44,1.48-7.75-.2-8.46-4.5a22.8,22.8,0,0,1,3.69-16.57,5.33,5.33,0,0,1,4-2.68,5.8,5.8,0,0,1,4,.8c1.4,1,1,2.6,1.49,4.2,1.33-1.44,1.05-3.06,1.61-4.38C426.06,264.49,425.4,264.23,424.72,264Z"/><path class="cls-2" d="M436.87,270.88c-2-.88-4-.14-5.5,1.31-4,3.8-6.16,8.44-5.19,14,.87,4.94,4.8,6.17,8.53,2.76a15.43,15.43,0,0,0,5.08-11.47c0-.5,0-1,0-1.49C439.68,273.81,438.93,271.8,436.87,270.88Zm-2.19,15.95c-.64,1.33-1.58,2.8-3.38,2.33s-2-2.07-2-3.6c0-.83,0-1.66,0-2.49a16.11,16.11,0,0,1,2.19-9c.65-1.08,1.44-2.11,2.95-1.82s1.68,1.39,1.94,2.56A18,18,0,0,1,434.68,286.83Z"/><path class="cls-2" d="M491.94,270.94c-1.77-1-3.59-.11-5,1.2a15.92,15.92,0,0,0-5.3,13.6c.3,3.13,1.84,4.93,4.15,5,2.78.13,6.91-2.56,7.51-5.17-1.78,1.39-3.31,2.84-5.42,3.11-2.31.3-3-1.19-3.26-3.14-.2-1.47-.73-2.62,1.73-3a8.16,8.16,0,0,0,7-6.53C493.87,274,493.78,272,491.94,270.94Zm-5.58,10.22c-1.22.34-1.93.18-1.63-1.34A14.11,14.11,0,0,1,487.2,274c.62-.82,1.38-1.55,2.49-1.19s1,1.55,1,2.39A6,6,0,0,1,486.36,281.16Z"/><path class="cls-2" d="M675,270.86a4,4,0,0,0-4.39.89,15.9,15.9,0,0,0-5.82,14.33c.31,3,2,4.62,4.25,4.69,2.81.1,6.87-2.58,7.5-5.12-1.82,1.18-3.27,2.72-5.36,3.07-2.35.4-3.1-1.18-3.42-3-.25-1.44-.68-2.84,1.9-3.14a8.31,8.31,0,0,0,7-7.61C676.7,273.31,676.57,271.66,675,270.86Zm-2,7.73c-1,1.47-4.46,3.45-4.92,2.72-.9-1.44.23-2.92.64-4.34a12.15,12.15,0,0,1,1.48-2.83c.6-.95,1.43-1.74,2.65-1.36s.87,1.6,1.11,2.46A8.48,8.48,0,0,1,673,278.59Z"/><path class="cls-2" d="M518.82,267.1c.08-.57,1-1.63-.27-1.75a2,2,0,0,0-2.37,1.29,7.94,7.94,0,0,0-.39,1.69c0,1.57-.3,2.76-2.33,2.62-.62-.05-1,.66-1,1.38,2.45.24,2.46.24,2.23,2.52-.08.75-.24,1.48-.31,2.22-.35,3.63-1.36,7.19-1.22,10.88,0,1.43.36,2.66,2.12,2.82,2.24.2,5-2.16,5.19-4.62-.49.41-.93.78-1.39,1.14-.72.56-1.49,1.34-2.43.91s-.55-1.63-.45-2.45c.43-3.7,1.1-7.38,1.43-11.09.17-1.91.92-2.54,2.67-2.13,1.37.32,2.46.26,2.79-1.59-.45,0-.84-.08-1.23-.09C518.27,270.76,518.3,270.77,518.82,267.1Z"/><path class="cls-2" d="M635.37,270.85a2.66,2.66,0,0,0-2.63.09,8.22,8.22,0,0,0-2.88,2.71c-1.08,1.63-2.06,3.33-3.13,5.07a7.13,7.13,0,0,1,.21-2.79,13.51,13.51,0,0,0,.14-3c-.13-1.63-.88-2.68-2.77-2.24s-4.38,3.25-4.68,5.57c.58-.72,1-1.4,1.61-2s1.27-1.94,2.36-1.46.59,1.79.46,2.68c-.62,4.51-1.38,9-2.07,13.52-.08.55-.79,1.44.26,1.59.84.12,2.11.53,2.49-.9a13.51,13.51,0,0,0,.39-2.2c.43-4.62,2.64-8.48,5.29-12.13.61-.84,1.47-1.94,2.62-1.41,1.8.83,1.61-.79,2.14-1.48C635.53,272.05,636.24,271.35,635.37,270.85Z"/><path class="cls-2" d="M694.45,270.91a3,3,0,0,0-3.27.35,12.77,12.77,0,0,0-3.4,3.92c-.69,1.13-1.32,2.3-2.19,3.82,0-2.38.75-4.23.47-6.16s-1.51-2.81-3.13-2a6.82,6.82,0,0,0-4.2,5.32,24.73,24.73,0,0,1,1.7-2.1c.61-.62,1.19-1.7,2.23-1.17.86.44.49,1.52.39,2.27-.67,4.68-1.42,9.34-2.13,14-.08.55-.8,1.44.39,1.52.8,0,1.93.44,2.35-.79a8.68,8.68,0,0,0,.41-1.95c.3-4.74,2.56-8.66,5.21-12.41.62-.88,1.57-2,2.58-1.56,2.13,1,1.75-1.07,2.47-1.74C694.69,271.87,694.94,271.15,694.45,270.91Z"/><path class="cls-2" d="M508.27,276.26c.47-1.67,1.75-3.53.57-4.93s-3.23-.95-4.92-.3a5.37,5.37,0,0,0-1.71,1,15.78,15.78,0,0,0-5.37,14.52c.26,2,1.28,3.83,3.64,4.19,2.58.4,6.86-2.17,8.27-5.37-2.06,1.43-3.51,2.67-5.45,3a2.4,2.4,0,0,1-3-1.49c-1.43-3.26.07-11.18,2.53-13.69a3.31,3.31,0,0,1,3.42-.94c1.41.38,1.48,1.59,1.46,2.81C507.69,275.46,507.48,275.93,508.27,276.26Z"/><path class="cls-2" d="M702.79,270.58c-4-.13-7.11,4.52-5.35,8.3a53.6,53.6,0,0,0,3,4.85c.8,1.35,1.77,2.83.32,4.29s-3.19,1-4.53-.06c-1.57-1.28-1.81.17-2.31.9-.88,1.26.41,1.27,1.07,1.52a5.92,5.92,0,0,0,5.9-.78c2.9-2.11,3.48-5,1.62-8.33-1-1.88-2.54-3.5-3.25-5.58a2.72,2.72,0,0,1,.64-3,2.59,2.59,0,0,1,2.83-.34c1.29.45,1,1.92,1.5,3,1.1-.48.64-1.29.88-1.84C706.2,271,704.67,270.64,702.79,270.58Z"/><path class="cls-2" d="M529.65,288.48c-1.29-.59-.36-2.8-.13-4.31.68-4.44,1.34-8.88,2.07-13.77-2.52,1.43-5,1.92-6.89,3.72,3.14-.1,3.27,0,3,3.16,0,.49-.21,1-.26,1.47-.33,3.21-1.28,6.34-1.23,9.61,0,1.43.5,2.44,2.15,2.41,2.16,0,5-3,5.11-5.3a2.37,2.37,0,0,0-.39.3C532,286.9,531.12,289.15,529.65,288.48Z"/><path class="cls-3" d="M704.13,211.48a1.33,1.33,0,0,0-1.89.67,19.76,19.76,0,0,0-.67,1.87c-2.08,5.46-4.33,10.83-8.52,15.08-.86.88-1.88,2.11-3.15,1.55s-.75-2.19-.79-3.39a6.77,6.77,0,0,1,.15-1A100.79,100.79,0,0,1,693,210c.83-2.8,0-4.7-2.91-5.19-2.34-.4-2.51-1.57-2.6-3.48-.32-6.36-4.64-9.37-10.81-7.68a14.82,14.82,0,0,0-6.2,3.57c-4.36,4.06-6.62,9.29-8.37,14.81a43.58,43.58,0,0,1-8,14.82,13.32,13.32,0,0,1-4.27,3.77c-1.36.66-2.31.44-2.28-1.29a35.07,35.07,0,0,1,.28-4.47,145.92,145.92,0,0,1,5.35-21.5,3.94,3.94,0,0,0-1.74-4.93c-2.89-2-5.68-1.16-6.92,2.18-2.5,6.78-3.79,13.94-6.33,20.72-1.69,4.52-3.28,9.08-6.21,13-.79,1.06-1.76,2.23-3.27,1.87s-1.88-1.79-2.16-3.1c-.93-4.29-.61-8.61-.23-12.92,1.33-14.86,4.37-29.42,8.08-43.85a4.08,4.08,0,0,0-3.07-5.36c-3-.81-4.87.06-5.6,2.89-1.1,4.26-2.09,8.55-3,12.85-.7,3.19-1.25,6.42-1.9,9.81-5.88-5.34-11.13-4.85-15.89,1.22a27.92,27.92,0,0,0-5.16,10.44,85.32,85.32,0,0,1-6.47,17c-1.78,3.57-3.56,7.19-6.73,9.79-2.4,2-4.54,1.06-4.85-2a20.2,20.2,0,0,1,.17-4.72c.6-4.54,1.91-8.94,2.95-13.39,1.26-5.42,2.78-10.8,2.55-16.45-.29-7.24-5.91-10.92-12.63-8.27a15.32,15.32,0,0,0-4,2.5c-3.53,2.93-5.88,6.74-8.08,10.68-.58,1-.88,2.3-1.9,3.08-.52-.54-.26-1-.19-1.51a163.09,163.09,0,0,1,4-17.75c1-3.57.07-5.38-3.19-6.27-3-.83-4.5.14-5.53,3.64a157,157,0,0,0-4.49,21.46c-1.13,7.49-2.1,15-1.17,22.6a7.94,7.94,0,0,0,1.52,4.14c1.25,1.59,4.19,2.14,6.2,1.2s1-2.37.87-3.7c-.36-4.75-.4-9.47,1.52-14,1.34-3.13,2.45-6.36,3.92-9.43,2.34-4.89,5.05-9.6,9.67-12.78,1.18-.81,2.55-2,4.08-1.07s1.24,2.75,1.14,4.32a6.33,6.33,0,0,1-.12.74c-1.17,6-2.37,12.07-3.51,18.11-1,5.26-1.69,10.52-.19,15.81,1.1,3.84,3.77,6,7.54,6.82,3.52.77,5.84-1.25,7.87-3.72.58-.71,1.08-1.48,1.61-2.22,2.09-2.89,3.43-6.2,5.45-9.94.86,3.27,1.24,5.83,2.77,8,2.78,3.9,7.33,4.28,10.64.86a28.17,28.17,0,0,0,4.56-6.53c.91-1.72,1.74-3.48,2.65-5.31.65.67.4,1.27.45,1.81.4,4.49.86,8.95,3.1,13,3,5.5,8.61,6,12.44,1.06a37.34,37.34,0,0,0,4.29-7.59,5.59,5.59,0,0,1,1.54-2.6,8.44,8.44,0,0,1,.45,1c2.31,8.36,7.72,9.92,14.08,4a14,14,0,0,0,1.53-1.64c1.21-1.53,2.38-3.09,3.87-5,.08,1.11.12,1.74.18,2.36.32,3.42.88,6.77,3,9.65,3.09,4.28,8.25,4.58,11.61.61a26.89,26.89,0,0,0,2.84-4.09c1.31-2.26,2.46-4.61,3.88-7.3.27,1.37.42,2.35.66,3.31,1.35,5.36,7,7.45,11.33,4,6.21-4.94,8.78-12.14,11.37-19.28A1.27,1.27,0,0,0,704.13,211.48Zm-85.39-1.81a60.63,60.63,0,0,1-8,17.87c-1,1.46-2,3.85-3.93,3.24-1.66-.54-1-3.06-1.27-4.5.62-9.34,2.49-18.13,6.51-26.38.75-1.52,1.47-3.65,3.4-3.58,2.18.08,2.8,2.34,3.51,4.09C620.29,203.52,619.59,206.59,618.74,209.67Zm61.89,9.74a58.69,58.69,0,0,1-6.45,13.72,11.67,11.67,0,0,1-1.18,1.61c-.78.86-1.65,1.88-2.92,1.55s-1.44-1.68-1.59-2.84c-1-7.88,1-15.32,3.38-22.69A34.76,34.76,0,0,1,677,200.3c1.35-1.8,2.92-4.09,5.35-3.31s2.24,3.41,2.34,5.59c0,.33,0,.67,0,1C684.44,209.13,682.36,214.24,680.63,219.41Z"/><path class="cls-3" d="M544.33,169.37c-2.65-.58-4.44.56-5,3.45-2.87,14.16-3.44,28.53-4,44,0,2.44,0,5.93,0,9.43a36.33,36.33,0,0,0,1.1,10.13,5.77,5.77,0,0,0,6.22,3.54c2.39-.5,2.59-2.3,2.43-4.24-.91-11.06-.53-22.13-.08-33.18.38-9.38.86-18.77,2.6-28A4,4,0,0,0,544.33,169.37Z"/><path class="cls-3" d="M652.47,193.64a4.48,4.48,0,0,0,4.47-4.69,4.36,4.36,0,0,0-4.54-4.32,4.27,4.27,0,0,0-4.29,4.52A4.36,4.36,0,0,0,652.47,193.64Z"/><path class="cls-2" d="M529.19,266.78c.06-2.5,2.33-3.13,3.88-4.78.14,3-1.74,4-3.68,5A.52.52,0,0,0,529.19,266.78Z"/><path class="cls-1" d="M529.39,267h-.51l.31-.24A.52.52,0,0,1,529.39,267Z"/><path class="cls-4" d="M214.13,15.47a4.25,4.25,0,0,1,.7-.5c.47.46.08.81-.21,1.16Z"/><path class="cls-4" d="M160.89,30.52c-.24-.09-.68,0-.56-.43,0-.07.57,0,.88,0C161.11,30.23,161,30.38,160.89,30.52Z"/><path class="cls-4" d="M196.25,165.53c-.29-.24-.39-.71-.13-.81.41-.15.3.33.36.58Z"/><path class="cls-4" d="M187.71,217.45l.55,0-.22.47Z"/><path class="cls-4" d="M161.84,177a3.63,3.63,0,0,1-.38-.4c.22-.29.49-.18.75-.05Z"/><path class="cls-5" d="M314.44,215.77c-3.92-6.85-8.52-13.34-11.26-20.81-3.32-9.07-5.48-18.47-7.71-27.85-.33-1.41,0-1.85,1.52-1.88,16.88-.4,33.76-.89,50.64-1.3,10.73-.26,21.46-.31,32.19-.65,22.44-.72,44.87-1.59,67.31-2.35q26.69-.88,53.37-1.63c7-.2,7.62-3.63,7.58-8.63,0-3.6-1.93-5.38-5.55-5.82-5.55-.68-11.13-.46-16.7-.47-28.38,0-56.75.39-85.13.88-12.89.22-25.79.31-38.69.52-17.81.29-35.61-.4-53.42-.48-1.83,0-1.9-.42-1.11-1.91a292.67,292.67,0,0,0,24.23-62.06c2.77-10.34,5-20.83,5.48-31.58.07-1.59.67-2,2.11-1.85,1.66.12,3.33.05,5,0,2.57,0,3.52-1.06,3.53-3.7s-.93-3.73-3.44-3.79a28,28,0,0,0-4.49,0c-2,.28-2.36-.68-2.52-2.33a81.08,81.08,0,0,0-2.16-11.76,8,8,0,0,0-3-5c-2.75-1.93-4.58-1.51-5.78,1.63-2,5.2-3.87,10.44-5.68,15.7-.45,1.31-1,1.84-2.41,1.77-2.74-.13-5.5-.07-8.24,0-2.54,0-3.52,1.11-3.52,3.74s1,3.7,3.54,3.74,5.05,0,7.49,0c-.8,7.22-2.91,13.76-5.26,20.26-10.3,28.45-25.94,53.46-47.67,74.59a4.25,4.25,0,0,1-3.15,1.62c-5.08,0-10.15.24-15.22.37-3.92.1-5.23,1.23-6,5.18s-.28,7.8.06,11.69a4.71,4.71,0,0,0,4.84,4.68,43.72,43.72,0,0,0,5,0c4-.24,7,.92,8.55,5,1.23,3.16,3,6.12,4.51,9.16,2.56,5.13,4.53,10.63,8.31,15,15.1,17.54,30.53,34.77,47.07,51,3.54,3.46,7.05,7.12,11.95,8.79l1.28-.14c2.32-1.79,2.55-3.08,1.15-6C327.54,237.57,320.75,226.81,314.44,215.77Z"/><path class="cls-5" d="M196.05,152.79c-5.52-3.81-11.56-5.78-18.33-4.92-1.11.14-2.55.08-1.34,2a43.92,43.92,0,0,1,5.91,16.81,61.71,61.71,0,0,1,1.12,10.79c-9.08-7.92-18.64-13.56-30.67-13.72s-22.22,3.79-30.93,12.76c8.65,1.93,15.4,6.5,21.46,12.17,4.13,3.87,8.12,7.89,12.18,11.82,4.55,4.39,9,8.9,13.9,12.89,5.45,4.4,11.44,6.32,18.36,4.07l.55,0c-.07.16-.14.31-.22.47s-.08.53-.23.69c-8.12,8.31-17.55,14.11-29.54,14.16-13.89,0-25.28-5.74-34.4-16-9.59-10.82-15.93-23.5-20.34-37.15C95.74,155.43,96,131,101.3,106.4c3.64-16.9,10.82-32.07,22.78-44.76,2.28-2.41,2.3-2.4-.3-4.53-.39-.32-.78-.63-1.18-.93-2.92-2.09-5-2-7.54.5a39.2,39.2,0,0,0-3.37,3.68c-15,18.64-21.38,40.49-23.63,63.82a160.71,160.71,0,0,0,2,42.51c3.6,21.16,11.31,40.43,25.92,56.55,13.26,14.64,29.34,20.39,48.8,15.5,12.34-3.1,21.45-10.25,27.05-21.74,1.33-2.75,2.09-5.63,0-8.26-5.32-6.82-10.27-13.94-16.31-20.18-4.19-4.32-9.24-7.6-13.69-11.6a3.63,3.63,0,0,1-.38-.4c.22-.29.49-.18.75-.05,14.25,3.16,25.06,11.24,33.16,23.69A42.38,42.38,0,0,0,198.44,187c.59-7.29-.77-14.39-2.19-21.48-.29-.24-.39-.71-.13-.81.41-.15.3.33.36.58,2.82,3.6,4.2,7.85,5.47,12.15,1.5,5.11,1.91,10.41,2.5,16.18.65-1,1.08-1.63,1.41-2.27C212.68,178.3,208.36,161.31,196.05,152.79Z"/><path class="cls-5" d="M516.28,211.3a1.47,1.47,0,0,0-1.93,1.09,16.19,16.19,0,0,1-2.34,4.66,9.88,9.88,0,0,1-6.55,4.18c-1.59.26-2.6.14-1.75-2a33.43,33.43,0,0,0,2.21-10.7c.26-4.43.26-8.87-2.22-12.81-2.81-4.46-8.3-4.41-11,.11-.74,1.25-1.1,2-2.85,1.21s-3.71-.18-5.36,1.09c-3.89,3-6,7.06-7.25,11.64a83.53,83.53,0,0,1-8.51,19.87,15.5,15.5,0,0,1-4.79,5.66c-1.78,1.13-3.25.64-3.9-1.35a8,8,0,0,1-.3-2.44c0-5.82,2-11.28,3.21-16.86,1.17-5.19,2.66-10.33,2.54-15.71-.18-8.65-7.34-12.48-14.72-7.92a24.31,24.31,0,0,0-6.45,6.18c-2.18,2.85-3.57,6.15-5.52,9.13l-.3-.26a146.73,146.73,0,0,1,4.18-19.23c.91-3.4,0-5.19-3.16-6.11s-4.7.07-5.68,3.41c-2.47,8.4-3.84,17-5.14,25.65A35.79,35.79,0,0,1,419,229.39c-.7.73-1.59,1.81-2.76,1.15-1-.55-.67-1.76-.6-2.75.41-5.93,2-11.61,3.66-17.28,1-3.5.09-5.26-3.42-6-1.28-.27-1.84-.61-1.76-2a14.12,14.12,0,0,0-.41-3.21c-.7-3.7-2.85-5.61-6.63-6-4.65-.45-8.22,1.64-11.27,4.83-3.52,3.69-5.59,8.22-7.11,13a46.65,46.65,0,0,1-9.54,17.35c-1,1.06-1.8,2.33-3.58,3,.25-3.34.4-6.38.75-9.41.56-4.94.51-10,2.26-14.74,1.23-3.34-.47-5.72-4.05-5.24-2,.28-2.14-.52-2.29-2-.45-4.45-2.94-6.66-7.36-6.85a13.3,13.3,0,0,0-10.36,4.08c-6.41,6.41-8.95,14.43-9.23,23.29-.12,3.81.48,7.49,2.82,10.65,3.25,4.41,8.43,4.74,12.19.79a30,30,0,0,0,4.71-6.72c.66-1.25,1.35-2.48,2.32-4.27,0,5.36-.4,10-.77,14.63a3.41,3.41,0,0,1-2.28,3.14c-4.93,2.39-10,4.63-14.27,8.14-2.75,2.24-5.13,4.74-6,8.34-1.75,7.15,4,12.86,11.13,11.16a16.56,16.56,0,0,0,6.93-3.77,33.94,33.94,0,0,0,11.11-19.35c.95-4.58,2.55-8.31,6.53-11.08,2.22-1.54,3.75-4,5.33-6.24.35-.49.49-1.25,1.36-1.31.52.92.24,1.94.33,2.9a16.05,16.05,0,0,0,3.06,8.57c3.07,4,7.93,4.24,11.31.53a37,37,0,0,0,5.39-8.65c.42-.84.56-1.88,1.6-2.56.07.65.09,1.13.16,1.6.5,2.94,1.62,5.49,4.67,6.55a7.5,7.5,0,0,0,8-2,23.41,23.41,0,0,0,2.83-3.14c1.3-1.76,2.45-3.63,3.79-5.65.23,2.42.3,4.58.66,6.68.62,3.75,3.3,5.44,6.89,4.56,1.41-.34,2.14-1.05,1.9-2.65-1.91-12.81,3.73-23.29,10.51-33.36a14.15,14.15,0,0,1,6.05-5.08c2-.89,3-.35,3.32,1.79a17.57,17.57,0,0,1-.43,5.69c-1.31,7.2-3.22,14.28-4,21.57a22.72,22.72,0,0,0,1.1,10.82c2.42,6.27,9.61,7.79,14.25,3a33.44,33.44,0,0,0,5.61-8.5c1-2,1.91-4,3-6.3.32,1.32.5,2.21.77,3.08a22.87,22.87,0,0,0,1,2.81c3.61,7.92,12.73,9.63,18.95,3.57a15.77,15.77,0,0,0,3.48-4.54,2.81,2.81,0,0,1,3.25-1.83c6.08.4,11.55-4.38,13.34-11C517.54,212.27,517.27,211.55,516.28,211.3ZM361,258.41a11.42,11.42,0,0,1-5.76,4.9,6.16,6.16,0,0,1-6.54-1c-2-1.63-2.18-3.84-1.72-6.14a8.94,8.94,0,0,1,2.44-4.55c4.54-4.69,10.43-7.14,16.48-10.23C364.89,247.57,364.11,253.31,361,258.41Zm7.6-49.2c-2.12,6.38-4.51,12.66-8.28,18.3-1.27,1.9-2.63,4.75-5.12,4s-1.57-3.82-1.86-6c.57-8.68,2.74-16.85,7.51-24.21a11.66,11.66,0,0,1,3.33-3.66c2.53-1.63,4.29-1,5,2A17.57,17.57,0,0,1,368.62,209.21Zm42.45-3.52c-2.25,9.2-5,18.25-9.92,26.45-1.1,1.85-2.22,4.71-4.75,3.92-2.08-.66-1.51-3.55-1.67-5.57,0-.41,0-.83,0-1.25.73-9.69,2.79-19,7.85-27.46a10.53,10.53,0,0,1,4.45-4.56c1.53-.72,2.56-.33,3.23,1.16A11.4,11.4,0,0,1,411.07,205.69Zm87.35,18.22c-1.53,2.6-3.17,5.07-6,6.45-2.66,1.28-5.05.63-6.44-1.74-3.15-5.36-.59-18.91,4.45-22.93.28,1.93.41,3.81.83,5.62,1,4.29,2.74,8.17,6.46,10.85C498.33,222.6,499,222.92,498.42,223.91Zm4.52-17.31a41.92,41.92,0,0,1-2.12,11.93c-.51,1.54-1.05,1.44-2,.55a11.1,11.1,0,0,1-1.68-1.82,20.55,20.55,0,0,1-2.33-18.74c.47-1.41,1.21-2.79,3-2.88s3.05,1.14,3.81,2.69C503,200.93,503,203.77,502.94,206.6Z"/><path class="cls-4" d="M642.89,278c-.16.36-.33.72-.53,1.13a1.34,1.34,0,0,1,.07-1.58Z"/><path class="cls-4" d="M541.47,278l-.53,1.13a1.31,1.31,0,0,1,.07-1.58Z"/></g></g></svg>