<svg id="Layer_1" data-name="Layer 1" xmlns="http://www.w3.org/2000/svg" viewBox="0 0 1920 1465.02"><defs><style>.cls-1{fill:#0c6a38;}.cls-2{fill:#070909;}.cls-18,.cls-3{fill:#f89521;}.cls-4{fill:#fff;}.cls-5{fill:#8dc641;}.cls-6{font-size:24px;}.cls-17,.cls-6{fill:#231f20;}.cls-17,.cls-18,.cls-19,.cls-6{font-family:Calibri-Bold, Calibri;font-weight:700;}.cls-7{letter-spacing:-0.01em;}.cls-8{letter-spacing:-0.02em;}.cls-9{letter-spacing:-0.02em;}.cls-10{letter-spacing:-0.05em;}.cls-11{letter-spacing:-0.01em;}.cls-12{letter-spacing:-0.01em;}.cls-13{letter-spacing:-0.01em;}.cls-14{letter-spacing:0em;}.cls-15{letter-spacing:-0.02em;}.cls-16{letter-spacing:-0.01em;}.cls-17{font-size:36px;}.cls-18,.cls-19{font-size:135.98px;}.cls-19,.cls-20{fill:none;stroke-miterlimit:10;}.cls-19{stroke:#f89521;}.cls-20{stroke:#231f20;stroke-width:4px;}.cls-21{letter-spacing:-0.01em;}.cls-22{letter-spacing:-0.02em;}.cls-23{letter-spacing:-0.04em;}.cls-24{letter-spacing:-0.01em;}.cls-25{letter-spacing:-0.01em;}.cls-26{letter-spacing:-0.03em;}.cls-27{letter-spacing:0em;}.cls-28{letter-spacing:0em;}</style></defs><path class="cls-1" d="M914.34,140c-5.74.8-11.52,4.43-12.11,12.37,0,.21.08.48-.13.61s-.44-.15-.63-.28a63.86,63.86,0,0,0-8.79-5.75c-3.07-1.59-6.28-2.75-9.79-2.42a26.37,26.37,0,0,0-17,8.58,11.83,11.83,0,0,0-2.62,4.13,8.55,8.55,0,0,1,5.32-.92,18.44,18.44,0,0,1,7.61,3.49c3.78,2.78,7.48,5.68,11.21,8.53a26.57,26.57,0,0,0,5.86,3.7,8.16,8.16,0,0,0,4.73.83,5.3,5.3,0,0,0,3.85-7.34,22.65,22.65,0,0,0-7.47-9.92,69.6,69.6,0,0,0-6.61-4.27c-.09,0-.26,0-.21-.16s.22,0,.33,0a23.07,23.07,0,0,1,6.51,2.85c5.53,3.44,9.1,8.5,11.63,14.37a57.76,57.76,0,0,1,4,18.15,66.61,66.61,0,0,1-1.58,22.38c-2,7.62-5.15,14.53-10.92,20.1-6,5.78-13.76,7.31-21,3.94a29,29,0,0,1-7.44-5.53c-.29-.27-.51-.73-1.08-.64a30.25,30.25,0,0,0,5.6,6.07,20.52,20.52,0,0,0,12.9,5.19c6,.11,10.91-2.47,15.11-6.51a40.51,40.51,0,0,0,9.42-14.89,65.76,65.76,0,0,0,4-25,68.47,68.47,0,0,0-2.5-17.14c-1.32-4.84-3.44-9.38-5.34-14-.92-2.25-2-4.45-2.28-6.92-.27-3,.37-5.78,2.81-7.88.09-.06.25-.2.26-.18.18.17,0,.3-.08.43-.13.29-.25.57-.38.85a9.67,9.67,0,0,0-.1,8.69,2.72,2.72,0,0,0,4.22,1.23,9,9,0,0,0,3-3c1-1.63,2-3.26,3-4.91a32.86,32.86,0,0,1,5.49-7.35c.14-.13.41-.2.31-.54A23.17,23.17,0,0,0,914.34,140Z"/><path class="cls-1" d="M858.18,210.87a17.63,17.63,0,0,0-5.8-1.42c-3.53-.54-7.1-.76-10.6-1.52a11.18,11.18,0,0,1-3.64-1.34c6.41.46,12.57.79,18.79,1.83a14.23,14.23,0,0,0-14-7.74c-5.45.43-10.46,2.56-15.79,3.79,1.23,1.79,2.34,3.53,3.64,5.14a11.26,11.26,0,0,0,9.14,4.39c3.35,0,6.59-.79,9.89-1.08a28.73,28.73,0,0,1,5.16-.23,10.6,10.6,0,0,1,7.15,3.53A8,8,0,0,0,858.18,210.87Z"/><path class="cls-1" d="M952.15,235.9l-.48.06c-.88.37-1.75,0-2.62-.08-1.39-.09-2.89.41-4.18-.51-.18-.12-.29,0-.4.09s-.28.25-.11.38c1.64,1.32-.17.72-.51.91a2.12,2.12,0,0,1-1.09.09c-.17,0-.39-.09-.39.23s0,.43.32.44,1-.12,1.36.11c1.19.86,2.53.35,3.77.52a15.7,15.7,0,0,0,5.31-.56c.51-.11,1.22.12,1.23-.81,0-.18.3-.21.55-.16a3.21,3.21,0,0,0,.76,0l0-.26A26.54,26.54,0,0,0,952.15,235.9Z"/><path class="cls-2" d="M1075.53,248.53c-.43-.16-.18-.59-.15-.9s.11-.68.14-1a33.44,33.44,0,0,0,.46-3.72c0-.47-.09-.9-.56-1.08a1.1,1.1,0,0,0-1.2.32,4.77,4.77,0,0,0-1,1.26l-.66,1.16v-1.69a1,1,0,0,0-.6-1.07,1.08,1.08,0,0,0-1.1.36,7.85,7.85,0,0,0-1.59,2.4l-.2.43a.49.49,0,0,1,0-.6c0-.62.1-1.24.11-1.87s-.31-.79-.85-.77a2.58,2.58,0,0,0-1.92,2.06c.28-.32.54-.63.82-.92s.42-.45.72-.27.15.43.11.68c-.27,1.79-.51,3.59-.84,5.36-.12.67.1.65.62.59s.51-.37.54-.71a9.82,9.82,0,0,1,1.88-4.82c.25-.37.5-1,1-.83s.19.86.13,1.29c-.2,1.42-.48,2.83-.68,4.26,0,.27-.32.76.19.84s.89-.07.92-.75a9.46,9.46,0,0,1,1.66-4.61c.28-.47.61-1.26,1.14-1s.17,1,.1,1.54c-.16,1.27-.38,2.53-.53,3.8-.06.53,0,1.11.77,1.15a2.44,2.44,0,0,0,2-2c-.22.26-.42.51-.63.73S1075.89,248.66,1075.53,248.53Z"/><path class="cls-2" d="M1040.42,241.8a3,3,0,0,0-2.64,1.1,6.81,6.81,0,0,0-1.73,3.77,11.3,11.3,0,0,0,.3,2.43c.05.64-1.11,1.13-1.43,2a1.77,1.77,0,0,0,1.64,2.62,2.82,2.82,0,0,0,2.21-.82,5.34,5.34,0,0,0,1.63-3c.42-2.3.61-4.64,1.1-6.93C1041.75,241.81,1041.72,241.81,1040.42,241.8Zm-1.34,9.72a2.21,2.21,0,0,1-1,1.42,1.48,1.48,0,0,1-1.59-.11,1.45,1.45,0,0,1-.69-1.53,2.51,2.51,0,0,1,1.3-2,5.14,5.14,0,0,0,2.44-2.72,3.24,3.24,0,0,1,.17-.32s.06,0,.16,0A30.65,30.65,0,0,1,1039.08,251.52Zm1.15-7.73a9,9,0,0,1-1.92,3.88c-.21.27-.51.67-.92.45s-.29-.64-.31-1a10.92,10.92,0,0,1,.88-3.64,1.6,1.6,0,0,1,.79-.88,1.57,1.57,0,0,1,1.44.15C1040.63,243.07,1040.29,243.46,1040.23,243.79Z"/><path class="cls-2" d="M1054.17,239.48c.07-.36-.26-.27-.45-.27-1,0-2-.06-2.92,0-2.63.23-4,1.63-3.93,3.92a1.24,1.24,0,0,0,1.06-1.3,2.08,2.08,0,0,1,1.63-1.94c.25,0,.53-.13.46.31-.18,1.18-.36,2.35-.51,3.53-.06.48-.64.17-.75.56-.18.61.63.09.58.53a1.29,1.29,0,0,1,0,.19,27.76,27.76,0,0,1-.89,4.78c-.56,1.75-1.56,2-2.85.58-.17.37-.74.59-.57,1a1.34,1.34,0,0,0,1.36.66,3.05,3.05,0,0,0,2.45-1.52,9.68,9.68,0,0,0,1.54-4.85c.08-.94.45-1.2,1.28-1,.49.11.92.13,1-.58h-2.05c.17-1.08.32-2.1.48-3.11.2-1.26.19-1.23,1.44-1.05.78.11,1,.58.93,1.52A3.49,3.49,0,0,0,1054.17,239.48Z"/><path class="cls-2" d="M999.05,248.51c-.25-.14-.16-.43-.12-.68.21-1.48.43-3,.61-4.45.06-.58.14-1.28-.54-1.56s-1.19.2-1.6.69-.58.88-.89,1.31c-.18.25-.18.64-.61.83.09-.63.19-1.19.23-1.74.06-.89-.42-1.37-1.15-1.1a2.69,2.69,0,0,0-1.75,2,8.61,8.61,0,0,0,.85-.86c.22-.22.47-.51.8-.3s.13.52.08.78c-.28,1.76-.58,3.51-.84,5.27,0,.2-.28.61.22.65.33,0,.72,0,.84-.41a3.62,3.62,0,0,0,.06-.46,11,11,0,0,1,1.88-4.73c.26-.41.59-1.06,1.08-.85s.2.88.13,1.36c-.18,1.33-.4,2.66-.53,4-.09.88.37,1.35,1.05,1.1a2.53,2.53,0,0,0,1.71-2c-.27.3-.52.62-.8.9S999.36,248.69,999.05,248.51Z"/><path class="cls-2" d="M1034.77,248.14c-.21.21-.42.57-.77.37s-.15-.55-.11-.85c.21-1.45.44-2.91.62-4.36.07-.56.08-1.19-.53-1.48s-1.08.12-1.49.53a8.57,8.57,0,0,0-1.4,2.2l-.2.43a.51.51,0,0,1,0-.6c0-.59.11-1.18.12-1.78a.75.75,0,0,0-.86-.86,2.57,2.57,0,0,0-1.92,2.06c.28-.32.54-.63.82-.92s.41-.45.72-.27.15.44.11.68c-.28,1.82-.52,3.65-.84,5.47-.11.63.17.59.58.54s.54-.49.57-.84a10.57,10.57,0,0,1,1.8-4.66,3.7,3.7,0,0,1,.73-.85c.4-.35.62-.15.66.31a2.94,2.94,0,0,1-.07.65c-.21,1.39-.43,2.78-.62,4.17-.11.85.29,1.34,1,1.26a2.5,2.5,0,0,0,1.8-2C1035.22,247.64,1035,247.91,1034.77,248.14Z"/><path class="cls-2" d="M1006.5,248.49c-.41-.19-.11-.89,0-1.37.18-1.36.37-2.72.49-4.09,0-.45,0-1-.49-1.22a1.23,1.23,0,0,0-1.36.41,3.83,3.83,0,0,0-.6.72c-.38.59-.72,1.21-1.17,2,.07-.86.14-1.55.18-2.25,0-.51-.17-.86-.72-.91a2.38,2.38,0,0,0-2,2,3.84,3.84,0,0,1,.43-.52c.31-.29.55-.89,1-.65s.16.8.11,1.2c-.23,1.64-.52,3.27-.77,4.91,0,.2-.31.53.13.58s.72.13.87-.33a2.32,2.32,0,0,0,.15-.63,10.6,10.6,0,0,1,1.78-4.57,3.84,3.84,0,0,1,.67-.78c.12-.12.28-.28.49-.17a.47.47,0,0,1,.21.48c0,.5-.12,1-.19,1.49-.15,1.18-.37,2.35-.46,3.53-.06.8.42,1.22,1.07,1a2.41,2.41,0,0,0,1.63-1.95,3.45,3.45,0,0,1-.23.28C1007.32,248,1007,248.74,1006.5,248.49Z"/><path class="cls-2" d="M1058.85,248.52c-.51-.21-.21-.84-.15-1.25.22-1.64.52-3.26.79-4.89,0-.24.2-.54-.22-.56-1,0-2.09-.21-3,.51a6.65,6.65,0,0,0-2.46,5.69,1.23,1.23,0,0,0,.77,1.29,1.44,1.44,0,0,0,1.48-.58,13.76,13.76,0,0,0,1.55-2.34c0,.72-.2,1.42-.13,2.14,0,.57.32.86.91.81a2.53,2.53,0,0,0,1.86-2.06l-.44.53C1059.55,248.13,1059.27,248.7,1058.85,248.52Zm-.73-4.82a8.66,8.66,0,0,1-1.89,3.91c-.23.32-.51.78-.94.62s-.36-.72-.4-1.17a12.06,12.06,0,0,1,.84-3.42,2,2,0,0,1,.66-.89,1.53,1.53,0,0,1,1.6,0C1058.54,243,1058.16,243.38,1058.12,243.7Z"/><path class="cls-2" d="M987.11,239.27a4,4,0,0,0-4.43.87,7.57,7.57,0,0,0-2,6.92,2.62,2.62,0,0,0,1.84,2.28,4.74,4.74,0,0,0,3.57-.69c.12-.06.12-.33.24-.71a13.16,13.16,0,0,1-1.28.54c-1.67.56-2.92-.07-3.18-1.69a8.53,8.53,0,0,1,1.39-6.24,2,2,0,0,1,1.5-1,2.17,2.17,0,0,1,1.53.3c.53.36.38,1,.56,1.58.5-.54.4-1.15.61-1.65C987.62,239.45,987.37,239.35,987.11,239.27Z"/><path class="cls-2" d="M991.69,241.85a1.86,1.86,0,0,0-2.07.5,5.67,5.67,0,0,0-2,5.28c.33,1.86,1.81,2.32,3.22,1a5.79,5.79,0,0,0,1.91-4.32c0-.19,0-.38,0-.56A2,2,0,0,0,991.69,241.85Zm-.83,6c-.24.5-.59,1.06-1.27.88s-.74-.78-.76-1.36c0-.31,0-.62,0-.94a6.11,6.11,0,0,1,.83-3.39c.24-.41.54-.8,1.11-.69s.63.52.73,1A6.77,6.77,0,0,1,990.86,247.86Z"/><path class="cls-2" d="M1012.43,241.87a1.54,1.54,0,0,0-1.87.46,6,6,0,0,0-2,5.12c.11,1.18.7,1.86,1.57,1.9a3.25,3.25,0,0,0,2.82-1.95,4.37,4.37,0,0,1-2,1.17c-.87.11-1.13-.45-1.23-1.18-.07-.56-.27-1,.65-1.13a3.06,3.06,0,0,0,2.64-2.46A1.58,1.58,0,0,0,1012.43,241.87Zm-2.1,3.86c-.46.12-.72.06-.61-.51a5.16,5.16,0,0,1,.93-2.21c.23-.31.52-.58.94-.45s.37.59.39.91A2.27,2.27,0,0,1,1010.33,245.73Z"/><path class="cls-2" d="M1081.37,241.84a1.48,1.48,0,0,0-1.65.34,6,6,0,0,0-2.19,5.4,1.72,1.72,0,0,0,1.6,1.77,3.3,3.3,0,0,0,2.82-1.93,5.62,5.62,0,0,1-2,1.15c-.88.15-1.17-.44-1.29-1.13-.09-.54-.25-1.07.72-1.19a3.13,3.13,0,0,0,2.64-2.86C1082,242.77,1082,242.15,1081.37,241.84Zm-.75,2.92c-.36.55-1.68,1.3-1.85,1-.34-.54.09-1.1.24-1.63a4.21,4.21,0,0,1,.56-1.07c.22-.36.53-.65,1-.51s.33.6.42.92A3.21,3.21,0,0,1,1080.62,244.76Z"/><path class="cls-2" d="M1022.56,240.43c0-.22.38-.62-.1-.66a.74.74,0,0,0-.9.49,2.85,2.85,0,0,0-.14.63c0,.59-.11,1-.88,1-.23,0-.37.25-.37.52.93.09.93.09.84.95,0,.28-.08.56-.11.83a29.73,29.73,0,0,0-.46,4.1c0,.54.13,1,.8,1.06a2.05,2.05,0,0,0,2-1.73l-.52.42c-.27.21-.56.51-.92.35s-.2-.62-.17-.92c.17-1.4.42-2.79.54-4.18.07-.72.35-1,1-.81s.93.1,1.05-.6l-.46,0C1022.35,241.81,1022.36,241.81,1022.56,240.43Z"/><path class="cls-2" d="M1066.46,241.84a1,1,0,0,0-1,0,3,3,0,0,0-1.08,1c-.41.61-.78,1.25-1.18,1.9a2.55,2.55,0,0,1,.08-1,5.35,5.35,0,0,0,0-1.13c0-.61-.33-1-1-.84a2.85,2.85,0,0,0-1.77,2.1c.22-.28.4-.53.61-.75s.48-.73.89-.55.22.68.17,1c-.23,1.7-.52,3.39-.78,5.09,0,.21-.3.55.1.6s.79.2.94-.34a5.89,5.89,0,0,0,.15-.82,9.16,9.16,0,0,1,2-4.57c.23-.32.55-.74,1-.54.68.32.61-.29.81-.55S1066.79,242,1066.46,241.84Z"/><path class="cls-2" d="M1088.72,241.86a1.17,1.17,0,0,0-1.24.13,5.19,5.19,0,0,0-1.28,1.48c-.26.43-.49.87-.82,1.44,0-.9.28-1.59.17-2.32s-.56-1.06-1.17-.76a2.58,2.58,0,0,0-1.59,2,10.12,10.12,0,0,1,.65-.79c.22-.24.44-.64.83-.44s.19.57.15.85c-.25,1.77-.53,3.52-.8,5.28,0,.21-.3.54.15.57.3,0,.72.17.88-.3a2.56,2.56,0,0,0,.15-.73,9.15,9.15,0,0,1,2-4.67c.23-.34.59-.77,1-.59.8.37.66-.4.93-.66S1088.9,242,1088.72,241.86Z"/><path class="cls-2" d="M1018.59,243.88c.17-.63.65-1.33.21-1.86s-1.22-.35-1.86-.11a2,2,0,0,0-.64.38,5.93,5.93,0,0,0-2,5.47,1.64,1.64,0,0,0,1.37,1.58,3.6,3.6,0,0,0,3.12-2,5.86,5.86,0,0,1-2.06,1.14.9.9,0,0,1-1.13-.57,6.42,6.42,0,0,1,.95-5.15,1.26,1.26,0,0,1,1.29-.36c.53.14.56.6.55,1.06C1018.37,243.58,1018.29,243.75,1018.59,243.88Z"/><path class="cls-2" d="M1091.86,241.74a2.25,2.25,0,0,0-2,3.13c.3.64.78,1.2,1.14,1.82s.67,1.07.12,1.62a1.19,1.19,0,0,1-1.7,0c-.59-.49-.68.06-.87.33-.33.48.15.49.4.58a2.27,2.27,0,0,0,2.22-.29,2.19,2.19,0,0,0,.61-3.14,13.78,13.78,0,0,1-1.22-2.11,1,1,0,0,1,.24-1.12,1,1,0,0,1,1.06-.13c.49.17.37.72.57,1.13.42-.18.24-.49.33-.7C1093.14,241.91,1092.57,241.76,1091.86,241.74Z"/><path class="cls-2" d="M1026.64,248.48c-.49-.22-.14-1-.05-1.62.26-1.67.5-3.35.78-5.19a12,12,0,0,0-2.6,1.4c1.19,0,1.24,0,1.12,1.19,0,.19-.08.37-.1.56a31.42,31.42,0,0,0-.46,3.62c0,.54.19.91.81.91a2.45,2.45,0,0,0,1.92-2,.53.53,0,0,0-.15.11C1027.53,247.89,1027.19,248.73,1026.64,248.48Z"/><path class="cls-3" d="M1092.36,219.48a.5.5,0,0,0-.71.25c-.11.22-.16.47-.25.7a15.82,15.82,0,0,1-3.21,5.69c-.33.32-.71.79-1.19.58s-.28-.83-.3-1.28c0-.12,0-.25.06-.37a37,37,0,0,1,1.41-6.13c.31-1,0-1.77-1.1-1.95-.88-.15-.94-.59-1-1.31-.12-2.4-1.75-3.53-4.07-2.9a5.69,5.69,0,0,0-2.34,1.35,12.39,12.39,0,0,0-3.15,5.58,16.54,16.54,0,0,1-3,5.58,5,5,0,0,1-1.61,1.42c-.51.25-.87.17-.86-.49a13.54,13.54,0,0,1,.11-1.68,55.09,55.09,0,0,1,2-8.1,1.48,1.48,0,0,0-.65-1.85,1.57,1.57,0,0,0-2.61.82c-.94,2.55-1.43,5.25-2.38,7.8a19.37,19.37,0,0,1-2.34,4.9c-.3.4-.67.84-1.23.7s-.71-.67-.82-1.16a15.91,15.91,0,0,1-.08-4.87,103.06,103.06,0,0,1,3-16.52,1.55,1.55,0,0,0-1.16-2c-1.13-.3-1.83,0-2.11,1.09-.41,1.6-.78,3.22-1.14,4.84-.26,1.2-.47,2.42-.71,3.69-2.22-2-4.2-1.82-6,.47a10.42,10.42,0,0,0-1.94,3.93,32.27,32.27,0,0,1-2.44,6.39,10.47,10.47,0,0,1-2.54,3.69c-.9.74-1.71.4-1.82-.77a7.58,7.58,0,0,1,.06-1.78c.23-1.71.72-3.36,1.11-5a22.85,22.85,0,0,0,1-6.2c-.11-2.72-2.22-4.11-4.75-3.11a5.62,5.62,0,0,0-1.51.94,13.63,13.63,0,0,0-3,4,3.3,3.3,0,0,1-.71,1.16c-.2-.2-.1-.39-.07-.57a61.48,61.48,0,0,1,1.49-6.69c.38-1.34,0-2-1.2-2.35s-1.69,0-2.08,1.36a60.22,60.22,0,0,0-1.69,8.09,31.14,31.14,0,0,0-.44,8.51,3,3,0,0,0,.57,1.56,2.07,2.07,0,0,0,2.33.45c.7-.32.37-.89.33-1.39a11,11,0,0,1,.58-5.27c.5-1.18.92-2.4,1.47-3.55a11.47,11.47,0,0,1,3.64-4.81c.45-.31,1-.77,1.54-.41s.47,1,.43,1.63c0,.09,0,.18,0,.28-.44,2.27-.9,4.54-1.33,6.82a12.73,12.73,0,0,0-.07,6,3.51,3.51,0,0,0,2.84,2.57c1.33.29,2.2-.47,3-1.4.22-.27.4-.56.6-.84a34.34,34.34,0,0,0,2.06-3.74,8.85,8.85,0,0,0,1,3,2.47,2.47,0,0,0,4,.32,11.09,11.09,0,0,0,1.72-2.46c.34-.65.65-1.31,1-2,.25.25.16.48.17.68a12,12,0,0,0,1.17,4.9c1.14,2.07,3.25,2.26,4.69.4a14.1,14.1,0,0,0,1.61-2.86,2.18,2.18,0,0,1,.58-1,2.26,2.26,0,0,1,.17.38c.87,3.15,2.91,3.73,5.3,1.52a4.84,4.84,0,0,0,.58-.62c.46-.57.9-1.16,1.46-1.89,0,.42,0,.65.07.89a7.09,7.09,0,0,0,1.11,3.63,2.64,2.64,0,0,0,4.37.23,9.68,9.68,0,0,0,1.08-1.54c.49-.85.92-1.74,1.46-2.75.1.52.15.89.24,1.25a2.61,2.61,0,0,0,4.27,1.51c2.34-1.86,3.31-4.58,4.28-7.26A.47.47,0,0,0,1092.36,219.48Zm-32.16-.69a22.8,22.8,0,0,1-3,6.74c-.37.55-.76,1.45-1.48,1.22s-.37-1.15-.48-1.7a26.22,26.22,0,0,1,2.46-9.93c.28-.58.55-1.38,1.28-1.35s1,.88,1.32,1.54A5.2,5.2,0,0,1,1060.2,218.79Zm23.31,3.68a21.93,21.93,0,0,1-2.43,5.16,5.24,5.24,0,0,1-.44.61c-.3.32-.62.71-1.11.58s-.54-.63-.59-1.07c-.4-3,.39-5.77,1.27-8.55a13,13,0,0,1,2-3.93c.51-.68,1.1-1.54,2-1.25s.85,1.29.89,2.1v.38A22.84,22.84,0,0,1,1083.51,222.47Z"/><path class="cls-3" d="M1032.17,203.61a1.44,1.44,0,0,0-1.89,1.3,102.64,102.64,0,0,0-1.53,16.57c0,.92,0,2.23,0,3.55a13.66,13.66,0,0,0,.42,3.82,2.16,2.16,0,0,0,2.34,1.33c.9-.19,1-.87.91-1.6a104.26,104.26,0,0,1,0-12.5,73.4,73.4,0,0,1,1-10.56A1.52,1.52,0,0,0,1032.17,203.61Z"/><path class="cls-3" d="M1072.9,212.76a1.7,1.7,0,0,0,1.69-1.77,1.65,1.65,0,0,0-1.71-1.63,1.61,1.61,0,0,0-1.62,1.7A1.65,1.65,0,0,0,1072.9,212.76Z"/><path class="cls-2" d="M1026.47,240.31c0-.94.87-1.18,1.46-1.8,0,1.12-.66,1.51-1.39,1.89A.16.16,0,0,0,1026.47,240.31Z"/><path class="cls-1" d="M1026.54,240.4h-.19l.12-.09A.16.16,0,0,1,1026.54,240.4Z"/><path class="cls-4" d="M907.79,145.64c.09-.06.25-.2.26-.18.18.17,0,.3-.08.43Z"/><path class="cls-4" d="M887.73,151.31c-.09,0-.26,0-.21-.16s.22,0,.33,0Z"/><path class="cls-4" d="M901.05,202.17c-.11-.09-.14-.27,0-.31s.12.13.14.22Z"/><path class="cls-4" d="M897.83,221.73l.21,0-.08.18Z"/><path class="cls-4" d="M888.09,206.47c-.05-.05-.15-.14-.14-.15s.18-.06.28,0Z"/><path class="cls-5" d="M945.57,221.09c-1.47-2.58-3.21-5-4.24-7.83a93.09,93.09,0,0,1-2.9-10.49c-.13-.54,0-.7.57-.72,6.36-.14,12.71-.33,19.07-.48,4-.1,8.09-.12,12.13-.25,8.45-.27,16.9-.6,25.36-.88q10.05-.34,20.1-.62c2.64-.07,2.87-1.36,2.85-3.25a2,2,0,0,0-2.09-2.19,52.8,52.8,0,0,0-6.29-.18c-10.69,0-21.38.15-32.06.33-4.86.09-9.72.12-14.58.2-6.71.11-13.41-.15-20.12-.18-.69,0-.72-.16-.42-.72a110.36,110.36,0,0,0,9.13-23.38,55.76,55.76,0,0,0,2.06-11.89c0-.6.26-.74.8-.7s1.25,0,1.88,0c1,0,1.33-.4,1.33-1.4s-.35-1.4-1.29-1.42a10.71,10.71,0,0,0-1.7,0c-.74.11-.89-.26-.95-.88a30.52,30.52,0,0,0-.81-4.43,3,3,0,0,0-1.13-1.89c-1-.72-1.73-.56-2.18.62q-1.12,2.94-2.14,5.91c-.17.5-.37.69-.91.67-1-.05-2.07,0-3.1,0s-1.33.42-1.33,1.41.38,1.39,1.34,1.41h2.82a32.55,32.55,0,0,1-2,7.63,73.37,73.37,0,0,1-17.95,28.1,1.6,1.6,0,0,1-1.19.61c-1.91,0-3.82.09-5.73.14-1.48,0-2,.46-2.25,2a15.82,15.82,0,0,0,0,4.4,1.78,1.78,0,0,0,1.82,1.76c.63,0,1.26,0,1.88,0a2.82,2.82,0,0,1,3.22,1.88c.47,1.19,1.13,2.3,1.7,3.45,1,1.93,1.71,4,3.13,5.66,5.69,6.6,11.51,13.09,17.74,19.2a12.43,12.43,0,0,0,4.5,3.31l.48-.06c.87-.67,1-1.16.43-2.27C950.51,229.31,948,225.25,945.57,221.09Z"/><path class="cls-5" d="M901,197.37a9.62,9.62,0,0,0-6.9-1.85c-.42,0-1,0-.5.75a16.41,16.41,0,0,1,2.22,6.33,21.62,21.62,0,0,1,.42,4.06c-3.42-3-7-5.11-11.55-5.17A15.23,15.23,0,0,0,873,206.3a17.15,17.15,0,0,1,8.08,4.59c1.56,1.45,3.06,3,4.59,4.45,1.72,1.65,3.39,3.35,5.24,4.85a7,7,0,0,0,6.91,1.54l.21,0-.08.18c0,.09,0,.2-.09.26-3.06,3.13-6.61,5.32-11.12,5.34a16.69,16.69,0,0,1-13-6,38.39,38.39,0,0,1-7.66-14c-2.94-9.1-2.84-18.31-.84-27.56A34.63,34.63,0,0,1,873.87,163c.85-.9.86-.9-.12-1.7l-.44-.35a1.88,1.88,0,0,0-2.84.19,13.85,13.85,0,0,0-1.27,1.38c-5.64,7-8.06,15.25-8.9,24a60.59,60.59,0,0,0,.74,16c1.36,8,4.26,15.23,9.76,21.3,5,5.51,11.06,7.68,18.39,5.84a14.78,14.78,0,0,0,10.18-8.2,2.76,2.76,0,0,0,0-3.11,94.85,94.85,0,0,0-6.14-7.6c-1.58-1.62-3.48-2.86-5.16-4.37-.05-.05-.15-.14-.14-.15s.18-.06.28,0a19.5,19.5,0,0,1,12.49,8.92,16.28,16.28,0,0,0,1.16-5,29,29,0,0,0-.83-8.09c-.11-.09-.14-.27,0-.31s.12.13.14.22a13.35,13.35,0,0,1,2.06,4.58,33.88,33.88,0,0,1,.94,6.09c.25-.39.41-.61.53-.85A11.5,11.5,0,0,0,901,197.37Z"/><path class="cls-5" d="M1021.6,219.41a.55.55,0,0,0-.73.41,5.76,5.76,0,0,1-.88,1.75,3.67,3.67,0,0,1-2.46,1.58c-.6.1-1,0-.66-.74a12.65,12.65,0,0,0,.83-4,7.79,7.79,0,0,0-.84-4.83,2.32,2.32,0,0,0-4.13,0c-.28.47-.42.76-1.08.46a1.93,1.93,0,0,0-2,.41,7.83,7.83,0,0,0-2.73,4.38,31.82,31.82,0,0,1-3.21,7.49,5.82,5.82,0,0,1-1.81,2.13.87.87,0,0,1-1.46-.51,2.84,2.84,0,0,1-.12-.92,29.92,29.92,0,0,1,1.21-6.35,24.73,24.73,0,0,0,1-5.91c-.07-3.26-2.77-4.71-5.55-3a9.44,9.44,0,0,0-2.43,2.33c-.82,1.07-1.34,2.32-2.08,3.44a.52.52,0,0,0-.11-.1,54.33,54.33,0,0,1,1.58-7.24c.34-1.28,0-2-1.2-2.3s-1.76,0-2.13,1.28a70.6,70.6,0,0,0-1.94,9.66,13.45,13.45,0,0,1-3.65,7.37c-.26.28-.6.69-1,.44s-.25-.67-.22-1a30.94,30.94,0,0,1,1.38-6.51c.37-1.31,0-2-1.29-2.26-.48-.1-.69-.23-.67-.76a5.56,5.56,0,0,0-.15-1.21,2.52,2.52,0,0,0-2.5-2.25,5,5,0,0,0-4.24,1.82,12.17,12.17,0,0,0-2.68,4.91,17.57,17.57,0,0,1-3.59,6.53,3.44,3.44,0,0,1-1.35,1.14c.09-1.26.15-2.41.28-3.55a23.16,23.16,0,0,1,.85-5.55c.47-1.26-.18-2.16-1.52-2-.76.1-.81-.2-.87-.78a2.59,2.59,0,0,0-2.77-2.58,5,5,0,0,0-3.9,1.54,12.4,12.4,0,0,0-3.48,8.77,6.19,6.19,0,0,0,1.06,4,2.84,2.84,0,0,0,4.6.3,11.5,11.5,0,0,0,1.77-2.53c.25-.47.51-.93.87-1.61,0,2-.15,3.77-.28,5.51a1.31,1.31,0,0,1-.87,1.19,26.69,26.69,0,0,0-5.37,3.06,5.91,5.91,0,0,0-2.26,3.14,3.37,3.37,0,0,0,4.19,4.21,6.18,6.18,0,0,0,2.61-1.42,12.81,12.81,0,0,0,4.19-7.29,6.11,6.11,0,0,1,2.46-4.17,9.21,9.21,0,0,0,2-2.36c.13-.18.18-.47.51-.49a2.53,2.53,0,0,1,.12,1.09,6,6,0,0,0,1.15,3.23,2.63,2.63,0,0,0,4.26.2,13.59,13.59,0,0,0,2-3.26c.16-.31.22-.71.61-1,0,.24,0,.42.06.6a2.78,2.78,0,0,0,1.76,2.47,2.81,2.81,0,0,0,3-.74,8,8,0,0,0,1.07-1.18c.49-.66.92-1.37,1.43-2.13.08.92.11,1.73.25,2.52a2,2,0,0,0,2.59,1.72c.53-.13.81-.4.72-1-.72-4.83,1.4-8.77,4-12.57a5.32,5.32,0,0,1,2.28-1.91c.76-.34,1.13-.13,1.25.67a6.76,6.76,0,0,1-.17,2.15c-.49,2.71-1.21,5.38-1.5,8.12a8.45,8.45,0,0,0,.41,4.08,3.16,3.16,0,0,0,5.37,1.13,12.69,12.69,0,0,0,2.11-3.2c.38-.74.72-1.5,1.14-2.37.12.5.18.83.28,1.16a9.53,9.53,0,0,0,.38,1.06,4.29,4.29,0,0,0,7.14,1.34,5.91,5.91,0,0,0,1.31-1.71,1.06,1.06,0,0,1,1.22-.69c2.29.16,4.35-1.64,5-4.14C1022.08,219.78,1022,219.5,1021.6,219.41Zm-58.48,17.74A4.31,4.31,0,0,1,961,239a2.34,2.34,0,0,1-2.47-.38,2.21,2.21,0,0,1-.64-2.31,3.37,3.37,0,0,1,.92-1.72c1.7-1.76,3.93-2.68,6.2-3.85C964.57,233.07,964.28,235.23,963.12,237.15ZM966,218.62a28.4,28.4,0,0,1-3.12,6.9c-.48.71-1,1.78-1.93,1.51s-.59-1.44-.7-2.26a18.79,18.79,0,0,1,2.83-9.12,4.34,4.34,0,0,1,1.26-1.37c.95-.62,1.61-.37,1.87.73A6.61,6.61,0,0,1,966,218.62Zm16-1.32a35.56,35.56,0,0,1-3.73,10c-.42.69-.84,1.77-1.8,1.47-.78-.24-.57-1.33-.63-2.09,0-.16,0-.31,0-.47a23.13,23.13,0,0,1,3-10.35,4,4,0,0,1,1.68-1.72.79.79,0,0,1,1.21.44A4.27,4.27,0,0,1,982,217.3Zm32.9,6.86a5.53,5.53,0,0,1-2.26,2.43,1.71,1.71,0,0,1-2.42-.66c-1.19-2-.22-7.12,1.67-8.64.11.73.16,1.44.32,2.12a6.53,6.53,0,0,0,2.43,4.09C1014.84,223.66,1015.09,223.79,1014.87,224.16Zm1.71-6.52a15.93,15.93,0,0,1-.8,4.49c-.19.58-.4.55-.75.21a3.74,3.74,0,0,1-.63-.69,7.73,7.73,0,0,1-.88-7.05c.18-.54.46-1,1.14-1.09a1.49,1.49,0,0,1,1.44,1A6.64,6.64,0,0,1,1016.58,217.64Z"/><path class="cls-4" d="M1069.3,244.55l-.2.43a.49.49,0,0,1,0-.6Z"/><path class="cls-4" d="M1031.09,244.55l-.2.43a.51.51,0,0,1,0-.6Z"/><path class="cls-3" d="M960,35.62a157.3,157.3,0,1,1-60.28,11.92A157.62,157.62,0,0,1,960,35.62Zm0,0a157.22,157.22,0,1,0,60.24,12A157.41,157.41,0,0,0,960,35.62Z"/><path class="cls-3" d="M960,357.88A157.19,157.19,0,1,1,1020.28,346,157.8,157.8,0,0,1,960,357.88Zm0,0a157.1,157.1,0,1,0-60.24-12A157.58,157.58,0,0,0,960,357.88Z"/><path class="cls-3" d="M1121.13,196.75a157.19,157.19,0,1,1-11.91-60.28A157.8,157.8,0,0,1,1121.13,196.75Zm0,0a157.1,157.1,0,1,0-12,60.24A157.44,157.44,0,0,0,1121.13,196.75Z"/><path class="cls-3" d="M798.87,196.75A157.19,157.19,0,1,1,810.78,257,157.8,157.8,0,0,1,798.87,196.75Zm0,0a157.22,157.22,0,1,0,12-60.24A157.41,157.41,0,0,0,798.87,196.75Z"/><text class="cls-6" transform="translate(201.61 687.34)">O<tspan class="cls-7" x="16.23" y="0">r</tspan><tspan class="cls-8" x="24.48" y="0">g</tspan><tspan x="35.45" y="0">ano India </tspan><tspan class="cls-9" x="133.83" y="0">f</tspan><tspan x="141.06" y="0">ounded</tspan></text><text class="cls-6" transform="translate(755.52 666.13)">Supply of O<tspan class="cls-7" x="114.82" y="0">r</tspan><tspan class="cls-8" x="123.07" y="0">g</tspan><tspan x="134.04" y="0">anic </tspan><tspan class="cls-10" x="180.13" y="0">V</tspan><tspan x="193.09" y="0">e</tspan><tspan class="cls-11" x="205.17" y="0">g</tspan><tspan class="cls-12" x="216.29" y="0">e</tspan><tspan class="cls-13" x="228.21" y="0">t</tspan><tspan x="236.3" y="0">ables </tspan><tspan x="14.3" y="26">in </tspan><tspan class="cls-14" x="38.5" y="26">c</tspan><tspan x="48.42" y="26">ollabo</tspan><tspan class="cls-15" x="110.74" y="26">r</tspan><tspan class="cls-16" x="118.75" y="26">a</tspan><tspan x="130.37" y="26">tion with </tspan><tspan class="cls-10" x="226.03" y="26">V</tspan><tspan x="238.99" y="26">e</tspan><tspan class="cls-11" x="251.07" y="26">g</tspan><tspan x="262.2" y="26">e </tspan><tspan class="cls-16" x="48.05" y="52">v</tspan><tspan x="59.18" y="52">endor in soci</tspan><tspan class="cls-12" x="186.49" y="52">e</tspan><tspan x="198.41" y="52">ties.</tspan></text><text class="cls-17" transform="translate(761.97 514.83)">April</text><text class="cls-17" transform="translate(1357.14 514.83)">June</text><text class="cls-18" transform="translate(169.26 618.45)">2016</text><text class="cls-19" transform="translate(172.54 621.74)">2016</text><text class="cls-18" transform="translate(758.69 618.45)">2017</text><text class="cls-19" transform="translate(761.97 621.74)">2017</text><line class="cls-20" x1="469.64" y1="583.45" x2="740.56" y2="583.45"/><text class="cls-6" transform="translate(1369.06 666.13)"><tspan class="cls-21">R</tspan><tspan x="13.16" y="0">eached 500 </tspan><tspan class="cls-22" x="132.32" y="0">f</tspan><tspan x="139.52" y="0">armer base</tspan></text><text class="cls-18" transform="translate(1353.86 618.45)">2017</text><text class="cls-19" transform="translate(1357.14 621.74)">2017</text><line class="cls-20" x1="1061.94" y1="583.45" x2="1332.85" y2="583.45"/><line class="cls-20" x1="824.54" y1="881.56" x2="1095.46" y2="881.56"/><text class="cls-17" transform="translate(1128.41 812.94)">Oc<tspan class="cls-13" x="39.41" y="0">t</tspan><tspan x="51.54" y="0">ober</tspan></text><text class="cls-6" transform="translate(1127.95 964.23)"><tspan class="cls-23">W</tspan><tspan x="20.89" y="0">e </tspan><tspan class="cls-24" x="38.4" y="0">r</tspan><tspan x="46.66" y="0">eached 4 </tspan><tspan class="cls-24" x="141.49" y="0">s</tspan><tspan class="cls-13" x="150.8" y="0">t</tspan><tspan class="cls-16" x="158.88" y="0">a</tspan><tspan class="cls-25" x="170.51" y="0">t</tspan><tspan x="178.54" y="0">es &amp; 2000 </tspan><tspan class="cls-26" x="72.32" y="26">F</tspan><tspan x="82.68" y="26">arme</tspan><tspan class="cls-25" x="134.67" y="26">r</tspan><tspan x="142.9" y="26">s base</tspan></text><text class="cls-18" transform="translate(1125.13 916.56)">2017</text><text class="cls-19" transform="translate(1128.41 919.84)">2017</text><text class="cls-17" transform="translate(515.9 812.94)">Janua<tspan class="cls-27" x="86.1" y="0">r</tspan><tspan x="99.05" y="0">y</tspan></text><text class="cls-6" transform="translate(513.41 964.23)"><tspan class="cls-23">W</tspan><tspan x="20.89" y="0">e S</tspan><tspan class="cls-13" x="49.75" y="0">t</tspan><tspan x="57.83" y="0">ar</tspan><tspan class="cls-25" x="78.21" y="0">t</tspan><tspan x="86.24" y="0">ed </tspan><tspan class="cls-14" x="116.63" y="0">c</tspan><tspan x="126.55" y="0">onnecting FPOs </tspan><tspan x="-6.34" y="26">&amp; </tspan><tspan class="cls-21" x="16" y="26">R</tspan><tspan x="29.16" y="26">eached 15 Fpos with 5000 </tspan><tspan class="cls-26" x="78.99" y="52">F</tspan><tspan x="89.35" y="52">armer base</tspan></text><text class="cls-18" transform="translate(512.62 916.56)">2018</text><text class="cls-19" transform="translate(515.9 919.84)">2018</text><line class="cls-20" x1="627.18" y1="1179.94" x2="898.09" y2="1179.94"/><text class="cls-17" transform="translate(321.79 1111.32)">N<tspan class="cls-28" x="23.71" y="0">o</tspan><tspan class="cls-16" x="42.96" y="0">v</tspan><tspan x="59.66" y="0">ember</tspan></text><text class="cls-17" transform="translate(1533.8 1111.32)">N<tspan class="cls-28" x="23.71" y="0">o</tspan><tspan class="cls-16" x="42.96" y="0">v</tspan><tspan x="59.66" y="0">ember</tspan></text><text class="cls-6" transform="translate(324.17 1262.61)"><tspan class="cls-23">W</tspan><tspan x="20.89" y="0">e </tspan><tspan class="cls-24" x="38.4" y="0">r</tspan><tspan x="46.66" y="0">eached 35 FPOs with a </tspan><tspan x="14.95" y="26">10000 </tspan><tspan class="cls-26" x="81.2" y="26">F</tspan><tspan x="91.56" y="26">armer base &amp; 35 </tspan><tspan class="cls-22" x="59.09" y="52">P</tspan><tspan x="71.48" y="52">o</tspan><tspan class="cls-25" x="84.38" y="52">t</tspan><tspan x="92.41" y="52">e</tspan><tspan class="cls-16" x="104.49" y="52">n</tspan><tspan x="117.15" y="52">tial bu</tspan><tspan class="cls-24" x="180.12" y="52">y</tspan><tspan x="191.22" y="52">er</tspan></text><text class="cls-18" transform="translate(318.51 1214.94)">2019</text><text class="cls-19" transform="translate(321.79 1218.22)">2019</text><line class="cls-20" x1="1233.18" y1="1179.94" x2="1504.1" y2="1179.94"/><text class="cls-17" transform="translate(927.79 1111.32)">April</text><text class="cls-6" transform="translate(944.78 1262.61)">7 S<tspan class="cls-13" x="28.93" y="0">t</tspan><tspan class="cls-16" x="37.02" y="0">a</tspan><tspan class="cls-25" x="48.64" y="0">t</tspan><tspan x="56.67" y="0">es, 60 FPOs, 20000 </tspan><tspan class="cls-22" x="82.36" y="26">f</tspan><tspan x="89.57" y="26">arme</tspan><tspan class="cls-25" x="141.55" y="26">r</tspan><tspan x="149.79" y="26">s</tspan></text><text class="cls-18" transform="translate(924.51 1214.94)">2020</text><text class="cls-19" transform="translate(927.79 1218.22)">2020</text><text class="cls-6" transform="translate(1544.7 1262.61)">10 S<tspan class="cls-13" x="41.1" y="0">t</tspan><tspan class="cls-16" x="49.18" y="0">a</tspan><tspan class="cls-25" x="60.81" y="0">t</tspan><tspan x="68.84" y="0">es, 70 FPOs, 30000 </tspan><tspan class="cls-22" x="85.24" y="26">f</tspan><tspan x="92.44" y="26">arme</tspan><tspan class="cls-25" x="144.43" y="26">r</tspan><tspan x="152.67" y="26">s.</tspan></text><text class="cls-18" transform="translate(1530.52 1214.94)">2020</text><text class="cls-19" transform="translate(1533.8 1218.22)">2020</text><path class="cls-20" d="M272.61,1179.94H246.76A149.2,149.2,0,0,1,97.57,1030.75h0A149.19,149.19,0,0,1,246.76,881.56H483.49"/><path class="cls-20" d="M1647.39,583.45h25.85a149.2,149.2,0,0,1,149.19,149.19h0a149.19,149.19,0,0,1-149.19,149.19H1436.51"/></svg>