<svg id="Layer_1" data-name="Layer 1" xmlns="http://www.w3.org/2000/svg" viewBox="0 0 2429.92 1739.6"><defs><style>.cls-1{fill:#0c6a38;}.cls-2{fill:#070909;}.cls-18,.cls-3{fill:#f89521;}.cls-4{fill:#fff;}.cls-5{fill:#8dc641;}.cls-6{font-size:24px;}.cls-17,.cls-6{fill:#231f20;}.cls-17,.cls-18,.cls-19,.cls-6{font-family:Calibri-Bold, Calibri;font-weight:700;}.cls-7{letter-spacing:-0.01em;}.cls-8{letter-spacing:-0.02em;}.cls-9{letter-spacing:-0.02em;}.cls-10{letter-spacing:-0.05em;}.cls-11{letter-spacing:-0.01em;}.cls-12{letter-spacing:-0.01em;}.cls-13{letter-spacing:-0.01em;}.cls-14{letter-spacing:0em;}.cls-15{letter-spacing:-0.02em;}.cls-16{letter-spacing:-0.01em;}.cls-17{font-size:36px;}.cls-18,.cls-19{font-size:135.98px;}.cls-19,.cls-20{fill:none;stroke-miterlimit:10;}.cls-19{stroke:#f89521;}.cls-20{stroke:#231f20;stroke-width:4px;}.cls-21{letter-spacing:-0.01em;}.cls-22{letter-spacing:-0.02em;}.cls-23{letter-spacing:-0.04em;}.cls-24{letter-spacing:-0.01em;}.cls-25{letter-spacing:-0.01em;}.cls-26{letter-spacing:-0.03em;}.cls-27{letter-spacing:0em;}.cls-28{letter-spacing:0em;}</style></defs><path class="cls-1" d="M1124.61,286.78c-11.35,1.57-22.79,8.77-24,24.46,0,.41.16,1-.26,1.21-.57.33-.87-.28-1.23-.55a125.7,125.7,0,0,0-17.4-11.38c-6.07-3.14-12.42-5.43-19.38-4.78-13.42,1.25-24.52,7.29-33.72,17a23.39,23.39,0,0,0-5.18,8.16c3.56-1.65,6.93-2.49,10.53-1.82a36.76,36.76,0,0,1,15,6.9c7.49,5.51,14.8,11.26,22.19,16.89,3.65,2.78,7.31,5.55,11.59,7.33,3,1.24,6.06,2.27,9.37,1.63,5.23-1,10.52-6.56,7.6-14.52S1091.65,323,1085,317.66c-4.07-3.26-8.68-5.67-13.06-8.44-.18-.07-.51,0-.42-.32,0-.06.42,0,.65,0a45.79,45.79,0,0,1,12.87,5.64c11,6.82,18,16.82,23,28.45,4.93,11.45,7,23.56,8,35.91,1.26,14.93.61,29.72-3.13,44.28-3.87,15.06-10.19,28.75-21.61,39.77-11.85,11.44-27.22,14.46-41.54,7.79-5.65-2.63-10.22-6.72-14.71-10.93-.58-.54-1-1.45-2.15-1.27a60.38,60.38,0,0,0,11.09,12c7.42,6.13,15.75,10.09,25.52,10.27,11.87.2,21.6-4.89,29.9-12.89,8.58-8.28,14.37-18.44,18.64-29.46,6.16-15.94,8.27-32.56,8-49.56a136,136,0,0,0-4.94-33.92c-2.62-9.58-6.82-18.55-10.57-27.7-1.83-4.45-4.06-8.81-4.51-13.69-.55-6,.73-11.45,5.55-15.59.18-.13.49-.4.52-.37.35.33.06.6-.16.86l-.76,1.69c-2.58,5.7-3,11.44-.2,17.19,1.77,3.59,4.92,4.49,8.35,2.43a17.69,17.69,0,0,0,6-6q3-4.83,5.85-9.71c3.1-5.24,6.39-10.33,10.86-14.54.28-.26.81-.4.62-1.08C1136.8,286.93,1130.8,285.92,1124.61,286.78Z"/><path class="cls-1" d="M1013.49,427.07c-3.59-1.92-7.58-2.2-11.48-2.81-7-1.08-14.06-1.51-21-3a22.3,22.3,0,0,1-7.2-2.64c12.67.9,24.87,1.56,37.18,3.61a28.2,28.2,0,0,0-27.73-15.32c-10.79.86-20.69,5.08-31.25,7.5,2.44,3.56,4.64,7,7.2,10.18a22.36,22.36,0,0,0,18.1,8.69c6.62.06,13-1.56,19.58-2.15a58,58,0,0,1,10.2-.44,21,21,0,0,1,14.15,7C1020.05,433.07,1017.75,429.35,1013.49,427.07Z"/><path class="cls-1" d="M1199.42,476.6l-.94.1c-1.74.74-3.47,0-5.18-.14-2.76-.19-5.72.8-8.28-1-.36-.25-.57-.05-.78.17s-.56.5-.23.76c3.24,2.6-.34,1.42-1,1.8a4.15,4.15,0,0,1-2.16.17c-.33,0-.77-.17-.77.45,0,.46,0,.85.64.87.91,0,2.07-.23,2.69.23,2.35,1.7,5,.69,7.47,1,3.51.48,7-.4,10.49-1.11,1-.22,2.43.24,2.44-1.61,0-.36.6-.42,1.08-.31a6.41,6.41,0,0,0,1.52,0l0-.52A49.87,49.87,0,0,0,1199.42,476.6Z"/><path class="cls-2" d="M1443.57,501.58c-.86-.32-.37-1.16-.3-1.79s.21-1.34.27-2c.24-2.46,1-4.86.91-7.36,0-.92-.18-1.77-1.11-2.14a2.19,2.19,0,0,0-2.38.63,10.07,10.07,0,0,0-1.91,2.49l-1.31,2.3c0-1.28,0-2.31,0-3.34a2,2,0,0,0-1.18-2.11,2.1,2.1,0,0,0-2.17.7,15.64,15.64,0,0,0-3.16,4.76l-.4.84a1,1,0,0,1,.05-1.18c.08-1.23.2-2.46.21-3.7a1.4,1.4,0,0,0-1.67-1.52c-1.57.07-3.72,2.35-3.8,4.08.56-.64,1.07-1.25,1.62-1.83.38-.39.82-.9,1.43-.54s.3.87.22,1.36c-.55,3.54-1,7.09-1.67,10.61-.24,1.32.2,1.27,1.22,1.16s1-.74,1.07-1.41a19.41,19.41,0,0,1,3.73-9.53c.49-.73,1-2,1.92-1.65s.37,1.7.25,2.56c-.39,2.81-1,5.6-1.35,8.41-.07.54-.62,1.53.39,1.67a1.4,1.4,0,0,0,1.81-1.48c.11-3.37,1.58-6.31,3.28-9.13.56-.92,1.21-2.48,2.26-2.06s.34,2,.21,3c-.32,2.51-.77,5-1,7.52-.12,1.06,0,2.2,1.51,2.28s3.94-2.23,4-4c-.44.52-.82,1-1.24,1.46S1444.28,501.85,1443.57,501.58Z"/><path class="cls-2" d="M1374.1,488.26a6,6,0,0,0-5.24,2.19,13.28,13.28,0,0,0-3.41,7.46c-.2,1.68.46,3.25.59,4.8.11,1.26-2.2,2.24-2.84,3.87-1.09,2.76.31,5,3.24,5.19a5.63,5.63,0,0,0,4.39-1.61,10.6,10.6,0,0,0,3.21-5.93c.85-4.55,1.21-9.17,2.2-13.7C1376.72,488.29,1376.65,488.28,1374.1,488.26Zm-2.66,19.25a4.3,4.3,0,0,1-2,2.79,3.15,3.15,0,0,1-4.53-3.24,5,5,0,0,1,2.57-3.89,10.15,10.15,0,0,0,4.84-5.39c.1-.21.21-.43.33-.63,0,0,.12,0,.32,0C1372.58,500.61,1372.48,504.13,1371.44,507.51Zm2.27-15.31a18.06,18.06,0,0,1-3.79,7.68c-.43.54-1,1.33-1.82.9s-.58-1.29-.62-1.95a21.6,21.6,0,0,1,1.74-7.19,3.17,3.17,0,0,1,1.57-1.76,3,3,0,0,1,2.84.31C1374.52,490.78,1373.83,491.55,1373.71,492.2Z"/><path class="cls-2" d="M1401.31,483.67c.13-.71-.53-.53-.91-.53-1.92,0-3.85-.13-5.76,0-5.22.45-8,3.23-7.78,7.75a2.48,2.48,0,0,0,2.1-2.58,4.1,4.1,0,0,1,3.22-3.82c.48-.07,1-.27.91.61-.35,2.33-.72,4.65-1,7-.12,1-1.26.33-1.49,1.11-.35,1.21,1.26.18,1.16,1.06,0,.12-.06.24-.08.36a56.12,56.12,0,0,1-1.76,9.46c-1.12,3.47-3.1,3.89-5.65,1.15-.33.73-1.45,1.17-1.12,1.95a2.64,2.64,0,0,0,2.68,1.32,6.1,6.1,0,0,0,4.86-3,19.05,19.05,0,0,0,3-9.6c.15-1.87.88-2.38,2.54-2,1,.21,1.81.26,2-1.16h-4.06c.33-2.14.64-4.14,1-6.14.39-2.5.38-2.43,2.85-2.09,1.54.22,2,1.15,1.82,3A6.82,6.82,0,0,0,1401.31,483.67Z"/><path class="cls-2" d="M1292.23,501.55c-.49-.28-.31-.86-.24-1.36.42-2.93.86-5.86,1.2-8.8.14-1.15.29-2.52-1-3.09s-2.36.39-3.16,1.36c-.67.8-1.16,1.75-1.77,2.6-.36.5-.36,1.27-1.21,1.65.17-1.26.37-2.35.45-3.45.12-1.75-.83-2.71-2.28-2.18a5.33,5.33,0,0,0-3.46,3.88,16,16,0,0,0,1.69-1.7c.43-.44.92-1,1.58-.59s.25,1,.16,1.55c-.55,3.47-1.14,6.94-1.65,10.42-.06.39-.58,1.21.42,1.28.66,0,1.43.08,1.67-.8a5.77,5.77,0,0,0,.11-.92,21.9,21.9,0,0,1,3.72-9.36c.52-.81,1.17-2.09,2.13-1.68s.4,1.74.27,2.69c-.36,2.63-.79,5.26-1,7.9-.17,1.75.72,2.66,2.07,2.17a5,5,0,0,0,3.39-4c-.53.6-1,1.22-1.59,1.79C1293.26,501.32,1292.84,501.9,1292.23,501.55Z"/><path class="cls-2" d="M1362.92,500.81c-.42.41-.83,1.13-1.53.74s-.3-1.1-.22-1.69c.41-2.88.87-5.75,1.23-8.63.13-1.1.15-2.36-1.05-2.92s-2.15.23-2.94,1a17.29,17.29,0,0,0-2.78,4.36l-.4.84a1,1,0,0,1,.06-1.18c.08-1.17.23-2.34.24-3.51a1.49,1.49,0,0,0-1.7-1.72c-1.58.08-3.72,2.36-3.81,4.09.56-.64,1.07-1.25,1.63-1.83.38-.39.82-.9,1.42-.54s.3.87.22,1.36c-.55,3.6-1,7.22-1.66,10.81-.22,1.25.33,1.17,1.15,1.07,1-.12,1.06-1,1.12-1.66.28-3.43,1.83-6.37,3.56-9.22a7.45,7.45,0,0,1,1.45-1.67c.79-.7,1.23-.3,1.31.6a6.29,6.29,0,0,1-.14,1.29c-.41,2.75-.86,5.5-1.22,8.26-.22,1.67.57,2.63,1.88,2.49,1.51-.17,3.42-2.24,3.55-3.95C1363.8,499.82,1363.39,500.35,1362.92,500.81Z"/><path class="cls-2" d="M1307,501.5c-.81-.38-.21-1.76-.08-2.71.36-2.69.73-5.39,1-8.1.09-.88.08-1.95-1-2.4a2.42,2.42,0,0,0-2.68.8,7.67,7.67,0,0,0-1.19,1.42c-.75,1.19-1.44,2.41-2.31,3.89.14-1.69.27-3.07.35-4.46a1.47,1.47,0,0,0-1.43-1.79c-1.61-.15-4,2.22-4,4,.32-.38.56-.74.86-1,.61-.56,1.1-1.75,2-1.28s.32,1.58.21,2.37c-.45,3.25-1,6.47-1.52,9.71-.06.4-.6,1.06.26,1.15.6.07,1.42.26,1.72-.64a5.05,5.05,0,0,0,.31-1.26c.24-3.38,1.85-6.23,3.52-9a7.48,7.48,0,0,1,1.31-1.55c.24-.22.57-.55,1-.34a1,1,0,0,1,.41,1c-.08,1-.23,2-.36,2.94-.32,2.33-.73,4.65-.92,7-.13,1.58.82,2.42,2.12,2a4.77,4.77,0,0,0,3.23-3.85c-.16.19-.3.39-.47.56C1308.6,500.53,1308,502,1307,501.5Z"/><path class="cls-2" d="M1410.55,501.57c-1-.42-.4-1.66-.29-2.48.44-3.24,1-6.46,1.56-9.68.08-.47.39-1.07-.43-1.1-2-.07-4.13-.42-5.88,1a13.15,13.15,0,0,0-4.87,11.26,2.43,2.43,0,0,0,1.52,2.54c1.24.38,2.13-.33,2.93-1.15a25.66,25.66,0,0,0,3.07-4.63c.08,1.43-.39,2.81-.26,4.25.11,1.13.64,1.69,1.8,1.6,1.56-.13,3.58-2.31,3.69-4.07-.33.39-.59.73-.87,1C1411.94,500.78,1411.38,501.92,1410.55,501.57Zm-1.43-9.55c-.37,3-2.07,5.37-3.75,7.74-.45.64-1,1.54-1.86,1.24s-.72-1.45-.78-2.32a23.47,23.47,0,0,1,1.66-6.77,3.82,3.82,0,0,1,1.3-1.77,3,3,0,0,1,3.16,0C1409.94,490.59,1409.2,491.38,1409.12,492Z"/><path class="cls-2" d="M1268.61,483.25c-3.24-1-6.28-.85-8.76,1.72-3.73,3.85-4.82,8.52-3.92,13.71a5.19,5.19,0,0,0,3.63,4.51c2.58.78,4.85-.27,7.07-1.37.23-.12.24-.66.48-1.4-1.09.46-1.8.82-2.54,1.07-3.31,1.11-5.78-.14-6.3-3.35a17,17,0,0,1,2.75-12.35,4,4,0,0,1,3-2,4.4,4.4,0,0,1,3,.6c1,.71.74,1.94,1.11,3.13,1-1.08.78-2.29,1.19-3.27C1269.61,483.61,1269.12,483.41,1268.61,483.25Z"/><path class="cls-2" d="M1277.67,488.37a3.67,3.67,0,0,0-4.1,1c-3,2.84-4.6,6.3-3.87,10.46.64,3.68,3.57,4.6,6.36,2.06a11.49,11.49,0,0,0,3.78-8.55c0-.37,0-.74,0-1.11C1279.76,490.55,1279.2,489.05,1277.67,488.37ZM1276,500.25c-.48,1-1.17,2.1-2.52,1.74s-1.45-1.54-1.51-2.68c0-.62,0-1.24,0-1.85a12.09,12.09,0,0,1,1.64-6.73c.48-.81,1.07-1.57,2.2-1.36s1.25,1,1.44,1.91A13.45,13.45,0,0,1,1276,500.25Z"/><path class="cls-2" d="M1318.71,488.41c-1.31-.77-2.67-.08-3.71.9a11.85,11.85,0,0,0-4,10.13c.22,2.34,1.38,3.68,3.1,3.76,2.07.09,5.14-1.92,5.6-3.86-1.33,1-2.48,2.12-4,2.32-1.72.22-2.23-.89-2.43-2.34-.15-1.1-.54-2,1.29-2.24a6.05,6.05,0,0,0,5.22-4.86C1320.15,490.71,1320.08,489.22,1318.71,488.41Zm-4.16,7.62c-.91.25-1.43.14-1.21-1a10.51,10.51,0,0,1,1.84-4.37c.46-.61,1-1.15,1.86-.89s.73,1.16.77,1.79A4.44,4.44,0,0,1,1314.55,496Z"/><path class="cls-2" d="M1455.12,488.35a3,3,0,0,0-3.27.67,11.86,11.86,0,0,0-4.34,10.68c.24,2.22,1.51,3.44,3.17,3.5,2.1.07,5.12-1.93,5.59-3.82-1.36.87-2.44,2-4,2.29-1.76.29-2.32-.89-2.56-2.25-.18-1.07-.5-2.12,1.42-2.34a6.21,6.21,0,0,0,5.23-5.67C1456.42,490.18,1456.33,489,1455.12,488.35Zm-1.48,5.76c-.73,1.1-3.33,2.58-3.67,2-.67-1.07.18-2.18.48-3.23a8.5,8.5,0,0,1,1.1-2.11c.45-.71,1.07-1.3,2-1s.65,1.2.83,1.84A6.23,6.23,0,0,1,1453.64,494.11Z"/><path class="cls-2" d="M1338.75,485.55c.06-.42.76-1.21-.2-1.3a1.46,1.46,0,0,0-1.77,1,5.74,5.74,0,0,0-.29,1.26c0,1.17-.22,2.06-1.74,1.95-.46,0-.74.49-.72,1,1.83.18,1.83.18,1.66,1.88-.06.55-.17,1.1-.23,1.65-.26,2.71-1,5.36-.91,8.11,0,1.06.27,2,1.59,2.1a4,4,0,0,0,3.86-3.44c-.37.3-.69.58-1,.85-.54.42-1.11,1-1.81.68s-.42-1.22-.35-1.82c.33-2.77.83-5.51,1.08-8.27.12-1.43.68-1.9,2-1.59,1,.24,1.83.2,2.07-1.19-.33,0-.62-.06-.91-.07C1338.34,488.28,1338.36,488.29,1338.75,485.55Z"/><path class="cls-2" d="M1425.62,488.35a2,2,0,0,0-2,.06,6.15,6.15,0,0,0-2.15,2c-.8,1.21-1.53,2.47-2.33,3.77a5.29,5.29,0,0,1,.16-2.08,10.3,10.3,0,0,0,.1-2.22c-.1-1.22-.66-2-2.06-1.67a5.63,5.63,0,0,0-3.49,4.16c.43-.55.78-1,1.2-1.49s.94-1.44,1.75-1.08.44,1.34.35,2c-.46,3.36-1,6.71-1.54,10.07-.06.41-.59,1.08.19,1.19s1.57.39,1.86-.67a10.06,10.06,0,0,0,.29-1.64c.32-3.45,2-6.32,3.94-9,.46-.63,1.1-1.45,2-1.05,1.34.62,1.21-.59,1.6-1.11C1425.74,489.24,1426.27,488.72,1425.62,488.35Z"/><path class="cls-2" d="M1469.66,488.39a2.25,2.25,0,0,0-2.44.26,9.4,9.4,0,0,0-2.54,2.93c-.51.84-1,1.71-1.63,2.84,0-1.78.56-3.15.35-4.59s-1.12-2.09-2.33-1.51a5.06,5.06,0,0,0-3.13,4,19.34,19.34,0,0,1,1.27-1.57c.45-.46.88-1.26,1.66-.87s.36,1.14.29,1.7c-.5,3.48-1.06,7-1.59,10.44-.06.41-.6,1.07.29,1.13.6,0,1.44.33,1.75-.59a6.05,6.05,0,0,0,.31-1.45c.23-3.53,1.9-6.46,3.88-9.25.46-.66,1.17-1.51,1.92-1.16,1.59.73,1.31-.8,1.84-1.3C1469.83,489.11,1470,488.57,1469.66,488.39Z"/><path class="cls-2" d="M1330.89,492.38c.34-1.25,1.3-2.63.42-3.68s-2.41-.7-3.67-.22a4.18,4.18,0,0,0-1.27.75,11.77,11.77,0,0,0-4,10.82,3.26,3.26,0,0,0,2.72,3.13c1.92.3,5.12-1.62,6.16-4-1.54,1.06-2.61,2-4.06,2.26a1.79,1.79,0,0,1-2.24-1.12c-1.07-2.43,0-8.33,1.88-10.2a2.46,2.46,0,0,1,2.55-.7c1.05.28,1.11,1.18,1.09,2.09C1330.45,491.78,1330.3,492.13,1330.89,492.38Z"/><path class="cls-2" d="M1475.87,488.14a4.44,4.44,0,0,0-4,6.19c.6,1.28,1.53,2.39,2.26,3.61.6,1,1.32,2.12.24,3.2a2.36,2.36,0,0,1-3.37,0c-1.17-1-1.35.13-1.73.67-.65.94.31,1,.8,1.13a4.42,4.42,0,0,0,4.4-.58c2.16-1.57,2.59-3.76,1.21-6.21-.79-1.4-1.9-2.6-2.43-4.16a2,2,0,0,1,.48-2.23,2,2,0,0,1,2.11-.25c1,.34.71,1.43,1.12,2.23.82-.36.47-1,.65-1.37C1478.41,488.49,1477.27,488.19,1475.87,488.14Z"/><path class="cls-2" d="M1346.82,501.49c-1-.44-.27-2.09-.1-3.21.51-3.31,1-6.63,1.55-10.27-1.88,1.06-3.75,1.43-5.14,2.77,2.34-.07,2.44,0,2.21,2.36,0,.36-.16.72-.2,1.09-.24,2.4-1,4.73-.91,7.17,0,1.06.37,1.81,1.6,1.79,1.61,0,3.74-2.23,3.81-3.95a1.66,1.66,0,0,0-.3.22C1348.59,500.31,1347.92,502,1346.82,501.49Z"/><path class="cls-3" d="M1476.87,444.09a1,1,0,0,0-1.41.5c-.21.44-.33.93-.5,1.4-1.55,4.06-3.22,8.07-6.35,11.24-.64.65-1.4,1.57-2.35,1.16s-.56-1.64-.59-2.54a6.52,6.52,0,0,1,.12-.73,75.2,75.2,0,0,1,2.78-12.12c.62-2.09,0-3.5-2.17-3.87-1.75-.29-1.87-1.17-1.94-2.59-.24-4.74-3.46-7-8.06-5.73a11.1,11.1,0,0,0-4.62,2.67c-3.25,3-4.93,6.92-6.23,11a32.73,32.73,0,0,1-6,11.05,9.87,9.87,0,0,1-3.18,2.81c-1,.49-1.72.33-1.7-1a26.19,26.19,0,0,1,.21-3.32,108.86,108.86,0,0,1,4-16,2.93,2.93,0,0,0-1.3-3.67c-2.15-1.51-4.23-.87-5.15,1.62-1.87,5.06-2.83,10.39-4.72,15.44-1.27,3.37-2.45,6.77-4.63,9.69-.59.79-1.31,1.66-2.44,1.4s-1.4-1.33-1.61-2.31a31.74,31.74,0,0,1-.17-9.63,205.09,205.09,0,0,1,6-32.69,3,3,0,0,0-2.29-4c-2.24-.6-3.62,0-4.17,2.15-.82,3.17-1.55,6.38-2.26,9.58-.52,2.38-.93,4.78-1.41,7.31-4.39-4-8.3-3.61-11.85.91a20.69,20.69,0,0,0-3.85,7.79,62.75,62.75,0,0,1-4.82,12.64c-1.32,2.66-2.65,5.36-5,7.29-1.79,1.47-3.39.8-3.62-1.51a15.38,15.38,0,0,1,.13-3.52c.45-3.39,1.42-6.66,2.2-10,.94-4,2.07-8.05,1.9-12.27-.22-5.39-4.41-8.13-9.41-6.15a10.78,10.78,0,0,0-3,1.86,27,27,0,0,0-6,8,6.4,6.4,0,0,1-1.41,2.29c-.39-.4-.2-.77-.14-1.12a119.76,119.76,0,0,1,3-13.23c.74-2.66,0-4-2.37-4.67s-3.36.1-4.13,2.71a118,118,0,0,0-3.35,16c-.83,5.58-1.56,11.18-.87,16.84a6,6,0,0,0,1.14,3.1,4.14,4.14,0,0,0,4.62.89c1.38-.65.72-1.77.64-2.76-.26-3.54-.29-7.06,1.14-10.43,1-2.33,1.82-4.74,2.92-7,1.75-3.65,3.77-7.16,7.21-9.53.88-.6,1.9-1.51,3-.8s.92,2,.85,3.22a5.25,5.25,0,0,1-.09.55c-.87,4.5-1.76,9-2.61,13.5-.74,3.92-1.27,7.84-.14,11.79a6.94,6.94,0,0,0,5.61,5.08c2.62.57,4.35-.93,5.87-2.78.43-.52.8-1.1,1.2-1.65,1.55-2.15,2.55-4.62,4.06-7.41.64,2.44.92,4.35,2.07,6,2.07,2.91,5.46,3.19,7.93.64a21.4,21.4,0,0,0,3.4-4.87c.67-1.28,1.29-2.59,2-4,.48.51.3.95.34,1.35.29,3.35.64,6.68,2.3,9.7,2.26,4.1,6.43,4.47,9.28.78a27.56,27.56,0,0,0,3.19-5.65,4.18,4.18,0,0,1,1.16-1.94c.14.32.26.52.33.74,1.72,6.24,5.75,7.4,10.49,3a10.19,10.19,0,0,0,1.14-1.23c.9-1.14,1.77-2.3,2.88-3.75.07.83.1,1.3.14,1.76a14.06,14.06,0,0,0,2.21,7.2c2.3,3.18,6.15,3.41,8.65.45a20.76,20.76,0,0,0,2.12-3.05c1-1.68,1.83-3.44,2.89-5.44.2,1,.31,1.76.49,2.47,1,4,5.23,5.55,8.45,3,4.63-3.69,6.54-9.05,8.47-14.37A1,1,0,0,0,1476.87,444.09Zm-63.65-1.35a45.18,45.18,0,0,1-5.92,13.33c-.74,1.08-1.51,2.87-2.93,2.41-1.24-.4-.73-2.28-.94-3.36a51.64,51.64,0,0,1,4.85-19.65c.55-1.14,1.09-2.73,2.53-2.68,1.63.06,2.08,1.75,2.62,3C1414.38,438.16,1413.86,440.45,1413.22,442.74Zm46.13,7.27a43.55,43.55,0,0,1-4.8,10.22,8.82,8.82,0,0,1-.88,1.2c-.59.64-1.23,1.4-2.18,1.16s-1.07-1.26-1.19-2.12c-.78-5.88.79-11.42,2.52-16.92a25.91,25.91,0,0,1,3.86-7.79c1-1.34,2.18-3.05,4-2.47s1.67,2.55,1.74,4.17c0,.25,0,.5,0,.74C1462.2,442.35,1460.65,446.15,1459.35,450Z"/><path class="cls-3" d="M1357.76,412.7c-2-.43-3.31.43-3.74,2.58-2.15,10.55-2.57,21.27-3,32.77,0,1.82,0,4.42,0,7a26.63,26.63,0,0,0,.81,7.55,4.31,4.31,0,0,0,4.64,2.64c1.78-.37,1.93-1.72,1.81-3.16a202,202,0,0,1-.06-24.73,143.74,143.74,0,0,1,1.94-20.9A3,3,0,0,0,1357.76,412.7Z"/><path class="cls-3" d="M1438.37,430.8a3.34,3.34,0,0,0,3.33-3.5,3.25,3.25,0,0,0-3.38-3.22,3.17,3.17,0,0,0-3.2,3.37A3.25,3.25,0,0,0,1438.37,430.8Z"/><path class="cls-2" d="M1346.48,485.31c0-1.86,1.74-2.33,2.89-3.56.1,2.21-1.29,3-2.74,3.74A.34.34,0,0,0,1346.48,485.31Z"/><path class="cls-1" d="M1346.63,485.49h-.38l.23-.18A.34.34,0,0,1,1346.63,485.49Z"/><path class="cls-4" d="M1111.65,298c.18-.13.49-.4.52-.37.35.33.06.6-.16.86Z"/><path class="cls-4" d="M1072,309.22c-.18-.07-.51,0-.42-.32,0-.06.42,0,.65,0Z"/><path class="cls-4" d="M1098.32,409.84c-.21-.18-.29-.52-.1-.6s.23.25.27.44Z"/><path class="cls-4" d="M1092,448.55l.42,0-.17.35Z"/><path class="cls-4" d="M1072.67,418.36a3,3,0,0,1-.28-.29c.16-.22.36-.14.56,0Z"/><path class="cls-5" d="M1186.41,447.29c-2.92-5.1-6.35-9.94-8.39-15.51a181.58,181.58,0,0,1-5.74-20.75c-.25-1.06,0-1.38,1.13-1.41,12.58-.29,25.16-.66,37.74-1,8-.19,16-.23,24-.48,16.73-.54,33.45-1.19,50.18-1.75q19.88-.66,39.78-1.22c5.22-.15,5.67-2.7,5.64-6.43,0-2.68-1.43-4-4.13-4.34a105.6,105.6,0,0,0-12.45-.35c-21.15,0-42.3.29-63.45.66-9.61.16-19.23.23-28.84.38-13.27.22-26.54-.29-39.82-.35-1.36,0-1.42-.32-.83-1.43a217.84,217.84,0,0,0,18.07-46.26,109.72,109.72,0,0,0,4.08-23.53c.05-1.18.5-1.46,1.58-1.38s2.48,0,3.72,0c1.91,0,2.63-.8,2.63-2.76s-.69-2.79-2.56-2.83a22,22,0,0,0-3.35,0c-1.46.21-1.76-.5-1.88-1.74a60.79,60.79,0,0,0-1.61-8.76,6,6,0,0,0-2.24-3.74c-2.05-1.44-3.42-1.12-4.31,1.22q-2.22,5.82-4.23,11.7c-.34,1-.73,1.37-1.8,1.32-2-.1-4.1-.05-6.14,0s-2.63.83-2.63,2.79.75,2.76,2.64,2.78,3.77,0,5.59,0a65.32,65.32,0,0,1-3.92,15.1,145.33,145.33,0,0,1-35.54,55.6,3.2,3.2,0,0,1-2.35,1.21c-3.78,0-7.56.17-11.34.27-2.92.08-3.89.92-4.45,3.86a31.37,31.37,0,0,0,0,8.71,3.5,3.5,0,0,0,3.6,3.49,33,33,0,0,0,3.72,0c3-.18,5.19.68,6.37,3.73.92,2.35,2.23,4.56,3.37,6.83,1.91,3.82,3.37,7.92,6.19,11.19,11.25,13.07,22.76,25.92,35.09,38,2.63,2.58,5.25,5.31,8.91,6.55l.94-.1c1.74-1.34,1.91-2.3.86-4.49C1196.18,463.54,1191.11,455.52,1186.41,447.29Z"/><path class="cls-5" d="M1098.17,400.35a19.18,19.18,0,0,0-13.66-3.67c-.83.11-1.9.06-1,1.49a32.75,32.75,0,0,1,4.41,12.52,46.15,46.15,0,0,1,.83,8.05c-6.77-5.91-13.9-10.11-22.86-10.23a30.1,30.1,0,0,0-23.05,9.51c6.45,1.44,11.47,4.85,16,9.08,3.08,2.88,6.05,5.87,9.08,8.8,3.39,3.27,6.69,6.64,10.36,9.61,4.06,3.28,8.53,4.71,13.68,3l.42,0-.17.35a1.39,1.39,0,0,1-.17.52c-6.06,6.19-13.08,10.51-22,10.55-10.36,0-18.84-4.28-25.64-11.94-7.15-8.05-11.87-17.51-15.16-27.68-5.8-18-5.61-36.24-1.66-54.55,2.71-12.59,8.06-23.9,17-33.36,1.7-1.8,1.71-1.79-.23-3.38-.28-.24-.57-.47-.88-.69-2.17-1.56-3.69-1.48-5.61.37a31.1,31.1,0,0,0-2.52,2.74c-11.16,13.9-15.94,30.19-17.61,47.58a119.75,119.75,0,0,0,1.47,31.68c2.68,15.77,8.43,30.14,19.32,42.15,9.88,10.91,21.87,15.2,36.37,11.55,9.2-2.31,16-7.63,20.16-16.2,1-2,1.56-4.2,0-6.16-4-5.08-7.65-10.39-12.16-15-3.12-3.22-6.88-5.66-10.2-8.65a3,3,0,0,1-.28-.29c.16-.22.36-.14.56,0,10.62,2.36,18.68,8.37,24.71,17.65a31.56,31.56,0,0,0,2.29-9.82c.44-5.44-.57-10.73-1.63-16-.21-.18-.29-.52-.1-.6s.23.25.27.44c2.1,2.68,3.13,5.85,4.08,9.05,1.12,3.81,1.42,7.76,1.86,12.06.49-.78.81-1.22,1.06-1.7C1110.56,419.36,1107.34,406.7,1098.17,400.35Z"/><path class="cls-5" d="M1336.86,444a1.1,1.1,0,0,0-1.45.81,12,12,0,0,1-1.74,3.48,7.38,7.38,0,0,1-4.88,3.11c-1.19.19-1.94.11-1.3-1.46a25.07,25.07,0,0,0,1.64-8c.2-3.31.2-6.61-1.65-9.55-2.1-3.32-6.18-3.29-8.18.08-.55.93-.83,1.49-2.13.9a3.87,3.87,0,0,0-4,.81,15.57,15.57,0,0,0-5.4,8.68,62.21,62.21,0,0,1-6.35,14.81,11.64,11.64,0,0,1-3.57,4.22c-1.33.85-2.43.48-2.91-1a6.25,6.25,0,0,1-.22-1.83c0-4.33,1.46-8.4,2.39-12.56.87-3.87,2-7.7,1.9-11.71-.14-6.45-5.48-9.3-11-5.91a18.15,18.15,0,0,0-4.8,4.61c-1.63,2.12-2.67,4.59-4.12,6.81l-.22-.2a109.53,109.53,0,0,1,3.11-14.33c.68-2.53,0-3.87-2.36-4.55s-3.49.05-4.23,2.54a142.84,142.84,0,0,0-3.83,19.12,26.71,26.71,0,0,1-7.21,14.59c-.52.54-1.19,1.34-2.06.85s-.5-1.31-.45-2.05a63,63,0,0,1,2.73-12.88c.75-2.6.07-3.92-2.55-4.48-1-.2-1.37-.46-1.31-1.49a10.31,10.31,0,0,0-.31-2.39,5,5,0,0,0-4.94-4.46c-3.46-.33-6.13,1.22-8.39,3.6a24.16,24.16,0,0,0-5.31,9.7,34.72,34.72,0,0,1-7.11,12.94A6.69,6.69,0,0,1,1232,459c.19-2.48.3-4.76.56-7,.42-3.68.38-7.44,1.69-11,.92-2.49-.35-4.26-3-3.9-1.5.2-1.59-.39-1.71-1.53-.33-3.32-2.19-5-5.49-5.11a9.94,9.94,0,0,0-7.72,3c-4.77,4.78-6.67,10.75-6.87,17.36a12.17,12.17,0,0,0,2.09,7.94c2.43,3.28,6.29,3.53,9.09.59a22.36,22.36,0,0,0,3.51-5c.5-.93,1-1.85,1.73-3.19,0,4-.3,7.46-.57,10.91a2.55,2.55,0,0,1-1.7,2.34c-3.68,1.79-7.43,3.45-10.64,6.07-2,1.67-3.82,3.53-4.47,6.22-1.3,5.33,3,9.58,8.29,8.31a12.11,12.11,0,0,0,5.17-2.81,25.22,25.22,0,0,0,8.28-14.42c.71-3.41,1.9-6.19,4.87-8.26a17.73,17.73,0,0,0,4-4.65c.26-.36.37-.93,1-1a4.83,4.83,0,0,1,.24,2.16,12,12,0,0,0,2.28,6.4,5.21,5.21,0,0,0,8.43.39,27.57,27.57,0,0,0,4-6.45c.31-.63.42-1.4,1.19-1.91,0,.49.07.85.13,1.2.36,2.19,1.2,4.09,3.47,4.88a5.6,5.6,0,0,0,6-1.45,16.86,16.86,0,0,0,2.12-2.35c1-1.31,1.82-2.7,2.82-4.21.17,1.81.23,3.41.49,5,.47,2.78,2.46,4,5.14,3.39,1-.25,1.59-.78,1.41-2-1.42-9.56,2.78-17.36,7.84-24.87a10.64,10.64,0,0,1,4.51-3.79c1.5-.66,2.23-.26,2.47,1.34a13.16,13.16,0,0,1-.32,4.24c-1,5.36-2.4,10.64-3,16.08a17,17,0,0,0,.82,8.06,6.25,6.25,0,0,0,10.62,2.25A24.67,24.67,0,0,0,1305,456c.74-1.46,1.42-3,2.24-4.69.24,1,.37,1.65.57,2.3a15.29,15.29,0,0,0,.75,2.09c2.68,5.91,9.48,7.18,14.12,2.66a11.64,11.64,0,0,0,2.59-3.38,2.09,2.09,0,0,1,2.43-1.36c4.53.3,8.61-3.27,9.94-8.21C1337.79,444.68,1337.6,444.15,1336.86,444Zm-115.73,35.11a8.51,8.51,0,0,1-4.29,3.65A4.6,4.6,0,0,1,1212,482a4.4,4.4,0,0,1-1.28-4.58,6.79,6.79,0,0,1,1.82-3.39c3.38-3.49,7.78-5.31,12.29-7.62C1224,471,1223.43,475.27,1221.13,479.07Zm5.67-36.67a55.9,55.9,0,0,1-6.17,13.64c-1,1.42-2,3.54-3.82,3s-1.17-2.85-1.39-4.46a37,37,0,0,1,5.6-18,8.75,8.75,0,0,1,2.48-2.73c1.89-1.21,3.2-.72,3.7,1.45A13.16,13.16,0,0,1,1226.8,442.4Zm31.64-2.62c-1.68,6.86-3.73,13.6-7.4,19.71-.82,1.38-1.66,3.52-3.54,2.92-1.55-.48-1.13-2.64-1.25-4.15,0-.3,0-.62,0-.92.54-7.23,2.08-14.18,5.85-20.48a8,8,0,0,1,3.32-3.4,1.56,1.56,0,0,1,2.4.87A8.54,8.54,0,0,1,1258.44,439.78Zm65.1,13.58c-1.13,1.94-2.36,3.78-4.47,4.8a3.4,3.4,0,0,1-4.8-1.29c-2.34-4-.44-14.1,3.32-17.09.2,1.44.31,2.84.62,4.19.73,3.2,2,6.09,4.81,8.08C1323.48,452.38,1324,452.62,1323.54,453.36Zm3.37-12.91a31,31,0,0,1-1.58,8.9c-.38,1.15-.78,1.07-1.48.41a7.65,7.65,0,0,1-1.25-1.36,15.31,15.31,0,0,1-1.74-14c.35-1.06.9-2.08,2.27-2.15a2.93,2.93,0,0,1,2.84,2A13.09,13.09,0,0,1,1326.91,440.45Z"/><path class="cls-4" d="M1431.23,493.71l-.4.84a1,1,0,0,1,.05-1.18Z"/><path class="cls-4" d="M1355.63,493.71l-.4.84a1,1,0,0,1,.06-1.18Z"/><path class="cls-3" d="M1215,80.29a311.18,311.18,0,1,1-119.28,23.58A311.91,311.91,0,0,1,1215,80.29Zm0,0a311,311,0,1,0,119.2,23.78A311.81,311.81,0,0,0,1215,80.29Z"/><path class="cls-3" d="M1215,718a311.23,311.23,0,1,1,119.28-23.58A311.91,311.91,0,0,1,1215,718Zm0,0a311.05,311.05,0,1,0-119.19-23.78A311.86,311.86,0,0,0,1215,718Z"/><path class="cls-3" d="M1533.8,399.12a311.23,311.23,0,1,1-23.58-119.27A312.06,312.06,0,0,1,1533.8,399.12Zm0,0A311.05,311.05,0,1,0,1510,518.32,311.85,311.85,0,0,0,1533.8,399.12Z"/><path class="cls-3" d="M896.12,399.12A311.34,311.34,0,1,1,919.71,518.4,311.87,311.87,0,0,1,896.12,399.12Zm0,0a311.12,311.12,0,1,0,23.79-119.19A311.87,311.87,0,0,0,896.12,399.12Z"/><text class="cls-6" transform="translate(143.55 1001.28)">O<tspan class="cls-7" x="16.23" y="0">r</tspan><tspan class="cls-8" x="24.48" y="0">g</tspan><tspan x="35.45" y="0">ano India </tspan><tspan class="cls-9" x="133.83" y="0">f</tspan><tspan x="141.06" y="0">ounded</tspan></text><text class="cls-6" transform="translate(697.47 980.06)">Supply of O<tspan class="cls-7" x="114.82" y="0">r</tspan><tspan class="cls-8" x="123.07" y="0">g</tspan><tspan x="134.04" y="0">anic </tspan><tspan class="cls-10" x="180.13" y="0">V</tspan><tspan x="193.09" y="0">e</tspan><tspan class="cls-11" x="205.17" y="0">g</tspan><tspan class="cls-12" x="216.29" y="0">e</tspan><tspan class="cls-13" x="228.21" y="0">t</tspan><tspan x="236.3" y="0">ables </tspan><tspan x="14.3" y="26">in </tspan><tspan class="cls-14" x="38.5" y="26">c</tspan><tspan x="48.42" y="26">ollabo</tspan><tspan class="cls-15" x="110.74" y="26">r</tspan><tspan class="cls-16" x="118.75" y="26">a</tspan><tspan x="130.37" y="26">tion with </tspan><tspan class="cls-10" x="226.03" y="26">V</tspan><tspan x="238.99" y="26">e</tspan><tspan class="cls-11" x="251.07" y="26">g</tspan><tspan x="262.2" y="26">e </tspan><tspan class="cls-16" x="48.05" y="52">v</tspan><tspan x="59.18" y="52">endor in soci</tspan><tspan class="cls-12" x="186.49" y="52">e</tspan><tspan x="198.41" y="52">ties.</tspan></text><text class="cls-17" transform="translate(703.91 828.77)">April</text><text class="cls-17" transform="translate(1299.08 828.77)">June</text><text class="cls-18" transform="translate(111.21 932.39)">2016</text><text class="cls-19" transform="translate(114.49 935.67)">2016</text><text class="cls-18" transform="translate(700.63 932.39)">2017</text><text class="cls-19" transform="translate(703.91 935.67)">2017</text><line class="cls-20" x1="411.59" y1="897.39" x2="682.5" y2="897.39"/><text class="cls-6" transform="translate(1311 980.06)"><tspan class="cls-21">R</tspan><tspan x="13.16" y="0">eached 500 </tspan><tspan class="cls-22" x="132.32" y="0">f</tspan><tspan x="139.52" y="0">armer base</tspan></text><text class="cls-18" transform="translate(1295.8 932.39)">2017</text><text class="cls-19" transform="translate(1299.08 935.67)">2017</text><line class="cls-20" x1="1003.88" y1="897.39" x2="1274.8" y2="897.39"/><line class="cls-20" x1="1587.71" y1="897.39" x2="1858.63" y2="897.39"/><text class="cls-17" transform="translate(1891.58 828.77)">Oc<tspan class="cls-13" x="39.41" y="0">t</tspan><tspan x="51.54" y="0">ober</tspan></text><text class="cls-6" transform="translate(1891.12 980.06)"><tspan class="cls-23">W</tspan><tspan x="20.89" y="0">e </tspan><tspan class="cls-24" x="38.4" y="0">r</tspan><tspan x="46.66" y="0">eached 4 </tspan><tspan class="cls-24" x="141.49" y="0">s</tspan><tspan class="cls-13" x="150.8" y="0">t</tspan><tspan class="cls-16" x="158.88" y="0">a</tspan><tspan class="cls-25" x="170.51" y="0">t</tspan><tspan x="178.54" y="0">es &amp; 2000 </tspan><tspan class="cls-26" x="72.32" y="26">F</tspan><tspan x="82.68" y="26">arme</tspan><tspan class="cls-25" x="134.67" y="26">r</tspan><tspan x="142.9" y="26">s base</tspan></text><text class="cls-18" transform="translate(1888.3 932.39)">2017</text><text class="cls-19" transform="translate(1891.58 935.67)">2017</text><text class="cls-17" transform="translate(1673.66 1126.87)">Janua<tspan class="cls-27" x="86.1" y="0">r</tspan><tspan x="99.05" y="0">y</tspan></text><text class="cls-6" transform="translate(1671.18 1278.17)"><tspan class="cls-23">W</tspan><tspan x="20.89" y="0">e S</tspan><tspan class="cls-13" x="49.75" y="0">t</tspan><tspan x="57.83" y="0">ar</tspan><tspan class="cls-25" x="78.21" y="0">t</tspan><tspan x="86.24" y="0">ed </tspan><tspan class="cls-14" x="116.63" y="0">c</tspan><tspan x="126.55" y="0">onnecting FPOs </tspan><tspan x="-6.34" y="26">&amp; </tspan><tspan class="cls-21" x="16" y="26">R</tspan><tspan x="29.16" y="26">eached 15 Fpos with 5000 </tspan><tspan class="cls-26" x="78.99" y="52">F</tspan><tspan x="89.35" y="52">armer base</tspan></text><text class="cls-18" transform="translate(1670.38 1230.5)">2018</text><text class="cls-19" transform="translate(1673.66 1233.78)">2018</text><line class="cls-20" x1="1379.21" y1="1192.96" x2="1650.12" y2="1192.96"/><text class="cls-17" transform="translate(1073.82 1124.34)">N<tspan class="cls-28" x="23.71" y="0">o</tspan><tspan class="cls-16" x="42.96" y="0">v</tspan><tspan x="59.66" y="0">ember</tspan></text><text class="cls-6" transform="translate(1076.2 1275.63)"><tspan class="cls-23">W</tspan><tspan x="20.89" y="0">e </tspan><tspan class="cls-24" x="38.4" y="0">r</tspan><tspan x="46.66" y="0">eached 35 FPOs with a </tspan><tspan x="14.95" y="26">10000 </tspan><tspan class="cls-26" x="81.2" y="26">F</tspan><tspan x="91.56" y="26">armer base &amp; 35 </tspan><tspan class="cls-22" x="59.09" y="52">P</tspan><tspan x="71.48" y="52">o</tspan><tspan class="cls-25" x="84.38" y="52">t</tspan><tspan x="92.41" y="52">e</tspan><tspan class="cls-16" x="104.49" y="52">n</tspan><tspan x="117.15" y="52">tial bu</tspan><tspan class="cls-24" x="180.12" y="52">y</tspan><tspan x="191.22" y="52">er</tspan></text><text class="cls-18" transform="translate(1070.54 1227.96)">2019</text><text class="cls-19" transform="translate(1073.82 1231.24)">2019</text><text class="cls-17" transform="translate(1479.65 1425.25)">N<tspan class="cls-28" x="23.71" y="0">o</tspan><tspan class="cls-16" x="42.96" y="0">v</tspan><tspan x="59.66" y="0">ember</tspan></text><line class="cls-20" x1="1179.03" y1="1493.88" x2="1449.95" y2="1493.88"/><text class="cls-17" transform="translate(873.64 1425.25)">April</text><text class="cls-6" transform="translate(890.63 1576.55)">7 S<tspan class="cls-13" x="28.93" y="0">t</tspan><tspan class="cls-16" x="37.02" y="0">a</tspan><tspan class="cls-25" x="48.64" y="0">t</tspan><tspan x="56.67" y="0">es, 60 FPOs, 20000 </tspan><tspan class="cls-22" x="82.36" y="26">f</tspan><tspan x="89.57" y="26">arme</tspan><tspan class="cls-25" x="141.55" y="26">r</tspan><tspan x="149.79" y="26">s</tspan></text><text class="cls-18" transform="translate(870.36 1528.88)">2020</text><text class="cls-19" transform="translate(873.64 1532.16)">2020</text><text class="cls-6" transform="translate(1490.55 1576.55)">10 S<tspan class="cls-13" x="41.1" y="0">t</tspan><tspan class="cls-16" x="49.18" y="0">a</tspan><tspan class="cls-25" x="60.81" y="0">t</tspan><tspan x="68.84" y="0">es, 70 FPOs, 30000 </tspan><tspan class="cls-22" x="85.24" y="26">f</tspan><tspan x="92.44" y="26">arme</tspan><tspan class="cls-25" x="144.43" y="26">r</tspan><tspan x="152.67" y="26">s.</tspan></text><text class="cls-18" transform="translate(1476.37 1528.88)">2020</text><text class="cls-19" transform="translate(1479.65 1532.16)">2020</text><path class="cls-20" d="M811.52,1493.88H785.67a149.2,149.2,0,0,1-149.19-149.19h0A149.19,149.19,0,0,1,785.67,1195.5H1022.4"/><path class="cls-20" d="M2205.58,897.39h25.85a149.2,149.2,0,0,1,149.19,149.19h0a149.19,149.19,0,0,1-149.19,149.19H1994.7"/></svg>