<svg id="Layer_1" data-name="Layer 1" xmlns="http://www.w3.org/2000/svg" viewBox="0 0 160 160"><defs><style>.cls-1{fill:#fff;}.cls-2{fill:#1d7d15;}.cls-3{fill:#04ab5b;}.cls-4{fill:#1e7d16;}</style></defs><circle class="cls-1" cx="80" cy="80" r="66.49"/><path class="cls-2" d="M74.41,50.34c-5.9,5.19-11.34,10.57-16.84,15.9-1.91,1.85-3.54,3.86-3,6.81,1,5.44,5.87,7.92,10.77,5.17S75,72.34,79.82,69.38c.87-.53,1.72-1.09,2.63-1.56,5.41-2.8,6-2.58,10.55,1.52,8.23,7.42,16,15.34,24.55,22.42,1.93,1.6,3.5,3.41,2,6.1a5.31,5.31,0,0,1-7.16,1.79,75,75,0,0,1-6.95-4.24c-1.11-.73-2.49-1.48-3.31-.39s.25,2.24,1.37,3c2.23,1.55,4.36,3.26,6.64,4.72s1.82,2.84.36,4.42c-1.93,2.06-4.69,2.25-7.4.37-2-1.35-3.75-2.92-5.66-4.33-1.1-.81-2.62-1.82-3.61-.59-.83,1,.46,2.26,1.43,3.07a63.26,63.26,0,0,0,5.81,4.68c2.64,1.74,1.7,3.34,0,4.85a4.92,4.92,0,0,1-6,.85c-2.58-1.41-5.06-3-7.62-4.45-.91-.51-2-1.74-2.94-.39s.15,2.39,1.12,3.14A53.87,53.87,0,0,0,90.94,118c2.11,1.25,1.15,2-.31,2.69a6,6,0,0,1-5.86-.38c-4-2.31-8-4.7-12-7a3.62,3.62,0,0,1-1.91-2.55c-1.16-4.9-2.49-6-7.39-6.29-1.62-.09-2.43-.44-2.71-2.19-.6-3.75-2.7-6.16-6.71-6.47a3,3,0,0,1-2.89-2.27c-1.75-4.55-4.67-6.3-9.31-5.17-3,.72-4.4-.77-5.89-2.67a5,5,0,0,1-.25-6.28l16-24.79a4.71,4.71,0,0,1,2.8-2.36C61,51,67.59,49.85,74.41,50.34Z"/><path class="cls-3" d="M96.21,67.69a26,26,0,0,0,2.9.15c.65-.07,1.41-.2,1.61-1A1.5,1.5,0,0,0,99.64,65c-6.17-2.3-12.38-3.88-18.6-.18-4.86,2.88-9.67,5.85-14.51,8.76a31.87,31.87,0,0,1-3,1.64,3.69,3.69,0,0,1-5-1.37c-1.31-1.8-.5-3.26.83-4.47C64.3,64.89,69.6,60.77,74.21,56c9.08-9.41,19.75-6.7,30.41-4.64A5.48,5.48,0,0,1,108,54.1c4.87,7.61,9.8,15.18,14.65,22.8,1.93,3,1.57,6.3.29,9.44-1,2.55-3,3.07-5.12,1.21C110.74,81.21,103.83,74.74,96.21,67.69Z"/><path class="cls-3" d="M118.35,38.68c.68-.07.87.68,1.22,1.22q11.16,17.43,22.34,34.83c.68,1.06.82,1.81-.37,2.48-.29.17-.57.38-.84.57-6.63,4.7-6.63,4.69-11.17-2-6.52-9.65-13-19.36-19.62-28.91-1.57-2.25-1.18-3.13,1.11-4.17C113.49,41.54,115.8,40.08,118.35,38.68Z"/><path class="cls-4" d="M51.5,45.47c-.38.57-.74,1.14-1.12,1.7C43.11,58.08,35.8,69,28.59,79.92c-1.2,1.84-2.15,2.54-4.22,1.13s-4.52-2.54-6.8-3.79c1.34-2.17,2.67-4.36,4-6.53,6.33-10,12.71-20.05,18.94-30.15,1.11-1.79,1.84-2.09,3.53-.73,1.85,1.48,4,2.62,6,3.91C50.67,44.18,51.47,44.48,51.5,45.47Z"/><path class="cls-3" d="M57.57,103.39A4.2,4.2,0,0,1,53,107.31a4,4,0,0,1-4-4.13A4.29,4.29,0,0,1,53.34,99,4.44,4.44,0,0,1,57.57,103.39Z"/><path class="cls-3" d="M47.86,95.19a4.3,4.3,0,0,1-8.59.26c-.21-2.19,2-4.26,4.38-4.13C46.28,91.45,47.74,92.89,47.86,95.19Z"/><path class="cls-3" d="M67.38,111.07c-.22,1.89-1.23,3.1-3.27,3.1s-3.27-.93-3.33-3a3,3,0,0,1,3.35-3.38C66.09,107.8,67.21,109,67.38,111.07Z"/></svg>