<svg id="Layer_1" data-name="Layer 1" xmlns="http://www.w3.org/2000/svg" viewBox="0 0 160 240"><defs><style>.cls-1{fill:#0c6a38;}.cls-2{fill:none;stroke:#fff;stroke-miterlimit:10;stroke-width:1.5px;}.cls-3{fill:#fff;}.cls-4{fill:#8dc641;}</style></defs><rect class="cls-1" x="-3.03" y="-46.07" width="166.07" height="332.13"/><path class="cls-2" d="M75.08,31.92v5L50.63,88.08H42.86L67.13,38.4v-.17H39.66V31.92Z"/><path class="cls-2" d="M100.82,89c-11,0-18.49-10.28-18.66-28.86,0-18.92,8.2-29.2,19.61-29.2,11.75,0,18.57,10.54,18.57,28.43,0,19.09-7.17,29.63-19.44,29.63Zm.43-5.88c7.69,0,11.4-9.07,11.4-23.41,0-13.82-3.45-22.89-11.4-22.89-6.91,0-11.4,8.81-11.4,22.89-.18,14.6,4.32,23.41,11.31,23.41Z"/><path class="cls-3" d="M15.82,139H45.18v5.91H22.94V163H43.48v5.83H22.94v24.66H15.82Z"/><path class="cls-3" d="M55.29,139.7a72.15,72.15,0,0,1,13.5-1.13c7,0,12,1.62,15.29,4.53a14.66,14.66,0,0,1,4.85,11.32c0,4.93-1.46,8.82-4.29,11.65-3.72,4-9.78,6-16.66,6a24.49,24.49,0,0,1-5.66-.48v21.91h-7Zm7,26.12a23.36,23.36,0,0,0,5.83.57c8.49,0,13.66-4.12,13.66-11.56,0-7.2-5.09-10.68-12.86-10.68a29.89,29.89,0,0,0-6.63.56Z"/><path class="cls-3" d="M119.58,194.37c-14.47,0-24.5-11.16-24.5-27.66,0-17.3,10.67-28.63,25.23-28.63,15,0,24.59,11.41,24.59,27.58,0,18.68-11.41,28.71-25.24,28.71Zm.41-5.74c11.16,0,17.47-10.27,17.47-22.64,0-10.84-5.67-22.16-17.39-22.16s-17.55,10.91-17.55,22.72c0,11.49,6.31,22.08,17.39,22.08Z"/><path class="cls-4" d="M23.86,214.41a19.7,19.7,0,0,0,.16,2.68H22.2L22,215.68h-.07a4.12,4.12,0,0,1-3.42,1.66,3.19,3.19,0,0,1-3.42-3.21c0-2.71,2.41-4.18,6.73-4.16v-.23a2.3,2.3,0,0,0-2.54-2.59,5.41,5.41,0,0,0-2.94.83l-.46-1.36a7.22,7.22,0,0,1,3.7-1c3.44,0,4.27,2.33,4.27,4.57Zm-2-3c-2.21,0-4.73.35-4.73,2.52A1.78,1.78,0,0,0,19,215.84,2.83,2.83,0,0,0,21.78,214a2.08,2.08,0,0,0,.09-.65Z"/><path class="cls-4" d="M27.12,208.93c0-1.18,0-2.1-.09-3h1.8l.12,1.83h0a4.15,4.15,0,0,1,3.7-2.08c1.55,0,4,.92,4,4.76v6.68h-2v-6.45c0-1.8-.67-3.33-2.59-3.33a2.94,2.94,0,0,0-2.73,2.08,3.16,3.16,0,0,0-.14,1v6.75h-2Z"/><path class="cls-4" d="M49.6,200.68V214.2c0,1,0,2.12.1,2.89H47.87l-.09-2h-.05a4.09,4.09,0,0,1-3.79,2.2c-2.7,0-4.8-2.29-4.8-5.68,0-3.75,2.31-6,5-6a3.72,3.72,0,0,1,3.37,1.68h0v-6.65Zm-2,9.77a3.68,3.68,0,0,0-.09-.87,3,3,0,0,0-2.94-2.34c-2.1,0-3.35,1.85-3.35,4.3,0,2.29,1.13,4.16,3.31,4.16a3.08,3.08,0,0,0,3-2.45,3.17,3.17,0,0,0,.09-.85Z"/><path class="cls-4" d="M65.85,216.67a7.91,7.91,0,0,1-3.21.65c-3.38,0-5.57-2.29-5.57-5.71a5.7,5.7,0,0,1,6-6,6.37,6.37,0,0,1,2.82.6l-.46,1.55a4.89,4.89,0,0,0-2.36-.54c-2.56,0-4,1.92-4,4.23A3.84,3.84,0,0,0,63,215.68a5.72,5.72,0,0,0,2.49-.54Z"/><path class="cls-4" d="M72.64,217.34c-3,0-5.36-2.22-5.36-5.75,0-3.75,2.47-5.94,5.55-5.94s5.38,2.33,5.38,5.73c0,4.16-2.89,6-5.55,6Zm.09-1.52c1.94,0,3.4-1.83,3.4-4.37,0-1.9-.95-4.28-3.35-4.28s-3.42,2.22-3.42,4.35c0,2.45,1.39,4.3,3.35,4.3Z"/><path class="cls-4" d="M90.13,214c0,1.18,0,2.2.1,3.08H88.42l-.11-1.83h0a4.18,4.18,0,0,1-3.7,2.08c-1.75,0-3.85-1-3.85-4.9V205.9h2v6.17c0,2.13.67,3.58,2.49,3.58a2.87,2.87,0,0,0,2.87-2.91V205.9h2Z"/><path class="cls-4" d="M93.51,208.93c0-1.18,0-2.1-.1-3h1.81l.11,1.83h0a4.14,4.14,0,0,1,3.7-2.08c1.54,0,4,.92,4,4.76v6.68h-2v-6.45c0-1.8-.67-3.33-2.58-3.33a2.94,2.94,0,0,0-2.73,2.08,3.16,3.16,0,0,0-.14,1v6.75h-2Z"/><path class="cls-4" d="M108.69,203.22v2.68h2.91v1.55h-2.91v6c0,1.39.39,2.17,1.52,2.17a3.85,3.85,0,0,0,1.18-.14l.09,1.55a5.44,5.44,0,0,1-1.8.28,2.88,2.88,0,0,1-2.19-.86,4.31,4.31,0,0,1-.79-2.93v-6.08H105V205.9h1.73v-2.05Z"/><path class="cls-4" d="M114.86,204a1.26,1.26,0,1,1,1.29-1.25,1.21,1.21,0,0,1-1.29,1.25Zm-1,13.08V205.9h2v11.19Z"/><path class="cls-4" d="M119.29,208.93c0-1.18,0-2.1-.09-3H121l.12,1.83h0a4.12,4.12,0,0,1,3.69-2.08c1.55,0,4,.92,4,4.76v6.68h-2v-6.45c0-1.8-.67-3.33-2.59-3.33a2.94,2.94,0,0,0-2.72,2.08,2.87,2.87,0,0,0-.14,1v6.75h-2Z"/><path class="cls-4" d="M141.69,215.45c0,2.58-.54,4.13-1.6,5.13a6.16,6.16,0,0,1-4.09,1.34,7.22,7.22,0,0,1-3.72-.93l.51-1.57a6,6,0,0,0,3.28.9c2.08,0,3.6-1.08,3.6-3.93v-1.22h0a4,4,0,0,1-3.56,1.87c-2.77,0-4.76-2.36-4.76-5.48,0-3.79,2.47-5.91,5.06-5.91a3.71,3.71,0,0,1,3.49,1.94h0l.07-1.69h1.8c-.07.79-.09,1.71-.09,3Zm-2-5.16a3,3,0,0,0-3-3.07c-1.94,0-3.32,1.64-3.32,4.25,0,2.17,1.13,4,3.3,4a2.92,2.92,0,0,0,2.82-2.1,3.23,3.23,0,0,0,.16-1.09Z"/></svg>