<svg id="Layer_1" data-name="Layer 1" xmlns="http://www.w3.org/2000/svg" viewBox="0 0 160 160"><defs><style>.cls-1{fill:#fff;}.cls-2{fill:#f4f4f4;}.cls-3{fill:#a2d3fe;}.cls-4{fill:#2b5081;}</style></defs><circle class="cls-1" cx="80" cy="80" r="66.49"/><rect class="cls-2" x="48.77" y="42.01" width="16.1" height="19.32" rx="4.94"/><rect class="cls-2" x="96.92" y="42.01" width="16.1" height="19.32" rx="4.94"/><rect class="cls-3" x="36.46" y="68" width="39.74" height="35.8" rx="10.93"/><path class="cls-3" d="M95.3,68h19.35a10.2,10.2,0,0,1,10.2,10.2V93.76a0,0,0,0,1,0,0H85.1a0,0,0,0,1,0,0V78.19A10.2,10.2,0,0,1,95.3,68Z"/><rect class="cls-2" x="43.63" y="79.04" width="25.41" height="40.82"/><path class="cls-4" d="M71.07,119.83l-3.31.07-.27-.27V83.94c0-.92,0-1.85.05-2.78,0-.55-.23-.63-.68-.52H52.36c-1.85,0-3.71,0-5.56,0-.54,0-.7.16-.69.69,0,1.85,0,3.71,0,5.56v32.35c0,.51-.2.74-.71.71H44.33a5.33,5.33,0,0,0-.89,0c-.72.11-1-.19-.93-.9V105.58c.14-.56,0-1-.63-1.08l-1.75-1.17-.71-.63-1.5-1.61-.69-.94-1-1.7-.41-.9a13.4,13.4,0,0,1-.41-2c0-1-.74-.53-1.18-.62s-.66.21-.64.7c0,1.24,0,2.49,0,3.74v19c.19,1.25-.34,1.79-1.6,1.6H31c-.71.08-1-.2-.9-.93a5.33,5.33,0,0,0,0-.89V95.77c.18-.75-.11-1-.86-.86l-2.64,0-.07-1.1c.16-.79-.34-1.86.23-2.32s1.49-.14,2.26-.18H33.4c2.43,0,2,.46,2-2V80.37l.28-2.67a16.38,16.38,0,0,1,7.57-9.58l2.2-1a17,17,0,0,1,4-.85H64l2.87.38.93.28,1.89.76.86.47,1.92,1.27a2.35,2.35,0,0,0,.88.71c.5.52,1,1,1.52,1.55l.72.89,1.12,1.76.35.7.8,2.19.26,1.12.19,3.12v8.92c-.17.75.12,1,.86.86,1.26,0,2.52,0,3.77,0,.54,0,.71-.16.69-.69,0-1.26,0-2.52,0-3.77V81.27c.1-1.19.2-2.38.31-3.57l.57-1.79c.5-.9.94-1.84,1.5-2.7a17.41,17.41,0,0,1,7.26-6l1.73-.52a16.88,16.88,0,0,1,3.61-.43h13.38l1.12,0,2.66.53.91.35,2,.93.87.53c.58.43,1.16.86,1.75,1.28l.73.66,2,2.22,1.18,2a1.66,1.66,0,0,0,.41.9l.72,2.44a1.36,1.36,0,0,0,.19.9l0,3.34V88c0,.93,0,1.86,0,2.78,0,.55.23.63.67.52h5.58c.71-.08,1,.2.9.93a5.33,5.33,0,0,0,0,.89v1.12c0,.51-.2.74-.71.71-3-.19-3-.19-2.86,2.86,0,1.11,0,2.22,0,3.34V119q.14,1.07-.93.93l-2.64,0-.08-1.1v-4.46c0-1.12,0-2.23,0-3.34v-1.13c0-1.11,0-2.22,0-3.34v-10c.1-1.56.1-1.56-1.41-1.55-.33,0-.66,0-1,0H82.7l-3.79,0c-.33,0-.61-.06-.69.46-.57,3.64-2.81,6.2-5.7,8.15a2.63,2.63,0,0,0-1.39,3v10l-.07,3.33Zm33.84-28.52c2.68,0,5.35,0,8,0,.77,0,1-.19,1-1,0-2.38,0-4.76,0-7.13,0-2.69,0-2.66,2.69-2.63.76,0,.91.27.9,1,0,2.9,0,5.8,0,8.69,0,.77.09,1.16,1,1.09a26.48,26.48,0,0,1,3.45,0c.75,0,.94-.23.93-.94,0-3.24,0-6.47,0-9.7a10.82,10.82,0,0,0-10.68-10.77q-7.24-.07-14.49,0A10.66,10.66,0,0,0,87.4,78.62c-.62,4-.13,8.08-.24,12.12,0,.57.33.57.73.56,1.22,0,2.45,0,3.67,0,.83.05,1-.28,1-1,0-2.37,0-4.75,0-7.13,0-2.61,0-2.57,2.6-2.59.79,0,1,.22,1,1,0,2.93,0,5.86,0,8.8,0,.72.2,1,.93.94C99.64,91.28,102.28,91.3,104.91,91.31ZM42.55,100.9V99.06c0-7,0-13.9,0-20.84,0-1,.26-1.22,1.23-1.22q13.1.06,26.19,0c.92,0,1.19.21,1.18,1.15,0,7,0,14,0,21.07v1.25c2.21-1.83,3.66-3.7,3.59-6.55-.1-4.49,0-9,0-13.48A10.82,10.82,0,0,0,64.19,69.91q-7.35,0-14.71,0A10.85,10.85,0,0,0,39,80.41c0,4.68,0,9.36,0,14C39,97.15,40.35,99.05,42.55,100.9Z"/><path class="cls-4" d="M56.6,64.09l-1.12-.16-2.41-.64-.49-.2-2.14-1.27-.75-.63-1.46-1.6-.48-.65-1.11-2.23c-.07-.22-.15-.44-.22-.66a17.1,17.1,0,0,1-.34-3.1V51.83a23.66,23.66,0,0,1,.29-3.57L47,46.47A13,13,0,0,1,52.62,41l1.79-.6a14,14,0,0,1,3.29-.31,2.32,2.32,0,0,0,1.13.17L61,41l.94.5,1.8,1.24.7.66,1.32,1.57.62,1c.31.73.61,1.47.91,2.21.06.27.11.54.16.81,0,1,.1,2.07.14,3.1v1.12a13.1,13.1,0,0,1-.74,4c-.46.81-.93,1.61-1.4,2.42l-1.93,2-2.66,1.61A16.17,16.17,0,0,1,56.6,64.09Zm0-3.71A6.8,6.8,0,0,0,63.93,53V51.83a7.83,7.83,0,0,0-.23-3.12,1.69,1.69,0,0,0-.36-.91,3.86,3.86,0,0,0-1.33-2,1.39,1.39,0,0,0-.72-.63A4.37,4.37,0,0,0,58.83,44a1.08,1.08,0,0,0-.89-.19,6,6,0,0,0-3.81.39,5.7,5.7,0,0,0-4,4.06,7.78,7.78,0,0,0-.42,3.79v1.12a5.6,5.6,0,0,0,.45,2.89,1.06,1.06,0,0,0,.34.69,4.15,4.15,0,0,0,1.59,2,1.86,1.86,0,0,0,.92.64,4.63,4.63,0,0,0,2.45.87Z"/><path class="cls-4" d="M105.67,64.07h-1.11l-2.65-.53-.92-.33-1.72-.93-.94-.69-1.55-1.52-.37-.47c-.43-.73-.86-1.46-1.28-2.19l-.32-.69c-.18-1-.36-1.92-.55-2.88V52.72l.06-3.35c.1-.43.19-.87.28-1.31a12.07,12.07,0,0,1,7.51-7.6l1.51-.29c1.06-.25,2.12.12,3.18,0l.89.22,2.43,1,.33.19,1.93,1.49.66.68,1.32,1.79.35.69.84,2.41.19.9v4.46A12.19,12.19,0,0,1,114,59a15.55,15.55,0,0,1-3.21,3.22A13.49,13.49,0,0,1,105.67,64.07Zm6.42-10V52.72a11.2,11.2,0,0,0-.13-3.37,1.33,1.33,0,0,0-.21-.89,4.18,4.18,0,0,0-1.17-2.22,1.45,1.45,0,0,0-.66-.7,4.11,4.11,0,0,0-2.24-1.33c-.17-.23-.42-.21-.67-.22a5.72,5.72,0,0,0-3.35-.16A6.43,6.43,0,0,0,98,49.61a16.84,16.84,0,0,0-.07,3.33l0,1.12a5,5,0,0,0,.77,2.71,1.13,1.13,0,0,0,.39.67,4.35,4.35,0,0,0,1.88,1.8l.43.27a5,5,0,0,0,2.93.82,1.73,1.73,0,0,0,1.34,0A6.57,6.57,0,0,0,112.09,54.06Z"/></svg>