<svg id="Layer_1" data-name="Layer 1" xmlns="http://www.w3.org/2000/svg" viewBox="0 0 770 676"><defs><style>.cls-1{fill:#fdb02f;}.cls-2{fill:#d19d3f;}.cls-3{fill:#d1dbe8;}.cls-4{fill:#8e7f58;}.cls-5{fill:#fefefe;}.cls-6{fill:#1a4c84;}</style></defs><path class="cls-1" d="M428.4,417.1c-1.28,2.25-3.72,3-5.71,4.29-6.67,4.24-10.18,10.08-10.25,18a14.23,14.23,0,0,1-6.59,12.27c-5.51,3.66-10.79,7.73-17.36,9.58-4.51,1.28-7.41,4.27-9.09,8.87-2.48,6.83-5.51,13.46-15,11.45-2.23-.47-3.13,1.42-4.11,2.92-1.54,2.36-3,4.75-4.53,7.13-1.6-.87-3.27-1.61-4.77-2.61-16.41-10.91-34.34-14.85-53.65-11-25.34,5.07-43.29,19.53-53.67,43.36-1.16,2.67-1.23,6.07-4.16,7.85-8.45-15.53-15.62-31.56-19.21-49a41,41,0,0,1-.38-6c8.23-1,16.24,1.48,24.72.39,26.8-3.45,47-16.58,61.4-38.95a77.86,77.86,0,0,0,12.14-48A85.83,85.83,0,0,0,304,346.23l0,0a22.61,22.61,0,0,1,4.22.37c13.1,3.56,25.92,2.56,38.72-1.74,10-3.35,18-9.55,26.88-17.24-3.69,20.74-.8,39.05,9.55,56C393.86,400.84,409.09,411.71,428.4,417.1Z"/><path class="cls-1" d="M162.77,286.31a37.83,37.83,0,0,1-1.39-6.46c-.24-5.23-2.19-9.12-6.75-12.08-5.68-3.69-5.63-5.44-.74-10,2.73-2.53,3.48-5.83,3.73-9.29.17-2.42.68-4.83.84-7.19.62-9.39,4.19-10.5,13-5.71,14.24,7.73,14.15,7.74,23.92-5.36,2.29-3.07,5.19-5.68,7.79-8.52,3.15-3.42,6.29-6.8,7.26-11.65,1.2-6,5-10,10.45-12.48,4.06-1.86,7.19-3.67,5.65-9.56-1-4,4.36-5.11,6.56-7.8a24.4,24.4,0,0,1,3.41,1.15c27.87,14.29,54.07,11.3,78.89-7.38,2.68-2,4.22-5.64,8.13-6,5.85,4.64,11.69,8.92,19.52,10.19,7.19,1.17,9.17,6.83,5.38,13.22a71,71,0,0,0-8.13,20.7c-2.06,1.53.6,7-4.92,5.73-8-1.89-16.07-1.18-24.09.27-29,5.26-52.2,33.2-52.56,62.62-.16,12.47,3,23.93,9.13,36.22a86.16,86.16,0,0,0-22.69-5.62c-3.49-.37-5.52-2.29-7.75-5-7-8.51-15.13-15.72-25.62-20C195.41,279.67,179.13,280.19,162.77,286.31Z"/><path class="cls-1" d="M457.86,273.05a.91.91,0,0,1,.7.1c9.49,3.18,19,6.28,27.88,11,2.55,3.26,6.75,4.76,8.94,8.4,1.3,6.76-3.49,8.29-8.36,9.47-7.29,1.78-8,2.35-3.83,8.34a62.59,62.59,0,0,1,10.14,26.29c1.7,10.86.68,22,6.62,32.2,2.09,3.59-.77,5.55-5.3,4.17-3.45-1.05-6.37-3.56-10.15-3.66l-.33-.86c4.27-7.54,7.37-15.66,7.09-24.26-.9-27.84-24.84-46.85-50-43.3-20.23,2.85-35.85,18.64-37.82,41.44-1.48,17.21,8.93,35.16,28,42.94,8.81,3.58,17.82,2.89,26.89,2.33,1.14,13.58-1.29,17.77-13.59,23.29-2.17,1-4.4,1.82-6.61,2.72l-3.6.91c-37.82-7.33-59.94-40-58.67-74.06.25-6.51,2.73-12.57,3.34-19q4.4-9.06,8.77-18.12c5.49-5.24,10.07-11.38,16.26-16C420.24,275.61,438.38,271.9,457.86,273.05Z"/><path class="cls-2" d="M379.2,321.56c-.61,6.42-3.09,12.48-3.34,19-1.27,34.07,20.85,66.73,58.67,74.06l-2.82,2.25-3.31.24c-19.31-5.39-34.54-16.26-45.09-33.49-10.35-16.92-13.24-35.23-9.55-56-8.85,7.69-16.92,13.89-26.88,17.24-12.8,4.3-25.62,5.3-38.72,1.74a22.61,22.61,0,0,0-4.22-.37l-.48-.3.51.28A85.83,85.83,0,0,1,318.2,387.7a77.86,77.86,0,0,1-12.14,48c-14.38,22.37-34.6,35.5-61.4,38.95-8.48,1.09-16.49-1.38-24.72-.39l-1.15-1.19.06-3.68c6.76,1.86,13.68,1.23,20.55,1.3,19.74.2,36.68-7.44,50.32-20.89,25-24.61,30.61-54.21,18.63-87-3.11-8.52-7.49-17-15.25-22.23-5.74-3.84-11.66-7.33-16.25-12.49-7.29-8.18-17.37-9.93-27.16-12.32-4.47-1.09-5.88.82-4,5.19,3.47,8.12,5.31,16.55,4.41,25.44l-3.55-.42c.68-9.55-2-18.39-5.64-27-1.31-3.17-3.52-4.7-7.09-4.49a72,72,0,0,0-20.15,3.7l-3.81-3.4a157.64,157.64,0,0,1,25.63-4.33c-4.54-7.69-10.71-12.79-17.72-16.78-16.95-9.66-34.54-11.63-52.73-3.49a5.73,5.73,0,0,0-.89-.28c-.26-1-.47-2-1.55-2.43a2.93,2.93,0,0,1,.18-1.17c16.36-6.12,32.64-6.64,49,.06,10.49,4.29,18.62,11.5,25.62,20,2.23,2.71,4.26,4.63,7.75,5A86.16,86.16,0,0,1,267.88,317c-6.13-12.29-9.29-23.75-9.13-36.22.36-29.42,23.59-57.36,52.56-62.62,8-1.45,16.05-2.16,24.09-.27,5.52,1.3,2.86-4.2,4.92-5.73.16,2.36.31,4.73.47,7.1l2.34,3.75c-4.57-.8-9.11-2.08-13.7-2.34-41.87-2.4-73.81,34.12-65.48,75.07,1.94,9.53,4.94,19.25,12.82,25.6,5.48,4.41,11.33,8.46,16.71,13,2.57,2.19,4.57,4.72,8,6.05,20.66,8,39.91,5.59,58.34-6.57,5.67-3.73,9.3-9.54,15-13.13C375.05,327.56,377.85,320.71,379.2,321.56Z"/><path class="cls-1" d="M380.83,246.1c9.61,4.59,20.34,1.58,30,4.06,14.23,3.66,29.62,6,39.53,19.09-24-.41-44.17,8.3-60.54,27.19,1.49-20,.93-24-4.06-38.52C384.34,253.85,381.2,250.56,380.83,246.1Z"/><path class="cls-1" d="M219.84,70.51c-3.31-3.78-8.17-5-12.26-7.55-3.12-1.92-5.33-4.18-5.17-8.21.16-4.29,3.36-5.22,6.47-6a9.42,9.42,0,0,0,5.49-3.6C222,34,232.81,36.48,242.82,39c7.7,2,14.77,6.38,22.12,9.7-2.46,1.52-5.3,1.7-8,2.27-14,2.91-26.28,9-36,19.7Z"/><path class="cls-3" d="M218.85,469.41l-.06,3.68C190.53,466.59,171,449.79,160,423a68.51,68.51,0,0,1-5-19.3,12.66,12.66,0,0,0-5.5-9.46c-20.29-15-29.88-43.6-22.45-65.16.43,2.41-.3,5.09,1.57,7.19-1.48,22.84,5.62,41.81,24.84,56.38.71-4.8,1.27-8.54,1.83-12.28l3.51,2.75,1.33,2c-3.93,5-3.42,9.68,1.6,12.37,6.81,3.65,14.19,5.34,21.86,6,4.44.41,6.41-.6,4.76-5.59-.79-2.38-.31-5.19-.4-7.8.1-.36.22-.71.35-1.05L192,388c.29,15.81,3.93,30.1,17.94,39.7l.88,1.46c.32,1,.28,2.26,1.75,2.44h0l-.23,2.61c-9.66-4.5-15.72-12.33-19.94-21.79-1.38-3.08-2.6-5.53-6.88-5.3-7.13.38-13.95-1.53-20.6-4.09-1.72-.66-3.83-2.6-5.47-.77-1.33,1.48-.52,3.84-.09,5.83,3.85,17.53,12.06,32.65,25.85,44.19,9.63,8.06,20.08,15,33.25,16C218.58,468.68,218.72,469.05,218.85,469.41Z"/><path class="cls-3" d="M431.71,416.86l2.82-2.25,3.6-.91c1.22,2.15,3.28,2.1,5.34,2.07a101.21,101.21,0,0,0,13.87-1c40.4-6.2,67.22-43.12,59.85-83.29-2.81-15.3-9.52-28.75-21.81-38.89-2.19-3.64-6.39-5.14-8.94-8.4l0-2.19c4.1-.19,6.42,2.82,9,5.16,3,2.73,5.85,5.7,9.86,9.65l-2.62-16.47a4.66,4.66,0,0,1,3.75,1.31c2.87,20.67,12,37.43,30.19,48.61l.36,1.21c-.34.86-.67,1.72-1,2.58-6.58-2.51-10.8-8.17-16.45-12.3l.22.09a1.81,1.81,0,0,0-.2-.42c-.06-.07-.21-.06-.32-.09a.71.71,0,0,0,.3.42c.74,7.92,2.83,15.51,2.77,23.49-.28,36.09-27,67.47-62.78,73.08C450.15,419.79,440.79,421,431.71,416.86Z"/><path class="cls-1" d="M591.7,211c1.32-.47,2.63-1.32,3.95-1.34,8.42-.12,16.78,1.37,25.3.16,4.22-.6,7.61,2.43,9.45,6.41a25.18,25.18,0,0,0,11.25,12.28c5.25,2.78,3.79,7.53,3.35,11.8-.33,3.17-2.08,6.31-1.92,9.39.32,6.52-2.62,6.92-7.49,5l-2.33-1.38c-1.2-9.33-7.21-16-12.85-22.78C612.74,221.34,602.29,216,591.7,211Z"/><path class="cls-1" d="M472,272.5c10.3-3.07,11.73-11.54,12.36-20.45.18-2.61-.06-5.25.05-7.86.13-2.88-.76-6.39,4-6.65,4.59-.25,7.41,1.82,8.08,6.26.94,6.12,2.91,11.66,7.36,16.12l-1.44,19.52a118.9,118.9,0,0,1-11.31-4.09c-4.3-2-6-.87-5.69,3.71C480.67,277.4,476,275.61,472,272.5Z"/><path class="cls-3" d="M355.16,493.61a7.59,7.59,0,0,1,5.32,2.54c28.21,27.06,30.24,70.94,6.24,99.15-11.89,14-26.17,23.3-44.68,25.4.13-1.21.25-2.42.38-3.62,28.13-5.7,47-22.19,54.47-49.84,7.84-29-1.32-53.24-24.37-72.31Z"/><path class="cls-2" d="M355.16,493.61l-2.64,1.32c-2.59-.32-2.23-5.35-6-3.77-.54-.6-1-1.39-1.63-1.75-26.56-14.32-57.81-11.31-80.41,9.08-11.23,10.13-17.71,22.81-21.58,37.11l-2.31-2.82-1.05-3.52c2.93-1.78,3-5.18,4.16-7.85,10.38-23.83,28.33-38.29,53.67-43.36,19.31-3.86,37.24.08,53.65,11,1.5,1,3.17,1.74,4.77,2.61C355.57,492.3,355.36,493,355.16,493.61Z"/><path class="cls-2" d="M380.83,246.1c.37,4.46,3.51,7.75,4.91,11.82,5,14.49,5.55,18.56,4.06,38.52,16.37-18.89,36.5-27.6,60.54-27.19l7.52,3.8c-19.48-1.15-37.62,2.56-53.63,14.43-6.19,4.58-10.77,10.72-16.26,16,.47-3.15-.3-4.37-3.3-2.13,2.35-12,3.31-23.92-.2-36-2.42-8.29-7.77-15-11-22.85l2.42.23Z"/><path class="cls-1" d="M307.66,59.74c10.38-3.85,24.84-.32,32.12,7.69a7.73,7.73,0,0,1,1.71,7.89c-1.69,5.52-3.24,11.17-6.94,15.84C328.67,78.05,319.11,68.08,307.66,59.74Z"/><path class="cls-1" d="M311.5,622.14c-4.53,12.48-10.22,17.05-20.41,17-3.15,0-4.75-1.17-5.94-3.89a129.82,129.82,0,0,1-7-20.48C288.82,619.21,299.84,622.14,311.5,622.14Z"/><path class="cls-3" d="M219.84,70.51l1.06.2c.49.79,1,1.58,1.45,2.37.11.7.21,1.4.32,2.1-2.68,1.25-4.5,3.47-6.14,5.77-18.86,26.5-16.26,63.61,7.07,85.51,3.67,3.45,7.38,6.86,11.07,10.29a2.71,2.71,0,0,1-1.43,2.38c-20.44-12.6-30.92-31.27-32.86-54.86C198.68,103.49,206.79,86.05,219.84,70.51Z"/><path class="cls-3" d="M633.26,253.31l2.33,1.38c.67,7.82,2.65,15.42,2.55,23.42-.39,30.38-24.52,59.29-54.38,64.46-2.58.45-5.17.82-7.75,1.23l-.42,0c0-1.25,0-2.5,0-3.75l.43,0c2.18-.39,4.37-.73,6.54-1.16,13.57-2.62,25.52-8.87,34.51-19.07,16.59-18.85,21.82-40.64,13.56-65Z"/><path class="cls-3" d="M504.94,260c4.22-23.91,27.09-45.91,51.93-50.46,11.42-2.09,22.54-1.23,33.67,1.42L588,214.47a5.45,5.45,0,0,1-1,.18,38,38,0,0,0-13.58-2.54c-18.77-.72-35.14,5.64-48.35,18.76-8.53,8.46-15.08,18.54-16.37,31.1C507,262.23,505.92,261.16,504.94,260Z"/><path class="cls-2" d="M233.24,179.13a2.71,2.71,0,0,0,1.43-2.38,3.93,3.93,0,0,0,1-.25q33.61,19.59,67.82,1.05c6.31-3.42,10.93-8.84,16.45-13.17l3.31,2.58a9.72,9.72,0,0,1,.3,1.09c-3.92.33-5.46,3.95-8.14,6-24.82,18.68-51,21.67-78.89,7.38a24.4,24.4,0,0,0-3.41-1.15A4.23,4.23,0,0,0,233.24,179.13Z"/><path class="cls-3" d="M240.58,532.78l2.31,2.82c.11,1,.22,2,.32,3.07a12.5,12.5,0,0,0-1.25,3.38c-1.26,19.1,3.09,36.64,15.89,51.23,4.4,5,8.35,11.12,15.64,12.84.82,1.16,1.63,2.33,2.44,3.49l-.13,2.78c-18.54-8.91-29.43-24.2-35-43.39C237.33,557.11,236.19,544.87,240.58,532.78Z"/><path class="cls-3" d="M323.26,167,320,164.38a5.09,5.09,0,0,1-.1-1.17c1.35-1.21,3-2.21,4-3.66,13.76-20.09,17.07-41.53,8.07-64.49.06-.4.13-.8.22-1.2l2.24-1.48c6.66,11.79,7,24.57,5.61,37.51C338.42,144,331.39,155.76,323.26,167Z"/><path class="cls-2" d="M588,214.47l2.58-3.52a1.72,1.72,0,0,1,1.16.08c10.59,5,21,10.31,28.71,19.5,5.64,6.76,11.65,13.45,12.85,22.78l-2.61,1.55-1.14-.27c.41-3.7-1.53-6.62-3.24-9.6C617.56,229.72,604.67,219.69,588,214.47Z"/><path class="cls-1" d="M576,343.8a47.15,47.15,0,0,1-2.81,15.92c-.62,1.85-1.53,3.62-4.17,3.66s-4.16-1.55-4.88-3.71a60.61,60.61,0,0,1-2.77-15.89l14.21.06Z"/><path class="cls-2" d="M222.35,73.08c-.48-.79-1-1.58-1.45-2.37,9.73-10.74,22-16.79,36-19.7,2.73-.57,5.57-.75,8-2.27l3.31,1.16,3.24,3.38a73.5,73.5,0,0,0-33.56,8.64C232.21,65,228.27,70.4,222.35,73.08Z"/><path class="cls-3" d="M162.59,287.48c1.08.45,1.29,1.46,1.54,2.43-4.16,2.5-8.66,4.58-12.42,7.58-7.76,6.2-15.07,12.94-17.25,23.35L133.25,322a1.09,1.09,0,0,0-1.32,1v-.12l-2.29.21c-.41-6.49,3.73-11,7.26-15.54C143.74,298.8,151.23,290.57,162.59,287.48Z"/><path class="cls-2" d="M275.8,612.39c0-.92.08-1.85.13-2.77,8.56,3.4,17,7.46,26.3,8.13,6.25.45,13,3,18.85-2l1.34,1.28c-.13,1.2-.25,2.41-.38,3.62-3.55.24-7.2-.3-10.54,1.43-11.66,0-22.68-2.92-33.35-7.37Z"/><path class="cls-2" d="M334.37,92.38l-2.24,1.48c-1.06-1.69-2.24-3.32-3.15-5.08-6-11.63-15.28-20.1-26.28-26.84l3.74-2.37,1.22.17c11.45,8.34,21,18.31,26.89,31.42Z"/><path class="cls-3" d="M375.89,242.73l-2.42-.23,0,0-1.41-1c-9.7-6.08-17.32-15.43-28.95-18.5l-2.34-3.75C355.46,222.63,367.85,229.42,375.89,242.73Z"/><path class="cls-3" d="M306.44,59.57l-3.74,2.37-1.24-.16c-8.52-5.73-18.09-7.77-28.16-8.13l-1.81-.37-3.24-3.38C282.05,48.89,294.59,52.86,306.44,59.57Z"/><path class="cls-2" d="M472,272.5c4,3.11,8.67,4.9,13.4,6.56.14.42.27.84.41,1.27-.09.61-.2,1.23.59,1.49V282l0,2.19c-8.87-4.76-18.39-7.86-27.88-11Z"/><path class="cls-2" d="M504.94,260c1,1.17,2,2.24,3.74,2l1.26,1.27a2.67,2.67,0,0,0-2.42,2.26c-1.54,5.16-1.3,10.4-1,15.65l-.1.5a4.66,4.66,0,0,0-3.75-1.31,2.55,2.55,0,0,1-.28-.9l1.44-19.52A4.49,4.49,0,0,1,504.94,260Z"/><path class="cls-2" d="M575.59,343.84l-14.21-.06-.93-1.32c-.08-.82-.16-1.65-.23-2.48l15.39.11C575.6,341.34,575.6,342.59,575.59,343.84Z"/><path class="cls-2" d="M536,334.05c.33-.86.66-1.72,1-2.58l12.09,5-.49,3.49c-.31.08-.61.17-.92.27l-10.71-5Z"/><path class="cls-1" d="M537,335.28l10.71,5C542.11,344.5,538.29,342.73,537,335.28Z"/><path class="cls-3" d="M548.58,340c.17-1.17.33-2.33.49-3.49a3.93,3.93,0,0,1,.95-.2c2.85,1.35,5.68,2.79,9,2.43l1.2,1.27c.07.83.15,1.66.23,2.48C556.18,343.1,552.36,341.66,548.58,340Z"/><path class="cls-2" d="M129.63,323.09l2.29-.21c-.42,4.52-2.91,8.71-2.23,13.42a3.63,3.63,0,0,1-1.14,0c-1.87-2.1-1.14-4.78-1.57-7.19.48-1.53,1-3.06,1.45-4.6l1.21-1.44Z"/><path class="cls-3" d="M129.64,323.07l-1.21,1.44Z"/><path class="cls-4" d="M459.05,386.62l-.72,1.07c-9.07.56-18.08,1.25-26.89-2.33-19.11-7.78-29.52-25.73-28-42.94,2-22.8,17.59-38.59,37.82-41.44,25.2-3.55,49.14,15.46,50,43.3.28,8.6-2.82,16.72-7.09,24.25l-5.08,0c.87-1.37,1.83-2.7,2.6-4.12,7.59-14,7.57-28.07-1-41.56-9.24-14.55-23.19-20.26-39.79-17.81-15.72,2.31-26.7,11.76-31.57,27-4.66,14.62-1.86,28.37,8.74,39.63,11.12,11.83,25.09,15,40.72,11Z"/><path class="cls-3" d="M459.05,386.62l-.27-3.94,1.27-1.18c7.18-1.3,12.65-5.21,16.83-11.08h0c.34-.24.67-.49,1-.74l1.19-1.13,5.08,0,.33.87c-6.53,5.23-11.3,12.68-19.75,15.48C462.86,385.5,461.17,386.76,459.05,386.62Z"/><path class="cls-4" d="M384.67,301.32c3-2.24,3.77-1,3.3,2.13q-4.38,9-8.77,18.11c-1.35-.85-4.15,6-4.37-.83Z"/><path class="cls-1" d="M384.67,301.32l-9.84,19.41c-5.67,3.59-9.3,9.4-15,13.13-18.43,12.16-37.68,14.53-58.34,6.57-3.47-1.33-5.47-3.86-8-6.05-5.38-4.58-11.23-8.63-16.71-13-7.88-6.35-10.88-16.07-12.82-25.6-8.33-41,23.61-77.47,65.48-75.07,4.59.26,9.13,1.54,13.7,2.34,11.63,3.07,19.25,12.42,28.95,18.5l1.41,1,0,0c3.23,7.82,8.58,14.56,11,22.85C388,277.4,387,289.32,384.67,301.32Zm-21.21-18.83c-.34-20.79-18.24-39.08-38.78-38.36-23.38.81-38.41,17.81-38.63,39-.23,20.93,18,38.49,38.62,38.49C345.49,321.61,363.81,303.14,363.46,282.49Z"/><path class="cls-1" d="M218.85,469.41c-.13-.36-.27-.73-.41-1.1-.88-10.78-1.74-21.58-4.46-32.11,7.7,2.43,15.36,5.58,23.58,4.92,18.45-1.48,32.89-9.75,41.33-26.68,8.29-16.61,7-32.81-3.18-48.38-6.26-9.59-15.48-15.17-25.62-19.61.9-8.89-.94-17.32-4.41-25.44-1.87-4.37-.46-6.28,4-5.19,9.79,2.39,19.87,4.14,27.16,12.32,4.59,5.16,10.51,8.65,16.25,12.49,7.76,5.19,12.14,13.71,15.25,22.23,12,32.75,6.34,62.35-18.63,87-13.64,13.45-30.58,21.09-50.32,20.89C232.53,470.64,225.61,471.27,218.85,469.41Z"/><path class="cls-4" d="M250.09,346.45c10.14,4.44,19.36,10,25.62,19.61,10.17,15.57,11.47,31.77,3.18,48.38-8.44,16.93-22.88,25.2-41.33,26.68-8.22.66-15.88-2.49-23.58-4.91l-1.66-2,.23-2.61c2.22-.58,3.87.86,5.69,1.65a43.93,43.93,0,0,0,27.37,2.6c18.58-4.07,32.76-19.92,34.05-37.36,1.67-22.69-8.56-39.19-29.24-47.17L246.8,351c-6.75-3.59-13.72-2.22-20.67-.93a3,3,0,0,0-2.56,2.29c-2.5,11.18-10,18.65-18.65,25.32-8.76.6-10,1.56-12.95,10.33l-3.74,1.14c2-5.23.94-8.15-5.35-8.43-8.48-.37-15.19-5-21.57-10.12l-3.37-3.86-5.4-10.69a1.73,1.73,0,0,0,.17-1.14l2.83-.94,1.1.89,2.37,5.93a6.78,6.78,0,0,0,3.5,3.75c5,8.49,13.24,10.85,22.28,12.52,7.55,1.4,7.42-5.25,10.59-8.45L197.1,372c-.3,1.3-1.31,3.28.48,3.58a6.43,6.43,0,0,0,6.6-3.31c7.7-4,12.74-10.05,14.39-18.71l.23-.44-.15.5c-6.34.69-10.22,5.28-14.53,9.18-.19-1.49-.37-3-.55-4.47a1.05,1.05,0,0,0,.24-1c4.44-3.11,8.66-6.59,13.82-8.5a3.13,3.13,0,0,0,2.32-2.47c1.41-7.71-3.68-23.17-12.3-27a7.13,7.13,0,0,0-3.75-3.5c-9.54-5-19.36-5.22-29.4-1.75l.21-3.92c12.62-5.34,24.11-2.13,35.14,4.62l3.81,3.4a41.63,41.63,0,0,1,10.77,24.43c.24,3,1.15,3.8,4.15,3.11,6-1.38,12-.83,18,.3Z"/><path class="cls-1" d="M209.85,314.79c-11-6.75-22.52-10-35.14-4.62h-.47c-.2-8-4.39-14.13-9.21-20,18.19-8.14,35.78-6.17,52.73,3.49,7,4,13.18,9.09,17.72,16.78A157.64,157.64,0,0,0,209.85,314.79Z"/><path class="cls-1" d="M246.54,346c-6-1.13-12-1.68-18-.3-3,.69-3.91-.15-4.15-3.11a41.63,41.63,0,0,0-10.77-24.43,72,72,0,0,1,20.15-3.7c3.57-.21,5.78,1.32,7.09,4.49C244.49,327.64,247.22,336.48,246.54,346Z"/><path class="cls-1" d="M304,346.23l-.51-.28.48.3Z"/><path class="cls-1" d="M250.42,351.33c20.68,8,30.91,24.48,29.24,47.17-1.29,17.44-15.47,33.29-34.05,37.36a43.93,43.93,0,0,1-27.37-2.6c-1.82-.79-3.47-2.23-5.69-1.65h0c.29-1.44-.64-2-1.75-2.44l-.88-1.46c-2.12-9-.93-17.78,2.63-26.27,4.09.2,6.53-4.16,10.66-3.89,1.79,4.08,4.54,7.15,8.92,8.48a13.76,13.76,0,0,0,16.63-7.6c3.14-7.34,0-14.2-8.54-18.68A99.55,99.55,0,0,0,250.42,351.33Z"/><path class="cls-1" d="M161.31,370.6c6.38,5.12,13.09,9.75,21.57,10.12,6.29.28,7.38,3.2,5.35,8.43-.13.34-.25.69-.35,1.05-10.38,4.48-19.6,2.55-27.82-5l-1.33-2A34.87,34.87,0,0,1,161.31,370.6Z"/><path class="cls-2" d="M161.31,370.6a34.87,34.87,0,0,0-2.58,12.55l-3.51-2.75c-.06-.34-.11-.68-.14-1q1.42-6.31,2.86-12.63Z"/><path class="cls-4" d="M210.79,429.17c1.11.43,2,1,1.75,2.44C211.07,431.43,211.11,430.17,210.79,429.17Z"/><path class="cls-1" d="M560.22,340l-1.2-1.27c-3.27-5.29-5.58-5.91-9-2.43a3.93,3.93,0,0,0-.95.2l-12.09-5-.36-1.21a30.27,30.27,0,0,1,15.72-18.45,4,4,0,0,0,1.08.13c16.9,7.14,32,4,45.39-8.15.67,3.28-.1,6.41-1,9.5-3.86,12.87.25,14.66-16.66,10.34-3.55-.91-4.14.29-4.68,3.14a52.74,52.74,0,0,0-.4,13.28l-.43,0Z"/><path class="cls-5" d="M519.32,321.66l-.09-.33c.11,0,.26,0,.32.09a1.81,1.81,0,0,1,.2.42Z"/><path class="cls-1" d="M346.51,491.16c-7.71,6.71-8.13,15.93-8.62,25.12-9-5.83-18.4-9.7-29.56-9.19-17.06.79-33.26,13-38.29,29.74s1.18,36.53,14.83,46.22c16.58,11.77,33.5,11.32,50.6,1.09,1.58,12.15,1,13.51-9.71,19.67-4.92,2.82-8.09,6.05-4.68,12-5.81,5-12.6,2.4-18.85,2-9.27-.67-17.74-4.73-26.3-8.13-.81-1.17-1.62-2.34-2.44-3.5a16.1,16.1,0,0,0-.81-2.27c-10.94-21-24.05-41.07-29-64.78,0-.15-.29-.27-.44-.4-.1-1-.21-2-.32-3.07,3.87-14.3,10.35-27,21.58-37.11,22.6-20.39,53.85-23.4,80.41-9.08C345.55,489.77,346,490.56,346.51,491.16Z"/><path class="cls-1" d="M301.46,61.78l1.24.16c11,6.74,20.24,15.21,26.28,26.84.91,1.76,2.09,3.39,3.15,5.08-.09.4-.16.8-.22,1.2a56,56,0,0,0-10.47,10.84c-4.76,6.57-4.31,12.82,1.5,18.22,3.14,2.92,5.61,5.69,3.21,10.42-2.29,4.52-5.66,4.2-9.67,3.19-4.32-1.1-6.05,1-5.14,5.18,1.57,7.28,3.39,14.5,8.51,20.3a5.09,5.09,0,0,0,.1,1.17c-5.52,4.33-10.14,9.75-16.45,13.17q-34.25,18.51-67.82-1.05c3.33-7.59,4.5-16.12,9.84-22.85a8.92,8.92,0,0,1,1-.2c1.38.83,2.74,1.72,4.16,2.49a41.29,41.29,0,0,0,52.41-11.13c12.07-15.87,10.8-38.86-2.92-53-14.62-15.06-36.92-17.35-53.66-5.22-12.28,8.9-17.46,21.38-17.21,36.33-8.68-5.35-9-13.57-7.84-22.43,1.08-8.39,5.44-16.67,1.18-25.32-.11-.7-.21-1.4-.32-2.1,5.92-2.68,9.86-8.06,15.58-11.16a73.5,73.5,0,0,1,33.56-8.64l1.81.37C284,65,289.16,66.49,301.46,61.78Z"/><path class="cls-1" d="M562.32,236.4c4.18-6.83,9.24-12.56,17.43-14.73,3.61-.95,6.82-2.62,7.23-7a5.45,5.45,0,0,0,1-.18c16.71,5.22,29.6,15.25,38.31,30.52,1.71,3,3.65,5.9,3.24,9.6-6.43,4.8-12.08,10.89-20.49,12.44-5-16.57-15.69-27-32.85-30.07C571.67,236.15,566.94,236.56,562.32,236.4Z"/><path class="cls-1" d="M150.3,347.78c-7.77-2.21-14.41-6.46-20.61-11.48-.68-4.71,1.81-8.9,2.23-13.42V323l1.32-1,1.21-1.17c8.48-1.85,17.06-1.61,25.65-1.28C153.36,327.75,150.44,337.29,150.3,347.78Z"/><path class="cls-2" d="M133.25,322l-1.32,1A1.09,1.09,0,0,1,133.25,322Z"/><path class="cls-2" d="M373.49,242.53l-1.41-1Z"/><path class="cls-3" d="M485.81,280.33l.6,1.48C485.61,281.56,485.72,280.94,485.81,280.33Z"/><path class="cls-1" d="M509.94,263.24l22,1.42c-2.93,13.11-.48,25.17,7,36.23-3,.07-6,.28-9,.18-8.1-.29-11.75-2.89-13.67-10.74-1.34-5.48-3.57-9.25-9.78-9.18-.3-5.25-.54-10.49,1-15.65A2.67,2.67,0,0,1,509.94,263.24Z"/><path class="cls-1" d="M479.09,368.55l-1.19,1.13c-.33.25-.66.5-1,.74h0c-6.32,2.62-14,3.16-16.83,11.08l-1.27,1.18c-15.63,4-29.6.84-40.72-11-10.6-11.26-13.4-25-8.74-39.63,4.87-15.24,15.85-24.69,31.57-27,16.6-2.45,30.55,3.26,39.79,17.81,8.58,13.49,8.6,27.52,1,41.56C480.92,365.85,480,367.18,479.09,368.55Zm-19.26-24.14A12.63,12.63,0,1,0,447.5,357,13,13,0,0,0,459.83,344.41Z"/><path class="cls-5" d="M476.9,370.42c.34-.24.67-.49,1-.74C477.57,369.93,477.24,370.18,476.9,370.42Z"/><path class="cls-4" d="M363.46,282.49c.35,20.65-18,39.12-38.79,39.11-20.64,0-38.85-17.56-38.62-38.49.22-21.17,15.25-38.17,38.63-39C345.22,243.41,363.12,261.7,363.46,282.49Zm-73.09.19c0,19.56,14.65,34.4,34.06,34.44,19.86.05,34.57-14.64,34.56-34.52,0-19.43-14.82-34.14-34.35-34.13S290.39,263.2,290.37,282.68Z"/><path class="cls-1" d="M195.38,368.6c-3.17,3.21-3,9.86-10.59,8.46-9-1.67-17.26-4-22.28-12.52,2.64-2.63,3.2-6.48,5.34-9.35,2.9-3.88,3.82-9.41,9.13-11.35.08,3.64,1.26,6.8,4.32,9,3.88,2.73,8,2.9,11.95.33a9.71,9.71,0,0,0,4.42-11.1c-1.32-5.42-5.23-7.95-10.71-8.16,0-1.91,1.45-2.59,2.64-3.71,5.26-4.91,12.56-6.34,18.05-10.81,8.62,3.8,13.71,19.26,12.3,27a3.13,3.13,0,0,1-2.32,2.47c-5.16,1.91-9.38,5.39-13.82,8.5-6.22.09-7.9,4.11-8.11,9.41Z"/><path class="cls-1" d="M212.7,397.42c.08-7.63-5.88-12.88-7.78-19.74,8.61-6.67,16.15-14.14,18.65-25.32a3,3,0,0,1,2.56-2.29c7-1.29,13.92-2.66,20.66.93-1.73,2.2-1.48,5-1.87,7.47-1.14,7.47-5.84,13.44-8.08,20.42-10,2-12.71,4.73-14.82,14.87C218.29,393.38,216.3,397.44,212.7,397.42Z"/><path class="cls-1" d="M174.5,314.09c10-3.47,19.86-3.24,29.4,1.75,0,2.43-2.09,2.81-3.65,3.53a78.24,78.24,0,0,0-32.55,28.24c-.76,1.14-1.26,3.28-3.55,2.49.52-1.16,1-2.33,1.71-3.85l-10.46,2.66-.29-.41c-1.34-12.38,3.21-22.32,12.54-30.27C170.59,317.94,172.16,315.39,174.5,314.09Z"/><path class="cls-2" d="M164.15,350.1c2.29.79,2.79-1.35,3.55-2.49a78.24,78.24,0,0,1,32.55-28.24c1.56-.72,3.65-1.1,3.65-3.53a7.13,7.13,0,0,1,3.75,3.5c-5.49,4.47-12.79,5.9-18.05,10.81-1.19,1.12-2.67,1.8-2.64,3.71-5.83.82-9.19,4.11-10,10-5.31,1.94-6.23,7.47-9.13,11.35-2.14,2.87-2.7,6.72-5.34,9.35a6.83,6.83,0,0,1-3.51-3.75c4.07-2.2,5.27-5.91,5.38-10.2Z"/><path class="cls-1" d="M157.94,366.74q-1.42,6.31-2.86,12.63a63.93,63.93,0,0,1-12-12.81c-1.86-2.77-3.7-5.88-2.07-9,1.39-2.64,4.77-1.2,7.27-1.53a31.72,31.72,0,0,1,4.25,0Z"/><path class="cls-1" d="M204.12,362.79c4.31-3.91,8.19-8.5,14.53-9.19l-.08-.06c-1.65,8.66-6.69,14.71-14.39,18.71-.14-2.85-.27-5.69-.41-8.53C203.9,363.41,204,363.1,204.12,362.79Z"/><path class="cls-2" d="M236.84,378.89c2.24-7,6.94-12.95,8.08-20.42.39-2.49.14-5.27,1.87-7.47l3.63.33a99.55,99.55,0,0,1-10.21,28.42Z"/><path class="cls-3" d="M174.5,314.09c-2.34,1.3-3.91,3.85-6.85,4.14l-5.28-.28c3.09-3.91,7.27-6.15,11.87-7.77h.47Z"/><path class="cls-3" d="M203.77,363.72c-3.14,2-3.82,6-6.67,8.26l-1.72-3.37c.11-.65.22-1.29.32-1.92,2.8-2.63,4.48-6.31,7.87-8.38.18,1.49.36,3,.55,4.47C204,363.1,203.9,363.41,203.77,363.72Z"/><path class="cls-1" d="M156.64,354.86l7.75-4.27c-.12,4.29-1.32,8-5.39,10.2Q157.83,357.84,156.64,354.86Z"/><path class="cls-3" d="M155.4,348.91c0,1.69.09,3.38.14,5.07l-2.83.93c-1.89-1.6-1.17-3.79-1.29-5.78l3.69-.63Z"/><path class="cls-1" d="M218.65,353.6l.15-.5-.23.44Z"/><path class="cls-4" d="M155.11,348.5l-3.69.63-1.12-1.35c.14-10.49,3.06-20,9.81-28.22l2.27-1.61,5.27.28C158.32,326.18,153.77,336.12,155.11,348.5Z"/><path class="cls-6" d="M236.84,378.89l3.37.86c8.55,4.48,11.68,11.34,8.54,18.68a13.76,13.76,0,0,1-16.63,7.6c-4.38-1.33-7.13-4.4-8.92-8.48-.39-1.26-.78-2.53-1.18-3.79C224.13,383.62,226.85,380.89,236.84,378.89Zm7.91,13.94c-.09-4.72-4.09-8.74-8.51-8.56a9.48,9.48,0,0,0-8.79,9.23c.12,4.46,4.3,8.18,9,8A8.39,8.39,0,0,0,244.75,392.83Z"/><path class="cls-2" d="M222,393.76c.4,1.26.79,2.53,1.18,3.79-4.13-.27-6.57,4.09-10.66,3.89.05-1.34.11-2.68.16-4C216.3,397.44,218.29,393.38,222,393.76Z"/><path class="cls-4" d="M599.45,302.43c-.21.45-.43.9-.64,1.36-13.43,12.17-28.49,15.29-45.39,8.15l3.06-3.36.8,0c1.54,1.47,3.47,1.9,5.48,2.31,14.77,3,26.57-2.08,36.22-13.14Z"/><path class="cls-3" d="M556.48,308.59l-3.06,3.35a4,4,0,0,1-1.08-.13,41.45,41.45,0,0,1-12-10.3l4.47-.58a3.34,3.34,0,0,1,.93.34C548.42,305,552.27,307.06,556.48,308.59Z"/><path class="cls-4" d="M544.79,300.93l-4.48.58-1.28-.62c-7.54-11.06-10-23.12-7.06-36.23a5,5,0,0,0,1-.6l3.6.53C532.34,278.28,535,290.41,544.79,300.93Z"/><path class="cls-4" d="M335.47,584.14c-17.1,10.23-34,10.68-50.6-1.09C271.22,573.36,265,553.7,270,536.83s21.23-29,38.29-29.74c11.16-.51,20.57,3.36,29.56,9.19l.76,1.74-.54,2.65c-3.11-.12-4.85-2.68-7.19-4.13A39.07,39.07,0,0,0,287,518.91c-12.53,9.62-17.83,27-13.09,42a38.58,38.58,0,0,0,61.7,17.92l.46,4.29A5,5,0,0,0,335.47,584.14Z"/><path class="cls-3" d="M336.05,583.11c-.15-1.43-.31-2.86-.46-4.29a6,6,0,0,1,.27-1,36.76,36.76,0,0,0,4.43-52.14l.07.15-.81-1.23a3.9,3.9,0,0,1-.29-1c.2-1.19.69-2.5-1.14-2.89v0l.54-2.65c8.39,5.46,12.14,14,13.72,23.19,2.72,15.71-1.68,29.54-13.71,40.49A11.87,11.87,0,0,1,336.05,583.11Z"/><path class="cls-4" d="M229.62,124.06a3,3,0,0,0-.29-1.13c-.25-15,4.93-27.43,17.21-36.33,16.74-12.13,39-9.84,53.66,5.22,13.72,14.13,15,37.12,2.92,53a41.29,41.29,0,0,1-52.41,11.13c-1.42-.77-2.78-1.66-4.16-2.49l1.56-3.42,2,.4c12.12,8.91,28.79,8.91,41.48,0A37.56,37.56,0,0,0,306,109c-4.47-14.69-19.24-25.92-34.57-26.27-21.51-.5-41.19,18.36-37.84,43.56Z"/><path class="cls-3" d="M248.11,150l-1.56,3.42a8.92,8.92,0,0,0-1,.2c-6.47-7-13-13.86-15.1-23.65-.43-2-1.09-3.88-.8-5.94l4,2.24,1.16,1.54C235.69,137.36,242,143.64,248.11,150Z"/><path class="cls-4" d="M562.32,236.4c4.62.16,9.35-.25,13.85.56,17.16,3.09,27.88,13.5,32.85,30.07,0,.41-.09.82-.13,1.23-.85,1.47-1.71,2.93-2.56,4.39-.42-1.56-.86-3.11-1.25-4.67-3.31-13-11.22-21.9-24.05-25.87s-24.74-1.48-34.78,8c-1.64-.94-1.1-2.59-1.29-4,4.83-3.92,10.57-6.14,16.14-8.67.69,0,1.23-.24,1.31-1Z"/><path class="cls-3" d="M606.33,272.66l2.56-4.4c3.15,13.13-.24,24.45-9.44,34.17-.16-1.55-.32-3.1-.47-4.64.07-.57.15-1.16.23-1.74,3-3,4.81-6.55,4.61-10.93l-.07.1,1-1.14C606.76,280.48,606.45,276.56,606.33,272.66Z"/><path class="cls-3" d="M545,246.07c.19,1.41-.35,3.06,1.29,4a2.85,2.85,0,0,1,0,1.05c-5.34,2.8-7.4,7.87-9.12,13.17a2,2,0,0,1-.55.3l-3.61-.53C534.43,256.38,539.05,250.8,545,246.07Z"/><path class="cls-1" d="M562.41,236.36c-.08.8-.62,1-1.31,1Z"/><path class="cls-6" d="M459.83,344.41a12.63,12.63,0,0,1-25.25,0,12.63,12.63,0,0,1,25.25,0ZM447,336.78c-4.15.55-6.9,2.93-7.38,7.32-.43,3.94,3.57,8.14,7.55,7.88,4.4-.28,7.1-2.88,7.58-7.26C455.2,340.77,451.22,336.79,447,336.78Z"/><path class="cls-1" d="M290.37,282.68c0-19.48,14.77-34.2,34.27-34.21S359,263.17,359,282.6c0,19.88-14.7,34.57-34.56,34.52C305,317.08,290.35,302.24,290.37,282.68Zm34-10.88a11,11,0,1,0,11.24,10.43A11.14,11.14,0,0,0,324.41,271.8Z"/><path class="cls-6" d="M177,343.84c.79-5.87,4.15-9.16,10-10,5.48.21,9.39,2.74,10.71,8.16a9.71,9.71,0,0,1-4.42,11.1c-4,2.57-8.07,2.4-11.95-.33C178.24,350.64,177.06,347.48,177,343.84Zm16,.93c-.16-3.33-1.74-5.52-5-5.74-3.61-.25-5.79,1.79-5.84,5.38,0,3.3,2,5.3,5.25,5.41S192.48,347.92,193,344.77Z"/><path class="cls-1" d="M244.75,392.83a8.39,8.39,0,0,1-8.27,8.69c-4.73.16-8.91-3.56-9-8a9.48,9.48,0,0,1,8.79-9.23C240.66,384.09,244.66,388.11,244.75,392.83Z"/><path class="cls-1" d="M546.23,251.12a2.85,2.85,0,0,0,0-1.05c10-9.44,21.8-12,34.78-8S601.77,255,605.08,268c.39,1.56.83,3.11,1.25,4.67.12,3.91.43,7.83-1.58,11.43l-1,1.14.07-.1a10.2,10.2,0,0,0-4.61,10.93c-.08.58-.16,1.17-.23,1.74-9.65,11.06-21.45,16.16-36.22,13.14-2-.41-3.94-.84-5.48-2.31-.17-6.65-2-7.82-11.57-7.35a3.34,3.34,0,0,0-.93-.34c-9.75-10.52-12.44-22.65-8.23-36.34a1.89,1.89,0,0,0,.56-.3,7.8,7.8,0,0,0,1.18.17c4.23,0,8.94-.32,11.33-3.9S547.48,254.29,546.23,251.12Zm25,13.6c-5.83-.56-11.6,4.28-12.27,10.28s4.4,12,10.71,12.43c5.87.42,11.51-4.55,12-10.57C582.17,271,577.28,265.3,571.28,264.72Z"/><path class="cls-1" d="M339.26,523.58a3.9,3.9,0,0,0,.29,1c-.12.67,0,1.15.81,1.23l-.07-.15c.14,3.92,2.24,7.24,3.37,10.86,1.74,5.56,2.8,11.28-1.54,15.94-6.89,7.41-7.79,16-6.26,25.34a6,6,0,0,0-.27,1,38.58,38.58,0,0,1-61.7-17.92c-4.74-15,.56-32.37,13.09-42a39.07,39.07,0,0,1,43.94-2.37c2.34,1.45,4.08,4,7.19,4.13v0C337.69,522,338.49,522.77,339.26,523.58Zm-28.37,37.87a12.09,12.09,0,1,0-12.31-11.7A12.05,12.05,0,0,0,310.89,561.45Z"/><path class="cls-4" d="M339.26,523.58c-.77-.81-1.57-1.61-1.14-2.89C340,521.08,339.46,522.39,339.26,523.58Z"/><path class="cls-5" d="M340.36,525.82c-.77-.08-.93-.56-.81-1.23Z"/><path class="cls-1" d="M234.74,127.84l-1.16-1.54c-3.34-25.19,16.34-44,37.85-43.55,15.33.35,30.1,11.58,34.57,26.27a37.56,37.56,0,0,1-14.37,41.42c-12.69,8.9-29.36,8.9-41.48,0,2.37-3,2.12-6.24-.27-8.85C245.27,136.55,240.84,131.25,234.74,127.84Zm47.32-8.21a11.63,11.63,0,1,0-11.17,11.93A11.51,11.51,0,0,0,282.06,119.63Z"/><path class="cls-5" d="M603.75,285.22l1-1.14Z"/><path class="cls-1" d="M447,336.78c4.2,0,8.18,4,7.75,7.94-.48,4.38-3.18,7-7.58,7.26-4,.26-8-3.94-7.55-7.88C440.12,339.71,442.87,337.33,447,336.78Z"/><path class="cls-6" d="M324.41,271.8a11,11,0,1,1-10.71,11.58A11.14,11.14,0,0,1,324.41,271.8Zm.28,4.87c-3.13.46-5.65,2.08-5.93,5.58-.3,3.8,1.89,6.25,5.66,6.48,3.52.22,5.84-1.94,6.17-5.38C331,279.51,328.57,277.47,324.69,276.67Z"/><path class="cls-1" d="M193,344.77c-.53,3.15-2.31,5.15-5.63,5.05s-5.3-2.11-5.25-5.41c.05-3.59,2.23-5.63,5.84-5.38C191.27,339.25,192.85,341.44,193,344.77Z"/><path class="cls-6" d="M571.28,264.72c6,.58,10.89,6.28,10.43,12.14-.48,6-6.12,11-12,10.57C563.41,287,558.33,281.08,559,275S565.45,264.16,571.28,264.72Zm-.78,5c-3.65.35-6.19,2.31-6.42,6a5.87,5.87,0,0,0,5.75,6.61c4.06.31,6.69-2.2,6.81-6.18C576.75,272.43,574.26,270.29,570.5,269.68Z"/><path class="cls-6" d="M310.89,561.45a12.09,12.09,0,1,1,11.87-12.15A12,12,0,0,1,310.89,561.45Zm-.25-5.06c4.29-.28,6.87-2.44,6.94-6.84s-2.21-6.95-6.59-7.09c-4.66-.15-7.27,2.38-7.25,7C303.76,553.89,306.33,556.09,310.64,556.39Z"/><path class="cls-6" d="M282.06,119.63a11.63,11.63,0,1,1-11.76-11.35A11.5,11.5,0,0,1,282.06,119.63Zm-4.86.08c-.63-3.85-2.67-6.43-6.68-6.41-4.26,0-6.78,2.58-6.69,6.84.09,4,2.56,6.38,6.53,6.41C274.66,126.58,276.77,123.88,277.2,119.71Z"/><path class="cls-1" d="M324.69,276.67c3.88.8,6.26,2.84,5.9,6.68-.33,3.44-2.65,5.6-6.17,5.38-3.77-.23-6-2.68-5.66-6.48C319,278.75,321.56,277.13,324.69,276.67Z"/><path class="cls-1" d="M570.5,269.68c3.76.61,6.25,2.75,6.14,6.47-.12,4-2.75,6.49-6.81,6.18a5.87,5.87,0,0,1-5.75-6.61C564.31,272,566.85,270,570.5,269.68Z"/><path class="cls-1" d="M310.64,556.39c-4.31-.3-6.88-2.5-6.9-6.89,0-4.66,2.59-7.19,7.25-7,4.38.14,6.66,2.77,6.59,7.09S314.93,556.11,310.64,556.39Z"/><path class="cls-1" d="M277.2,119.71c-.43,4.17-2.54,6.87-6.84,6.84-4,0-6.44-2.46-6.53-6.41-.09-4.26,2.43-6.81,6.69-6.84C274.53,113.28,276.57,115.86,277.2,119.71Z"/></svg>