<svg id="Layer_1" data-name="Layer 1" xmlns="http://www.w3.org/2000/svg" viewBox="0 0 160 240"><defs><style>.cls-1{fill:#0c6a38;}.cls-2{fill:none;stroke:#fff;stroke-miterlimit:10;stroke-width:1.5px;}.cls-3{fill:#fff;}.cls-4{fill:#8dc641;}</style></defs><rect class="cls-1" x="-3.03" y="-46.07" width="166.07" height="332.13"/><path class="cls-2" d="M64.26,87.26V72.19H38.7V67.37L63.24,32.24h8v34.2H79v5.75H71.28V87.26Zm0-20.82V48.07c0-2.88.08-5.75.25-8.63h-.25c-1.69,3.21-3.05,5.58-4.57,8.12L46.23,66.27v.17Z"/><path class="cls-2" d="M102.17,88.19c-10.75,0-18.11-10.07-18.28-28.27,0-18.54,8-28.61,19.21-28.61,11.51,0,18.2,10.33,18.2,27.85,0,18.7-7,29-19,29Zm.43-5.76c7.53,0,11.17-8.88,11.17-22.93,0-13.54-3.39-22.43-11.17-22.43-6.78,0-11.18,8.63-11.18,22.43-.17,14.3,4.24,22.93,11.09,22.93Z"/><path class="cls-3" d="M43.78,186.51a23.85,23.85,0,0,1-9.86,1.77c-10.53,0-18.4-6.65-18.4-18.89,0-11.69,7.93-19.56,19.51-19.56a21.38,21.38,0,0,1,8.86,1.6l-1.22,4a17.2,17.2,0,0,0-7.48-1.55c-8.75,0-14.57,5.6-14.57,15.35,0,9.14,5.26,15,14.29,15a19.42,19.42,0,0,0,7.93-1.55Z"/><path class="cls-3" d="M49.71,169.27c0-3.15-.06-5.87-.22-8.36h4.26l.22,5.26h.17a8.11,8.11,0,0,1,7.48-5.87,9.17,9.17,0,0,1,1.33.11V165a13,13,0,0,0-1.66-.11c-3.44,0-5.88,2.6-6.54,6.2a15.25,15.25,0,0,0-.17,2.27v14.35H49.71Z"/><path class="cls-3" d="M78.19,188.33c-7.21,0-12.86-5.31-12.86-13.79,0-9,5.93-14.24,13.3-14.24,7.7,0,12.91,5.6,12.91,13.74,0,10-6.93,14.29-13.3,14.29Zm.22-3.65c4.65,0,8.14-4.38,8.14-10.47,0-4.55-2.27-10.25-8-10.25s-8.2,5.31-8.2,10.41c0,5.87,3.32,10.31,8,10.31Z"/><path class="cls-3" d="M97.69,169.66c0-3.43,0-6.2-.22-8.75h4.38l.27,4.6h.11a10.35,10.35,0,0,1,9.48-5.21c6.54,0,11.41,5.48,11.41,13.63,0,9.64-5.93,14.4-12.19,14.4a9.32,9.32,0,0,1-8.25-4.21h-.11v14.57H97.69Zm4.88,7.15a7.64,7.64,0,0,0,.22,2,7.46,7.46,0,0,0,7.26,5.71c5.15,0,8.14-4.21,8.14-10.36,0-5.37-2.77-10-7.92-10a7.77,7.77,0,0,0-7.43,6,11.76,11.76,0,0,0-.27,1.94Z"/><path class="cls-3" d="M128.55,182.74a13.88,13.88,0,0,0,6.48,1.88c3.49,0,5.16-1.72,5.16-4s-1.39-3.54-4.93-4.87c-4.88-1.78-7.15-4.43-7.15-7.59,0-4.33,3.54-7.87,9.25-7.87A12.46,12.46,0,0,1,143.9,162l-1.16,3.49a11,11,0,0,0-5.49-1.55c-2.88,0-4.43,1.66-4.43,3.66,0,2.21,1.55,3.21,5,4.6,4.6,1.71,7,4,7,8,0,4.76-3.72,8.09-10,8.09a15.25,15.25,0,0,1-7.53-1.89Z"/><path class="cls-4" d="M31,220.89a13.27,13.27,0,0,1-5.54,1c-5.91,0-10.33-3.74-10.33-10.61,0-6.57,4.45-11,11-11a11.77,11.77,0,0,1,5,.91l-.68,2.24a9.6,9.6,0,0,0-4.2-.87c-4.92,0-8.18,3.14-8.18,8.61,0,5.14,3,8.4,8,8.4a10.87,10.87,0,0,0,4.45-.87Z"/><path class="cls-4" d="M46.52,217.44c0,1.58,0,2.95.13,4.13H44.22l-.15-2.45H44a5.62,5.62,0,0,1-5,2.8c-2.37,0-5.2-1.34-5.2-6.6v-8.8h2.74v8.3c0,2.87.9,4.83,3.36,4.83a4,4,0,0,0,3.61-2.52,3.89,3.89,0,0,0,.25-1.4v-9.21h2.73Z"/><path class="cls-4" d="M51.06,199.48H53.8v22.09H51.06Z"/><path class="cls-4" d="M61.7,202.91v3.61h3.92v2.08H61.7v8.09c0,1.87.53,2.93,2.06,2.93a5.19,5.19,0,0,0,1.58-.19l.13,2.08a7.36,7.36,0,0,1-2.43.38,3.92,3.92,0,0,1-2.95-1.15,5.9,5.9,0,0,1-1.06-4V208.6H56.69v-2.08H59v-2.77Z"/><path class="cls-4" d="M70,204a1.63,1.63,0,0,1-1.65-1.68A1.7,1.7,0,1,1,70,204Zm-1.31,17.6v-15h2.74v15Z"/><path class="cls-4" d="M77,206.52,80,215a40.59,40.59,0,0,1,1.22,3.89h.09c.34-1.25.78-2.49,1.28-3.89l2.92-8.43h2.86l-5.91,15H79.84l-5.73-15Z"/><path class="cls-4" d="M101.43,218a24.48,24.48,0,0,0,.22,3.6H99.19l-.25-1.89h-.09a5.58,5.58,0,0,1-4.61,2.24,4.29,4.29,0,0,1-4.6-4.33c0-3.64,3.23-5.63,9-5.6v-.31c0-1.24-.34-3.51-3.42-3.48a7.2,7.2,0,0,0-4,1.12l-.63-1.84a9.75,9.75,0,0,1,5-1.31c4.64,0,5.76,3.15,5.76,6.16Zm-2.68-4.08c-3-.06-6.38.47-6.38,3.39a2.4,2.4,0,0,0,2.56,2.61,3.8,3.8,0,0,0,3.7-2.51,3,3,0,0,0,.12-.88Z"/><path class="cls-4" d="M109,202.91v3.61h3.92v2.08H109v8.09c0,1.87.53,2.93,2.05,2.93a5.27,5.27,0,0,0,1.59-.19l.12,2.08a7.36,7.36,0,0,1-2.43.38,3.92,3.92,0,0,1-2.95-1.15,5.9,5.9,0,0,1-1.06-4V208.6H104v-2.08h2.33v-2.77Z"/><path class="cls-4" d="M117.35,214.54c.07,3.67,2.4,5.2,5.14,5.2a9.74,9.74,0,0,0,4.17-.78l.49,2a12.14,12.14,0,0,1-5,1c-4.6,0-7.4-3.08-7.4-7.6s2.71-8.12,7.09-8.12c4.92,0,6.19,4.33,6.19,7.1a6.84,6.84,0,0,1-.09,1.27Zm8-2c0-1.74-.72-4.45-3.76-4.45-2.8,0-4,2.56-4.2,4.45Z"/><path class="cls-4" d="M144.39,199.48v18.21c0,1.33,0,2.86.12,3.88h-2.45l-.13-2.61h-.06a5.53,5.53,0,0,1-5.1,3c-3.64,0-6.48-3.08-6.48-7.66,0-5,3.12-8.09,6.76-8.09a5,5,0,0,1,4.54,2.28h.06v-9Zm-2.74,13.17a5.34,5.34,0,0,0-.12-1.19,4,4,0,0,0-4-3.14c-2.83,0-4.51,2.49-4.51,5.79,0,3.08,1.53,5.6,4.45,5.6a4.16,4.16,0,0,0,4-3.3,4.51,4.51,0,0,0,.12-1.15Z"/></svg>