<svg xmlns="http://www.w3.org/2000/svg" viewBox="0 0 98.61 98.62"><g id="Layer_2" data-name="Layer 2"><g id="Layer_1-2" data-name="Layer 1"><path d="M98.6,62.86c0-4-2.42-6.63-6.46-7-.09-.44-.16-.9-.27-1.36A6.17,6.17,0,0,0,88,49.9a1.3,1.3,0,0,1-.93-1.49c0-4.52,0-9,0-13.57,0-5.06-3.49-8.48-8.55-8.55-.92,0-1.85,0-2.84,0-.47-3.95-2.67-6.15-6.65-6.64v-5.2c0-3,0-6,0-9C69,2,67,0,63.64,0,44.48,0,25.33.08,6.17,0,3.14,0,1,1,0,3.89V78.4a3,3,0,0,1,.22.39,5,5,0,0,0,4.94,3.43H63.4c3.66,0,5.65-2,5.65-5.65q0-19.48,0-39V36.3c3.92-.49,6.16-2.65,6.63-6.59a31.56,31.56,0,0,1,4.13,0,4.72,4.72,0,0,1,4,4.58c0,4.87,0,9.75,0,14.63a.87.87,0,0,1-.34.68,6.75,6.75,0,0,0-4.62,6.19,7.16,7.16,0,0,0-4.37,1.78,6.61,6.61,0,0,0-2.17,5.06c0,7.57,0,15.14,0,22.71a13.12,13.12,0,0,0,11,13.08,2.45,2.45,0,0,1,.45.17h3.46c.86-.24,1.72-.45,2.56-.74a13,13,0,0,0,8.8-12.31Q98.62,74.22,98.6,62.86ZM65.7,18.54v58c0,1.88-.42,2.3-2.33,2.3H5.71c-2,0-2.42-.44-2.42-2.45q0-29.54,0-59.09v-.78H65.7Zm0-5.43H3.29v-3c0-1.57,0-3.14,0-4.71s.6-2.11,2.11-2.11H63.33c1.9,0,2.37.47,2.37,2.39Zm6.51,17.07a2.89,2.89,0,0,1-3.09,2.55V23.18a2.92,2.92,0,0,1,3.08,2.59A29.51,29.51,0,0,1,72.21,30.18ZM85.15,52.63c1.78-.22,3.3,1.12,3.54,3.21H82.34A3,3,0,0,1,85.15,52.63Zm1.91,19.81A1.63,1.63,0,0,1,85.58,74a1.51,1.51,0,0,1-1.66-1.28,24.53,24.53,0,0,1,0-4,1.48,1.48,0,0,1,1.69-1.23A1.6,1.6,0,0,1,87.06,69c0,.57,0,1.15,0,1.73S87.09,71.86,87.06,72.44Zm-11.41-9.9a3,3,0,0,1,2.85-3.27c1.71-.14,3.45,0,5.29,0,0,1.63,0,3.22,0,4.82a.83.83,0,0,1-.43.52A5.31,5.31,0,0,0,80.46,69H75.64v-1.7C75.64,65.69,75.62,64.11,75.65,62.54ZM95.32,85.23a9.9,9.9,0,0,1-7.65,9.82,9.77,9.77,0,0,1-12-9.09c-.1-4.36,0-8.72,0-13.08a4.26,4.26,0,0,1,.06-.47h4.72c.09.45.17.88.29,1.3a4.93,4.93,0,0,0,5.21,3.53,4.82,4.82,0,0,0,4.37-4.06c.09-.67.34-.84,1-.82,1.31,0,2.62,0,4,0a6.3,6.3,0,0,1,.08.74C95.32,77.15,95.35,81.19,95.32,85.23Zm0-16.27H90.55a9.73,9.73,0,0,0-.8-2.24,6.26,6.26,0,0,0-1.83-1.9,1.45,1.45,0,0,1-.81-1.51c0-1.34,0-2.68,0-4,2,0,3.81-.12,5.64,0a3,3,0,0,1,2.54,3C95.36,64.55,95.32,66.69,95.32,69Z"/><path d="M29.61,75.64c4.33.07,8.66.06,13,0a5,5,0,1,0-.13-9.93c-2.08,0-4.17,0-6.25,0s-4.3,0-6.44,0a5,5,0,0,0-5.11,4.78A4.87,4.87,0,0,0,29.61,75.64Zm.24-6.54q6.32,0,12.61,0c1.21,0,1.85.6,1.85,1.61s-.63,1.57-1.86,1.58c-2.11,0-4.23,0-6.35,0h0c-2.08,0-4.17,0-6.26,0-1.15,0-1.88-.64-1.88-1.59S28.67,69.1,29.85,69.1Z"/><path d="M52.29,50.94q-11.22,0-22.44,0a2.19,2.19,0,0,0-.84.15,1.52,1.52,0,0,0-1.08,1.54A1.5,1.5,0,0,0,29,54.15a4.23,4.23,0,0,0,1.23.14H41c3.69,0,7.39,0,11.08,0a2.28,2.28,0,0,0,1.56-.51,2.34,2.34,0,0,0,.4-1.72C53.92,51.17,53.11,50.94,52.29,50.94Z"/><path d="M29.1,39.39a3.26,3.26,0,0,0,1,.1H51.8q2.43,0,2.46-1.65c0-1.09-.81-1.66-2.43-1.66H30.07a5,5,0,0,0-.67,0A1.52,1.52,0,0,0,28,37.62,1.56,1.56,0,0,0,29.1,39.39Z"/><path d="M29.85,24.68H52.27c1.2,0,2-.65,2-1.62a1.72,1.72,0,0,0-1.94-1.66H29.8c-1.16,0-1.85.63-1.86,1.62S28.65,24.67,29.85,24.68Z"/><path d="M17.91,60.84a34.19,34.19,0,0,0,3.65,0,3.29,3.29,0,0,0,3.09-3.3c0-.54,0-1.09,0-1.63h0V54.38A3.27,3.27,0,0,0,21.39,51,31.38,31.38,0,0,0,18,51,3.24,3.24,0,0,0,14.8,54.3c0,1.12,0,2.24,0,3.36A3.22,3.22,0,0,0,17.91,60.84Zm.22-6.46h3.2v3.08h-3.2Z"/><path d="M17.82,31.23q1.88.06,3.75,0a3.18,3.18,0,0,0,3.07-3.09c0-1.21,0-2.43,0-3.64a3.17,3.17,0,0,0-3.07-3.09c-.61,0-1.21,0-1.82,0h0c-.58,0-1.16,0-1.73,0a3.17,3.17,0,0,0-3.21,3.14c0,1.25-.05,2.5,0,3.74A3.09,3.09,0,0,0,17.82,31.23Zm.31-6.49h3.18v3.14H18.13Z"/><path d="M17.93,46.05c1.21,0,2.43,0,3.65,0a3.24,3.24,0,0,0,3.06-3.11c0-.58,0-1.15,0-1.73h0c0-.58,0-1.15,0-1.73a3.18,3.18,0,0,0-3.09-3.26c-1.24-.06-2.5-.06-3.74,0a3.12,3.12,0,0,0-3,3c-.05,1.25-.05,2.5,0,3.74A3.19,3.19,0,0,0,17.93,46.05Zm.23-6.51H21.3v3.13H18.16Z"/><path d="M39.2,60.86a1.68,1.68,0,0,0,1.88-1.72c0-1-.71-1.6-1.88-1.61-3.11,0-6.22,0-9.33,0-1.24,0-1.94.65-1.93,1.66s.76,1.66,2,1.67h4.52C36.06,60.87,37.63,60.88,39.2,60.86Z"/><path d="M39.23,28c-1.57,0-3.14,0-4.71,0s-3.14,0-4.71,0a1.66,1.66,0,0,0-1.87,1.62,1.6,1.6,0,0,0,1.8,1.66q4.75,0,9.52,0a1.62,1.62,0,0,0,1.82-1.65A1.65,1.65,0,0,0,39.23,28Z"/><path d="M29.69,46q4.81,0,9.61,0a1.65,1.65,0,1,0,0-3.28c-1.57,0-3.14,0-4.71,0h0c-1.63,0-3.27,0-4.9,0a1.59,1.59,0,0,0-1.73,1.64A1.62,1.62,0,0,0,29.69,46Z"/><path d="M60.55,6.6c-1.54,0-3.08,0-4.62,0H51.22c-1.2,0-1.92.65-1.91,1.67S50,9.88,51.15,9.88q4.71,0,9.42,0c1.18,0,1.85-.61,1.86-1.61S61.76,6.6,60.55,6.6Z"/><path d="M26.23,6.6c-.51,0-1,0-1.54,0A1.7,1.7,0,0,0,23,8.2a1.68,1.68,0,0,0,1.63,1.68c.28,0,.57,0,.86,0h0c.26,0,.52,0,.77,0A1.57,1.57,0,0,0,27.92,8.2,1.61,1.61,0,0,0,26.23,6.6Z"/><path d="M9.78,6.59H9c-1.65,0-2.43.53-2.45,1.64S7.31,9.89,9,9.88c.29,0,.58,0,.87,0a1.66,1.66,0,0,0,1.69-1.61A1.72,1.72,0,0,0,9.78,6.59Z"/><path d="M17.8,6.59H16.55a1.63,1.63,0,0,0-1.74,1.65,1.59,1.59,0,0,0,1.72,1.65c.41,0,.83,0,1.25,0,1.2,0,1.95-.64,1.95-1.64S19,6.61,17.8,6.59Z"/></g></g></svg>