<svg xmlns="http://www.w3.org/2000/svg" viewBox="0 0 383.34 383.39"><g id="Layer_2" data-name="Layer 2"><g id="Layer_1-2" data-name="Layer 1"><path d="M383.33,244.38c0-15.5-9.42-25.79-25.13-27.25-.34-1.72-.63-3.52-1.05-5.3-2-8.47-6.91-14.64-15-17.84-3.1-1.23-3.62-2.88-3.6-5.8.12-17.58.17-35.17,0-52.75-.16-19.66-13.55-33-33.21-33.25-3.61,0-7.21,0-11.07,0C292.52,86.84,284,78.3,268.47,76.38V56.16c0-11.72.06-23.45,0-35.17-.09-13.14-7.92-20.84-21-20.84C172.94.15,98.47.3,24,0,12.19,0,4,3.76,0,15.11V304.8a12,12,0,0,1,.86,1.51c3.24,8.55,10,13.32,19.2,13.33q58.76.08,117.51.05l108.9,0c14.25,0,22-7.69,22-21.94q0-75.77,0-151.53v-5.08c15.25-1.89,24-10.3,25.78-25.61,5.43,0,10.84-.57,16.09.13,8.54,1.14,15.25,9.05,15.33,17.78.18,19,.07,37.92,0,56.87,0,.92-.61,2.4-1.3,2.65-11.17,4.11-16.8,12.33-18,24.07-6.42.6-12.21,2.53-17,6.93a25.76,25.76,0,0,0-8.46,19.66c-.05,29.44-.1,58.87.05,88.3.13,25.75,17.52,46.15,43,50.84a10.32,10.32,0,0,1,1.72.66h13.48c3.32-.95,6.69-1.74,9.94-2.87a50.69,50.69,0,0,0,34.21-47.85Q383.37,288.52,383.33,244.38ZM255.42,72.06V297.67c0,7.31-1.65,8.95-9.07,8.95H22.19c-7.66,0-9.4-1.72-9.4-9.52q0-114.86,0-229.72v-3H255.42Zm0-21.09H12.79V39.43c0-6.11-.06-12.22,0-18.33,0-5.87,2.31-8.2,8.17-8.2H246.22c7.37,0,9.19,1.85,9.2,9.3Zm25.29,66.37c-.43,5.88-6.13,10.34-12,9.91V90.13c6-.31,11.56,4.15,12,10A118.55,118.55,0,0,1,280.71,117.34ZM331,204.62c6.9-.88,12.85,4.33,13.77,12.48H320.09C319.28,211.08,324.22,205.48,331,204.62Zm7.41,77a6.29,6.29,0,0,1-5.74,5.91c-3,.28-6.2-1.77-6.44-5a96.85,96.85,0,0,1,.06-15.61c.28-3.18,3.56-5.13,6.57-4.79a6.18,6.18,0,0,1,5.56,6c.13,2.24,0,4.49,0,6.73S338.59,279.38,338.44,281.61Zm-44.36-38.47c.1-7,4.21-12.18,11.1-12.74,6.66-.54,13.4-.12,20.55-.12,0,6.36.06,12.55-.08,18.74,0,.71-.94,1.67-1.68,2.06-6.75,3.55-10.25,9.22-11.17,17H294.06v-6.62C294.06,255.36,294,249.25,294.08,243.14Zm76.48,88.21c-.14,18.81-11.86,33.73-29.72,38.16-22.79,5.65-46.14-11.86-46.64-35.33-.36-16.94-.1-33.9-.11-50.86a17.8,17.8,0,0,1,.22-1.82h18.35c.39,1.74.67,3.43,1.13,5.07,2.48,8.77,10.63,14.26,20.25,13.71a18.75,18.75,0,0,0,17-15.79c.36-2.61,1.35-3.26,3.77-3.19,5.09.15,10.18,0,15.42,0a28.27,28.27,0,0,1,.31,2.89C370.57,299.94,370.67,315.64,370.56,331.35Zm0-63.28H352c-1-3-1.51-6.19-3.12-8.7a24,24,0,0,0-7.14-7.36,5.77,5.77,0,0,1-3.15-5.91c.17-5.18.05-10.38.05-15.5,7.61,0,14.82-.47,21.93.15,5.74.49,9.72,5.65,9.89,11.85C370.73,250.93,370.56,259.27,370.56,268.07Z"/><path d="M115.12,294.05c16.81.26,33.64.23,50.46,0,11.47-.14,20-8.8,19.81-19.55s-8.81-18.95-20.32-19c-8.1,0-16.2,0-24.3,0-8.35,0-16.7-.06-25.05,0-11.09.1-19.69,8.22-19.86,18.62C95.67,285.33,103.62,293.87,115.12,294.05Zm.93-25.43q24.51-.11,49-.05c4.71,0,7.19,2.3,7.19,6.23s-2.46,6.13-7.22,6.17c-8.24.06-16.47,0-24.7,0v0c-8.11,0-16.22,0-24.33,0-4.48,0-7.34-2.52-7.33-6.21S111.46,268.63,116.05,268.62Z"/><path d="M203.27,198q-43.61-.06-87.22,0a9.2,9.2,0,0,0-3.29.58,6,6,0,0,0-4.17,6,5.8,5.8,0,0,0,4.26,5.92,16.61,16.61,0,0,0,4.78.56q21,.06,41.93,0c14.35,0,28.7.07,43.05-.09,2.09,0,4.89-.58,6.07-2a9,9,0,0,0,1.58-6.66C209.63,198.93,206.48,198,203.27,198Z"/><path d="M113.13,153.12a13,13,0,0,0,4.05.4q21.15,0,42.29,0h41.91c6.29,0,9.5-2.15,9.56-6.41s-3.17-6.47-9.45-6.47q-42.28,0-84.57,0a22.93,22.93,0,0,0-2.62.08,5.92,5.92,0,0,0-5.66,5.5C108.23,149.64,109.93,152,113.13,153.12Z"/><path d="M116.06,95.93q21.7,0,43.39,0,21.88,0,43.77,0c4.64,0,7.66-2.49,7.73-6.28s-3-6.44-7.56-6.44q-43.77,0-87.54,0c-4.5,0-7.2,2.42-7.25,6.27S111.38,95.92,116.06,95.93Z"/><path d="M69.63,236.53a131.51,131.51,0,0,0,14.18,0,12.82,12.82,0,0,0,12-12.82c0-2.12,0-4.23,0-6.35h0c0-2,0-4,0-6-.09-7.68-4.91-12.89-12.65-13.33a111.75,111.75,0,0,0-13.07,0c-7.59.45-12.38,5.5-12.56,13-.1,4.35-.12,8.71,0,13.06A12.54,12.54,0,0,0,69.63,236.53Zm.87-25.14H82.93v12H70.5Z"/><path d="M69.3,121.39c4.84.18,9.71.18,14.55,0a12.31,12.31,0,0,0,11.94-12c.13-4.73.12-9.46,0-14.19a12.31,12.31,0,0,0-11.93-12c-2.36-.1-4.73,0-7.09,0v0c-2.24,0-4.48,0-6.72,0-7,.18-12.23,5.17-12.46,12.22-.17,4.84-.19,9.71.06,14.55A12,12,0,0,0,69.3,121.39Zm1.19-25.21H82.84v12.2H70.49Z"/><path d="M69.7,179c4.73.13,9.46.14,14.18,0A12.57,12.57,0,0,0,95.8,166.89c.08-2.24,0-4.48,0-6.72h0c0-2.24,0-4.48,0-6.72-.11-7-5-12.34-12-12.69a144.11,144.11,0,0,0-14.55,0,12.08,12.08,0,0,0-11.66,11.8c-.2,4.85-.2,9.71,0,14.55A12.37,12.37,0,0,0,69.7,179Zm.88-25.31H82.82v12.19H70.58Z"/><path d="M152.4,236.61c4.55-.06,7.4-2.76,7.32-6.71-.08-3.78-2.78-6.21-7.33-6.23q-18.12-.1-36.26,0c-4.81,0-7.53,2.5-7.52,6.43s3,6.46,7.9,6.49c5.86,0,11.71,0,17.57,0v0C140.19,236.63,146.29,236.69,152.4,236.61Z"/><path d="M152.5,108.71c-6.1,0-12.2,0-18.3,0s-12.21,0-18.31,0c-4.44,0-7.21,2.46-7.29,6.27s2.6,6.45,7,6.47q18.5.09,37,0c4.43,0,7.12-2.56,7.09-6.42S156.93,108.75,152.5,108.71Z"/><path d="M115.43,179q18.69.09,37.37,0c4.15,0,6.81-2.54,6.89-6.25s-2.63-6.46-7-6.52c-6.1-.08-12.2,0-18.3,0v.05c-6.36,0-12.71-.07-19.06,0-4.16.07-6.77,2.64-6.74,6.38S111.35,179,115.43,179Z"/><path d="M235.38,25.64c-6-.05-12,0-17.93,0s-12.21,0-18.31,0c-4.67,0-7.47,2.51-7.45,6.47s2.62,6.29,7.17,6.32q18.31.09,36.62,0c4.59,0,7.17-2.35,7.24-6.24C242.79,28.14,240.08,25.68,235.38,25.64Z"/><path d="M102,25.65q-3-.13-6,0a6.58,6.58,0,0,0-6.67,6.23,6.51,6.51,0,0,0,6.34,6.53c1.12.09,2.24,0,3.37,0v0c1,0,2,0,3,0,4.21-.24,6.64-2.69,6.54-6.56C108.47,28.3,105.88,25.81,102,25.65Z"/><path d="M38,25.64c-1-.05-2,0-3,0-6.41,0-9.46,2-9.51,6.36s2.93,6.46,9.37,6.44c1.12,0,2.25,0,3.36,0,3.86-.24,6.53-2.82,6.57-6.29S42,25.82,38,25.64Z"/><path d="M69.2,25.63H67.33c-1,0-2,0-3,0-4.15.16-6.75,2.62-6.78,6.37s2.46,6.22,6.69,6.42c1.62.08,3.24.07,4.86,0,4.69-.06,7.6-2.5,7.61-6.36S73.81,25.71,69.2,25.63Z"/></g></g></svg>