<svg id="Layer_1" data-name="Layer 1" xmlns="http://www.w3.org/2000/svg" viewBox="0 0 160 160"><defs><style>.cls-1{fill:#fff;stroke:#f89521;stroke-miterlimit:10;}.cls-2{fill:#0c6a38;}</style></defs><circle class="cls-1" cx="80" cy="80" r="66.49"/><path class="cls-2" d="M56,67.24A25.13,25.13,0,1,0,81.08,42.11,25.13,25.13,0,0,0,56,67.24ZM81.08,45.57A21.67,21.67,0,1,1,59.42,67.24,21.67,21.67,0,0,1,81.08,45.57Z"/><path class="cls-2" d="M114.76,96.65l-13.58,6.41a11,11,0,0,0-9.43-5.82L79.22,96.9a13.28,13.28,0,0,1-5.69-1.47l-1.28-.66a22.48,22.48,0,0,0-20.84,0l.08-2.89a1.72,1.72,0,0,0-1.68-1.78l-13.74-.38a1.73,1.73,0,0,0-1.78,1.69l-.83,30.15a1.73,1.73,0,0,0,1.68,1.79l13.74.37h0a1.72,1.72,0,0,0,1.73-1.68l0-1.45,3.57-1.91a6.18,6.18,0,0,1,4.58-.5l21.32,6,.11,0a22.34,22.34,0,0,0,4.68.49,23.15,23.15,0,0,0,9.66-2.11.94.94,0,0,0,.22-.12l30.91-20a1.74,1.74,0,0,0,.57-2.31A8.74,8.74,0,0,0,114.76,96.65ZM37,120l.73-26.7L48,93.54l-.73,26.69Zm56.09-.46a19.68,19.68,0,0,1-12,1.35l-21.27-6a9.54,9.54,0,0,0-7.14.78l-1.83,1,.49-17.75a19.07,19.07,0,0,1,19.36-1l1.27.67a16.72,16.72,0,0,0,7.2,1.85l12.53.35a7.61,7.61,0,0,1,7.23,6.06l-18.67-.52a1.74,1.74,0,0,0-.1,3.47l20.6.56h0a1.73,1.73,0,0,0,1.73-1.68,11.26,11.26,0,0,0-.16-2.25l13.92-6.58,0,0a5.29,5.29,0,0,1,6,.84Z"/><path class="cls-2" d="M82.82,37.24V20.77a1.74,1.74,0,0,0-3.47,0V37.24a1.74,1.74,0,0,0,3.47,0Z"/><path class="cls-2" d="M95.81,37.24v-7.8a1.73,1.73,0,1,0-3.46,0v7.8a1.73,1.73,0,1,0,3.46,0Z"/><path class="cls-2" d="M69.82,37.24v-7.8a1.74,1.74,0,1,0-3.47,0v7.8a1.74,1.74,0,0,0,3.47,0Z"/><path class="cls-2" d="M92.44,57.29c-.65,1-1.27,2-1.9,2.91a.39.39,0,0,1-.3.12l-3.39.06h-.2a8.3,8.3,0,0,1-1,3,9,9,0,0,1-4.39,3.83,14.36,14.36,0,0,1-4.66,1.1l-.49,0s0,0-.07.05l1.21,1.49q5,6.28,10.09,12.56a.9.9,0,0,1,.21.8,1.18,1.18,0,0,1-.21,0c-1.36,0-2.72,0-4.07.07a.61.61,0,0,1-.54-.25l-6.26-7.44Q73.72,72.45,71,69.2a.44.44,0,0,1-.13-.25c0-.9,0-1.8-.07-2.7a.45.45,0,0,1,0-.11,19.28,19.28,0,0,0,4.16,0,10.23,10.23,0,0,0,4.88-1.62,5,5,0,0,0,2.19-3.89,2.25,2.25,0,0,0,0-.26H69.72l.35-.54c.52-.77,1-1.53,1.55-2.31a.43.43,0,0,1,.41-.2h9.65a3.91,3.91,0,0,0-.91-1.3,7.12,7.12,0,0,0-3.86-1.84A27.36,27.36,0,0,0,72.67,54c-.92,0-1.83,0-2.83,0l.7-1.07c.38-.58.78-1.15,1.16-1.74a.38.38,0,0,1,.38-.2h5.18l14.81-.06h.37l-1,1.61c-.26.4-.54.79-.78,1.2a.46.46,0,0,1-.47.24H84.94c.22.35.43.66.62,1a6.6,6.6,0,0,1,.9,2.2c0,.2.17.18.31.18h5.67Z"/></svg>