<svg id="Layer_1" data-name="Layer 1" xmlns="http://www.w3.org/2000/svg" viewBox="0 0 160 240"><defs><style>.cls-1{fill:#0c6a38;}.cls-2{fill:#fff;}.cls-3{fill:#8dc641;}.cls-4{fill:none;stroke:#fff;stroke-miterlimit:10;stroke-width:1.5px;}</style></defs><rect class="cls-1" x="-3.03" y="-46.07" width="166.07" height="332.13"/><path class="cls-2" d="M14.48,163.6H29.35v3H18.09v9.17h10.4v3H18.09v12.5H14.48Z"/><path class="cls-2" d="M46.48,186.45a32.51,32.51,0,0,0,.29,4.76H43.53l-.33-2.5h-.12A7.3,7.3,0,0,1,37,191.66,5.65,5.65,0,0,1,31,186c0-4.79,4.26-7.41,11.92-7.37v-.41c0-1.64-.45-4.63-4.51-4.59a9.49,9.49,0,0,0-5.2,1.48l-.82-2.42a12.76,12.76,0,0,1,6.55-1.72c6.11,0,7.58,4.14,7.58,8.11ZM43,181.09c-3.93-.08-8.4.61-8.4,4.46A3.17,3.17,0,0,0,37.92,189a5,5,0,0,0,4.87-3.32,3.53,3.53,0,0,0,.17-1.15Z"/><path class="cls-2" d="M52.26,177.57c0-2.34,0-4.35-.16-6.19h3.15l.17,3.89h.12a6,6,0,0,1,5.53-4.34,7.33,7.33,0,0,1,1,.08v3.4a10.42,10.42,0,0,0-1.23-.08c-2.54,0-4.34,1.92-4.83,4.59a11.35,11.35,0,0,0-.12,1.68v10.61H52.26Z"/><path class="cls-2" d="M65.82,176.75c0-2.09-.08-3.73-.16-5.37h3.15l.17,3.19h.12a6.86,6.86,0,0,1,6.27-3.64,5.85,5.85,0,0,1,5.57,4H81a8,8,0,0,1,2.26-2.58,6.62,6.62,0,0,1,4.34-1.39c2.66,0,6.55,1.72,6.55,8.6v11.68H90.65V180c0-3.85-1.43-6.1-4.3-6.1a4.72,4.72,0,0,0-4.3,3.23,6.24,6.24,0,0,0-.29,1.81v12.29H78.24V179.29c0-3.16-1.4-5.41-4.14-5.41a5,5,0,0,0-4.47,3.6,5.13,5.13,0,0,0-.28,1.77v12H65.82Z"/><path class="cls-2" d="M102,182c.09,4.83,3.16,6.84,6.76,6.84a12.93,12.93,0,0,0,5.49-1l.66,2.58a16.21,16.21,0,0,1-6.64,1.27c-6.06,0-9.75-4.06-9.75-10s3.57-10.69,9.34-10.69c6.48,0,8.16,5.69,8.16,9.34a8.83,8.83,0,0,1-.13,1.68Zm10.53-2.58c0-2.3-.94-5.86-4.95-5.86-3.69,0-5.25,3.36-5.53,5.86Z"/><path class="cls-2" d="M120.52,177.57c0-2.34,0-4.35-.16-6.19h3.16l.16,3.89h.12a6,6,0,0,1,5.53-4.34,7.63,7.63,0,0,1,1,.08v3.4a10.57,10.57,0,0,0-1.23-.08c-2.54,0-4.35,1.92-4.84,4.59a11.35,11.35,0,0,0-.12,1.68v10.61h-3.61Z"/><path class="cls-2" d="M133.43,187.52a10.14,10.14,0,0,0,4.79,1.39c2.59,0,3.81-1.27,3.81-2.95s-1-2.62-3.64-3.6c-3.61-1.31-5.29-3.28-5.29-5.61,0-3.2,2.63-5.82,6.85-5.82a9.19,9.19,0,0,1,4.83,1.23l-.86,2.58a8.12,8.12,0,0,0-4.06-1.15c-2.13,0-3.27,1.23-3.27,2.71s1.14,2.37,3.72,3.4c3.4,1.27,5.21,3,5.21,5.94,0,3.52-2.75,6-7.38,6a11.29,11.29,0,0,1-5.57-1.4Z"/><path class="cls-3" d="M23.81,208.18h-7v6.49h7.8v2H14.48v-18h9.76v1.95h-7.4v5.69h7Z"/><path class="cls-3" d="M27.58,207.19c0-1.36,0-2.43-.11-3.5h2.06l.11,2.08h.08a4.46,4.46,0,0,1,4.09-2.38,3.8,3.8,0,0,1,3.63,2.6h.06A5,5,0,0,1,39,204.3a4.31,4.31,0,0,1,2.83-.91c1.74,0,4.28,1.13,4.28,5.62v7.61h-2.3V209.3c0-2.51-.94-4-2.81-4a3.08,3.08,0,0,0-2.8,2.11,4.11,4.11,0,0,0-.19,1.18v8h-2.3v-7.77c0-2.06-.91-3.53-2.7-3.53a3.24,3.24,0,0,0-2.91,2.35,3.12,3.12,0,0,0-.19,1.15v7.8h-2.3Z"/><path class="cls-3" d="M49.88,207.91c0-1.66,0-3-.11-4.22h2.11l.13,2.22h.06a5,5,0,0,1,4.57-2.52c3.15,0,5.5,2.65,5.5,6.58,0,4.65-2.86,6.95-5.88,6.95a4.52,4.52,0,0,1-4-2h-.05v7H49.88Zm2.35,3.45a3.77,3.77,0,0,0,.1,1,3.6,3.6,0,0,0,3.5,2.75c2.49,0,3.93-2,3.93-5,0-2.6-1.33-4.81-3.82-4.81a3.76,3.76,0,0,0-3.58,2.91,5.94,5.94,0,0,0-.13.93Z"/><path class="cls-3" d="M70.35,216.92c-3.47,0-6.2-2.57-6.2-6.66,0-4.33,2.86-6.87,6.41-6.87,3.72,0,6.23,2.7,6.23,6.63,0,4.81-3.34,6.9-6.41,6.9Zm.11-1.77c2.24,0,3.93-2.11,3.93-5.05,0-2.19-1.1-4.94-3.88-4.94s-4,2.56-4,5c0,2.84,1.61,5,3.88,5Z"/><path class="cls-3" d="M80.51,203.69l1.74,6.55c.34,1.44.69,2.8.93,4.14h.08c.3-1.31.72-2.7,1.15-4.12l2.11-6.57h2l2,6.47c.49,1.52.86,2.91,1.15,4.22h.08a43,43,0,0,1,1-4.2l1.85-6.49h2.32l-4.17,12.93H90.58l-2-6.17a43.45,43.45,0,0,1-1.15-4.28H87.4a39.74,39.74,0,0,1-1.17,4.31l-2.09,6.14H82L78.1,203.69Z"/><path class="cls-3" d="M100.32,210.58c.05,3.16,2.05,4.47,4.41,4.47a8.5,8.5,0,0,0,3.58-.67l.43,1.68a10.47,10.47,0,0,1-4.33.83c-4,0-6.37-2.64-6.37-6.52s2.33-7,6.1-7c4.22,0,5.32,3.72,5.32,6.1a5.92,5.92,0,0,1-.08,1.09Zm6.86-1.68c0-1.5-.61-3.82-3.23-3.82-2.4,0-3.42,2.19-3.61,3.82Z"/><path class="cls-3" d="M112.37,207.72c0-1.52,0-2.83-.1-4h2l.11,2.54h.08a3.92,3.92,0,0,1,3.61-2.84,4.22,4.22,0,0,1,.64.06v2.22a6,6,0,0,0-.8-.06,3.3,3.3,0,0,0-3.16,3,7.66,7.66,0,0,0-.08,1.09v6.92h-2.35Z"/><path class="cls-3" d="M122.18,210.58c.06,3.16,2.06,4.47,4.41,4.47a8.43,8.43,0,0,0,3.58-.67l.43,1.68a10.44,10.44,0,0,1-4.33.83c-4,0-6.36-2.64-6.36-6.52s2.33-7,6.09-7c4.23,0,5.32,3.72,5.32,6.1a5.14,5.14,0,0,1-.08,1.09Zm6.87-1.68c0-1.5-.61-3.82-3.23-3.82-2.41,0-3.42,2.19-3.61,3.82Z"/><path class="cls-3" d="M145.41,197.65v15.63c0,1.15,0,2.46.11,3.34h-2.11l-.11-2.24h-.06a4.74,4.74,0,0,1-4.38,2.54c-3.13,0-5.56-2.65-5.56-6.58,0-4.33,2.68-7,5.8-7a4.28,4.28,0,0,1,3.9,2h.06v-7.7ZM143.06,209a4.34,4.34,0,0,0-.11-1,3.46,3.46,0,0,0-3.39-2.7c-2.44,0-3.88,2.14-3.88,5,0,2.65,1.31,4.81,3.82,4.81a3.56,3.56,0,0,0,3.45-2.83,3.8,3.8,0,0,0,.11-1Z"/><path class="cls-4" d="M15.1,88.07V83.5L21,77.82C35,64.45,41.44,57.33,41.44,49c0-5.59-2.63-10.76-10.84-10.76-5,0-9.15,2.54-11.69,4.66l-2.37-5.25A24.47,24.47,0,0,1,32.12,32.1c11.77,0,16.77,8.13,16.77,16,0,10.16-7.37,18.38-19,29.55L25.6,81.72v.17H50.24v6.18Z"/><path class="cls-4" d="M91.39,39.3h-21L68.27,53.44a29.37,29.37,0,0,1,4.49-.34,23,23,0,0,1,11.85,3c4.32,2.37,7.88,7.2,7.88,14.14C92.49,81,83.94,89,72,89a27.14,27.14,0,0,1-13.72-3.39l1.86-5.67A24.83,24.83,0,0,0,72,83c6.94,0,13-4.57,13-12,0-7-4.82-12.11-15.75-12.11a45.83,45.83,0,0,0-7.7.59L65.06,33H91.39Z"/><path class="cls-4" d="M104.59,31H112V58.52h.25c1.53-2.2,3.05-4.24,4.49-6.1L134.14,31h9.15L122.63,55.22,144.9,88.07h-8.73L117.46,60,112,66.31V88.07h-7.37Z"/></svg>