<svg id="Layer_1" data-name="Layer 1" xmlns="http://www.w3.org/2000/svg" viewBox="0 0 160 160"><defs><style>.cls-1{fill:#fff;}.cls-2{opacity:0.4;}.cls-3{fill:#007500;}</style></defs><circle class="cls-1" cx="80" cy="80" r="66.49"/><g class="cls-2"><path class="cls-3" d="M71.5,44.75a2.64,2.64,0,0,1,1.65,1.6q1.71,4,3.41,8.09c.28.68.16.89-.64,1.22s-1,.27-1.31-.42l-2.68-6.4a1.39,1.39,0,0,0-.23-.49,2.36,2.36,0,0,0-.6-.28,1.76,1.76,0,0,0-.22.63,1.79,1.79,0,0,0,.23.63Q75,58.63,78.92,68c.4.94.33,1.07-.6,1.47-1.57.68-1.51.72-2.18-.91q-2.07-5-4.16-10c-.16-.39-.26-1-.86-.8s-.21.81-.05,1.2c1.47,3.56,3,7.11,4.44,10.66.32.78.26.88-.49,1.2-.32.14-.65.26-1,.41-.52.26-.83.12-1.06-.41-1.09-2.67-2.21-5.33-3.32-8Q67.32,57.13,65,51.47c-.13-.33-.31-.72-.73-.52s-.23.58-.09.91C65,54,66,56.2,66.84,58.38c.12.3.18.86,0,1a3.78,3.78,0,0,1-1.37.56c-.13,0-.41-.26-.5-.46q-1.69-4-3.36-8.11a3.28,3.28,0,0,1,2-4.55c1.69-.61,3.34-1.35,5-2.07A3.33,3.33,0,0,1,71.5,44.75Z"/><path class="cls-3" d="M75.18,106.86q-1.94,4.74-3.89,9.48a1.88,1.88,0,0,0-.19.58.57.57,0,0,0,.22.44.48.48,0,0,0,.47-.1,2.06,2.06,0,0,0,.4-.67c.89-2.14,1.76-4.28,2.64-6.42.31-.75.48-.81,1.27-.5s1,.59.71,1.3c-.94,2.32-1.88,4.63-2.85,6.93a11,11,0,0,1-1,1.89,3,3,0,0,1-3.63,1.08c-1.84-.74-3.67-1.5-5.51-2.25a3.34,3.34,0,0,1-2-4.56c1.06-2.65,2.15-5.27,3.23-7.9.25-.62.48-.7,1.1-.46.15,0,.3.13.45.19.54.2.64.54.42,1.06-.9,2.15-1.78,4.32-2.66,6.48-.16.38-.49.89.07,1.11s.66-.39.81-.77q3.87-9.42,7.73-18.86c.37-.91.45-.94,1.36-.56a8.93,8.93,0,0,0,.85.35c.56.18.65.5.42,1q-2.19,5.3-4.36,10.62a3.37,3.37,0,0,0-.27.87.6.6,0,0,0,.27.48.58.58,0,0,0,.52-.15,2.43,2.43,0,0,0,.43-.73l4.34-10.56c.33-.83.39-.85,1.22-.51l.86.34c.71.28.77.43.48,1.16l-.79,1.93-3.15,7.67Z"/><path class="cls-3" d="M43.65,92.66a2.48,2.48,0,0,1,1.48-1.53l8.32-3.5a.67.67,0,0,1,1,.41l.15.4c.27.71.2.89-.49,1.18L47.7,92.3c-.38.16-1,.27-.75.84s.75.2,1.11,0l18.79-7.88c.93-.39,1-.34,1.42.59.11.24.21.49.31.73.28.69.19.9-.48,1.17-3.58,1.48-7.15,3-10.72,4.45-.37.16-1,.26-.78.87s.82.21,1.21,0Q63.06,91,68.29,88.79c.94-.39,1-.34,1.45.62a.37.37,0,0,1,.05.11c.6,1.41.6,1.41-.79,2L50.63,99.14a2.49,2.49,0,0,0-.65.33c-.12.11-.25.41-.19.5a.74.74,0,0,0,.53.27,1.47,1.47,0,0,0,.58-.19c2.13-.89,4.26-1.8,6.4-2.67.29-.11.84-.16.94,0a4.37,4.37,0,0,1,.57,1.43c0,.1-.26.35-.45.43q-4,1.69-8,3.35a3.17,3.17,0,0,1-3.51-.38,3.33,3.33,0,0,1-.91-1.2c-.82-1.84-1.58-3.69-2.34-5.55A3.13,3.13,0,0,1,43.65,92.66Z"/><path class="cls-3" d="M87.94,58.5l3.84-9.37a1.52,1.52,0,0,0,.19-.51,2.5,2.5,0,0,0-.2-.64c-.19.08-.43.1-.57.24a1.45,1.45,0,0,0-.31.59l-2.64,6.41c-.3.75-.38.78-1.15.47l-.45-.19a.63.63,0,0,1-.41-1c1-2.53,2.05-5.09,3.15-7.59a6.07,6.07,0,0,1,1.47-2.06A2.93,2.93,0,0,1,94,44.55c2,.82,4,1.65,5.91,2.54a3.12,3.12,0,0,1,1.46,3.68c-1.13,2.87-2.32,5.72-3.48,8.57-.18.45-.47.6-.92.38l-.28-.11c-.86-.35-.92-.49-.58-1.33L98.69,52c.07-.17.21-.35.19-.51a3,3,0,0,0-.28-.67,2.18,2.18,0,0,0-.57.35,1.44,1.44,0,0,0-.23.5Q94,61,90.11,70.45c-.37.89-.55,1-1.43.61-1.65-.66-1.59-.56-.92-2.17,1.37-3.33,2.75-6.65,4.11-10a2.35,2.35,0,0,0,.2-.82.41.41,0,0,0-.72-.31,2.56,2.56,0,0,0-.45.72L86.55,69.11c-.34.81-.49.87-1.29.55-1.79-.71-1.66-.62-1-2.3q1.83-4.43,3.64-8.86Z"/><path class="cls-3" d="M101.51,116.76a3.21,3.21,0,0,1-1.7,1.64c-1.91.79-3.83,1.57-5.73,2.38a3.46,3.46,0,0,1-4-1.54q-1.8-4.24-3.59-8.49a.61.61,0,0,1,.4-.92c.17-.07.35-.13.51-.21.55-.26.87-.08,1.1.47q1.32,3.24,2.7,6.45c.15.37.25,1,.82.75s.22-.74.06-1.12L84.18,97.43c-.41-1-.35-1.1.61-1.5,1.74-.75,1.53-.54,2.13.89,1.39,3.3,2.76,6.61,4.14,9.92a2.44,2.44,0,0,0,.36.7.66.66,0,0,0,.55.21.63.63,0,0,0,.27-.53,2.77,2.77,0,0,0-.28-.87L87.63,95.89c-.37-.89-.32-1,.56-1.38,1.59-.68,1.6-.68,2.25.9L98,113.55a2,2,0,0,0,.29.6,2,2,0,0,0,.58.31,2.54,2.54,0,0,0,.23-.67,1.41,1.41,0,0,0-.21-.57c-.88-2.12-1.77-4.23-2.65-6.35-.33-.78-.25-.89.79-1.33.68-.28.87-.2,1.17.51,1,2.53,2.11,5.06,3.15,7.6A3.6,3.6,0,0,1,101.51,116.76Z"/><path class="cls-3" d="M119.47,72.64a2.58,2.58,0,0,1-1.63,1.68l-8.09,3.41c-.64.26-.82.18-1.08-.45a1.22,1.22,0,0,0-.07-.17c-.39-1-.35-1,.63-1.45l5-2.09a12,12,0,0,0,1.52-.66c.2-.12.29-.45.43-.68a2.52,2.52,0,0,0-.74-.16,2.33,2.33,0,0,0-.69.26L96.34,80.05c-.19.08-.39.23-.57.21s-.6-.1-.7-.28a10.2,10.2,0,0,1-.67-1.51c-.16-.46.12-.68.5-.84L98,76.35c2.6-1.08,5.21-2.16,7.81-3.26.37-.15,1-.26.74-.83s-.73-.25-1.12-.09L94.8,76.6c-.93.39-1,.34-1.43-.57-.71-1.69-.76-1.53.9-2.22l18.42-7.67a1.23,1.23,0,0,0,.51-.32.56.56,0,0,0,.06-.49.47.47,0,0,0-.38-.2,1.82,1.82,0,0,0-.64.19c-2.16.89-4.31,1.8-6.46,2.7-.81.34-.92.28-1.3-.62s-.33-1,.48-1.36q3.89-1.62,7.77-3.21a3.34,3.34,0,0,1,2.85-.07,3.11,3.11,0,0,1,1.67,1.69c.73,1.78,1.46,3.56,2.23,5.32A3.22,3.22,0,0,1,119.47,72.64Z"/><path class="cls-3" d="M103.18,95.06,93.7,91.18c-.82-.34-.88-.51-.55-1.35.7-1.79.74-1.53,2.24-.92,3.35,1.37,6.7,2.75,10,4.11.38.16.88.51,1.12,0s-.36-.75-.75-.91c-3.51-1.46-7-2.89-10.56-4.34-1-.4-1-.51-.62-1.5.61-1.49.61-1.49,2.08-.89L103.07,88l11.94,5a2.42,2.42,0,0,0,.83.21c.14,0,.4-.15.41-.26a.73.73,0,0,0-.22-.5,1.2,1.2,0,0,0-.44-.21c-2.15-.88-4.32-1.76-6.46-2.67-.31-.13-.75-.5-.73-.69a4.1,4.1,0,0,1,.63-1.42c0-.09.43,0,.62,0,2.84,1.17,5.68,2.32,8.5,3.54A3.11,3.11,0,0,1,119.71,95q-1.11,2.73-2.24,5.45a3.36,3.36,0,0,1-4.5,1.89l-7.84-3.2c-.76-.31-.86-.54-.57-1.26.38-.92.59-1,1.4-.69l6.36,2.6a1.37,1.37,0,0,0,.52.19c.2,0,.49-.09.56-.23a.7.7,0,0,0-.19-.57,1.65,1.65,0,0,0-.59-.3l-9.43-3.87Z"/><path class="cls-3" d="M57.41,76.3,48,72.43l-.11,0c-.36-.14-.82-.4-1,.09s.3.64.66.79L54.1,76c.75.31.78.44.37,1.45-.28.7-.49.8-1.16.52-2.58-1-5.15-2.1-7.72-3.18C43.71,74,42.92,72.68,43.21,71a3,3,0,0,1,.2-.64c.74-1.82,1.53-3.62,2.21-5.46A3.54,3.54,0,0,1,50,63c2.65,1.18,5.38,2.21,8.07,3.31.72.29.78.53.44,1.35s-.52.82-1.21.54l-6.42-2.63c-.39-.16-.92-.44-1.14.06s.36.74.76.9l18.8,7.69c1,.41,1,.41.59,1.38-.12.3-.24.61-.37.9-.22.5-.54.59-1,.38-3.64-1.53-7.28-3-10.92-4.56a1,1,0,0,0-.47-.11c-.18,0-.46.11-.5.22a.68.68,0,0,0,.14.58,1.68,1.68,0,0,0,.63.35L68,77.67c.81.33.86.44.54,1.23-.75,1.83-.44,1.78-2.34,1L57.4,76.32Z"/><path class="cls-3" d="M100.35,123.24a2.36,2.36,0,1,1-1.29-3.09A2.36,2.36,0,0,1,100.35,123.24Z"/><path class="cls-3" d="M64.33,124.67A2.36,2.36,0,0,1,63,121.58a2.4,2.4,0,1,1,1.31,3.09Z"/><path class="cls-3" d="M97,45.12a2.4,2.4,0,0,1,1.75-4.48A2.4,2.4,0,1,1,97,45.12Z"/><path class="cls-3" d="M39.69,98.43a2.36,2.36,0,1,1,4.37,1.79,2.35,2.35,0,0,1-3.09,1.3A2.29,2.29,0,0,1,39.69,98.43Z"/><path class="cls-3" d="M64.05,45.2a2.36,2.36,0,0,1,1.78-4.38,2.36,2.36,0,1,1-1.78,4.38Z"/><path class="cls-3" d="M42.62,64.2a2.27,2.27,0,0,1,1.31,3.06,2.31,2.31,0,0,1-3.07,1.32,2.34,2.34,0,0,1-1.32-3.08A2.31,2.31,0,0,1,42.62,64.2Z"/><path class="cls-3" d="M119.19,98.11a2.23,2.23,0,0,1,3.06-1.28,2.32,2.32,0,0,1,1.3,3.08,2.36,2.36,0,0,1-3.1,1.29A2.29,2.29,0,0,1,119.19,98.11Z"/><path class="cls-3" d="M120.35,68.27A2.36,2.36,0,1,1,123.42,67,2.29,2.29,0,0,1,120.35,68.27Z"/></g><path class="cls-3" d="M57.88,51.39a2.68,2.68,0,0,1,2.13.86l6.22,6.19c.52.52.49.77-.12,1.38s-.85.63-1.38.1L59.83,55c-.13-.13-.25-.31-.41-.37a2.4,2.4,0,0,0-.66,0,2.05,2.05,0,0,0,0,.66c.08.19.3.33.45.49l14.3,14.27c.72.72.71.87,0,1.59-1.2,1.22-1.13,1.24-2.37,0q-3.8-3.84-7.62-7.66c-.3-.29-.64-.86-1.1-.41s.11.83.41,1.13Q66.92,68.8,71,72.87c.6.6.58.72,0,1.3-.24.25-.51.48-.74.74-.38.43-.72.43-1.13,0L63,68.79,54.37,60.1c-.26-.26-.57-.55-.88-.21s0,.63.26.88c1.66,1.67,3.34,3.32,5,5,.23.23.49.73.39.91a3.47,3.47,0,0,1-1,1c-.11.08-.48-.08-.63-.23q-3.11-3.1-6.19-6.24a3.27,3.27,0,0,1,.15-5c1.33-1.21,2.57-2.52,3.83-3.81A3.34,3.34,0,0,1,57.88,51.39Z"/><path class="cls-3" d="M84.83,107.47v10.25a1.75,1.75,0,0,0,0,.61.55.55,0,0,0,.37.33.51.51,0,0,0,.4-.27,2.27,2.27,0,0,0,.11-.78c0-2.31,0-4.63,0-6.94,0-.81.13-.93,1-.94s1.16.16,1.16.93c0,2.5,0,5,0,7.49a11.74,11.74,0,0,1-.21,2.13,3,3,0,0,1-3,2.38c-2,0-4,0-6,0a3.34,3.34,0,0,1-3.54-3.48c0-2.84,0-5.69,0-8.53,0-.67.17-.83.84-.84.16,0,.33,0,.49,0,.58,0,.79.26.79.83,0,2.33,0,4.67,0,7,0,.41-.11,1,.49,1s.46-.61.46-1V97.24c0-1,.06-1,1-1,.3,0,.61,0,.92,0,.59,0,.78.22.78.79,0,3.83,0,7.66,0,11.49a3.36,3.36,0,0,0,.08.9.58.58,0,0,0,.43.35.59.59,0,0,0,.43-.33,2.63,2.63,0,0,0,.12-.84c0-3.81,0-7.61,0-11.42,0-.9,0-.94.94-.94H84c.76,0,.88.11.88.89s0,1.4,0,2.09v8.29Z"/><path class="cls-3" d="M50.27,106.29a2.45,2.45,0,0,1,.79-2l6.37-6.39a.67.67,0,0,1,1.07,0l.29.32c.52.56.52.74,0,1.28-1.63,1.63-3.27,3.26-4.9,4.91-.29.28-.8.61-.37,1s.76-.1,1-.37q7.22-7.2,14.4-14.42c.71-.71.83-.71,1.54,0l.56.57c.52.53.51.76,0,1.27q-4.12,4.08-8.23,8.17c-.29.29-.87.64-.4,1.1s.84-.11,1.15-.41q4-4,8-8c.72-.72.84-.72,1.58,0l.09.08c1.09,1.08,1.09,1.08,0,2.14l-14.1,14a2.5,2.5,0,0,0-.48.55c-.07.15-.08.47,0,.54a.73.73,0,0,0,.6,0,1.65,1.65,0,0,0,.46-.39c1.63-1.64,3.26-3.28,4.91-4.9.22-.21.71-.47.87-.37a4.4,4.4,0,0,1,1.07,1.12c.06.08-.11.42-.26.56-2.05,2.06-4.1,4.12-6.17,6.15a3.17,3.17,0,0,1-3.4,1,3.41,3.41,0,0,1-1.3-.76c-1.45-1.39-2.85-2.82-4.27-4.25A3.15,3.15,0,0,1,50.27,106.29Z"/><path class="cls-3" d="M78.3,57.89V47.76a1.38,1.38,0,0,0,0-.54,2.59,2.59,0,0,0-.42-.52c-.16.14-.37.26-.45.44a1.79,1.79,0,0,0-.06.66v6.94c0,.8-.07.86-.89.86H76c-.53,0-.75-.25-.75-.74,0-2.74,0-5.48,0-8.22a5.92,5.92,0,0,1,.58-2.46,2.9,2.9,0,0,1,2.78-1.49c2.14,0,4.29,0,6.43.1a3.1,3.1,0,0,1,2.74,2.85c0,3.09,0,6.17,0,9.26,0,.48-.22.72-.71.7h-.31c-.92,0-1-.1-1-1V47.78a1.24,1.24,0,0,0,0-.55,2.46,2.46,0,0,0-.51-.51,2.84,2.84,0,0,0-.39.54,1.38,1.38,0,0,0,0,.54q0,10.17,0,20.32c0,1-.15,1.1-1.09,1.11-1.79,0-1.68.08-1.68-1.66q0-5.4,0-10.8a2.67,2.67,0,0,0-.12-.84.42.42,0,0,0-.8,0,2.63,2.63,0,0,0-.13.84c0,3.82,0,7.65,0,11.47,0,.88-.12,1-1,1-1.93,0-1.77,0-1.76-1.76V57.89Z"/><path class="cls-3" d="M113,106.65a3.19,3.19,0,0,1-1,2.16c-1.46,1.46-2.94,2.9-4.39,4.37a3.44,3.44,0,0,1-4.33.11l-6.54-6.48a.62.62,0,0,1,0-1c.13-.13.27-.26.39-.39.41-.45.77-.4,1.19,0q2.46,2.49,5,4.95c.28.28.6.82,1,.37s-.08-.76-.37-1L89.58,95.34c-.75-.75-.73-.89,0-1.63,1.34-1.35,1.21-1.07,2.32,0,2.53,2.53,5,5.08,7.58,7.61a2.67,2.67,0,0,0,.6.52.67.67,0,0,0,.59,0,.64.64,0,0,0,.06-.59,3,3,0,0,0-.59-.7l-7.94-8c-.68-.68-.68-.81,0-1.49,1.22-1.23,1.22-1.23,2.43,0L108.46,105a1.89,1.89,0,0,0,.49.45,2,2,0,0,0,.66.07,2.45,2.45,0,0,0,0-.72c-.06-.17-.26-.3-.41-.45l-4.86-4.86c-.59-.6-.57-.73.23-1.53.52-.51.73-.52,1.27,0,1.94,1.94,3.88,3.88,5.8,5.83A3.61,3.61,0,0,1,113,106.65Z"/><path class="cls-3" d="M112.84,59a2.6,2.6,0,0,1-.87,2.17q-3.09,3.12-6.2,6.22c-.49.49-.68.47-1.17,0l-.12-.13c-.73-.73-.73-.83,0-1.58l3.82-3.82a14.34,14.34,0,0,0,1.16-1.18c.14-.19.1-.53.14-.8a2.62,2.62,0,0,0-.75.14,2.08,2.08,0,0,0-.53.5L94.24,74.64c-.14.15-.27.36-.44.41s-.6.14-.76,0a9.22,9.22,0,0,1-1.19-1.15c-.33-.36-.15-.67.14-1l2.35-2.34,6-6c.28-.28.8-.61.36-1s-.77,0-1.07.34L91.51,72c-.71.72-.84.71-1.54,0-1.3-1.29-1.28-1.13,0-2.4L104.1,55.57a1.35,1.35,0,0,0,.35-.48.56.56,0,0,0-.13-.48.49.49,0,0,0-.43,0,2.34,2.34,0,0,0-.52.42l-5,5c-.63.62-.75.61-1.44-.08s-.69-.83-.07-1.44c2-2,4-4,6-5.92a3.32,3.32,0,0,1,2.6-1.14,3.13,3.13,0,0,1,2.19.93c1.35,1.37,2.7,2.74,4.08,4.08A3.24,3.24,0,0,1,112.84,59Z"/><path class="cls-3" d="M106.27,85.94H96c-.89,0-1-.14-1-1,0-1.92.11-1.7,1.72-1.7h10.86c.41,0,1,.13,1-.47s-.62-.56-1-.56c-3.8,0-7.61,0-11.41,0C95.09,82.15,95,82.07,95,81c0-1.61,0-1.61,1.59-1.61h6.87l13,.08a2.62,2.62,0,0,0,.84-.11c.13-.05.31-.3.28-.4a.74.74,0,0,0-.39-.39,1.27,1.27,0,0,0-.48,0c-2.34,0-4.67,0-7,0-.33,0-.88-.18-.93-.37a4,4,0,0,1,0-1.54c0-.11.38-.22.58-.22,3.07,0,6.14,0,9.21,0a3.11,3.11,0,0,1,3,3.19v5.9A3.37,3.37,0,0,1,118.1,89h-8.47c-.82,0-1-.18-1-1,0-1,.15-1.17,1-1.17h6.87a1.24,1.24,0,0,0,.55,0c.18-.08.42-.27.43-.42s-.21-.38-.39-.45a1.6,1.6,0,0,0-.66-.06H106.27Z"/><path class="cls-3" d="M56.8,85.93H46.48c-.38,0-.9-.05-.9.47s.52.48.91.48h7.12c.82,0,.89.1.9,1.2,0,.74-.16.92-.88.92-2.79,0-5.57,0-8.35,0-2,0-3.26-.91-3.64-2.6a3,3,0,0,1-.06-.67c0-2,.05-3.93,0-5.89a3.52,3.52,0,0,1,3.29-3.43c2.91.09,5.81,0,8.72,0,.78,0,.93.2.92,1.09s-.16,1-.91,1H46.64c-.42,0-1-.07-1,.49s.61.54,1,.54H67c1.07,0,1.07,0,1.07,1,0,.32,0,.65,0,1,0,.54-.27.74-.81.74l-11.84-.08a1,1,0,0,0-.48.08c-.15.09-.38.27-.37.39a.69.69,0,0,0,.34.49,1.72,1.72,0,0,0,.72.08H67.07c.88,0,1,.08,1,.94,0,2,.27,1.81-1.79,1.81H56.8Z"/><path class="cls-3" d="M114.33,113.09a2.36,2.36,0,1,1-2.37-2.38A2.39,2.39,0,0,1,114.33,113.09Z"/><path class="cls-3" d="M81.54,128.06a2.35,2.35,0,0,1-2.38-2.35,2.41,2.41,0,1,1,2.38,2.35Z"/><path class="cls-3" d="M81.58,42.08a2.41,2.41,0,0,1-.07-4.81,2.41,2.41,0,1,1,.07,4.81Z"/><path class="cls-3" d="M48.79,113.13a2.37,2.37,0,1,1,2.36,2.38A2.31,2.31,0,0,1,48.79,113.13Z"/><path class="cls-3" d="M51.15,54.64a2.37,2.37,0,0,1,0-4.73,2.37,2.37,0,1,1,0,4.73Z"/><path class="cls-3" d="M38.53,80.35a2.24,2.24,0,0,1,2.36,2.33,2.31,2.31,0,0,1-2.34,2.39,2.34,2.34,0,0,1-2.38-2.36A2.3,2.3,0,0,1,38.53,80.35Z"/><path class="cls-3" d="M122.23,82.69a2.23,2.23,0,0,1,2.35-2.34A2.33,2.33,0,0,1,127,82.71a2.37,2.37,0,0,1-2.39,2.36A2.3,2.3,0,0,1,122.23,82.69Z"/><path class="cls-3" d="M112,54.64a2.37,2.37,0,1,1,2.34-2.38A2.29,2.29,0,0,1,112,54.64Z"/></svg>