<svg id="Layer_1" data-name="Layer 1" xmlns="http://www.w3.org/2000/svg" viewBox="0 0 160 160"><defs><style>.cls-1{fill:#fff;}.cls-2{fill:#34c572;}.cls-3{fill:#1e4d36;}</style></defs><circle class="cls-1" cx="80" cy="80" r="66.49"/><polygon class="cls-2" points="70.08 78.64 70.08 78.64 70.08 78.64 70.08 78.64"/><polygon class="cls-2" points="66.67 67.97 66.68 67.97 66.68 67.96 66.67 67.97"/><polygon class="cls-2" points="63.54 84.54 63.54 84.54 63.54 84.53 63.54 84.54"/><polygon class="cls-2" points="92.77 97.76 92.74 97.74 92.74 97.74 92.77 97.76"/><polygon class="cls-2" points="90.34 78.64 90.34 78.64 90.33 78.64 90.34 78.64"/><path class="cls-2" d="M96.94,86.15c0-.54,0-1.08-.06-1.62l-1.83,0-.27,0a30.26,30.26,0,0,0-4.54.74,17.13,17.13,0,0,0-5.44,2.54h0a16,16,0,0,0-2.65,3.09c-.47.79-.85,1.61-1.34,2.44V84.21a.17.17,0,0,1,0-.14V82.64c-.12-.54.06-.77.64-.71a7.76,7.76,0,0,0,1.18,0h.2a.36.36,0,0,1,.37-.08l.43,0a.74.74,0,0,1,.58-.12l.21,0,.21-.08.42-.06a15.4,15.4,0,0,0,3.89-1.78l1.4-1.06a14.78,14.78,0,0,0,2.41-3.87h0l.69-2.57.06-.26a.78.78,0,0,1,.11-.58l.06-1a1.08,1.08,0,0,1,.08-.73V68a10.06,10.06,0,0,0-3,0c-.28,0-.56,0-.84,0l-.27,0-1.72.42-.13.06a10.19,10.19,0,0,0-6.93,6.11,23.61,23.61,0,0,1-.07-3.32v-.72l0-.42V67.65c0-.44,0-.88,0-1.32a.49.49,0,0,1,.38-.57,1.71,1.71,0,0,1,.67-.74v0l1.77-2.64h0a18.84,18.84,0,0,0,1.15-3.42l0-.71v-.56l0-1a18.84,18.84,0,0,0-1.15-3.42h0a20.49,20.49,0,0,0-2.87-3.75c-.41-.41-.67-.41-1.08,0a19.73,19.73,0,0,0-2.87,3.75h0a17.14,17.14,0,0,0-1.13,3.42l-.06.85v.56l.06.85a17.67,17.67,0,0,0,1.13,3.43h0L78.56,65l0,0c.56.52,1.28,1,1,1.91v7.49a30.86,30.86,0,0,0-1.75-2.68h0a11.61,11.61,0,0,0-5.2-3.15l-.13-.06-1.72-.42-.28,0A19.52,19.52,0,0,0,66.68,68c0,.7,0,1.41,0,2.11l0,.29a.12.12,0,0,1,0,.13l0,.58a1.68,1.68,0,0,1,.13.86l.07.27a16.49,16.49,0,0,0,1.88,4.93v0l1.22,1.48a14,14,0,0,0,5.28,2.84l.43.07.21.07.21,0a4.89,4.89,0,0,1,1.37.26.13.13,0,0,1,.2,0l.91,0c1,0,1,0,.91,1v1.14a.12.12,0,0,1,0,.14v9.13c-.19,0-.2-.17-.25-.3a12.41,12.41,0,0,0-3.57-5,1.37,1.37,0,0,1-.17-.23h0a19,19,0,0,0-5.4-2.57l-.28-.06a26.36,26.36,0,0,0-6.39-.64A19.75,19.75,0,0,0,64,90.43c0,.17.05.33.07.49l0,.2.1.22,0,.29c.29.74.55,1.5.87,2.23a11.86,11.86,0,0,0,5.6,6,4.65,4.65,0,0,1,.52.34h0a23.84,23.84,0,0,0,4.67,1.38s.09.1.14.15l.29,0,2.87.21c.33,0,.5.12.4.47v6.85l0,1.7h1.16l0-1.84v-6.71c-.11-.5.2-.48.54-.44l.27,0c.92-.11,1.83-.2,2.74-.33a17,17,0,0,0,4.57-1.33,2.79,2.79,0,0,1,.34-.09h0a23.22,23.22,0,0,0,3.44-2.39h0a16.25,16.25,0,0,0,3.44-6.11l0-.29.08-.22.06-.2A28.25,28.25,0,0,0,96.94,86.15Zm-13.14-14a10.94,10.94,0,0,1,6.52-2.91c.59-.08,1.18-.1,1.77-.16.33,0,.51.07.48.43a14.11,14.11,0,0,1-2,6.84A9.72,9.72,0,0,1,84,80.47a9.37,9.37,0,0,1-2.25.27c1.15-1,1.89-2.27,3.45-2.56a23.49,23.49,0,0,0,3.11-1c.35-.12.7-.31.57-.75s-.49-.49-.92-.37a10.87,10.87,0,0,1-2.13.62l2.11-2.12c.75-.76,1.51-1.52,2.27-2.27.3-.3.48-.64.12-1s-.68-.13-1,.16q-3.81,3.85-7.62,7.68c-.26.27-.55.51-.92.86C81.07,77,81.73,74.24,83.8,72.14ZM79.54,99.67c-.06.07-.19-.06-.23-.17L79,99.22l-.14-.13-.15-.15-.16-.14-9.77-9.74a2.2,2.2,0,0,0-.31-.3.6.6,0,0,0-.84,0,.54.54,0,0,0,0,.82c.44.47.9.92,1.36,1.37l4.71,4.65-.1.15-3.34-1.09a.55.55,0,0,0-.76.32c-.17.36.06.58.34.75a1.33,1.33,0,0,0,.33.13c1.53.52,3.05,1.06,4.59,1.52a3.85,3.85,0,0,1,1.78,1.11c.62.68,1.31,1.31,2,2a4.16,4.16,0,0,1-1.87-.06,14.37,14.37,0,0,1-8-3.41A13.27,13.27,0,0,1,65,89.3a19.2,19.2,0,0,1-.33-3.12c0-.37.1-.52.48-.5a19.11,19.11,0,0,1,8,2,10.58,10.58,0,0,1,5.16,5.84.3.3,0,0,1,.11.29v0a.21.21,0,0,1,.11.25l.05.16a1.19,1.19,0,0,1,.25.7l0,.27a.54.54,0,0,1,.13.44.1.1,0,0,1,0,.1l.06.19,0,.3a2.62,2.62,0,0,1,.24,1l0,.44a3,3,0,0,1,.15,1.26v.15A.53.53,0,0,1,79.54,99.67Zm-1.49-21.2q-3.49-3.51-7-7c-.3-.3-.64-.49-1-.14s-.16.7.15,1l.15.15L73.93,76c.18.18.35.38.52.57l-.06.13c-.61-.19-1.21-.38-1.82-.59-.41-.14-.83-.2-1,.32s.24.66.6.79c1.08.37,2.15.77,3.25,1a3.77,3.77,0,0,1,2.08,1.25c.33.4.7.77,1.14,1.25a11.44,11.44,0,0,1-3-.45c-4.5-1.14-6.82-4.2-7.54-8.64-.11-.68-.17-1.37-.25-2.05,0-.27,0-.55.37-.53,3.42.16,6.62,1,8.93,3.69a10.82,10.82,0,0,1,2.32,5.88c0,.4.12.79.19,1.3A8.86,8.86,0,0,1,78.05,78.47Zm2.11-25.23a.56.56,0,0,0-.53.57,4.17,4.17,0,0,0,0,.5c0,3.16,0,6.32,0,9.48v.33c-1.66-1.9-2.91-4-2.83-6.54a10.17,10.17,0,0,1,2.47-5.87c.92-1.2,1-1.2,1.87,0,1.48,1.92,2.63,4,2.48,6.51a10.66,10.66,0,0,1-2.78,6.09,5.45,5.45,0,0,1,.51-3.48c.5-.8.87-1.69,1.3-2.53.19-.38.27-.76-.18-1s-.7.08-.88.46A6.31,6.31,0,0,1,80.79,59V54.38a3.43,3.43,0,0,0,0-.64A.56.56,0,0,0,80.16,53.24ZM91.87,96.85a13.8,13.8,0,0,1-8,3.62,6.77,6.77,0,0,1-2,.12c1.47-1.49,2.68-3.1,4.83-3.56a36.41,36.41,0,0,0,3.59-1.14l.26-.11c.3-.15.54-.37.4-.73a.56.56,0,0,0-.8-.35c-1.09.37-2.2.72-3.3,1.07l-.15-.19c1.06-1,2.14-2,3.2-3.06.9-.87,1.79-1.77,2.67-2.66.31-.31.69-.66.24-1.08s-.77-.09-1.09.24L81.4,99.25a1.52,1.52,0,0,1-.6.46c.33-3.66,1.09-7.11,3.64-9.87a13.21,13.21,0,0,1,7.5-3.77,32,32,0,0,1,3.25-.38c.29,0,.61-.07.59.38C95.61,90.08,94.81,93.87,91.87,96.85Z"/><polygon class="cls-2" points="81.17 65.76 81.17 65.76 81.17 65.77 81.17 65.76"/><polygon class="cls-2" points="96.88 84.52 96.88 84.53 96.88 84.53 96.88 84.52"/><path class="cls-3" d="M80,138.78a12.76,12.76,0,0,1-6.14-1.47c-1.34-.69-1.79-1.74-1.24-2.81s1.62-1.31,3-.62a9.45,9.45,0,0,0,13.7-6.71,7.06,7.06,0,0,0-.06-3.45c-.29-.91,0-1.15.87-1.35a43.1,43.1,0,0,0,18.75-9.74c.62-.54.78-.84.16-1.59a13.28,13.28,0,0,1,3.21-19.48,2.1,2.1,0,0,1,2.67-.12c1.11.88.92,2.39-.44,3.27a9.46,9.46,0,0,0,.16,16.19c.72.44.8.63.2,1.26a47.14,47.14,0,0,1-20.3,13,1.52,1.52,0,0,0-1.3,1.54A13.18,13.18,0,0,1,80,138.78Z"/><path class="cls-3" d="M32.57,80a48.19,48.19,0,0,1,1.17-10.23,1.16,1.16,0,0,0-.57-1.49,13.26,13.26,0,0,1-.27-21.81,6.82,6.82,0,0,1,1.29-.78,1.9,1.9,0,0,1,2,3.13,4.09,4.09,0,0,1-.75.54,9.1,9.1,0,0,0-4.24,8.94,9,9,0,0,0,6.5,8c.81.27.77.55.57,1.21a43.27,43.27,0,0,0-1,21.32c.17.84.41,1,1.28.86a13.25,13.25,0,0,1,15.28,12.6c0,1.52-.63,2.39-1.85,2.42s-1.87-.72-2-2.21c-.56-7.4-7.71-11.33-14.24-7.78-.79.43-.86.06-1-.52A48.94,48.94,0,0,1,32.57,80Z"/><path class="cls-3" d="M44.6,48.56A47.55,47.55,0,0,1,60.4,36.88a37.1,37.1,0,0,1,5.2-2,1.36,1.36,0,0,0,1.16-1.4A13.29,13.29,0,0,1,86.05,22.71,2.47,2.47,0,0,1,87.46,24,1.82,1.82,0,0,1,87,26.12a1.9,1.9,0,0,1-2.36.17,9.43,9.43,0,0,0-13.8,10.19c.18.83-.07,1-.81,1.18A43.39,43.39,0,0,0,51,47.51c-.59.52-.65.79-.13,1.43a13.27,13.27,0,0,1-3,19.44,3,3,0,0,1-1.46.67,1.86,1.86,0,0,1-2-1.18,1.76,1.76,0,0,1,.63-2.26,13.91,13.91,0,0,0,2.43-2,9.44,9.44,0,0,0-2.22-14.51C45.12,49,44.78,48.94,44.6,48.56Z"/><path class="cls-3" d="M27.34,103.43c-.09-1.73.76-2.72,2.18-2.53,1,.13,1.55.83,1.63,2.17a9.36,9.36,0,0,0,7.13,8.83A8.83,8.83,0,0,0,46.63,110c.86-.76,1.23-.62,2,.14A43.62,43.62,0,0,0,66,121.3c.91.32,1.32.28,1.73-.75a13.23,13.23,0,0,1,18.63-6.73A2,2,0,0,1,87.55,116a1.82,1.82,0,0,1-1.5,1.57,2,2,0,0,1-1.54-.33,9.43,9.43,0,0,0-13.93,8.47c0,1-.46.72-1,.6a46.82,46.82,0,0,1-21.43-11.21,1.41,1.41,0,0,0-1.88-.3A13.26,13.26,0,0,1,27.34,103.43Z"/><path class="cls-3" d="M132.64,56.72a2,2,0,0,1-1.1,2.31,1.9,1.9,0,0,1-2.69-1.87,9.45,9.45,0,0,0-15.63-7c-.76.68-1,.54-1.68-.11A43.84,43.84,0,0,0,94,38.75c-.86-.3-1.26-.32-1.66.71a13.26,13.26,0,0,1-18.5,6.87c-1.15-.62-1.59-1.4-1.34-2.41.31-1.28,1.62-1.78,3-1.09a9.4,9.4,0,0,0,7.3.76,9.29,9.29,0,0,0,6.67-8.92c0-1.05.32-1.06,1.19-.85A47.07,47.07,0,0,1,111.8,45a1.48,1.48,0,0,0,2,.32A13.26,13.26,0,0,1,132.64,56.72Z"/><path class="cls-3" d="M127.42,80a46.41,46.41,0,0,1-1.17,10.24,1.24,1.24,0,0,0,.65,1.57,13.29,13.29,0,0,1-.28,22.09,2.49,2.49,0,0,1-1.83.59,1.91,1.91,0,0,1-1.56-1.39,1.77,1.77,0,0,1,.54-1.89,8.72,8.72,0,0,1,.85-.61,9.43,9.43,0,0,0-2.28-16.79c-.8-.28-.87-.54-.65-1.27a43,43,0,0,0,1-21.33c-.15-.78-.35-1-1.19-.84a13.25,13.25,0,0,1-15.35-12.52c0-1.56.58-2.43,1.78-2.49s1.93.74,2,2.27a9.36,9.36,0,0,0,8.77,9,8.33,8.33,0,0,0,5.33-1.24c.78-.48,1-.28,1.22.5A49.67,49.67,0,0,1,127.42,80Z"/><path class="cls-3" d="M119.4,107.06a4.3,4.3,0,0,1-.08-8.59,4.3,4.3,0,1,1,.08,8.59Z"/><path class="cls-3" d="M119.36,53a4.31,4.31,0,0,1,.11,8.61,4.31,4.31,0,0,1-.11-8.61Z"/><path class="cls-3" d="M44.88,57.33A4.28,4.28,0,0,1,40.6,61.6,4.31,4.31,0,1,1,40.67,53,4.28,4.28,0,0,1,44.88,57.33Z"/><path class="cls-3" d="M75.72,34.57A4.28,4.28,0,1,1,80,38.84,4.27,4.27,0,0,1,75.72,34.57Z"/><path class="cls-3" d="M40.63,107a4.25,4.25,0,0,1-4.32-4.2,4.34,4.34,0,0,1,4.33-4.36,4.27,4.27,0,0,1,4.24,4.3A4.2,4.2,0,0,1,40.63,107Z"/><path class="cls-3" d="M80,129.78a4.25,4.25,0,0,1-4.28-4.24,4.28,4.28,0,1,1,8.55,0A4.24,4.24,0,0,1,80,129.78Z"/></svg>