<svg id="Layer_1" data-name="Layer 1" xmlns="http://www.w3.org/2000/svg" viewBox="0 0 160 160"><defs><style>.cls-1{fill:#fff;}.cls-2{fill:#1e4d36;}.cls-3{fill:#f6c149;}.cls-4{fill:#18b165;}.cls-5{fill:#04ab5b;}.cls-6{fill:#f0774f;}</style></defs><circle class="cls-1" cx="80" cy="80" r="66.49"/><path class="cls-2" d="M72.91,84.65c-.89,0-1.78-.09-2.66,0s-1.16-.22-1.15-1.12c.06-3.31,0-6.62.05-9.92,0-.92-.18-1.29-1.18-1.22-1.4.09-2.8,0-4.2,0-.88,0-1.29-.19-1-1.12L65,71.2c1.3.07,3,.56,3.82-.15s.22-2.39.27-3.64,0-2.38,0-3.56c0-.69.14-1,.9-1q10,0,20,0c.65,0,.89.16.88.85q0,10,0,20c0,.66-.19.9-.86.87-1,0-2,0-2.93,0H81.78a40.68,40.68,0,0,0-5.06,0H72.91ZM75.4,67.47a1.73,1.73,0,0,0-1.62-1.9,1.62,1.62,0,0,0-1.67,1.57,1.65,1.65,0,0,0,3.29.33Z"/><path class="cls-3" d="M72.91,84.65h2.76q0,12.91,0,25.81a4.92,4.92,0,0,0,1.17,3.4A4.24,4.24,0,0,0,81.59,115a4.39,4.39,0,0,0,2.73-4.21c0-5.67,0-11.35,0-17,0-.81-.21-1.68.9-2.07.48-.17.38-.8.38-1.26,0-1.91,0-3.82,0-5.72H87.1q0,19.7,0,39.4H72.93Q72.91,104.37,72.91,84.65Z"/><path class="cls-4" d="M72.93,124.06H87.08c7.32.1,14.64.13,22,0h1c.46,0,.93.07,1.39.07,5.47,0,11,0,16.42,0,.45,0,1.22-.36,1.24.59s-.77.58-1.21.59q-15.27,0-30.55,0H31.43c-.34,0-.56-.1-.55-.51s.05-.68.52-.69H49.48c.5,0,1,0,1.51-.07h1c2.87,0,5.74.08,8.61.08C64.73,124.12,68.83,124.08,72.93,124.06Z"/><path class="cls-5" d="M109,93.21c-3.29.73-6-.06-8.06-2.86a6,6,0,0,1-.45-.77c-.72-1.42-.57-1.7,1-2a7,7,0,0,1,7.56,4c.13.26.25.52.38.8.52-.21.51-.69.69-1A7.15,7.15,0,0,1,118,87.7c1,.22,1.25.54.8,1.54A7.15,7.15,0,0,1,111,93.36c-.28-.06-.58-.1-.87-.15A.67.67,0,0,0,109,93.21Z"/><path class="cls-5" d="M51,93.2c-4,.71-6.94-.56-8.49-3.64-.73-1.44-.6-1.68,1-1.93a7.08,7.08,0,0,1,7.61,4.06c.12.26.11.6.45.76a21.31,21.31,0,0,1,1.16-2,7.1,7.1,0,0,1,7.18-2.74c1,.22,1.34.52.84,1.6a7.15,7.15,0,0,1-7.83,4.07L52,93.21A.68.68,0,0,0,51,93.2Z"/><path class="cls-5" d="M52.52,100.94a9.62,9.62,0,0,1,11.25-4.62c.87.28.84.69.59,1.38a9.75,9.75,0,0,1-11.22,6.13c-.37-.08-.74-.14-1.12-.21v-2A.87.87,0,0,0,52.52,100.94Z"/><path class="cls-5" d="M51,103.58c-3.7,1-7,.43-9.91-2.26A10.33,10.33,0,0,1,38.8,98c-.46-1-.33-1.45.83-1.74a9.73,9.73,0,0,1,10.63,4.13c.23.35.46.69.7,1C51,102.13,51,102.86,51,103.58Z"/><path class="cls-5" d="M109,103.6a11,11,0,0,1-6.51-.14,9.83,9.83,0,0,1-5.74-5.61c-.39-.92-.22-1.33.77-1.6a9.81,9.81,0,0,1,10.77,4.15c.22.35.3.8.71,1Z"/><path class="cls-5" d="M110.08,101.42c.34-.48.66-1,1-1.43a9.78,9.78,0,0,1,10.48-3.74c1,.27,1.14.67.77,1.6a9.72,9.72,0,0,1-11.25,5.93c-.33-.08-.67-.12-1-.19Z"/><path class="cls-5" d="M52.5,111.08a9.62,9.62,0,0,1,11.38-4.62c.87.3.69.75.49,1.33a9.65,9.65,0,0,1-12.22,5.82.33.33,0,0,0-.13,0v-1.74A.83.83,0,0,0,52.5,111.08Z"/><path class="cls-5" d="M109,113.63c-5.37,1.52-10.4-.87-12.25-5.74-.34-.89-.19-1.24.74-1.5a9.71,9.71,0,0,1,10.9,4.24c.2.32.41.62.62.93C109,112.25,109,112.94,109,113.63Z"/><path class="cls-5" d="M110.09,111.56a10.45,10.45,0,0,1,6.26-5.18,9.93,9.93,0,0,1,5.38,0c.81.22,1,.56.67,1.35-1.75,4.92-6.9,7.39-12.3,5.86C110.1,112.94,110.1,112.25,110.09,111.56Z"/><path class="cls-5" d="M51,113.63c-5.24,1.54-10.31-.83-12.21-5.67-.35-.89-.27-1.3.77-1.59a9.66,9.66,0,0,1,11.34,5.21A5.89,5.89,0,0,1,51,113.63Z"/><path class="cls-3" d="M80,34.6a24.65,24.65,0,0,1,17,6.87l.36.36c.27.27.6.52.21,1s-.67,0-.92-.21a26.08,26.08,0,0,0-6.31-4.47,23.58,23.58,0,0,0-26.3,3.74,2.66,2.66,0,0,1-.57.5c-.38.19-.59,1.1-1.18.39s.23-.89.54-1.19a22.07,22.07,0,0,1,5-3.73A24.23,24.23,0,0,1,80,34.6Z"/><path class="cls-3" d="M65,71.2l-2.29.08q0-7.31,0-14.61c0-.81.25-1.46,1.19-1.45s1.13.7,1.13,1.5Q65,64,65,71.2Z"/><path class="cls-2" d="M51,113.63a5.89,5.89,0,0,0-.1-2,76.23,76.23,0,0,0,.12-8c0-.72,0-1.45,0-2.18V93.2a.68.68,0,0,1,1.07,0q0,3.9,0,7.79l0,.65v2l0,7.57,0,.64v1.74a.15.15,0,0,0,0,.16c0,3.44,0,6.88,0,10.31H51C51,120.58,51,117.1,51,113.63Z"/><path class="cls-3" d="M92.79,48.45a2.3,2.3,0,0,1-.41.52c-.37.28-.53-.1-.71-.29a15.84,15.84,0,0,0-23-.33,2.2,2.2,0,0,1-.26.27c-.26.22-.44.72-.9.24s-.12-.67.15-1a16,16,0,0,1,8.79-5,16.45,16.45,0,0,1,15.68,4.79A8.78,8.78,0,0,1,92.79,48.45Z"/><path class="cls-2" d="M110.09,111.56c0,.69,0,1.38,0,2.07l0,10.42h-1l0-10.42c0-.69,0-1.38,0-2.07,0-2.65,0-5.31,0-8v-2.18c0-2.74,0-5.47,0-8.21a.67.67,0,0,1,1.07,0q0,4.1,0,8.21v2.17C110.08,106.25,110.09,108.91,110.09,111.56Z"/><path class="cls-3" d="M87.6,54.59c-.18.21-.31.46-.51.57-.39.2-.49-.21-.65-.43a7.66,7.66,0,0,0-4.52-3.06,7.85,7.85,0,0,0-8.34,3c-.19.24-.26.85-.82.38s-.22-.69,0-1.07C76.25,49.18,84,49.21,87.24,54Z"/><path class="cls-4" d="M52,101.65l0-.65a.42.42,0,0,0,.53-.06A.87.87,0,0,1,52,101.65Z"/><path class="cls-4" d="M52,111.83l0-.64.51-.11A.83.83,0,0,1,52,111.83Z"/><path class="cls-4" d="M52,113.73a.15.15,0,0,1,0-.16.33.33,0,0,1,.13,0A.29.29,0,0,1,52,113.73Z"/><path class="cls-3" d="M76.72,84.66a40.68,40.68,0,0,1,5.06,0c0,2,0,3.9,0,5.85,0,.6.1,1.22.72,1.33.83.16.81.66.81,1.28,0,5.77,0,11.54,0,17.31,0,2.29-1.25,3.68-3.26,3.69s-3.32-1.36-3.33-3.63Q76.71,97.57,76.72,84.66Z"/><path class="cls-6" d="M76.72,84.66q0,12.91,0,25.83c0,2.27,1.29,3.64,3.33,3.63s3.26-1.4,3.26-3.69c0-5.77,0-11.54,0-17.31,0-.62,0-1.12-.81-1.28-.62-.11-.72-.73-.72-1.33,0-2,0-3.9,0-5.85h3.84c0,1.9,0,3.81,0,5.72,0,.46.1,1.09-.38,1.26-1.11.39-.9,1.26-.9,2.07,0,5.68,0,11.36,0,17A4.39,4.39,0,0,1,81.59,115a4.24,4.24,0,0,1-4.74-1.09,4.92,4.92,0,0,1-1.17-3.4q0-12.9,0-25.81Z"/><path class="cls-6" d="M75.4,67.47a1.65,1.65,0,0,1-3.29-.33,1.62,1.62,0,0,1,1.67-1.57A1.73,1.73,0,0,1,75.4,67.47Z"/></svg>