<svg id="Layer_1" data-name="Layer 1" xmlns="http://www.w3.org/2000/svg" viewBox="0 0 160 160"><defs><style>.cls-1{fill:#fff;}.cls-2{fill:#34c572;}.cls-3{fill:#1276ad;}</style></defs><circle class="cls-1" cx="80" cy="80" r="66.49"/><polygon class="cls-2" points="43.01 82.44 43.01 82.44 43 82.44 43.01 82.44"/><polygon class="cls-2" points="40.91 75.9 40.92 75.9 40.92 75.9 40.91 75.9"/><polygon class="cls-2" points="38.99 86.06 39 86.06 39 86.05 38.99 86.06"/><polygon class="cls-2" points="56.91 94.16 56.89 94.14 56.89 94.15 56.91 94.16"/><polygon class="cls-2" points="55.42 82.44 55.42 82.44 55.42 82.44 55.42 82.44"/><path class="cls-2" d="M59.46,87c0-.33,0-.66,0-1H58.14a18.51,18.51,0,0,0-2.78.45A10.47,10.47,0,0,0,52,88.06h0A9.81,9.81,0,0,0,50.4,90c-.29.49-.52,1-.82,1.5v-5.6a.11.11,0,0,1,0-.08v-.88c-.07-.33,0-.47.39-.43a6,6,0,0,0,.73,0h.12a.22.22,0,0,1,.22,0l.27,0a.44.44,0,0,1,.35-.08l.13,0,.13,0,.26,0a9.5,9.5,0,0,0,2.38-1.09l.86-.65a9.25,9.25,0,0,0,1.48-2.37h0c.15-.52.29-1,.43-1.57l0-.17a.48.48,0,0,1,.06-.35l0-.61a.67.67,0,0,1,0-.44v-1a6.3,6.3,0,0,0-1.84,0c-.17,0-.34,0-.51,0L55,76l-1.06.26-.07,0A6.25,6.25,0,0,0,49.61,80a14.2,14.2,0,0,1,0-2V75.71c0-.27,0-.54,0-.81a.3.3,0,0,1,.23-.35.94.94,0,0,1,.41-.45v0l1.08-1.62h0a11.66,11.66,0,0,0,.7-2.09l0-.44v-.34L52,69a12,12,0,0,0-.7-2.1h0a12.71,12.71,0,0,0-1.76-2.31c-.25-.24-.41-.24-.66,0a12.37,12.37,0,0,0-1.76,2.31h0a11.22,11.22,0,0,0-.69,2.1l0,.52v.34l0,.53a10.89,10.89,0,0,0,.69,2.09h0l1.08,1.62v0c.35.31.79.58.63,1.17v4.59c-.34-.58-.69-1.12-1.07-1.65h0a7.12,7.12,0,0,0-3.2-1.92l-.07,0L43.43,76l-.17,0a13.08,13.08,0,0,0-2.34-.06c0,.43,0,.87,0,1.3l0,.18a.08.08,0,0,1,0,.08l0,.35a1,1,0,0,1,.08.52l0,.17a10.42,10.42,0,0,0,1.15,3v0l.74.9a8.5,8.5,0,0,0,3.24,1.74l.26,0,.13,0,.13,0a3,3,0,0,1,.84.15s.08,0,.13,0l.55,0c.59,0,.59,0,.56.61v.7a.11.11,0,0,1,0,.08v5.6c-.12,0-.13-.11-.16-.18a7.65,7.65,0,0,0-2.18-3.08s-.07-.09-.1-.13h0a11.78,11.78,0,0,0-3.32-1.58l-.17,0a16.08,16.08,0,0,0-3.91-.4,11.88,11.88,0,0,0,.27,3.62c0,.1,0,.2,0,.3l0,.12.06.14,0,.17c.17.46.33.92.53,1.37a7.28,7.28,0,0,0,3.43,3.66c.11.06.21.14.32.21h0a15.66,15.66,0,0,0,2.86.84s.06.06.08.09l.19,0,1.76.13c.19,0,.3.07.24.29v5.24h.71l0-1.12V97c-.07-.31.12-.3.33-.27l.17,0c.56-.06,1.12-.12,1.67-.2a10.36,10.36,0,0,0,2.8-.81,1.66,1.66,0,0,1,.21-.06h0a14.67,14.67,0,0,0,2.11-1.46h0A10,10,0,0,0,59,90.4l0-.17,0-.14,0-.12A16.06,16.06,0,0,0,59.46,87Zm-8.05-8.58a6.65,6.65,0,0,1,4-1.78c.36-.05.72-.06,1.08-.1.2,0,.31,0,.3.26A8.69,8.69,0,0,1,55.59,81a6,6,0,0,1-4.07,2.53,5.66,5.66,0,0,1-1.38.17c.7-.63,1.15-1.39,2.11-1.57a13.71,13.71,0,0,0,1.91-.62c.21-.07.42-.19.35-.46s-.3-.3-.57-.22a7,7,0,0,1-1.3.37l1.29-1.3,1.39-1.39c.18-.18.29-.39.08-.6s-.42-.08-.6.1l-4.68,4.7c-.16.17-.33.32-.56.53A7.51,7.51,0,0,1,51.41,78.46ZM48.8,95.33s-.12,0-.14-.11l-.16-.17L48.41,95l-.09-.09-.1-.08-6-6a1.07,1.07,0,0,0-.19-.18.36.36,0,0,0-.51,0,.32.32,0,0,0,0,.5c.27.29.55.57.83.84l2.88,2.85,0,.09c-.69-.22-1.37-.43-2.05-.66a.34.34,0,0,0-.47.19c-.1.23,0,.36.21.46a1.21,1.21,0,0,0,.2.09c.94.31,1.87.64,2.82.93a2.32,2.32,0,0,1,1.09.68c.38.41.8.8,1.25,1.24a2.74,2.74,0,0,1-1.15,0,8.72,8.72,0,0,1-4.9-2.09A8.18,8.18,0,0,1,39.86,89a12.12,12.12,0,0,1-.19-1.91c0-.23.06-.32.29-.3A11.81,11.81,0,0,1,44.84,88,6.56,6.56,0,0,1,48,91.54a.18.18,0,0,1,.07.17v0a.14.14,0,0,1,.07.16l0,.09a.68.68,0,0,1,.15.43l0,.16a.36.36,0,0,1,.08.28,0,0,0,0,1,0,.06l0,.11,0,.19a1.44,1.44,0,0,1,.15.61l0,.26a1.89,1.89,0,0,1,.1.78V95A.32.32,0,0,1,48.8,95.33Zm-.91-13C46.46,80.91,45,79.47,43.61,78c-.18-.19-.38-.3-.59-.09s-.1.43.09.61l.09.09,2.16,2.16.32.35,0,.09-1.11-.37c-.25-.08-.51-.12-.61.2s.15.41.37.48c.66.23,1.32.47,2,.65a2.28,2.28,0,0,1,1.28.76c.2.25.43.47.7.77a7.17,7.17,0,0,1-1.85-.28,5.92,5.92,0,0,1-4.62-5.29c-.07-.42-.1-.84-.15-1.26,0-.17,0-.34.22-.32a7.1,7.1,0,0,1,5.48,2.26,6.7,6.7,0,0,1,1.42,3.6c0,.25.07.49.11.8A5.73,5.73,0,0,1,47.89,82.34Zm1.29-15.46a.33.33,0,0,0-.32.35c0,.1,0,.2,0,.3,0,1.94,0,3.88,0,5.81v.21a5.77,5.77,0,0,1-1.73-4,6.16,6.16,0,0,1,1.51-3.6c.56-.74.59-.74,1.15,0a6,6,0,0,1,1.52,4,6.51,6.51,0,0,1-1.71,3.73,3.4,3.4,0,0,1,.31-2.13c.31-.49.53-1,.8-1.55.11-.23.17-.46-.11-.6s-.43,0-.54.28a3.88,3.88,0,0,1-.48.79V67.58a1.79,1.79,0,0,0,0-.4A.35.35,0,0,0,49.18,66.88ZM56.36,93.6a8.47,8.47,0,0,1-4.93,2.22,3.91,3.91,0,0,1-1.25.07c.89-.91,1.64-1.9,3-2.18a21.6,21.6,0,0,0,2.2-.7l.16-.07c.19-.09.33-.22.25-.44a.35.35,0,0,0-.49-.22c-.67.23-1.35.44-2,.66l-.1-.11,2-1.88c.56-.54,1.1-1.09,1.64-1.63.19-.19.42-.41.15-.66s-.47-.06-.67.14l-6.27,6.27a.91.91,0,0,1-.37.28,9.7,9.7,0,0,1,2.23-6A8.11,8.11,0,0,1,56.4,87a16.88,16.88,0,0,1,2-.24c.18,0,.37,0,.36.24C58.65,89.45,58.16,91.78,56.36,93.6Z"/><polygon class="cls-2" points="49.8 74.55 49.8 74.55 49.8 74.55 49.8 74.55"/><polygon class="cls-2" points="59.42 86.05 59.42 86.05 59.43 86.05 59.42 86.05"/><path class="cls-2" d="M103.71,95a5.08,5.08,0,0,0-2.86.63,6.74,6.74,0,0,0-.9.78c0-.58,0-1.09,0-1.59,0-.17.12-.26.21-.36a4.3,4.3,0,0,0,1.1-2.2A3.91,3.91,0,0,0,100,88.93l-.32-.35h-.14a17.37,17.37,0,0,0-1.22,1.5h0a4.07,4.07,0,0,0-.41,2A4.2,4.2,0,0,0,99,94.34a1,1,0,0,1,.28.78c0,.41,0,.83,0,1.33A4.27,4.27,0,0,0,95.4,95a.14.14,0,0,1,0,.07v1a.08.08,0,0,1,0,.09l0,.17c.12.35.18.72.32,1.07a3.28,3.28,0,0,0,2.77,2.09c.74.12.74.09.74.84,0,1,0,2,0,3v.44l0,.28a.76.76,0,0,0,.63-.26c.09-.84,0-1.68,0-2.52,0-.46,0-.93,0-1.39,0-.21,0-.31.28-.33a6.19,6.19,0,0,0,.94-.17,3.36,3.36,0,0,0,2.54-3,2.27,2.27,0,0,1,.06-.25A2.65,2.65,0,0,0,103.71,95ZM99,98.78a3,3,0,0,1-2.88-2.88c0-.18,0-.24.24-.21a2.86,2.86,0,0,1,2.83,2.83C99.19,98.68,99.23,98.78,99,98.78Zm.77-5c-.12.15-.2.17-.33,0a3.23,3.23,0,0,1-.82-1.66,3.42,3.42,0,0,1,.84-2.37c.12-.15.2-.09.3,0A2.82,2.82,0,0,1,99.76,93.76ZM103,95.94a2.87,2.87,0,0,1-2.77,2.83c-.26,0-.35,0-.3-.3.28-1.67.89-2.5,2.88-2.79C103.09,95.64,103.07,95.78,103,95.94Z"/><path class="cls-2" d="M106.64,82a9.3,9.3,0,0,0-2.45-1.73,10.23,10.23,0,0,0-4.84-1.1A10,10,0,0,0,92.48,82c-.19.18-.31.38-.1.6s.42.11.6-.07a10.34,10.34,0,0,1,1.47-1.17,9.37,9.37,0,0,1,11.68,1.15c.19.18.4.34.63.07S106.82,82.14,106.64,82Z"/><path class="cls-2" d="M104.62,83.91a7.28,7.28,0,0,0-5.06-2,6.22,6.22,0,0,0-2.53.43A7.32,7.32,0,0,0,94.46,84c-.19.18-.3.39-.09.61s.42.1.6-.09l.1-.09a6.56,6.56,0,0,1,9.05.06c.19.18.4.37.63.13S104.84,84.11,104.62,83.91Z"/><path class="cls-2" d="M97,86.43a3.81,3.81,0,0,1,5.19,0c.19.19.43.31.63.05s0-.44-.15-.6a4.41,4.41,0,0,0-2.7-1.2,4.8,4.8,0,0,0-3.42,1.15c-.2.17-.45.37-.22.65S96.78,86.62,97,86.43Z"/><polygon class="cls-3" points="64.95 106.76 64.95 106.76 64.95 106.76 64.95 106.76"/><polygon class="cls-3" points="69.86 106.76 69.86 106.76 69.86 106.76 69.86 106.76"/><polygon class="cls-3" points="73 97.75 73 97.75 73 97.75 73 97.75"/><polygon class="cls-3" points="30.31 92.16 30.31 92.16 30.31 92.16 30.31 92.16"/><polygon class="cls-3" points="58.66 106.76 58.66 106.76 58.66 106.76 58.66 106.76"/><polygon class="cls-3" points="36.27 106.76 36.27 106.76 36.27 106.76 36.27 106.76"/><polygon class="cls-3" points="27.87 106.76 27.87 106.76 27.87 106.76 27.87 106.76"/><polygon class="cls-3" points="53.16 106.76 53.15 106.75 53.15 106.75 53.16 106.76"/><polygon class="cls-3" points="31.36 106.76 31.36 106.76 31.36 106.76 31.36 106.76"/><path class="cls-3" d="M88.75,56.76c0-.62,0-1.25,0-1.87,0-.22-.06-.27-.27-.27-1.45,0-2.91,0-4.36,0-.27,0-.29.11-.29.33,0,1.2,0,2.41,0,3.62v2.88l0,.34a4.38,4.38,0,0,0,.39.89.06.06,0,0,1,0,.06l.43.46.09.06a5.07,5.07,0,0,0,1,.46l.35,0h.18l.34,0a5.11,5.11,0,0,0,1-.45h0a2.59,2.59,0,0,0,1-2.13c0-.16,0-.23.22-.22s.38,0,.57,0h.34l2,0a.44.44,0,0,1,.34.14c.53.54,1.07,1.06,1.6,1.59a0,0,0,0,1,0,0s.07,0,.08.08h0a13.82,13.82,0,0,0,2.9,1.81,7.39,7.39,0,0,0,3.26.53,12.27,12.27,0,0,0,1.89-.42l.09-.06.17,0,1-.48a.1.1,0,0,1,.08,0L104.92,63a.62.62,0,0,1,.27-.24h0c0-.06,0-.08.08-.08l.34-.28.18-.17.38-.38.7-.71,0,0c.21-.33.53-.15.8-.17l.15,0,.14,0h1.32l.13,0a1.25,1.25,0,0,1,.51,0c.35-.08.51,0,.5.41a2.45,2.45,0,0,0,1,1.92h0a3.77,3.77,0,0,0,1,.41l.42.06H113l.42-.06a4.6,4.6,0,0,0,1-.44l0,0a3,3,0,0,0,.92-1.59V60.49c0-1.83,0-3.66,0-5.49,0-.31-.07-.39-.38-.39-1.39,0-2.79,0-4.18,0-.29,0-.37.06-.36.35,0,.66,0,1.31,0,2,0,.38-.08.56-.48.48H107.9c-.84.24-1.23-.4-1.69-.88l0,0-1.39-1.25a.1.1,0,0,1-.05,0,10.41,10.41,0,0,0-3.85-1.85,7,7,0,0,0-3.4.2l-.13,0-.13.06-.34.13a13.54,13.54,0,0,0-2.53,1.51l-.08.05a.75.75,0,0,1-.29.24h0a.08.08,0,0,1-.08.07l-.15.11c-.5.51-1,1-1.5,1.5-.31.3-.71.1-1.06.14H89.45C88.75,57.44,88.75,57.44,88.75,56.76ZM88,61.33a1.75,1.75,0,0,1-2.59,1.47,1.64,1.64,0,0,1-.89-1.51c0-.71,0-1.42,0-2.14h0c0-.7,0-1.4,0-2.09,0-.23,0-.34.3-.33,1,0,1.92,0,2.88,0,.25,0,.32.07.32.31C88,58.47,88.06,59.9,88,61.33ZM87.8,56c-.51,0-1,0-1.53,0s-1,0-1.44,0c-.31,0-.28-.16-.28-.35s0-.36.27-.35q1.49,0,3,0c.3,0,.26.15.25.32S88.13,56,87.8,56Zm26.83,5.33a1.74,1.74,0,0,1-3.48,0c0-.36,0-.73,0-1.09v-1c0-.73,0-1.46,0-2.18,0-.22,0-.3.29-.3,1,0,1.95,0,2.93,0,.24,0,.28.09.28.3C114.63,58.47,114.65,59.92,114.63,61.36Zm-3.49-5.69c0-.21,0-.35.29-.34,1,0,1.95,0,2.92,0,.29,0,.29.13.29.34s0,.38-.31.36c-.49,0-1,0-1.48,0s-.94,0-1.4,0S111.14,55.89,111.14,55.67Zm-8.22,7.79a6.41,6.41,0,0,1-7.15-.29A14.41,14.41,0,0,1,93.13,61h12.93A14,14,0,0,1,102.92,63.46Zm-8.46-7.31A9,9,0,0,1,98.85,54a5.83,5.83,0,0,1,3.35.54,12.33,12.33,0,0,1,3.88,2.91H93.14A8.36,8.36,0,0,1,94.46,56.15Zm1.92,2,.43,0h0c.14,0,.29.07.41,0,2.69.16,5.38,0,8.07.07,1.73,0,3.46,0,5.21,0a7.08,7.08,0,0,0-.06,1.65c0,.36-.08.45-.44.45H96c-2.27,0-4.55,0-6.82,0-.32,0-.43-.07-.4-.41a10.59,10.59,0,0,0,0-1.26c0-.33.06-.44.42-.44C91.57,58.14,94,58.13,96.38,58.13Z"/><polygon class="cls-3" points="104.92 63.01 104.92 63.01 104.91 63.01 104.92 63.01"/><polygon class="cls-3" points="128.19 84.38 128.19 84.38 128.19 84.38 128.19 84.38"/><polygon class="cls-3" points="126.98 84.38 126.98 84.38 126.98 84.38 126.98 84.38"/><polygon class="cls-3" points="86.74 106.76 86.74 106.75 86.74 106.75 86.74 106.76"/><polygon class="cls-3" points="92.25 106.76 92.25 106.76 92.25 106.76 92.25 106.76"/><path class="cls-3" d="M85.63,98.28q1.25-5,2.5-10,1.77-7.05,3.52-14.11c.59-2.38,1.21-4.75,1.79-7.13A17.33,17.33,0,0,0,94,64.62l-.08-.11h0l-.18-.1h-.17a.6.6,0,0,0-.29.4c-.17.74-.38,1.46-.57,2.2l0,.22,0,.13,0,.22-1.29,5.07,0,.18a.17.17,0,0,1-.06.17l0,.17c-.42,1.7-.8,3.4-1.29,5.08l0,.17a.2.2,0,0,1-.06.18l0,.17-1.28,5.07,0,.18a.18.18,0,0,1-.06.17l0,.18-1.05,4.29s-.06.1-.08.15v.1a1.61,1.61,0,0,1-.15.53l0,.18a.18.18,0,0,1-.06.17L87,90c-.42,1.69-.8,3.39-1.29,5.07l0,.18-.06.17,0,.18,0,.11h0c-.31,1.26-.61,2.53-.93,3.79-.07.27-.12.52.18.62s.43-.17.51-.42l.06-.26,0-.13.13-.57a.16.16,0,0,1,.06-.17A2.06,2.06,0,0,1,85.63,98.28Z"/><path class="cls-3" d="M106.5,67.05c-.19-.76-.39-1.52-.59-2.28l0-.16-.26-.2h-.17l-.09,0-.09.08-.08.11a1,1,0,0,0,0,.42c.8,3.22,1.59,6.44,2.4,9.66l5.28,21.09c.32,1.26.62,2.53.92,3.8a.51.51,0,0,1,.07.15c0,.25.18.42.44.36s.32-.27.25-.54c-.34-1.33-.67-2.66-1-4a1.2,1.2,0,0,1-.11-.53c-.31-1.22-.63-2.43-.94-3.64-.12-.48-.23-1-.35-1.43l0-.18a.16.16,0,0,1-.06-.17l0-.18a1.63,1.63,0,0,1-.15-.52l0-.18c-.37-1.46-.75-2.91-1.12-4.37l0-.17a.18.18,0,0,1-.06-.18l0-.18c-.4-1.58-.81-3.15-1.21-4.73,0-.12,0-.23-.08-.34a1.19,1.19,0,0,1-.11-.52c-.4-1.6-.81-3.19-1.22-4.78,0-.1,0-.2-.07-.3a.92.92,0,0,1-.11-.52c-.11-.12-.07-.28-.11-.42h0l-1.18-4.65,0-.18a.16.16,0,0,1-.06-.17Z"/><path class="cls-3" d="M139.47,105.15a1.69,1.69,0,0,0-1.87.31c-.1.09-.15.27-.37.08a1.75,1.75,0,0,0-2.52,0,4.65,4.65,0,0,0-.9-1.21c-.16-.14-.47,0-.5-.34a3.34,3.34,0,0,0-3.06,0l-.27.24a1.37,1.37,0,0,0-.56.51,1.23,1.23,0,0,0,.38.3,1.23,1.23,0,0,1-.38-.3,1,1,0,0,0-.42.64c-.08.06-.11.26-.28.08a2.45,2.45,0,0,0-.78-.42.24.24,0,0,1-.06.08.24.24,0,0,0,.06-.08l0-.64,0-.43,0-.24,0-.11v-1c0-1.56,0-3.11,0-4.67,0-.27.11-.3.33-.31a6.28,6.28,0,0,0,3.09-.94l.07,0a1.06,1.06,0,0,1,.35-.28l.25-.23a7.3,7.3,0,0,0,1-1.65.44.44,0,0,1,.1-.35,7.71,7.71,0,0,0,.24-2.62h-1.27l-1.07.21-.27.06a9,9,0,0,0-1.41.65s0,0,0,0A4.84,4.84,0,0,0,127.94,94c0-.88,0-1.64,0-2.4,0-.24.26-.33.38-.51a6.54,6.54,0,0,1,.41-.51.05.05,0,0,1,0,0,8.57,8.57,0,0,0,.73-1.41l0-.18.05-.12,0-.22a3.93,3.93,0,0,0,0-1.49l0-.17-.44-1.14c-.11,0-.09-.13-.1-.21l-.09-.14h0l-.07-.1s0,0,0,0l-.69-.91c-.61-.54-.61-.54-1.21,0a1.36,1.36,0,0,1-.36.43l-.13.19-.3.43h0l-.08.14c0,.08,0,.16-.11.21l-.42,1.07,0,.16a.33.33,0,0,1,0,.27h0a5.15,5.15,0,0,0,0,1.3l0,.22,0,.12,0,.18a7.25,7.25,0,0,0,1.44,2.26.41.41,0,0,1,.12.31V94a4.83,4.83,0,0,0-3-2.31v0h0l-1.08-.21h-1.27a7.47,7.47,0,0,0,.24,2.62c0,.11,0,.25.1.35a7.07,7.07,0,0,0,.93,1.57,5.36,5.36,0,0,0,3.67,1.57c.42,0,.48.16.48.52,0,1.88,0,3.75,0,5.63h0v.83h0c0,.31,0,.59-.43.64a.79.79,0,0,0-.39.25c-.12.13-.16,0-.23,0a2,2,0,0,0-.49-.74,2.93,2.93,0,0,0-1.11-.83,3.37,3.37,0,0,0-2.42,0l-.32.15a3.53,3.53,0,0,0-1.2,1.2l-.16-.43-.35-.6-.08-.1h0L120,104l-.06-.08a5.36,5.36,0,0,0-1.93-1.4.06.06,0,0,1-.06,0,5.09,5.09,0,0,0-3-.06c-.06.08-.15.07-.24.09l-.11.05-.09,0c0,.09-.15.1-.24.12h0a4.75,4.75,0,0,0-2.18,2.48,4,4,0,0,0-1.21-1.18l-.14-.07a3.37,3.37,0,0,0-2.78,0l-.42.24a3.51,3.51,0,0,0-1.09,1.38,1.82,1.82,0,0,0-2.56,0c-.29-.34-.38-.85-.84-1h0a2.84,2.84,0,0,0-2.56-.84c-.21,0-.4.16-.62.08a.76.76,0,0,1-.63.26c0,.21-.21.27-.34.38a3.49,3.49,0,0,0-.86,1.17,1.72,1.72,0,0,0-2.23-.22c-.35.24-.52.29-.9,0a1.69,1.69,0,0,0-2.24.21,3.48,3.48,0,0,0-1.18-1.42l-.35-.2-.78-.25-.25-.06h-.7l-.25.06-.79.25-.14.07a3.53,3.53,0,0,0-1.2,1.2A5.09,5.09,0,0,0,85.42,103c-.07,0-.15,0-.17-.09l-.37-.24h0c-.09,0-.19,0-.24-.12l-.09,0-.11-.05c-.09,0-.18,0-.25-.09a6.37,6.37,0,0,0-1.74-.2h-.09l-1,.2c-.06.08-.15.07-.24.09l-.44.19h0l-.79.52h0l-.1.08-.15.15-.39.4s0,0,0,.05l-.26.37-.16.25c-.14.19-.1.51-.4.6,0,0,0-.11-.08-.09s0-.14-.1-.2-.24-.22-.27-.4c0,0,0,0-.06,0l-.46-.33-.61-.27a5.76,5.76,0,0,0-.81-.15,3.11,3.11,0,0,0-3,1.64c-.08.13-.11.38-.34.15a1.73,1.73,0,0,0-2.38.12,3.18,3.18,0,0,0-1-1.31c-.13-.09-.12-.21-.12-.34,0-1.7,0-3.4,0-5.1,0-.24.06-.35.31-.33s.5,0,.74,0c.38-.19.82,0,1.18-.19l.13-.05.26,0L73,97.75a.07.07,0,0,1,.09-.06l.09,0L74.31,97l.18-.13.09-.08h0l.07-.06.16-.12,1-1.15h0l.8-1.65.07-.27c0-.11,0-.25.11-.34l.11-.52a3.64,3.64,0,0,1,.15-.8h0l0-.16,0-.36c0-.11,0-.22,0-.31,0-.37,0-.75,0-1.12a5.56,5.56,0,0,0-1.29-.07l-.64,0-.14,0-.4,0a.2.2,0,0,1-.22,0l-.33.08-.19,0-.78.24-.53.19-.42.19-.35.2h0a8.84,8.84,0,0,0-1.47,1.18l-.11.11a7.83,7.83,0,0,0-1,1.81V88.74s0-.07.06-.07l.18-.19.27-.3,0,0,.31-.37c0-.06,0-.15.14-.1h0c-.07-.09,0-.12.06-.17l.45-.69.2-.34.64-1.65a0,0,0,0,1,0,0l0-.32v-.08l0-.69c0-.22-.18-.43,0-.66-.07-.06-.06-.13,0-.21l-.31-1.13-.32-.75-.21-.35L70.34,80l0-.08-.07-.1-.06-.07-.74-.9-.08-.08-.54-.46h0l-1,1-.1.15-.76,1.1-.18.31a.76.76,0,0,1-.18.37l-.12.32-.06.11a.06.06,0,0,1,0,.07l-.06.13A3.05,3.05,0,0,0,66,83.25a5.66,5.66,0,0,0,.1,1.59l0,.14.12.48.55,1.17,0,.11.06.07.12.25.6.81h0a.33.33,0,0,1,.19.24h0l.43.45c.23,0,.18.2.18.35l0,.44V94a6.78,6.78,0,0,0-2-2.63l-.26-.18-.89-.51h0l-.89-.35-.14,0-.8-.21L63.12,90,63,90l-1.17-.12-1.28,0,0,.59v.35a.2.2,0,0,1,0,.21.76.76,0,0,1,.06.49l0,.4,0,.12,0,.41c.1.12.07.25.08.38a.79.79,0,0,1,.1.4l0,.13.12.42c.22.47.43,1,.65,1.42a.05.05,0,0,1,0,0l.12.19h0l.07.11c.13.16.26.33.38.5h0l.52.54c.21.15.41.31.63.46A8.64,8.64,0,0,0,68,98.45c.33,0,.46.09.44.44,0,.52,0,1,0,1.57,0,1.1,0,2.2,0,3.31a3.24,3.24,0,0,0-4,1.75,1.83,1.83,0,0,0-1.77-.44c-.35.11-.6.49-.87.52s-.54-.42-.91-.52a1.88,1.88,0,0,0-1.8.45,3.39,3.39,0,0,0-.84-1.15,3.18,3.18,0,0,0-3.88-.23,4.14,4.14,0,0,0-.91,1l-.26-.61-.09-.14c-.16-.15-.21-.4-.43-.5h0a1.75,1.75,0,0,0-.68-.67c-.13-.23-.37-.31-.56-.46l-.18-.09-.36-.18-.23-.07-1.14-.25h-.71l-1,.17-.51.2-.14.06s0,0-.05,0l-.13.07c0,.08-.09.09-.16.1l-.1.07c-.08,0-.14.17-.26.06h0c0,.3-.3.32-.44.48l-.08.09h0c-.13.15-.27.3-.4.46h0l-.19.27-.43.84a3.22,3.22,0,0,0-5.66.4,1.86,1.86,0,0,0-2.55,0,3.23,3.23,0,0,0-4-1.76c0-2,0-3.93,0-5.88,0-.24.09-.27.3-.29,2.35-.15,4.12-1.12,4.87-3.5l.17-.7V93.2c0-.08,0-.15.06-.21l0,0v0c0-.34,0-.67,0-1,0-.16,0-.35-.11-.48H36.91l-1,.17a.08.08,0,0,1-.12,0l-.15,0-.08,0-1,.43-.08,0-.3.18-.09,0h0a.09.09,0,0,1-.07.13l-.07.07a.09.09,0,0,1-.07,0,7.94,7.94,0,0,0-1.07,1.23V91.56a.35.35,0,0,1,.12-.22A6.75,6.75,0,0,0,34.35,89v-.1a.17.17,0,0,1,.07-.17l0-.26a4.45,4.45,0,0,0,0-1.21h0l0-.1,0-.27a.16.16,0,0,1-.07-.17l0-.16-.06-.1-.05-.17-.31-.62c-.09,0-.07-.12-.1-.18a4,4,0,0,1-.72-1L33,84.38,32.55,84c-.06-.06-.12-.12-.22-.09s-.27.37-.51.43c0,.06,0,.14-.08.17l-.55.69a2,2,0,0,0-.37.62l-.32.79,0,.17-.05.1,0,.25c0,.07,0,.14-.05.19h0a4.71,4.71,0,0,0,0,1.3l0,.23a7.28,7.28,0,0,0,1.32,2.37l0,0,0,0a.68.68,0,0,1,.33.69c0,.66,0,1.31,0,2.07a4.8,4.8,0,0,0-1.42-1.57h0l-.32-.2-1-.43L29,91.67l-1.07-.21H26.65a8,8,0,0,0,.26,2.71.16.16,0,0,1,.06.17l0,.09.08.17.1.26L27.89,96h0l.11.11a5.6,5.6,0,0,0,3.74,1.49c.24,0,.33.06.33.31,0,2,0,4,0,6a.4.4,0,0,1-.15.38,2.91,2.91,0,0,0-.91,1.09c-.07.15-.12.16-.28.06a1.76,1.76,0,0,0-2.39.13,3.33,3.33,0,0,0-1.52-1.62l-.44-.16-.78-.16h-.35l-.38,0-.14.05-.22,0-.18.15h0a1.56,1.56,0,0,0-.9.52c.13.14.32.13.49.17-.17,0-.36,0-.49-.17a1.5,1.5,0,0,0-.7.81c-.13.09-.13.51-.44.18-.08.13-.23.21-.31.33.08-.12.23-.2.31-.33a1.16,1.16,0,0,0-.63-.3l0,0h-.25a1.28,1.28,0,0,0-1.12.29c-.05,0-.11,0-.1.09s-.12,0-.09.09h0a1.38,1.38,0,0,0-.59,1.24l.35,0,.11,0c.11,0,.21,0,.24-.14a1.11,1.11,0,0,1,.86-.9,2.68,2.68,0,0,1,.89.2l.36.57c0,.17,0,.33.21.3a2.54,2.54,0,0,1,.39,0l.11-.11c0-.22.07-.41.08-.63a3.63,3.63,0,0,1,.41-.84l.64-.55.94-.36a3.66,3.66,0,0,1,1.35.24,2.46,2.46,0,0,1,1.46,2.23h.39c.19,0,.29,0,.35-.25a1,1,0,0,1,1-.8,1,1,0,0,1,1,.79c.13.5.49.16.73.25a2.46,2.46,0,0,1,4.91,0h.43c.16,0,.25,0,.31-.21a1,1,0,0,1,1-.84c.52,0,.85.28,1,.88,0,.17.12.17.23.17h.48A2.5,2.5,0,0,1,42,104.32a2.44,2.44,0,0,1,2.63,1.92c.1.38.28.59.69.54l.09,0,0-.26v-.17a3.83,3.83,0,0,1,5.17-3.16,3.5,3.5,0,0,1,2.32,2.6c.08.33.17.66.26,1h.52l.1-.17a2.45,2.45,0,0,1,4.89.18h.39c.2,0,.29,0,.35-.25a1,1,0,0,1,1-.8,1.08,1.08,0,0,1,1,.82c.07.24.23.22.4.22s.28,0,.35-.19a1,1,0,0,1,1.05-.85,1,1,0,0,1,1,.83c.15.44.49.13.72.21a2.46,2.46,0,0,1,4.91,0h.52c.11,0,.15,0,.2-.16.42-1,1-1.16,1.9-.51,0,0,0,.07,0,.11.08.49.38.62.82.55l0-.18A2.46,2.46,0,0,1,76,104.3a2.49,2.49,0,0,1,2.31,2.45c.32,0,.79.12.66-.51l.08,0a3.84,3.84,0,0,1,7.6,0c0,.18.09.36.13.53h.52l.07-.08a2.49,2.49,0,0,1,2.58-2.35,2.47,2.47,0,0,1,2.34,2.44h.39c.19,0,.29,0,.35-.25a1,1,0,0,1,1-.8,1.07,1.07,0,0,1,1,.83c0,.11,0,.25.19.21s.36.11.48-.16a1.4,1.4,0,0,1,.45-.66,1,1,0,0,1,1.54.34c.17.53.46.52.85.48h0a2.45,2.45,0,0,1,4.89-.09s0,.06,0,.09a3.65,3.65,0,0,1,.47,0c.17,0,.21,0,.26-.21a1,1,0,0,1,1.07-.84,1,1,0,0,1,1,.88c0,.17.11.17.23.17h.48l0-.09a2.45,2.45,0,0,1,2.13-2.34,2.48,2.48,0,0,1,2.65,1.74c.05.2.08.4.11.6l.08.08.52,0,.09,0,0-.22v-.21a3.84,3.84,0,0,1,7.63,0l0,.34,0,.09c.23-.05.5.11.71-.09a2.44,2.44,0,0,1,4-1.74l.33.28c.14.28.29.56.44.84l0,.62a.31.31,0,0,1,0,.08,2.11,2.11,0,0,1,.25,0c.3,0,.49,0,.51-.37a1.4,1.4,0,0,1,.2-.38c.61-.42.93-.44,1.47-.06a1,1,0,0,1,.3.5c0,.28.18.34.42.31a1.93,1.93,0,0,1,.34,0,.29.29,0,0,1,0-.09l0-.28.26-.75.37-.55a3.72,3.72,0,0,1,.68-.5,2.47,2.47,0,0,1,3.56,1.74,3.13,3.13,0,0,1,0,.43h.4c.19,0,.28,0,.34-.25a1,1,0,0,1,2,0c.07.29.22.24.4.25s.32,0,.38-.26a1,1,0,0,1,1-.79,1.06,1.06,0,0,1,1,.8c.05.19.11.28.3.26l.44,0A1.67,1.67,0,0,0,139.47,105.15Zm-8.16-12.81c.24,0,.48-.08.73-.12.67-.12.69-.11.6.54a4.65,4.65,0,0,1-1.44,3.08,4.55,4.55,0,0,1-2.69,1l2.14-2.09a2.2,2.2,0,0,0,.2-.23.32.32,0,0,0,0-.47.32.32,0,0,0-.47,0c-.33.32-.67.65-1,1L128,96.37A4,4,0,0,1,131.31,92.34Zm-6.2,1.94-.09-.1c-.2-.18-.41-.46-.69-.15s0,.47.17.66L126,96.14l.73.7c-2.8-.29-4-1.87-4.17-4.34,0-.13-.12-.36.18-.33a4.49,4.49,0,0,1,3.8,1.93,4.15,4.15,0,0,1,.58,2.21C126.43,95.63,125.77,95,125.11,94.28ZM69.21,97a8,8,0,0,1,1.06-3.6,5.92,5.92,0,0,1,4.17-2.65,7.28,7.28,0,0,1,1.68-.2c.11,0,.28-.08.26.17a8.37,8.37,0,0,1-1.31,4.45,6,6,0,0,1-4,2.37,9.19,9.19,0,0,1-1.31.17c.56-.53.92-1.24,1.74-1.47s1.41-.46,2.11-.69c.19-.06.28-.13.15-.32s0-.5-.37-.37a2.91,2.91,0,0,1-1.17.26L74.43,93a2.47,2.47,0,0,1,.28-.28c.29-.22.16-.41,0-.63s-.35,0-.47.1l-4.93,4.9s0,.12-.11.06S69.2,97.07,69.21,97Zm-1.08-.08c-1.59-1.58-3.19-3.16-4.76-4.77-.27-.27-.36-.12-.56,0s-.1.34.06.49l2.5,2.43a2.5,2.5,0,0,1-1.18-.24c-.37-.14-.28.2-.38.35s-.06.27.15.33a14.37,14.37,0,0,0,1.53.5,4.28,4.28,0,0,1,2.39,1.69,10,10,0,0,1-2.18-.38,5.85,5.85,0,0,1-3.36-2.47,8.23,8.23,0,0,1-1.05-3.42,1.09,1.09,0,0,1,0-.18c-.05-.76-.05-.79.71-.72a8.77,8.77,0,0,1,3.33.93,6,6,0,0,1,3,4.5c.08.37.11.75.17,1.13C68.26,97.16,68.21,97,68.13,96.94ZM33.5,94.1a4.12,4.12,0,0,1,3.25-1.86c.83-.11.83-.11.68.74-.47,2.5-1.5,3.48-4.16,3.89.82-.81,1.57-1.55,2.3-2.29.25-.25.24-.51,0-.64s-.35,0-.49.16l-2,2-.24.23A5.44,5.44,0,0,1,33.5,94.1ZM32,96.34l-2.15-2.19c-.18-.18-.38-.39-.63-.15s-.07.47.12.66l2.17,2.18c-2.82-.29-3.94-1.91-4.14-4.38,0-.16,0-.29.22-.3A4.29,4.29,0,0,1,32,96,3.19,3.19,0,0,1,32,96.34Zm.43-9.23c-.23,0-.35.18-.34.42s0,.26,0,.39v2.37a3.5,3.5,0,0,1-.43-4.44c.71-1.17.85-1.17,1.56,0a3.52,3.52,0,0,1-.42,4.49V87.54C32.77,87.28,32.65,87.1,32.4,87.11ZM68.79,81.2c-.35,0-.35.15-.34.41,0,1.9,0,3.79,0,5.69,0,.08,0,.17,0,.37a6,6,0,0,1-1.69-4.58,6.5,6.5,0,0,1,1.56-3.25c.5-.62.51-.62,1,0a6.37,6.37,0,0,1,1.59,3.57,6.2,6.2,0,0,1-1.72,4.27,3.57,3.57,0,0,1,.32-2.14c.3-.46.48-1,.75-1.47.16-.29,0-.31-.2-.4s-.32-.24-.44.06a3,3,0,0,1-.44.74c0-1,0-1.91,0-2.87C69.17,81.3,69.11,81.21,68.79,81.2ZM78.28,105a.1.1,0,0,0,.07.05h0A.1.1,0,0,1,78.28,105Zm.15.14-.07,0,.07,0Zm48.43.64a1,1,0,0,1,.42-.34A1,1,0,0,0,126.86,105.74Zm.51-18.56c-.15.1-.14.27-.14.43v2.75c-1.51-1.93-1.29-3.62.2-5.35.06-.08.1-.25.28-.05,1.39,1.58,1.86,3.42.23,5.36V87.59c0-.18,0-.35-.2-.45A.33.33,0,0,0,127.37,87.18Z"/><polygon class="cls-3" points="134.23 106.76 134.23 106.76 134.23 106.76 134.23 106.76"/><path class="cls-3" d="M108.75,53.93h8c.29,0,.7.11.71-.35s-.41-.33-.69-.37h-8c-.25,0-.4.12-.4.36A.35.35,0,0,0,108.75,53.93Z"/><path class="cls-3" d="M82.25,53.94h8.19c.23,0,.4-.1.41-.35s-.16-.35-.4-.36h-8a1.55,1.55,0,0,1-.22,0c-.26,0-.48.07-.48.36S82,53.94,82.25,53.94Z"/></svg>